{"accessors" : [{"bufferView" : 0, "byteOffset" : 0, "componentType" : 5123, "count" : 468, "type" : "SCALAR", "max" : [467], "min" : [0]}, {"bufferView" : 1, "byteOffset" : 0, "componentType" : 5126, "count" : 468, "type" : "VEC3", "max" : [1, 1, 1], "min" : [-1, -1, -1], "name" : "POSITION"}, {"bufferView" : 1, "byteOffset" : 12, "componentType" : 5126, "count" : 468, "type" : "VEC3", "max" : [0.9969215393066406, 0.9969215393066406, 1.0000044107437134], "min" : [-0.9969215393066406, -0.9969215393066406, -1.0000044107437134], "name" : "NORMAL"}], "asset" : {"generator" : "Aspose.3D 24.4.1", "version" : "2.0"}, "buffers" : [{"uri" : "data:application/octet-stream;base64,", "byteLength" : 12176}], "bufferViews" : [{"buffer" : 0, "byteOffset" : 0, "byteLength" : 936, "target" : 34963}, {"buffer" : 0, "byteOffset" : 940, "byteLength" : 11232, "byteStride" : 24, "target" : 34962}], "meshes" : [{"primitives" : [{"attributes" : {"POSITION" : 1, "NORMAL" : 2}, "indices" : 0, "mode" : 4}], "name" : "OpenSCAD_Model"}], "nodes" : [{"mesh" : 0, "name" : "OpenSCAD_Model"}], "scene" : 0, "scenes" : [{"nodes" : [0]}]}