{"accessors" : [{"bufferView" : 0, "byteOffset" : 0, "componentType" : 5123, "count" : 4788, "type" : "SCALAR", "max" : [4787], "min" : [0]}, {"bufferView" : 1, "byteOffset" : 0, "componentType" : 5126, "count" : 4788, "type" : "VEC3", "max" : [0.9969170093536377, 0.9969170093536377, 0.9969170093536377], "min" : [-0.9969170093536377, -0.9969170093536377, -0.9969170093536377], "name" : "POSITION"}, {"bufferView" : 1, "byteOffset" : 12, "componentType" : 5126, "count" : 4788, "type" : "VEC3", "max" : [0.996921956539154, 0.996921956539154, 1.0000044107437134], "min" : [-0.996921956539154, -0.996921956539154, -1.0000044107437134], "name" : "NORMAL"}], "asset" : {"generator" : "Aspose.3D 24.4.1", "version" : "2.0"}, "buffers" : [{"uri" : "data:application/octet-stream;base64,", "byteLength" : 124496}], "bufferViews" : [{"buffer" : 0, "byteOffset" : 0, "byteLength" : 9576, "target" : 34963}, {"buffer" : 0, "byteOffset" : 9580, "byteLength" : 114912, "byteStride" : 24, "target" : 34962}], "meshes" : [{"primitives" : [{"attributes" : {"POSITION" : 1, "NORMAL" : 2}, "indices" : 0, "mode" : 4}], "name" : "OpenSCAD_Model"}], "nodes" : [{"mesh" : 0, "name" : "OpenSCAD_Model"}], "scene" : 0, "scenes" : [{"nodes" : [0]}]}