solid OpenSCAD_Model
  facet normal 0 -0.780869 0.624695
    outer loop
      vertex 1 -7.5 -3
      vertex 1 -3.5 2
      vertex -1 -7.5 -3
    endloop
  endfacet
  facet normal -0.57735 0.57735 0.57735
    outer loop
      vertex -4 0.5 2
      vertex -2 0.5 4
      vertex -1 3.5 2
    endloop
  endfacet
  facet normal -0.57735 -0.57735 0.57735
    outer loop
      vertex -1 -1.5 4
      vertex -2 -0.5 4
      vertex -1 -3.5 2
    endloop
  endfacet
  facet normal -0.57735 0.57735 0.57735
    outer loop
      vertex -1 3.5 2
      vertex -2 0.5 4
      vertex -1 1.5 4
    endloop
  endfacet
  facet normal -0 0 -1
    outer loop
      vertex 1 7.5 -4
      vertex -8 0.5 -4
      vertex -1 7.5 -4
    endloop
  endfacet
  facet normal 0.615457 0.615457 0.492366
    outer loop
      vertex 1 7.5 -3
      vertex 4 0.5 2
      vertex 8 0.5 -3
    endloop
  endfacet
  facet normal 0 -1 0
    outer loop
      vertex -1 -7.5 -4
      vertex 1 -7.5 -4
      vertex -1 -7.5 -3
    endloop
  endfacet
  facet normal 0 0.780869 0.624695
    outer loop
      vertex -1 3.5 2
      vertex 1 7.5 -3
      vertex -1 7.5 -3
    endloop
  endfacet
  facet normal -0.707107 0 0.707107
    outer loop
      vertex -4 -0.5 2
      vertex -2 0.5 4
      vertex -4 0.5 2
    endloop
  endfacet
  facet normal -0.707107 0.707107 0
    outer loop
      vertex -1 7.5 -4
      vertex -8 0.5 -4
      vertex -1 7.5 -3
    endloop
  endfacet
  facet normal -0.615457 -0.615457 0.492366
    outer loop
      vertex -8 -0.5 -3
      vertex -1 -7.5 -3
      vertex -4 -0.5 2
    endloop
  endfacet
  facet normal 0 0 -1
    outer loop
      vertex 8 -0.5 -4
      vertex -8 0.5 -4
      vertex 8 0.5 -4
    endloop
  endfacet
  facet normal 0.615457 0.615457 0.492366
    outer loop
      vertex 1 3.5 2
      vertex 4 0.5 2
      vertex 1 7.5 -3
    endloop
  endfacet
  facet normal 0 0.780869 0.624695
    outer loop
      vertex 1 3.5 2
      vertex 1 7.5 -3
      vertex -1 3.5 2
    endloop
  endfacet
  facet normal 0.707107 0 0.707107
    outer loop
      vertex 4 0.5 2
      vertex 2 -0.5 4
      vertex 4 -0.5 2
    endloop
  endfacet
  facet normal 0.707107 0 0.707107
    outer loop
      vertex 2 0.5 4
      vertex 2 -0.5 4
      vertex 4 0.5 2
    endloop
  endfacet
  facet normal 0 1 0
    outer loop
      vertex 1 7.5 -3
      vertex 1 7.5 -4
      vertex -1 7.5 -3
    endloop
  endfacet
  facet normal 0 0 -1
    outer loop
      vertex -8 -0.5 -4
      vertex -8 0.5 -4
      vertex -1 -7.5 -4
    endloop
  endfacet
  facet normal 0 0 -1
    outer loop
      vertex 1 -7.5 -4
      vertex -8 0.5 -4
      vertex 8 -0.5 -4
    endloop
  endfacet
  facet normal -0.615457 0.615457 0.492366
    outer loop
      vertex -8 0.5 -3
      vertex -4 0.5 2
      vertex -1 7.5 -3
    endloop
  endfacet
  facet normal 0 0 -1
    outer loop
      vertex -1 -7.5 -4
      vertex -8 0.5 -4
      vertex 1 -7.5 -4
    endloop
  endfacet
  facet normal 0 -0.707107 0.707107
    outer loop
      vertex -1 -1.5 4
      vertex 1 -3.5 2
      vertex 1 -1.5 4
    endloop
  endfacet
  facet normal 0.780869 0 0.624695
    outer loop
      vertex 8 -0.5 -3
      vertex 4 0.5 2
      vertex 4 -0.5 2
    endloop
  endfacet
  facet normal 0.780869 0 0.624695
    outer loop
      vertex 8 0.5 -3
      vertex 4 0.5 2
      vertex 8 -0.5 -3
    endloop
  endfacet
  facet normal -0 0.707107 0.707107
    outer loop
      vertex -1 3.5 2
      vertex 1 1.5 4
      vertex 1 3.5 2
    endloop
  endfacet
  facet normal -0 0.707107 0.707107
    outer loop
      vertex -1 1.5 4
      vertex 1 1.5 4
      vertex -1 3.5 2
    endloop
  endfacet
  facet normal -0.57735 -0.57735 0.57735
    outer loop
      vertex -1 -3.5 2
      vertex -2 -0.5 4
      vertex -4 -0.5 2
    endloop
  endfacet
  facet normal -0.615457 -0.615457 0.492366
    outer loop
      vertex -4 -0.5 2
      vertex -1 -7.5 -3
      vertex -1 -3.5 2
    endloop
  endfacet
  facet normal 0.707107 0.707107 0
    outer loop
      vertex 8 0.5 -3
      vertex 8 0.5 -4
      vertex 1 7.5 -3
    endloop
  endfacet
  facet normal 0 1 0
    outer loop
      vertex -1 7.5 -3
      vertex 1 7.5 -4
      vertex -1 7.5 -4
    endloop
  endfacet
  facet normal -0.707107 0 0.707107
    outer loop
      vertex -2 -0.5 4
      vertex -2 0.5 4
      vertex -4 -0.5 2
    endloop
  endfacet
  facet normal -0.615457 0.615457 0.492366
    outer loop
      vertex -1 7.5 -3
      vertex -4 0.5 2
      vertex -1 3.5 2
    endloop
  endfacet
  facet normal 0.707107 -0.707107 0
    outer loop
      vertex 8 -0.5 -3
      vertex 1 -7.5 -4
      vertex 8 -0.5 -4
    endloop
  endfacet
  facet normal 0.707107 -0.707107 0
    outer loop
      vertex 1 -7.5 -3
      vertex 1 -7.5 -4
      vertex 8 -0.5 -3
    endloop
  endfacet
  facet normal -0.780869 0 0.624695
    outer loop
      vertex -4 0.5 2
      vertex -8 -0.5 -3
      vertex -4 -0.5 2
    endloop
  endfacet
  facet normal -0.780869 0 0.624695
    outer loop
      vertex -8 0.5 -3
      vertex -8 -0.5 -3
      vertex -4 0.5 2
    endloop
  endfacet
  facet normal 0.707107 0.707107 0
    outer loop
      vertex 1 7.5 -3
      vertex 8 0.5 -4
      vertex 1 7.5 -4
    endloop
  endfacet
  facet normal 0.57735 0.57735 0.57735
    outer loop
      vertex 1 1.5 4
      vertex 4 0.5 2
      vertex 1 3.5 2
    endloop
  endfacet
  facet normal 0.57735 0.57735 0.57735
    outer loop
      vertex 2 0.5 4
      vertex 4 0.5 2
      vertex 1 1.5 4
    endloop
  endfacet
  facet normal 0 0 1
    outer loop
      vertex 2 0.5 4
      vertex -2 0.5 4
      vertex 2 -0.5 4
    endloop
  endfacet
  facet normal 0.57735 -0.57735 0.57735
    outer loop
      vertex 2 -0.5 4
      vertex 1 -3.5 2
      vertex 4 -0.5 2
    endloop
  endfacet
  facet normal 0.57735 -0.57735 0.57735
    outer loop
      vertex 1 -1.5 4
      vertex 1 -3.5 2
      vertex 2 -0.5 4
    endloop
  endfacet
  facet normal 1 -0 0
    outer loop
      vertex 8 -0.5 -3
      vertex 8 0.5 -4
      vertex 8 0.5 -3
    endloop
  endfacet
  facet normal 1 0 0
    outer loop
      vertex 8 -0.5 -4
      vertex 8 0.5 -4
      vertex 8 -0.5 -3
    endloop
  endfacet
  facet normal 0 0 1
    outer loop
      vertex 1 -1.5 4
      vertex -2 0.5 4
      vertex -1 -1.5 4
    endloop
  endfacet
  facet normal 0 0 1
    outer loop
      vertex -1 -1.5 4
      vertex -2 0.5 4
      vertex -2 -0.5 4
    endloop
  endfacet
  facet normal 0 -1 0
    outer loop
      vertex -1 -7.5 -3
      vertex 1 -7.5 -4
      vertex 1 -7.5 -3
    endloop
  endfacet
  facet normal 0 -0.707107 0.707107
    outer loop
      vertex -1 -3.5 2
      vertex 1 -3.5 2
      vertex -1 -1.5 4
    endloop
  endfacet
  facet normal -1 0 0
    outer loop
      vertex -8 -0.5 -3
      vertex -8 0.5 -4
      vertex -8 -0.5 -4
    endloop
  endfacet
  facet normal -0.707107 -0.707107 -0
    outer loop
      vertex -1 -7.5 -3
      vertex -8 -0.5 -4
      vertex -1 -7.5 -4
    endloop
  endfacet
  facet normal -0.707107 -0.707107 -0
    outer loop
      vertex -8 -0.5 -3
      vertex -8 -0.5 -4
      vertex -1 -7.5 -3
    endloop
  endfacet
  facet normal 0 0 -1
    outer loop
      vertex 8 0.5 -4
      vertex -8 0.5 -4
      vertex 1 7.5 -4
    endloop
  endfacet
  facet normal 0 0 1
    outer loop
      vertex 2 -0.5 4
      vertex -2 0.5 4
      vertex 1 -1.5 4
    endloop
  endfacet
  facet normal 0 -0.780869 0.624695
    outer loop
      vertex -1 -7.5 -3
      vertex 1 -3.5 2
      vertex -1 -3.5 2
    endloop
  endfacet
  facet normal 0.615457 -0.615457 0.492366
    outer loop
      vertex 8 -0.5 -3
      vertex 1 -3.5 2
      vertex 1 -7.5 -3
    endloop
  endfacet
  facet normal 0.615457 -0.615457 0.492366
    outer loop
      vertex 4 -0.5 2
      vertex 1 -3.5 2
      vertex 8 -0.5 -3
    endloop
  endfacet
  facet normal 0 0 1
    outer loop
      vertex 1 1.5 4
      vertex -2 0.5 4
      vertex 2 0.5 4
    endloop
  endfacet
  facet normal -0 0 1
    outer loop
      vertex -1 1.5 4
      vertex -2 0.5 4
      vertex 1 1.5 4
    endloop
  endfacet
  facet normal -1 -0 -0
    outer loop
      vertex -8 0.5 -3
      vertex -8 0.5 -4
      vertex -8 -0.5 -3
    endloop
  endfacet
  facet normal -0.707107 0.707107 0
    outer loop
      vertex -1 7.5 -3
      vertex -8 0.5 -4
      vertex -8 0.5 -3
    endloop
  endfacet
endsolid OpenSCAD_Model
