solid OpenSCAD_Model
  facet normal 0 0 -1
    outer loop
      vertex 1.35355 -6 -4.06066
      vertex 6.35355 1 -4.06066
      vertex 6.35355 -1 -4.06066
    endloop
  endfacet
  facet normal 0 0 -1
    outer loop
      vertex 1.35355 -6 -4.06066
      vertex 1.35355 6 -4.06066
      vertex 6.35355 1 -4.06066
    endloop
  endfacet
  facet normal 0 0 -1
    outer loop
      vertex -1.35355 -6 -4.06066
      vertex 1.35355 6 -4.06066
      vertex 1.35355 -6 -4.06066
    endloop
  endfacet
  facet normal 0 0 -1
    outer loop
      vertex -1.35355 -6 -4.06066
      vertex -1.35355 6 -4.06066
      vertex 1.35355 6 -4.06066
    endloop
  endfacet
  facet normal 0 0 -1
    outer loop
      vertex -6.35355 -1 -4.06066
      vertex -1.35355 6 -4.06066
      vertex -1.35355 -6 -4.06066
    endloop
  endfacet
  facet normal 0 0 -1
    outer loop
      vertex -1.35355 6 -4.06066
      vertex -6.35355 -1 -4.06066
      vertex -6.35355 1 -4.06066
    endloop
  endfacet
  facet normal 0 1 0
    outer loop
      vertex 1.35355 6 -4.06066
      vertex 1.35355 6 -0.939341
      vertex 2.06066 6 -1.64645
    endloop
  endfacet
  facet normal 0 1 0
    outer loop
      vertex 1.35355 6 -0.939341
      vertex 1.35355 6 -4.06066
      vertex -1.35355 6 -0.939341
    endloop
  endfacet
  facet normal 0 1 0
    outer loop
      vertex 1.35355 6 -4.06066
      vertex 2.06066 6 -1.64645
      vertex 2.06066 6 -3.35355
    endloop
  endfacet
  facet normal 0 1 0
    outer loop
      vertex -1.35355 6 -4.06066
      vertex -1.35355 6 -0.939341
      vertex 1.35355 6 -4.06066
    endloop
  endfacet
  facet normal 0 1 0
    outer loop
      vertex -1.35355 6 -0.939341
      vertex -1.35355 6 -4.06066
      vertex -2.06066 6 -1.64645
    endloop
  endfacet
  facet normal 0 1 0
    outer loop
      vertex -2.06066 6 -1.64645
      vertex -1.35355 6 -4.06066
      vertex -2.06066 6 -3.35355
    endloop
  endfacet
  facet normal -0.57735 0.57735 -0.57735
    outer loop
      vertex -6.35355 1 -4.06066
      vertex -2.06066 6 -3.35355
      vertex -1.35355 6 -4.06066
    endloop
  endfacet
  facet normal -0.57735 0.57735 -0.57735
    outer loop
      vertex -2.06066 6 -3.35355
      vertex -6.35355 1 -4.06066
      vertex -7.06066 1 -3.35355
    endloop
  endfacet
  facet normal 0.57735 0.57735 -0.57735
    outer loop
      vertex 6.35355 1 -4.06066
      vertex 2.06066 6 -3.35355
      vertex 7.06066 1 -3.35355
    endloop
  endfacet
  facet normal 0.57735 0.57735 -0.57735
    outer loop
      vertex 2.06066 6 -3.35355
      vertex 6.35355 1 -4.06066
      vertex 1.35355 6 -4.06066
    endloop
  endfacet
  facet normal 0.707107 -0.707107 0
    outer loop
      vertex 2.06066 -6 -1.64645
      vertex 7.06066 -1 -3.35355
      vertex 7.06066 -1 -1.64645
    endloop
  endfacet
  facet normal 0.707107 -0.707107 0
    outer loop
      vertex 7.06066 -1 -3.35355
      vertex 2.06066 -6 -1.64645
      vertex 2.06066 -6 -3.35355
    endloop
  endfacet
  facet normal -0.707107 0.707107 0
    outer loop
      vertex -2.06066 6 -3.35355
      vertex -4.88908 3.17158 -1.64645
      vertex -2.06066 6 -1.64645
    endloop
  endfacet
  facet normal -0.707107 0.707107 1.47159e-16
    outer loop
      vertex -7.06066 1 -3.35355
      vertex -4.88908 3.17158 -1.64645
      vertex -2.06066 6 -3.35355
    endloop
  endfacet
  facet normal -0.707107 0.707107 0
    outer loop
      vertex -4.88908 3.17158 -1.64645
      vertex -7.06066 1 -3.35355
      vertex -7.06066 1 -1.64645
    endloop
  endfacet
  facet normal 0.707107 0 -0.707107
    outer loop
      vertex 7.06066 -1 -3.35355
      vertex 6.35355 1 -4.06066
      vertex 7.06066 1 -3.35355
    endloop
  endfacet
  facet normal 0.707107 0 -0.707107
    outer loop
      vertex 6.35355 1 -4.06066
      vertex 7.06066 -1 -3.35355
      vertex 6.35355 -1 -4.06066
    endloop
  endfacet
  facet normal -0.57735 -0.57735 -0.57735
    outer loop
      vertex -2.06066 -6 -3.35355
      vertex -6.35355 -1 -4.06066
      vertex -1.35355 -6 -4.06066
    endloop
  endfacet
  facet normal -0.57735 -0.57735 -0.57735
    outer loop
      vertex -6.35355 -1 -4.06066
      vertex -2.06066 -6 -3.35355
      vertex -7.06066 -1 -3.35355
    endloop
  endfacet
  facet normal -0.707107 -0.707107 0
    outer loop
      vertex -2.06066 -6 -3.35355
      vertex -7.06066 -1 -1.64645
      vertex -7.06066 -1 -3.35355
    endloop
  endfacet
  facet normal -0.707107 -0.707107 0
    outer loop
      vertex -7.06066 -1 -1.64645
      vertex -2.06066 -6 -3.35355
      vertex -2.06066 -6 -1.64645
    endloop
  endfacet
  facet normal 0.707107 0.707107 0
    outer loop
      vertex 4.88908 3.17158 -1.64645
      vertex 2.06066 6 -3.35355
      vertex 2.06066 6 -1.64645
    endloop
  endfacet
  facet normal 0.707107 0.707107 -0
    outer loop
      vertex 7.06066 1 -3.35355
      vertex 4.88908 3.17158 -1.64645
      vertex 7.06066 1 -1.64645
    endloop
  endfacet
  facet normal 0.707107 0.707107 1.47159e-16
    outer loop
      vertex 4.88908 3.17158 -1.64645
      vertex 7.06066 1 -3.35355
      vertex 2.06066 6 -3.35355
    endloop
  endfacet
  facet normal 1 -0 0
    outer loop
      vertex 7.06066 -1 -1.64645
      vertex 7.06066 1 -3.35355
      vertex 7.06066 1 -1.64645
    endloop
  endfacet
  facet normal 1 0 0
    outer loop
      vertex 7.06066 1 -3.35355
      vertex 7.06066 -1 -1.64645
      vertex 7.06066 -1 -3.35355
    endloop
  endfacet
  facet normal -1 0 0
    outer loop
      vertex -7.06066 -1 -3.35355
      vertex -7.06066 1 -1.64645
      vertex -7.06066 1 -3.35355
    endloop
  endfacet
  facet normal -1 -0 0
    outer loop
      vertex -7.06066 1 -1.64645
      vertex -7.06066 -1 -3.35355
      vertex -7.06066 -1 -1.64645
    endloop
  endfacet
  facet normal 0.57735 -0.57735 -0.57735
    outer loop
      vertex 2.06066 -6 -3.35355
      vertex 6.35355 -1 -4.06066
      vertex 7.06066 -1 -3.35355
    endloop
  endfacet
  facet normal 0.57735 -0.57735 -0.57735
    outer loop
      vertex 6.35355 -1 -4.06066
      vertex 2.06066 -6 -3.35355
      vertex 1.35355 -6 -4.06066
    endloop
  endfacet
  facet normal 0 -1 0
    outer loop
      vertex -1.35355 -6 -4.06066
      vertex -1.35355 -6 -0.939341
      vertex -2.06066 -6 -1.64645
    endloop
  endfacet
  facet normal 0 -1 0
    outer loop
      vertex -1.35355 -6 -0.939341
      vertex -1.35355 -6 -4.06066
      vertex 1.35355 -6 -0.939341
    endloop
  endfacet
  facet normal 0 -1 0
    outer loop
      vertex -1.35355 -6 -4.06066
      vertex -2.06066 -6 -1.64645
      vertex -2.06066 -6 -3.35355
    endloop
  endfacet
  facet normal 0 -1 0
    outer loop
      vertex 1.35355 -6 -4.06066
      vertex 1.35355 -6 -0.939341
      vertex -1.35355 -6 -4.06066
    endloop
  endfacet
  facet normal 0 -1 0
    outer loop
      vertex 1.35355 -6 -0.939341
      vertex 1.35355 -6 -4.06066
      vertex 2.06066 -6 -1.64645
    endloop
  endfacet
  facet normal 0 -1 -0
    outer loop
      vertex 2.06066 -6 -1.64645
      vertex 1.35355 -6 -4.06066
      vertex 2.06066 -6 -3.35355
    endloop
  endfacet
  facet normal -0.707107 0 -0.707107
    outer loop
      vertex -6.35355 -1 -4.06066
      vertex -7.06066 1 -3.35355
      vertex -6.35355 1 -4.06066
    endloop
  endfacet
  facet normal -0.707107 -0 -0.707107
    outer loop
      vertex -7.06066 1 -3.35355
      vertex -6.35355 -1 -4.06066
      vertex -7.06066 -1 -3.35355
    endloop
  endfacet
  facet normal 0.529813 -0.662266 0.529813
    outer loop
      vertex 1.35355 -6 -0.939341
      vertex 2.06066 -2 3.35355
      vertex 1.35355 -2 4.06066
    endloop
  endfacet
  facet normal 0.529803 -0.66227 0.529818
    outer loop
      vertex 2.06066 -2 3.35355
      vertex 1.35355 -6 -0.939341
      vertex 1.70711 -5.51426 -0.685718
    endloop
  endfacet
  facet normal 0.52981 -0.662271 0.52981
    outer loop
      vertex 1.70711 -5.51426 -0.685718
      vertex 1.35355 -6 -0.939341
      vertex 2.06066 -6 -1.64645
    endloop
  endfacet
  facet normal 0.529816 -0.662265 0.529812
    outer loop
      vertex 2.06066 -2 3.35355
      vertex 1.70711 -5.51426 -0.685718
      vertex 2.06066 -5.25713 -0.717858
    endloop
  endfacet
  facet normal 0.615457 -0.615457 0.492366
    outer loop
      vertex 3.06066 -1 3.35355
      vertex 2.06066 -2 3.35355
      vertex 6.7435 -1 -1.25
    endloop
  endfacet
  facet normal -0.615457 0.615457 0.492366
    outer loop
      vertex -4.88908 3.17158 -1.64645
      vertex -6.8435 1 -1.375
      vertex -3.06066 1 3.35355
    endloop
  endfacet
  facet normal -0.615458 -0.615457 0.492366
    outer loop
      vertex -2.06066 -2 3.35355
      vertex -6.7435 -1 -1.25
      vertex -2.06066 -5.25713 -0.717858
    endloop
  endfacet
  facet normal 0.615458 -0.615457 0.492366
    outer loop
      vertex 2.06066 -2 3.35355
      vertex 2.06066 -5.25713 -0.717858
      vertex 6.7435 -1 -1.25
    endloop
  endfacet
  facet normal -0.780869 0 0.624695
    outer loop
      vertex -3.06066 1 3.35355
      vertex -6.8435 1 -1.375
      vertex -6.7435 0 -1.25
    endloop
  endfacet
  facet normal -0.707107 0 0.707107
    outer loop
      vertex -3.06066 -1 3.35355
      vertex -2.35355 1 4.06066
      vertex -3.06066 1 3.35355
    endloop
  endfacet
  facet normal -0.707107 0 0.707107
    outer loop
      vertex -2.35355 1 4.06066
      vertex -3.06066 -1 3.35355
      vertex -2.35355 -1 4.06066
    endloop
  endfacet
  facet normal 0.780869 2.65845e-16 0.624695
    outer loop
      vertex 6.8435 1 -1.375
      vertex 3.06066 1 3.35355
      vertex 6.7435 0 -1.25
    endloop
  endfacet
  facet normal -0.529816 -0.662265 0.529812
    outer loop
      vertex -2.06066 -2 3.35355
      vertex -2.06066 -5.25713 -0.717858
      vertex -1.70711 -5.51426 -0.685718
    endloop
  endfacet
  facet normal -0.615457 0.615457 0.492366
    outer loop
      vertex -4.88908 3.17158 -1.64645
      vertex -2.06066 2 3.35355
      vertex -2.06066 6 -1.64645
    endloop
  endfacet
  facet normal -0.615457 0.615457 0.492366
    outer loop
      vertex -2.06066 2 3.35355
      vertex -4.88908 3.17158 -1.64645
      vertex -3.06066 1 3.35355
    endloop
  endfacet
  facet normal 0.577353 0.577349 0.577349
    outer loop
      vertex 3.06066 1 3.35355
      vertex 1.70711 2 3.70711
      vertex 1.70711 1.64645 4.06066
    endloop
  endfacet
  facet normal 0.577353 0.577344 0.577353
    outer loop
      vertex 3.06066 1 3.35355
      vertex 1.70711 1.64645 4.06066
      vertex 2.35355 1 4.06066
    endloop
  endfacet
  facet normal 0.577356 0.577356 0.577339
    outer loop
      vertex 1.70711 2 3.70711
      vertex 3.06066 1 3.35355
      vertex 2.06066 2 3.35355
    endloop
  endfacet
  facet normal 0.615457 0.615457 0.492366
    outer loop
      vertex 2.06066 2 3.35355
      vertex 4.88908 3.17158 -1.64645
      vertex 2.06066 6 -1.64645
    endloop
  endfacet
  facet normal 0.615457 0.615457 0.492366
    outer loop
      vertex 4.88908 3.17158 -1.64645
      vertex 2.06066 2 3.35355
      vertex 3.06066 1 3.35355
    endloop
  endfacet
  facet normal -0.780869 0 0.624695
    outer loop
      vertex -7.06066 1 -1.64645
      vertex -7.06066 -1 -1.64645
      vertex -6.7435 0 -1.25
    endloop
  endfacet
  facet normal -0.780869 0 0.624695
    outer loop
      vertex -6.7435 -1 -1.25
      vertex -6.7435 0 -1.25
      vertex -7.06066 -1 -1.64645
    endloop
  endfacet
  facet normal -0.780869 0 0.624695
    outer loop
      vertex -3.06066 -1 3.35355
      vertex -6.7435 0 -1.25
      vertex -6.7435 -1 -1.25
    endloop
  endfacet
  facet normal -0.780869 0 0.624695
    outer loop
      vertex -6.7435 0 -1.25
      vertex -3.06066 -1 3.35355
      vertex -3.06066 1 3.35355
    endloop
  endfacet
  facet normal 0 0 1
    outer loop
      vertex 1.70711 1.64645 4.06066
      vertex 2.35355 -1 4.06066
      vertex 2.35355 1 4.06066
    endloop
  endfacet
  facet normal 0 0 1
    outer loop
      vertex -1.70711 1.64645 4.06066
      vertex 1.70711 1.64645 4.06066
      vertex 1.63639 1.71716 4.06066
    endloop
  endfacet
  facet normal 0 0 1
    outer loop
      vertex -1.63639 1.71716 4.06066
      vertex 1.63639 1.71716 4.06066
      vertex 1.35355 2 4.06066
    endloop
  endfacet
  facet normal 0 0 1
    outer loop
      vertex 1.70711 1.64645 4.06066
      vertex 1.35355 -2 4.06066
      vertex 2.35355 -1 4.06066
    endloop
  endfacet
  facet normal 0 0 1
    outer loop
      vertex -1.63639 1.71716 4.06066
      vertex 1.35355 2 4.06066
      vertex -1.35355 2 4.06066
    endloop
  endfacet
  facet normal 0 0 1
    outer loop
      vertex -1.70711 1.64645 4.06066
      vertex 1.63639 1.71716 4.06066
      vertex -1.63639 1.71716 4.06066
    endloop
  endfacet
  facet normal 0 0 1
    outer loop
      vertex 1.70711 1.64645 4.06066
      vertex -1.70711 1.64645 4.06066
      vertex 1.35355 -2 4.06066
    endloop
  endfacet
  facet normal 0 0 1
    outer loop
      vertex 1.35355 -2 4.06066
      vertex -1.70711 1.64645 4.06066
      vertex -1.35355 -2 4.06066
    endloop
  endfacet
  facet normal 0 0 1
    outer loop
      vertex -2.35355 -1 4.06066
      vertex -1.70711 1.64645 4.06066
      vertex -2.35355 1 4.06066
    endloop
  endfacet
  facet normal 0 0 1
    outer loop
      vertex -1.70711 1.64645 4.06066
      vertex -2.35355 -1 4.06066
      vertex -1.35355 -2 4.06066
    endloop
  endfacet
  facet normal 0.780869 0 0.624695
    outer loop
      vertex 3.06066 1 3.35355
      vertex 3.06066 -1 3.35355
      vertex 6.7435 0 -1.25
    endloop
  endfacet
  facet normal 0.780869 -0 0.624695
    outer loop
      vertex 6.7435 -1 -1.25
      vertex 6.7435 0 -1.25
      vertex 3.06066 -1 3.35355
    endloop
  endfacet
  facet normal 0.780869 0 0.624695
    outer loop
      vertex 7.06066 -1 -1.64645
      vertex 6.7435 0 -1.25
      vertex 6.7435 -1 -1.25
    endloop
  endfacet
  facet normal 0.780869 0 0.624695
    outer loop
      vertex 6.7435 0 -1.25
      vertex 7.06066 -1 -1.64645
      vertex 7.06066 1 -1.64645
    endloop
  endfacet
  facet normal -0.57735 -0.57735 0.57735
    outer loop
      vertex -2.06066 -2 3.35355
      vertex -2.35355 -1 4.06066
      vertex -3.06066 -1 3.35355
    endloop
  endfacet
  facet normal -0.57735 -0.57735 0.57735
    outer loop
      vertex -2.35355 -1 4.06066
      vertex -2.06066 -2 3.35355
      vertex -1.35355 -2 4.06066
    endloop
  endfacet
  facet normal 0.57735 -0.57735 0.57735
    outer loop
      vertex 1.35355 -2 4.06066
      vertex 3.06066 -1 3.35355
      vertex 2.35355 -1 4.06066
    endloop
  endfacet
  facet normal 0.57735 -0.57735 0.57735
    outer loop
      vertex 3.06066 -1 3.35355
      vertex 1.35355 -2 4.06066
      vertex 2.06066 -2 3.35355
    endloop
  endfacet
  facet normal -0.529803 -0.66227 0.529818
    outer loop
      vertex -1.35355 -6 -0.939341
      vertex -2.06066 -2 3.35355
      vertex -1.70711 -5.51426 -0.685718
    endloop
  endfacet
  facet normal -0.529813 -0.662266 0.529813
    outer loop
      vertex -2.06066 -2 3.35355
      vertex -1.35355 -6 -0.939341
      vertex -1.35355 -2 4.06066
    endloop
  endfacet
  facet normal -0.52981 -0.662271 0.52981
    outer loop
      vertex -1.35355 -6 -0.939341
      vertex -1.70711 -5.51426 -0.685718
      vertex -2.06066 -6 -1.64645
    endloop
  endfacet
  facet normal -0.615457 -0.615457 0.492366
    outer loop
      vertex -3.06066 -1 3.35355
      vertex -6.7435 -1 -1.25
      vertex -2.06066 -2 3.35355
    endloop
  endfacet
  facet normal -0.529802 0.662272 0.529817
    outer loop
      vertex -1.35355 6 -0.939341
      vertex -1.70711 2 3.70711
      vertex -1.35355 2 4.06066
    endloop
  endfacet
  facet normal -0.529823 0.662262 0.529808
    outer loop
      vertex -1.70711 2 3.70711
      vertex -1.35355 6 -0.939341
      vertex -2.06066 2 3.35355
    endloop
  endfacet
  facet normal -0.529812 0.662266 0.529813
    outer loop
      vertex -2.06066 2 3.35355
      vertex -1.35355 6 -0.939341
      vertex -2.06066 6 -1.64645
    endloop
  endfacet
  facet normal 0.707107 -0 0.707107
    outer loop
      vertex 2.35355 -1 4.06066
      vertex 3.06066 1 3.35355
      vertex 2.35355 1 4.06066
    endloop
  endfacet
  facet normal 0.707107 0 0.707107
    outer loop
      vertex 3.06066 1 3.35355
      vertex 2.35355 -1 4.06066
      vertex 3.06066 -1 3.35355
    endloop
  endfacet
  facet normal 0.529823 0.662262 0.529808
    outer loop
      vertex 1.35355 6 -0.939341
      vertex 1.70711 2 3.70711
      vertex 2.06066 2 3.35355
    endloop
  endfacet
  facet normal 0.529802 0.662272 0.529817
    outer loop
      vertex 1.70711 2 3.70711
      vertex 1.35355 6 -0.939341
      vertex 1.35355 2 4.06066
    endloop
  endfacet
  facet normal 0.529812 0.662266 0.529813
    outer loop
      vertex 1.35355 6 -0.939341
      vertex 2.06066 2 3.35355
      vertex 2.06066 6 -1.64645
    endloop
  endfacet
  facet normal 0.615457 0.615457 0.492366
    outer loop
      vertex 4.88908 3.17158 -1.64645
      vertex 3.06066 1 3.35355
      vertex 6.8435 1 -1.375
    endloop
  endfacet
  facet normal -0.577356 0.577356 0.577339
    outer loop
      vertex -3.06066 1 3.35355
      vertex -1.70711 2 3.70711
      vertex -2.06066 2 3.35355
    endloop
  endfacet
  facet normal -0.577353 0.577349 0.577349
    outer loop
      vertex -1.70711 2 3.70711
      vertex -3.06066 1 3.35355
      vertex -1.70711 1.64645 4.06066
    endloop
  endfacet
  facet normal -0.577353 0.577344 0.577353
    outer loop
      vertex -1.70711 1.64645 4.06066
      vertex -3.06066 1 3.35355
      vertex -2.35355 1 4.06066
    endloop
  endfacet
  facet normal -0.615457 0.615457 0.492366
    outer loop
      vertex -4.88908 3.17158 -1.64645
      vertex -7.06066 1 -1.64645
      vertex -6.8435 1 -1.375
    endloop
  endfacet
  facet normal -0.529816 -0.662266 0.52981
    outer loop
      vertex -2.06066 -5.25713 -0.717858
      vertex -2.06066 -6 -1.64645
      vertex -1.70711 -5.51426 -0.685718
    endloop
  endfacet
  facet normal -0.780869 5.28962e-16 0.624695
    outer loop
      vertex -6.8435 1 -1.375
      vertex -7.06066 1 -1.64645
      vertex -6.7435 0 -1.25
    endloop
  endfacet
  facet normal -0.615457 -0.615457 0.492366
    outer loop
      vertex -6.7435 -1 -1.25
      vertex -7.06066 -1 -1.64645
      vertex -2.06066 -6 -1.64645
    endloop
  endfacet
  facet normal -0.615458 -0.615458 0.492364
    outer loop
      vertex -2.06066 -5.25713 -0.717858
      vertex -6.7435 -1 -1.25
      vertex -2.06066 -6 -1.64645
    endloop
  endfacet
  facet normal 0.529816 -0.662266 0.52981
    outer loop
      vertex 2.06066 -5.25713 -0.717858
      vertex 1.70711 -5.51426 -0.685718
      vertex 2.06066 -6 -1.64645
    endloop
  endfacet
  facet normal 0.780869 5.28962e-16 0.624695
    outer loop
      vertex 6.8435 1 -1.375
      vertex 6.7435 0 -1.25
      vertex 7.06066 1 -1.64645
    endloop
  endfacet
  facet normal 0.615457 -0.615457 0.492366
    outer loop
      vertex 6.7435 -1 -1.25
      vertex 2.06066 -6 -1.64645
      vertex 7.06066 -1 -1.64645
    endloop
  endfacet
  facet normal 0.615457 0.615457 0.492366
    outer loop
      vertex 7.06066 1 -1.64645
      vertex 4.88908 3.17158 -1.64645
      vertex 6.8435 1 -1.375
    endloop
  endfacet
  facet normal 0.615458 -0.615458 0.492364
    outer loop
      vertex 2.06066 -5.25713 -0.717858
      vertex 2.06066 -6 -1.64645
      vertex 6.7435 -1 -1.25
    endloop
  endfacet
  facet normal 0 0.780869 0.624695
    outer loop
      vertex 1.35355 6 -0.939341
      vertex -1.35355 2 4.06066
      vertex 1.35355 2 4.06066
    endloop
  endfacet
  facet normal 0 0.780869 0.624695
    outer loop
      vertex -1.35355 2 4.06066
      vertex 1.35355 6 -0.939341
      vertex -1.35355 6 -0.939341
    endloop
  endfacet
  facet normal -0.577345 0.577345 0.577361
    outer loop
      vertex -1.35355 2 4.06066
      vertex -1.70711 2 3.70711
      vertex -1.63639 1.71716 4.06066
    endloop
  endfacet
  facet normal 0.577345 0.577345 0.577361
    outer loop
      vertex 1.70711 2 3.70711
      vertex 1.35355 2 4.06066
      vertex 1.63639 1.71716 4.06066
    endloop
  endfacet
  facet normal 0 -0.780869 0.624695
    outer loop
      vertex -1.35355 -6 -0.939341
      vertex 1.35355 -2 4.06066
      vertex -1.35355 -2 4.06066
    endloop
  endfacet
  facet normal 0 -0.780869 0.624695
    outer loop
      vertex 1.35355 -2 4.06066
      vertex -1.35355 -6 -0.939341
      vertex 1.35355 -6 -0.939341
    endloop
  endfacet
  facet normal -0.577296 0.577377 0.577377
    outer loop
      vertex -1.70711 2 3.70711
      vertex -1.70711 1.64645 4.06066
      vertex -1.63639 1.71716 4.06066
    endloop
  endfacet
  facet normal 0.577296 0.577377 0.577377
    outer loop
      vertex 1.70711 2 3.70711
      vertex 1.63639 1.71716 4.06066
      vertex 1.70711 1.64645 4.06066
    endloop
  endfacet
endsolid OpenSCAD_Model
