solid OpenSCAD_Model
  facet normal 0 1 0
    outer loop
      vertex -0.896447 7.66506 -0.189341
      vertex -0.189341 7.66506 -0.896447
      vertex -1.25 7.66506 -0.542893
    endloop
  endfacet
  facet normal 0 1 0
    outer loop
      vertex -1.25 7.66506 -0.542893
      vertex -2.31066 7.66506 -0.896447
      vertex -1.60355 7.66506 -0.189341
    endloop
  endfacet
  facet normal 0 1 0
    outer loop
      vertex -0.189341 7.66506 -0.896447
      vertex -2.31066 7.66506 -0.896447
      vertex -1.25 7.66506 -0.542893
    endloop
  endfacet
  facet normal 0 1 -0
    outer loop
      vertex -0.189341 7.66506 -4.10355
      vertex -2.31066 7.66506 -0.896447
      vertex -0.189341 7.66506 -0.896447
    endloop
  endfacet
  facet normal 0 1 0
    outer loop
      vertex -0.189341 7.66506 -4.10355
      vertex -2.31066 7.66506 -4.10355
      vertex -2.31066 7.66506 -0.896447
    endloop
  endfacet
  facet normal 0 1 0
    outer loop
      vertex -0.189341 7.66506 -4.10355
      vertex -1.25 7.66506 -4.45711
      vertex -2.31066 7.66506 -4.10355
    endloop
  endfacet
  facet normal -0 1 0
    outer loop
      vertex -1.25 7.66506 -4.45711
      vertex -0.189341 7.66506 -4.10355
      vertex -0.896447 7.66506 -4.81066
    endloop
  endfacet
  facet normal 0 1 0
    outer loop
      vertex -2.31066 7.66506 -4.10355
      vertex -1.25 7.66506 -4.45711
      vertex -1.60355 7.66506 -4.81066
    endloop
  endfacet
  facet normal 0.447217 -0.774595 0.447214
    outer loop
      vertex -1.19285 -7.42794 -0.189341
      vertex -1.60355 -7.66506 -0.189341
      vertex -1.25 -7.66506 -0.542893
    endloop
  endfacet
  facet normal 0.411003 -0.711863 0.569497
    outer loop
      vertex -1.60355 -3.66506 4.81066
      vertex -1.19285 -3.66506 4.51426
      vertex -1.15527 -3.40624 4.81066
    endloop
  endfacet
  facet normal 0.411001 -0.711867 0.569494
    outer loop
      vertex -1.60355 -7.66506 -0.189341
      vertex -1.19285 -3.66506 4.51426
      vertex -1.60355 -3.66506 4.81066
    endloop
  endfacet
  facet normal 0.411001 -0.711867 0.569494
    outer loop
      vertex -1.19285 -3.66506 4.51426
      vertex -1.60355 -7.66506 -0.189341
      vertex -1.19285 -7.42794 -0.189341
    endloop
  endfacet
  facet normal -0.529813 -0.662266 0.529813
    outer loop
      vertex -2.31066 -3.66506 4.10355
      vertex -1.60355 -7.66506 -0.189341
      vertex -1.60355 -3.66506 4.81066
    endloop
  endfacet
  facet normal -0.529811 -0.662267 0.529814
    outer loop
      vertex -1.60355 -7.66506 -0.189341
      vertex -2.31066 -3.66506 4.10355
      vertex -2.31066 -7.66506 -0.896447
    endloop
  endfacet
  facet normal 0 0 1
    outer loop
      vertex 2.85355 1.5 4.81066
      vertex 3.85355 -0.5 4.81066
      vertex 3.85355 0.5 4.81066
    endloop
  endfacet
  facet normal 0 0 1
    outer loop
      vertex 2.85355 1.5 4.81066
      vertex 2.85355 -1.5 4.81066
      vertex 3.85355 -0.5 4.81066
    endloop
  endfacet
  facet normal -0 0 1
    outer loop
      vertex -1.15527 3.40624 4.81066
      vertex 2.85355 1.5 4.81066
      vertex -0.896447 3.66506 4.81066
    endloop
  endfacet
  facet normal 0 0 1
    outer loop
      vertex 2.85355 1.5 4.81066
      vertex -1.15527 3.40624 4.81066
      vertex 2.85355 -1.5 4.81066
    endloop
  endfacet
  facet normal 0 0 1
    outer loop
      vertex -1.15527 -3.40624 4.81066
      vertex 2.85355 -1.5 4.81066
      vertex -1.15527 3.40624 4.81066
    endloop
  endfacet
  facet normal 0 0 1
    outer loop
      vertex 2.85355 -1.5 4.81066
      vertex -1.15527 -3.40624 4.81066
      vertex -0.896447 -3.66506 4.81066
    endloop
  endfacet
  facet normal 0 0 1
    outer loop
      vertex -2.60355 2.66506 4.81066
      vertex -1.15527 3.40624 4.81066
      vertex -1.60355 3.66506 4.81066
    endloop
  endfacet
  facet normal 0 0 1
    outer loop
      vertex -1.15527 3.40624 4.81066
      vertex -2.60355 2.66506 4.81066
      vertex -1.15527 -3.40624 4.81066
    endloop
  endfacet
  facet normal -0 0 1
    outer loop
      vertex -2.60355 -2.66506 4.81066
      vertex -1.15527 -3.40624 4.81066
      vertex -2.60355 2.66506 4.81066
    endloop
  endfacet
  facet normal 0 0 1
    outer loop
      vertex -1.15527 -3.40624 4.81066
      vertex -2.60355 -2.66506 4.81066
      vertex -1.60355 -3.66506 4.81066
    endloop
  endfacet
  facet normal 0.447217 0.774595 0.447214
    outer loop
      vertex -1.25 7.66506 -0.542893
      vertex -1.60355 7.66506 -0.189341
      vertex -1.19285 7.42794 -0.189341
    endloop
  endfacet
  facet normal 0.411003 0.711863 0.569497
    outer loop
      vertex -1.19285 3.66506 4.51426
      vertex -1.60355 3.66506 4.81066
      vertex -1.15527 3.40624 4.81066
    endloop
  endfacet
  facet normal 0.411001 0.711867 0.569494
    outer loop
      vertex -1.60355 7.66506 -0.189341
      vertex -1.19285 3.66506 4.51426
      vertex -1.19285 7.42794 -0.189341
    endloop
  endfacet
  facet normal 0.411001 0.711867 0.569494
    outer loop
      vertex -1.19285 3.66506 4.51426
      vertex -1.60355 7.66506 -0.189341
      vertex -1.60355 3.66506 4.81066
    endloop
  endfacet
  facet normal 0 -1 -0
    outer loop
      vertex -1.60355 -7.66506 -0.189341
      vertex -2.31066 -7.66506 -0.896447
      vertex -1.25 -7.66506 -0.542893
    endloop
  endfacet
  facet normal 0 -1 0
    outer loop
      vertex -1.25 -7.66506 -0.542893
      vertex -0.189341 -7.66506 -0.896447
      vertex -0.896447 -7.66506 -0.189341
    endloop
  endfacet
  facet normal 0 -1 0
    outer loop
      vertex -2.31066 -7.66506 -0.896447
      vertex -0.189341 -7.66506 -0.896447
      vertex -1.25 -7.66506 -0.542893
    endloop
  endfacet
  facet normal 0 -1 0
    outer loop
      vertex -2.31066 -7.66506 -4.10355
      vertex -0.189341 -7.66506 -0.896447
      vertex -2.31066 -7.66506 -0.896447
    endloop
  endfacet
  facet normal 0 -1 0
    outer loop
      vertex -2.31066 -7.66506 -4.10355
      vertex -0.189341 -7.66506 -4.10355
      vertex -0.189341 -7.66506 -0.896447
    endloop
  endfacet
  facet normal 0 -1 0
    outer loop
      vertex -2.31066 -7.66506 -4.10355
      vertex -1.25 -7.66506 -4.45711
      vertex -0.189341 -7.66506 -4.10355
    endloop
  endfacet
  facet normal -0 -1 0
    outer loop
      vertex -1.25 -7.66506 -4.45711
      vertex -2.31066 -7.66506 -4.10355
      vertex -1.60355 -7.66506 -4.81066
    endloop
  endfacet
  facet normal 0 -1 0
    outer loop
      vertex -0.189341 -7.66506 -4.10355
      vertex -1.25 -7.66506 -4.45711
      vertex -0.896447 -7.66506 -4.81066
    endloop
  endfacet
  facet normal -0.529813 0.662266 0.529813
    outer loop
      vertex -1.60355 7.66506 -0.189341
      vertex -2.31066 3.66506 4.10355
      vertex -1.60355 3.66506 4.81066
    endloop
  endfacet
  facet normal -0.529811 0.662267 0.529814
    outer loop
      vertex -2.31066 3.66506 4.10355
      vertex -1.60355 7.66506 -0.189341
      vertex -2.31066 7.66506 -0.896447
    endloop
  endfacet
  facet normal -0.707107 0 0.707107
    outer loop
      vertex -3.31066 -2.66506 4.10355
      vertex -2.60355 2.66506 4.81066
      vertex -3.31066 2.66506 4.10355
    endloop
  endfacet
  facet normal -0.707107 0 0.707107
    outer loop
      vertex -2.60355 2.66506 4.81066
      vertex -3.31066 -2.66506 4.10355
      vertex -2.60355 -2.66506 4.81066
    endloop
  endfacet
  facet normal -0.57735 0.57735 0.57735
    outer loop
      vertex -3.31066 2.66506 4.10355
      vertex -1.60355 3.66506 4.81066
      vertex -2.31066 3.66506 4.10355
    endloop
  endfacet
  facet normal -0.57735 0.57735 0.57735
    outer loop
      vertex -1.60355 3.66506 4.81066
      vertex -3.31066 2.66506 4.10355
      vertex -2.60355 2.66506 4.81066
    endloop
  endfacet
  facet normal -0.57735 -0.57735 0.57735
    outer loop
      vertex -2.31066 -3.66506 4.10355
      vertex -2.60355 -2.66506 4.81066
      vertex -3.31066 -2.66506 4.10355
    endloop
  endfacet
  facet normal -0.57735 -0.57735 0.57735
    outer loop
      vertex -2.60355 -2.66506 4.81066
      vertex -2.31066 -3.66506 4.10355
      vertex -1.60355 -3.66506 4.81066
    endloop
  endfacet
  facet normal 0.707107 0 -0.707107
    outer loop
      vertex 8.56066 -0.5 -4.10355
      vertex 7.85355 0.5 -4.81066
      vertex 8.56066 0.5 -4.10355
    endloop
  endfacet
  facet normal 0.707107 0 -0.707107
    outer loop
      vertex 7.85355 0.5 -4.81066
      vertex 8.56066 -0.5 -4.10355
      vertex 7.85355 -0.5 -4.81066
    endloop
  endfacet
  facet normal 0.499999 0.866026 -0
    outer loop
      vertex 3.56066 5.5 -4.10355
      vertex -0.189341 7.66506 -0.896447
      vertex 3.56066 5.5 -0.896447
    endloop
  endfacet
  facet normal 0.499999 0.866026 0
    outer loop
      vertex -0.189341 7.66506 -0.896447
      vertex 3.56066 5.5 -4.10355
      vertex -0.189341 7.66506 -4.10355
    endloop
  endfacet
  facet normal 0.447213 0.774597 -0.447213
    outer loop
      vertex 2.85355 5.5 -4.81066
      vertex -0.189341 7.66506 -4.10355
      vertex 3.56066 5.5 -4.10355
    endloop
  endfacet
  facet normal 0.447214 0.774598 -0.447211
    outer loop
      vertex -0.189341 7.66506 -4.10355
      vertex 2.85355 5.5 -4.81066
      vertex -0.896447 7.66506 -4.81066
    endloop
  endfacet
  facet normal -0.707107 0 -0.707107
    outer loop
      vertex -6.60355 -2.66506 -4.81066
      vertex -7.31066 2.66506 -4.10355
      vertex -6.60355 2.66506 -4.81066
    endloop
  endfacet
  facet normal -0.707107 -0 -0.707107
    outer loop
      vertex -7.31066 2.66506 -4.10355
      vertex -6.60355 -2.66506 -4.81066
      vertex -7.31066 -2.66506 -4.10355
    endloop
  endfacet
  facet normal -0.57735 -0.57735 -0.57735
    outer loop
      vertex -2.31066 -7.66506 -4.10355
      vertex -6.60355 -2.66506 -4.81066
      vertex -1.60355 -7.66506 -4.81066
    endloop
  endfacet
  facet normal -0.57735 -0.57735 -0.57735
    outer loop
      vertex -6.60355 -2.66506 -4.81066
      vertex -2.31066 -7.66506 -4.10355
      vertex -7.31066 -2.66506 -4.10355
    endloop
  endfacet
  facet normal -0.707107 -0.707107 0
    outer loop
      vertex -2.31066 -7.66506 -4.10355
      vertex -7.31066 -2.66506 -0.896447
      vertex -7.31066 -2.66506 -4.10355
    endloop
  endfacet
  facet normal -0.707107 -0.707107 0
    outer loop
      vertex -7.31066 -2.66506 -0.896447
      vertex -2.31066 -7.66506 -4.10355
      vertex -2.31066 -7.66506 -0.896447
    endloop
  endfacet
  facet normal 0.499999 -0.866026 0
    outer loop
      vertex -0.189341 -7.66506 -4.10355
      vertex 3.56066 -5.5 -0.896447
      vertex -0.189341 -7.66506 -0.896447
    endloop
  endfacet
  facet normal 0.499999 -0.866026 0
    outer loop
      vertex 3.56066 -5.5 -0.896447
      vertex -0.189341 -7.66506 -4.10355
      vertex 3.56066 -5.5 -4.10355
    endloop
  endfacet
  facet normal 0.707107 -0.707107 0
    outer loop
      vertex 3.56066 -5.5 -0.896447
      vertex 8.56066 -0.5 -4.10355
      vertex 8.56066 -0.5 -0.896447
    endloop
  endfacet
  facet normal 0.707107 -0.707107 0
    outer loop
      vertex 8.56066 -0.5 -4.10355
      vertex 3.56066 -5.5 -0.896447
      vertex 3.56066 -5.5 -4.10355
    endloop
  endfacet
  facet normal -0.57735 0.57735 -0.57735
    outer loop
      vertex -6.60355 2.66506 -4.81066
      vertex -2.31066 7.66506 -4.10355
      vertex -1.60355 7.66506 -4.81066
    endloop
  endfacet
  facet normal -0.57735 0.57735 -0.57735
    outer loop
      vertex -2.31066 7.66506 -4.10355
      vertex -6.60355 2.66506 -4.81066
      vertex -7.31066 2.66506 -4.10355
    endloop
  endfacet
  facet normal 0.707107 0.707107 0
    outer loop
      vertex 8.56066 0.5 -0.896447
      vertex 3.56066 5.5 -4.10355
      vertex 3.56066 5.5 -0.896447
    endloop
  endfacet
  facet normal 0.707107 0.707107 0
    outer loop
      vertex 3.56066 5.5 -4.10355
      vertex 8.56066 0.5 -0.896447
      vertex 8.56066 0.5 -4.10355
    endloop
  endfacet
  facet normal 0.57735 -0.57735 -0.57735
    outer loop
      vertex 3.56066 -5.5 -4.10355
      vertex 7.85355 -0.5 -4.81066
      vertex 8.56066 -0.5 -4.10355
    endloop
  endfacet
  facet normal 0.57735 -0.57735 -0.57735
    outer loop
      vertex 7.85355 -0.5 -4.81066
      vertex 3.56066 -5.5 -4.10355
      vertex 2.85355 -5.5 -4.81066
    endloop
  endfacet
  facet normal 0.447214 -0.774598 -0.447211
    outer loop
      vertex 2.85355 -5.5 -4.81066
      vertex -0.189341 -7.66506 -4.10355
      vertex -0.896447 -7.66506 -4.81066
    endloop
  endfacet
  facet normal 0.447213 -0.774597 -0.447213
    outer loop
      vertex -0.189341 -7.66506 -4.10355
      vertex 2.85355 -5.5 -4.81066
      vertex 3.56066 -5.5 -4.10355
    endloop
  endfacet
  facet normal 0.57735 0.57735 -0.57735
    outer loop
      vertex 7.85355 0.5 -4.81066
      vertex 3.56066 5.5 -4.10355
      vertex 8.56066 0.5 -4.10355
    endloop
  endfacet
  facet normal 0.57735 0.57735 -0.57735
    outer loop
      vertex 3.56066 5.5 -4.10355
      vertex 7.85355 0.5 -4.81066
      vertex 2.85355 5.5 -4.81066
    endloop
  endfacet
  facet normal -0.707107 0.707107 0
    outer loop
      vertex -7.31066 2.66506 -4.10355
      vertex -2.31066 7.66506 -0.896447
      vertex -2.31066 7.66506 -4.10355
    endloop
  endfacet
  facet normal -0.707107 0.707107 0
    outer loop
      vertex -2.31066 7.66506 -0.896447
      vertex -7.31066 2.66506 -4.10355
      vertex -7.31066 2.66506 -0.896447
    endloop
  endfacet
  facet normal -1 0 0
    outer loop
      vertex -7.31066 -2.66506 -4.10355
      vertex -7.31066 2.66506 -0.896447
      vertex -7.31066 2.66506 -4.10355
    endloop
  endfacet
  facet normal -1 -0 0
    outer loop
      vertex -7.31066 2.66506 -0.896447
      vertex -7.31066 -2.66506 -4.10355
      vertex -7.31066 -2.66506 -0.896447
    endloop
  endfacet
  facet normal 1 -0 0
    outer loop
      vertex 8.56066 -0.5 -0.896447
      vertex 8.56066 0.5 -4.10355
      vertex 8.56066 0.5 -0.896447
    endloop
  endfacet
  facet normal 1 0 0
    outer loop
      vertex 8.56066 0.5 -4.10355
      vertex 8.56066 -0.5 -0.896447
      vertex 8.56066 -0.5 -4.10355
    endloop
  endfacet
  facet normal 0 0 -1
    outer loop
      vertex 2.85355 -5.5 -4.81066
      vertex 7.85355 0.5 -4.81066
      vertex 7.85355 -0.5 -4.81066
    endloop
  endfacet
  facet normal 0 0 -1
    outer loop
      vertex 2.85355 -5.5 -4.81066
      vertex 2.85355 5.5 -4.81066
      vertex 7.85355 0.5 -4.81066
    endloop
  endfacet
  facet normal 0 0 -1
    outer loop
      vertex -1.15527 -7.40624 -4.81066
      vertex 2.85355 -5.5 -4.81066
      vertex -0.896447 -7.66506 -4.81066
    endloop
  endfacet
  facet normal 0 0 -1
    outer loop
      vertex -6.60355 -2.66506 -4.81066
      vertex 2.85355 -5.5 -4.81066
      vertex -1.15527 -7.40624 -4.81066
    endloop
  endfacet
  facet normal 0 0 -1
    outer loop
      vertex 2.85355 -5.5 -4.81066
      vertex -6.60355 -2.66506 -4.81066
      vertex 2.85355 5.5 -4.81066
    endloop
  endfacet
  facet normal 0 0 -1
    outer loop
      vertex 2.85355 5.5 -4.81066
      vertex -1.15527 7.40624 -4.81066
      vertex -0.896447 7.66506 -4.81066
    endloop
  endfacet
  facet normal 0 0 -1
    outer loop
      vertex -6.60355 -2.66506 -4.81066
      vertex -1.15527 -7.40624 -4.81066
      vertex -1.60355 -7.66506 -4.81066
    endloop
  endfacet
  facet normal 0 0 -1
    outer loop
      vertex -6.60355 2.66506 -4.81066
      vertex 2.85355 5.5 -4.81066
      vertex -6.60355 -2.66506 -4.81066
    endloop
  endfacet
  facet normal -0 0 -1
    outer loop
      vertex 2.85355 5.5 -4.81066
      vertex -6.60355 2.66506 -4.81066
      vertex -1.15527 7.40624 -4.81066
    endloop
  endfacet
  facet normal -0 0 -1
    outer loop
      vertex -1.15527 7.40624 -4.81066
      vertex -6.60355 2.66506 -4.81066
      vertex -1.60355 7.66506 -4.81066
    endloop
  endfacet
  facet normal -0.577346 -0.577353 -0.577351
    outer loop
      vertex -0.896447 -7.66506 -4.81066
      vertex -1.25 -7.66506 -4.45711
      vertex -1.15527 -7.40624 -4.81066
    endloop
  endfacet
  facet normal -0.577346 0.577353 -0.577351
    outer loop
      vertex -1.15527 7.40624 -4.81066
      vertex -1.25 7.66506 -4.45711
      vertex -0.896447 7.66506 -4.81066
    endloop
  endfacet
  facet normal -0.780869 0 0.624695
    outer loop
      vertex -7.31066 -2.66506 -0.896447
      vertex -3.31066 2.66506 4.10355
      vertex -7.31066 2.66506 -0.896447
    endloop
  endfacet
  facet normal -0.780869 0 0.624695
    outer loop
      vertex -3.31066 2.66506 4.10355
      vertex -7.31066 -2.66506 -0.896447
      vertex -3.31066 -2.66506 4.10355
    endloop
  endfacet
  facet normal 0.447213 -0.774597 0.447213
    outer loop
      vertex -0.189341 -7.66506 -0.896447
      vertex 2.85355 -5.5 -0.189341
      vertex -0.896447 -7.66506 -0.189341
    endloop
  endfacet
  facet normal 0.447213 -0.774596 0.447215
    outer loop
      vertex 2.85355 -5.5 -0.189341
      vertex -0.189341 -7.66506 -0.896447
      vertex 3.56066 -5.5 -0.896447
    endloop
  endfacet
  facet normal -0.615457 -0.615457 0.492366
    outer loop
      vertex -7.31066 -2.66506 -0.896447
      vertex -2.31066 -3.66506 4.10355
      vertex -3.31066 -2.66506 4.10355
    endloop
  endfacet
  facet normal -0.615457 -0.615457 0.492366
    outer loop
      vertex -2.31066 -3.66506 4.10355
      vertex -7.31066 -2.66506 -0.896447
      vertex -2.31066 -7.66506 -0.896447
    endloop
  endfacet
  facet normal 0.529813 -0.662266 0.529813
    outer loop
      vertex 2.85355 -5.5 -0.189341
      vertex 3.56066 -1.5 4.10355
      vertex 2.85355 -1.5 4.81066
    endloop
  endfacet
  facet normal 0.529811 -0.662267 0.529814
    outer loop
      vertex 3.56066 -1.5 4.10355
      vertex 2.85355 -5.5 -0.189341
      vertex 3.56066 -5.5 -0.896447
    endloop
  endfacet
  facet normal 0.57735 -0.57735 0.57735
    outer loop
      vertex 2.85355 -1.5 4.81066
      vertex 4.56066 -0.5 4.10355
      vertex 3.85355 -0.5 4.81066
    endloop
  endfacet
  facet normal 0.57735 -0.57735 0.57735
    outer loop
      vertex 4.56066 -0.5 4.10355
      vertex 2.85355 -1.5 4.81066
      vertex 3.56066 -1.5 4.10355
    endloop
  endfacet
  facet normal 0.447213 0.774596 0.447215
    outer loop
      vertex -0.189341 7.66506 -0.896447
      vertex 2.85355 5.5 -0.189341
      vertex 3.56066 5.5 -0.896447
    endloop
  endfacet
  facet normal 0.447213 0.774597 0.447213
    outer loop
      vertex 2.85355 5.5 -0.189341
      vertex -0.189341 7.66506 -0.896447
      vertex -0.896447 7.66506 -0.189341
    endloop
  endfacet
  facet normal 0.615457 -0.615457 0.492366
    outer loop
      vertex 3.56066 -1.5 4.10355
      vertex 8.56066 -0.5 -0.896447
      vertex 4.56066 -0.5 4.10355
    endloop
  endfacet
  facet normal 0.615457 -0.615457 0.492366
    outer loop
      vertex 8.56066 -0.5 -0.896447
      vertex 3.56066 -1.5 4.10355
      vertex 3.56066 -5.5 -0.896447
    endloop
  endfacet
  facet normal 0.615457 0.615457 0.492366
    outer loop
      vertex 8.56066 0.5 -0.896447
      vertex 3.56066 1.5 4.10355
      vertex 4.56066 0.5 4.10355
    endloop
  endfacet
  facet normal 0.615457 0.615457 0.492366
    outer loop
      vertex 3.56066 1.5 4.10355
      vertex 8.56066 0.5 -0.896447
      vertex 3.56066 5.5 -0.896447
    endloop
  endfacet
  facet normal 0.707107 -0 0.707107
    outer loop
      vertex 3.85355 -0.5 4.81066
      vertex 4.56066 0.5 4.10355
      vertex 3.85355 0.5 4.81066
    endloop
  endfacet
  facet normal 0.707107 0 0.707107
    outer loop
      vertex 4.56066 0.5 4.10355
      vertex 3.85355 -0.5 4.81066
      vertex 4.56066 -0.5 4.10355
    endloop
  endfacet
  facet normal 0.780869 -0 0.624695
    outer loop
      vertex 4.56066 -0.5 4.10355
      vertex 8.56066 0.5 -0.896447
      vertex 4.56066 0.5 4.10355
    endloop
  endfacet
  facet normal 0.780869 0 0.624695
    outer loop
      vertex 8.56066 0.5 -0.896447
      vertex 4.56066 -0.5 4.10355
      vertex 8.56066 -0.5 -0.896447
    endloop
  endfacet
  facet normal -0.615457 0.615457 0.492366
    outer loop
      vertex -7.31066 2.66506 -0.896447
      vertex -2.31066 3.66506 4.10355
      vertex -2.31066 7.66506 -0.896447
    endloop
  endfacet
  facet normal -0.615457 0.615457 0.492366
    outer loop
      vertex -2.31066 3.66506 4.10355
      vertex -7.31066 2.66506 -0.896447
      vertex -3.31066 2.66506 4.10355
    endloop
  endfacet
  facet normal 0.57735 0.57735 0.57735
    outer loop
      vertex 3.85355 0.5 4.81066
      vertex 3.56066 1.5 4.10355
      vertex 2.85355 1.5 4.81066
    endloop
  endfacet
  facet normal 0.57735 0.57735 0.57735
    outer loop
      vertex 3.56066 1.5 4.10355
      vertex 3.85355 0.5 4.81066
      vertex 4.56066 0.5 4.10355
    endloop
  endfacet
  facet normal 0.529813 0.662266 0.529813
    outer loop
      vertex 3.56066 1.5 4.10355
      vertex 2.85355 5.5 -0.189341
      vertex 2.85355 1.5 4.81066
    endloop
  endfacet
  facet normal 0.529811 0.662267 0.529814
    outer loop
      vertex 2.85355 5.5 -0.189341
      vertex 3.56066 1.5 4.10355
      vertex 3.56066 5.5 -0.896447
    endloop
  endfacet
  facet normal -0.529809 0.662268 0.529814
    outer loop
      vertex -0.896447 7.66506 -0.189341
      vertex -1.19285 3.66506 4.51426
      vertex -0.896447 3.66506 4.81066
    endloop
  endfacet
  facet normal -0.529809 0.662268 0.529814
    outer loop
      vertex -0.896447 7.66506 -0.189341
      vertex -1.19285 7.42794 -0.189341
      vertex -1.19285 3.66506 4.51426
    endloop
  endfacet
  facet normal -0.52981 0.662269 0.529812
    outer loop
      vertex -1.19285 7.42794 -0.189341
      vertex -0.896447 7.66506 -0.189341
      vertex -1.25 7.66506 -0.542893
    endloop
  endfacet
  facet normal 0.410997 -0.711869 0.569495
    outer loop
      vertex -0.896447 -7.66506 -0.189341
      vertex 2.85355 -1.5 4.81066
      vertex -0.896447 -3.66506 4.81066
    endloop
  endfacet
  facet normal 0.410997 -0.711869 0.569495
    outer loop
      vertex 2.85355 -1.5 4.81066
      vertex -0.896447 -7.66506 -0.189341
      vertex 2.85355 -5.5 -0.189341
    endloop
  endfacet
  facet normal -0.577346 0.577353 0.577352
    outer loop
      vertex -0.896447 3.66506 4.81066
      vertex -1.19285 3.66506 4.51426
      vertex -1.15527 3.40624 4.81066
    endloop
  endfacet
  facet normal 0.410997 0.711869 0.569495
    outer loop
      vertex 2.85355 5.5 -0.189341
      vertex -0.896447 3.66506 4.81066
      vertex 2.85355 1.5 4.81066
    endloop
  endfacet
  facet normal 0.410997 0.711869 0.569495
    outer loop
      vertex -0.896447 3.66506 4.81066
      vertex 2.85355 5.5 -0.189341
      vertex -0.896447 7.66506 -0.189341
    endloop
  endfacet
  facet normal -0.577346 -0.577353 0.577352
    outer loop
      vertex -1.15527 -3.40624 4.81066
      vertex -1.19285 -3.66506 4.51426
      vertex -0.896447 -3.66506 4.81066
    endloop
  endfacet
  facet normal -0.529809 -0.662268 0.529814
    outer loop
      vertex -0.896447 -7.66506 -0.189341
      vertex -1.19285 -3.66506 4.51426
      vertex -1.19285 -7.42794 -0.189341
    endloop
  endfacet
  facet normal -0.529809 -0.662268 0.529814
    outer loop
      vertex -1.19285 -3.66506 4.51426
      vertex -0.896447 -7.66506 -0.189341
      vertex -0.896447 -3.66506 4.81066
    endloop
  endfacet
  facet normal -0.52981 -0.662269 0.529812
    outer loop
      vertex -0.896447 -7.66506 -0.189341
      vertex -1.19285 -7.42794 -0.189341
      vertex -1.25 -7.66506 -0.542893
    endloop
  endfacet
  facet normal 0.447219 -0.77459 -0.447219
    outer loop
      vertex -1.25 -7.66506 -4.45711
      vertex -1.60355 -7.66506 -4.81066
      vertex -1.15527 -7.40624 -4.81066
    endloop
  endfacet
  facet normal 0.447219 0.77459 -0.447219
    outer loop
      vertex -1.15527 7.40624 -4.81066
      vertex -1.60355 7.66506 -4.81066
      vertex -1.25 7.66506 -4.45711
    endloop
  endfacet
endsolid OpenSCAD_Model
