solid OpenSCAD_Model
  facet normal 0 -1 0
    outer loop
      vertex -5 -5.41506 -2
      vertex -2.5 -5.41506 2
      vertex -5 -5.41506 2
    endloop
  endfacet
  facet normal 0 -1 -0
    outer loop
      vertex -2.5 -5.41506 2
      vertex -5 -5.41506 -2
      vertex -2.5 -5.41506 -2
    endloop
  endfacet
  facet normal -1 0 0
    outer loop
      vertex -5 -5.41506 -2
      vertex -5 5.41506 2
      vertex -5 5.41506 -2
    endloop
  endfacet
  facet normal -1 -0 0
    outer loop
      vertex -5 5.41506 2
      vertex -5 -5.41506 -2
      vertex -5 -5.41506 2
    endloop
  endfacet
  facet normal 0.499999 -0.866026 0
    outer loop
      vertex -2.5 -5.41506 -2
      vertex 0 -3.97169 2
      vertex -2.5 -5.41506 2
    endloop
  endfacet
  facet normal 0.499999 -0.866026 0
    outer loop
      vertex 0 -3.97169 2
      vertex -2.5 -5.41506 -2
      vertex 0 -3.97169 -2
    endloop
  endfacet
  facet normal 0 0 -1
    outer loop
      vertex 6.25 -3.25 -2
      vertex 3.21891 0 -2
      vertex 6.25 -1.75 -2
    endloop
  endfacet
  facet normal 0 -0 -1
    outer loop
      vertex 3.21891 0 -2
      vertex 6.25 -3.25 -2
      vertex 2.5 -5.41506 -2
    endloop
  endfacet
  facet normal 0 0 -1
    outer loop
      vertex 3.21891 0 -2
      vertex 6.25 3.25 -2
      vertex 6.25 1.75 -2
    endloop
  endfacet
  facet normal 0 0 -1
    outer loop
      vertex 3.21891 0 -2
      vertex 2.5 5.41506 -2
      vertex 6.25 3.25 -2
    endloop
  endfacet
  facet normal 0 0 -1
    outer loop
      vertex 0 -3.97169 -2
      vertex 3.21891 0 -2
      vertex 2.5 -5.41506 -2
    endloop
  endfacet
  facet normal 0 0 -1
    outer loop
      vertex 0 -3.97169 -2
      vertex 2.5 -5.41506 -2
      vertex 0 -5.41506 -2
    endloop
  endfacet
  facet normal 0 0 -1
    outer loop
      vertex 3.21891 0 -2
      vertex 0 -3.97169 -2
      vertex 0 -1.02831 -2
    endloop
  endfacet
  facet normal 0 0 -1
    outer loop
      vertex 0 1.02831 -2
      vertex 3.21891 0 -2
      vertex 0 -1.02831 -2
    endloop
  endfacet
  facet normal 0 0 -1
    outer loop
      vertex 0 3.97169 -2
      vertex 3.21891 0 -2
      vertex 0 1.02831 -2
    endloop
  endfacet
  facet normal 0 0 -1
    outer loop
      vertex 3.21891 0 -2
      vertex 0 3.97169 -2
      vertex 2.5 5.41506 -2
    endloop
  endfacet
  facet normal -0 0 -1
    outer loop
      vertex 2.5 5.41506 -2
      vertex 0 3.97169 -2
      vertex 0 5.41506 -2
    endloop
  endfacet
  facet normal 0 0 -1
    outer loop
      vertex -1.78109 0 -2
      vertex 0 3.97169 -2
      vertex 0 1.02831 -2
    endloop
  endfacet
  facet normal 0 0 -1
    outer loop
      vertex -1.78109 0 -2
      vertex -2.5 5.41506 -2
      vertex 0 3.97169 -2
    endloop
  endfacet
  facet normal 0 0 -1
    outer loop
      vertex -5 -5.41506 -2
      vertex -1.78109 0 -2
      vertex -2.5 -5.41506 -2
    endloop
  endfacet
  facet normal 0 0 -1
    outer loop
      vertex -5 5.41506 -2
      vertex -1.78109 0 -2
      vertex -5 -5.41506 -2
    endloop
  endfacet
  facet normal 0 0 -1
    outer loop
      vertex -1.78109 0 -2
      vertex -5 5.41506 -2
      vertex -2.5 5.41506 -2
    endloop
  endfacet
  facet normal 0 0 -1
    outer loop
      vertex 0 -3.97169 -2
      vertex -1.78109 0 -2
      vertex 0 -1.02831 -2
    endloop
  endfacet
  facet normal 0 -0 -1
    outer loop
      vertex -1.78109 0 -2
      vertex 0 -3.97169 -2
      vertex -2.5 -5.41506 -2
    endloop
  endfacet
  facet normal 0.499999 0.866026 -0
    outer loop
      vertex 0 -1.02831 -2
      vertex -1.78109 0 2
      vertex 0 -1.02831 2
    endloop
  endfacet
  facet normal 0.499999 0.866026 0
    outer loop
      vertex -1.78109 0 2
      vertex 0 -1.02831 -2
      vertex -1.78109 0 -2
    endloop
  endfacet
  facet normal 0 0 1
    outer loop
      vertex 6.25 3.25 2
      vertex 3.21891 0 2
      vertex 6.25 1.75 2
    endloop
  endfacet
  facet normal 0 -0 1
    outer loop
      vertex 3.21891 0 2
      vertex 6.25 3.25 2
      vertex 2.5 5.41506 2
    endloop
  endfacet
  facet normal 0 0 1
    outer loop
      vertex 3.21891 0 2
      vertex 6.25 -3.25 2
      vertex 6.25 -1.75 2
    endloop
  endfacet
  facet normal 0 0 1
    outer loop
      vertex 3.21891 0 2
      vertex 2.5 -5.41506 2
      vertex 6.25 -3.25 2
    endloop
  endfacet
  facet normal -0 0 1
    outer loop
      vertex 0 3.97169 2
      vertex 3.21891 0 2
      vertex 2.5 5.41506 2
    endloop
  endfacet
  facet normal 0 0 1
    outer loop
      vertex 0 3.97169 2
      vertex 2.5 5.41506 2
      vertex 0 5.41506 2
    endloop
  endfacet
  facet normal 0 0 1
    outer loop
      vertex 3.21891 0 2
      vertex 0 3.97169 2
      vertex 0 1.02831 2
    endloop
  endfacet
  facet normal 0 0 1
    outer loop
      vertex 0 -1.02831 2
      vertex 3.21891 0 2
      vertex 0 1.02831 2
    endloop
  endfacet
  facet normal 0 0 1
    outer loop
      vertex 0 -3.97169 2
      vertex 3.21891 0 2
      vertex 0 -1.02831 2
    endloop
  endfacet
  facet normal 0 0 1
    outer loop
      vertex 3.21891 0 2
      vertex 0 -3.97169 2
      vertex 2.5 -5.41506 2
    endloop
  endfacet
  facet normal 0 0 1
    outer loop
      vertex 2.5 -5.41506 2
      vertex 0 -3.97169 2
      vertex 0 -5.41506 2
    endloop
  endfacet
  facet normal 0 0 1
    outer loop
      vertex -1.78109 0 2
      vertex 0 -3.97169 2
      vertex 0 -1.02831 2
    endloop
  endfacet
  facet normal 0 0 1
    outer loop
      vertex -1.78109 0 2
      vertex -2.5 -5.41506 2
      vertex 0 -3.97169 2
    endloop
  endfacet
  facet normal -0 0 1
    outer loop
      vertex -5 5.41506 2
      vertex -1.78109 0 2
      vertex -2.5 5.41506 2
    endloop
  endfacet
  facet normal 0 0 1
    outer loop
      vertex -5 -5.41506 2
      vertex -1.78109 0 2
      vertex -5 5.41506 2
    endloop
  endfacet
  facet normal 0 0 1
    outer loop
      vertex -1.78109 0 2
      vertex -5 -5.41506 2
      vertex -2.5 -5.41506 2
    endloop
  endfacet
  facet normal 0 0 1
    outer loop
      vertex 0 3.97169 2
      vertex -1.78109 0 2
      vertex 0 1.02831 2
    endloop
  endfacet
  facet normal 0 -0 1
    outer loop
      vertex -1.78109 0 2
      vertex 0 3.97169 2
      vertex -2.5 5.41506 2
    endloop
  endfacet
  facet normal 0 -1 0
    outer loop
      vertex 0 -5.41506 -2
      vertex 2.5 -5.41506 2
      vertex 0 -5.41506 2
    endloop
  endfacet
  facet normal 0 -1 -0
    outer loop
      vertex 2.5 -5.41506 2
      vertex 0 -5.41506 -2
      vertex 2.5 -5.41506 -2
    endloop
  endfacet
  facet normal 1 -0 0
    outer loop
      vertex 6.25 -3.25 2
      vertex 6.25 -1.75 -2
      vertex 6.25 -1.75 2
    endloop
  endfacet
  facet normal 1 0 0
    outer loop
      vertex 6.25 -1.75 -2
      vertex 6.25 -3.25 2
      vertex 6.25 -3.25 -2
    endloop
  endfacet
  facet normal -1 0 0
    outer loop
      vertex 0 -5.41506 -2
      vertex 0 -3.97169 2
      vertex 0 -3.97169 -2
    endloop
  endfacet
  facet normal -1 -0 0
    outer loop
      vertex 0 -3.97169 2
      vertex 0 -5.41506 -2
      vertex 0 -5.41506 2
    endloop
  endfacet
  facet normal -1 0 0
    outer loop
      vertex 0 -1.02831 -2
      vertex 0 1.02831 2
      vertex 0 1.02831 -2
    endloop
  endfacet
  facet normal -1 -0 0
    outer loop
      vertex 0 1.02831 2
      vertex 0 -1.02831 -2
      vertex 0 -1.02831 2
    endloop
  endfacet
  facet normal -1 0 0
    outer loop
      vertex 0 3.97169 -2
      vertex 0 5.41506 2
      vertex 0 5.41506 -2
    endloop
  endfacet
  facet normal -1 -0 0
    outer loop
      vertex 0 5.41506 2
      vertex 0 3.97169 -2
      vertex 0 3.97169 2
    endloop
  endfacet
  facet normal 0.499999 -0.866026 0
    outer loop
      vertex 2.5 -5.41506 -2
      vertex 6.25 -3.25 2
      vertex 2.5 -5.41506 2
    endloop
  endfacet
  facet normal 0.499999 -0.866026 0
    outer loop
      vertex 6.25 -3.25 2
      vertex 2.5 -5.41506 -2
      vertex 6.25 -3.25 -2
    endloop
  endfacet
  facet normal 0.5 0.866025 -0
    outer loop
      vertex 6.25 -1.75 -2
      vertex 3.21891 0 2
      vertex 6.25 -1.75 2
    endloop
  endfacet
  facet normal 0.5 0.866025 0
    outer loop
      vertex 3.21891 0 2
      vertex 6.25 -1.75 -2
      vertex 3.21891 0 -2
    endloop
  endfacet
  facet normal 0 1 -0
    outer loop
      vertex 2.5 5.41506 -2
      vertex 0 5.41506 2
      vertex 2.5 5.41506 2
    endloop
  endfacet
  facet normal 0 1 0
    outer loop
      vertex 0 5.41506 2
      vertex 2.5 5.41506 -2
      vertex 0 5.41506 -2
    endloop
  endfacet
  facet normal 1 -0 0
    outer loop
      vertex 6.25 1.75 2
      vertex 6.25 3.25 -2
      vertex 6.25 3.25 2
    endloop
  endfacet
  facet normal 1 0 0
    outer loop
      vertex 6.25 3.25 -2
      vertex 6.25 1.75 2
      vertex 6.25 1.75 -2
    endloop
  endfacet
  facet normal 0.5 -0.866025 0
    outer loop
      vertex 3.21891 0 -2
      vertex 6.25 1.75 2
      vertex 3.21891 0 2
    endloop
  endfacet
  facet normal 0.5 -0.866025 0
    outer loop
      vertex 6.25 1.75 2
      vertex 3.21891 0 -2
      vertex 6.25 1.75 -2
    endloop
  endfacet
  facet normal 0.499999 0.866026 -0
    outer loop
      vertex 6.25 3.25 -2
      vertex 2.5 5.41506 2
      vertex 6.25 3.25 2
    endloop
  endfacet
  facet normal 0.499999 0.866026 0
    outer loop
      vertex 2.5 5.41506 2
      vertex 6.25 3.25 -2
      vertex 2.5 5.41506 -2
    endloop
  endfacet
  facet normal 0 1 -0
    outer loop
      vertex -2.5 5.41506 -2
      vertex -5 5.41506 2
      vertex -2.5 5.41506 2
    endloop
  endfacet
  facet normal 0 1 0
    outer loop
      vertex -5 5.41506 2
      vertex -2.5 5.41506 -2
      vertex -5 5.41506 -2
    endloop
  endfacet
  facet normal 0.499999 -0.866026 0
    outer loop
      vertex -1.78109 0 -2
      vertex 0 1.02831 2
      vertex -1.78109 0 2
    endloop
  endfacet
  facet normal 0.499999 -0.866026 0
    outer loop
      vertex 0 1.02831 2
      vertex -1.78109 0 -2
      vertex 0 1.02831 -2
    endloop
  endfacet
  facet normal 0.499999 0.866026 -0
    outer loop
      vertex 0 3.97169 -2
      vertex -2.5 5.41506 2
      vertex 0 3.97169 2
    endloop
  endfacet
  facet normal 0.499999 0.866026 0
    outer loop
      vertex -2.5 5.41506 2
      vertex 0 3.97169 -2
      vertex -2.5 5.41506 -2
    endloop
  endfacet
endsolid OpenSCAD_Model
