solid OpenSCAD_Model
  facet normal 0.44722 0.774591 0.447216
    outer loop
      vertex -1.25 4.66506 0.957107
      vertex -1.60355 4.66506 1.31066
      vertex -1.15527 4.40624 1.31066
    endloop
  endfacet
  facet normal 0 -1 -0
    outer loop
      vertex -1.60355 -4.66506 1.31066
      vertex -2.31066 -4.66506 0.603553
      vertex -1.25 -4.66506 0.957107
    endloop
  endfacet
  facet normal 0 -1 0
    outer loop
      vertex -1.25 -4.66506 0.957107
      vertex -0.189341 -4.66506 0.603553
      vertex -0.896447 -4.66506 1.31066
    endloop
  endfacet
  facet normal 0 -1 0
    outer loop
      vertex -2.31066 -4.66506 0.603553
      vertex -0.189341 -4.66506 0.603553
      vertex -1.25 -4.66506 0.957107
    endloop
  endfacet
  facet normal 0 -1 0
    outer loop
      vertex -2.31066 -4.66506 -2.60355
      vertex -0.189341 -4.66506 0.603553
      vertex -2.31066 -4.66506 0.603553
    endloop
  endfacet
  facet normal 0 -1 0
    outer loop
      vertex -2.31066 -4.66506 -2.60355
      vertex -0.189341 -4.66506 -2.60355
      vertex -0.189341 -4.66506 0.603553
    endloop
  endfacet
  facet normal 0 -1 0
    outer loop
      vertex -2.31066 -4.66506 -2.60355
      vertex -1.25 -4.66506 -2.95711
      vertex -0.189341 -4.66506 -2.60355
    endloop
  endfacet
  facet normal -0 -1 0
    outer loop
      vertex -1.25 -4.66506 -2.95711
      vertex -2.31066 -4.66506 -2.60355
      vertex -1.60355 -4.66506 -3.31066
    endloop
  endfacet
  facet normal 0 -1 0
    outer loop
      vertex -0.189341 -4.66506 -2.60355
      vertex -1.25 -4.66506 -2.95711
      vertex -0.896447 -4.66506 -3.31066
    endloop
  endfacet
  facet normal -0.707106 0 0.707107
    outer loop
      vertex -4.31066 -2.66506 0.603553
      vertex -1.60355 2.66506 3.31066
      vertex -4.31066 2.66506 0.603553
    endloop
  endfacet
  facet normal -0.707106 0 0.707107
    outer loop
      vertex -1.60355 2.66506 3.31066
      vertex -4.31066 -2.66506 0.603553
      vertex -1.60355 -2.66506 3.31066
    endloop
  endfacet
  facet normal 0.377965 -0.654665 0.654642
    outer loop
      vertex -1.60355 -2.66506 3.31066
      vertex -1.15527 -2.66506 3.05184
      vertex -0.896447 -2.25682 3.31066
    endloop
  endfacet
  facet normal 0.377971 -0.654652 0.654652
    outer loop
      vertex -1.60355 -4.66506 1.31066
      vertex -1.15527 -2.66506 3.05184
      vertex -1.60355 -2.66506 3.31066
    endloop
  endfacet
  facet normal 0.377971 -0.654652 0.654652
    outer loop
      vertex -1.15527 -2.66506 3.05184
      vertex -1.60355 -4.66506 1.31066
      vertex -1.15527 -4.40624 1.31066
    endloop
  endfacet
  facet normal 0 1 0
    outer loop
      vertex -0.896447 4.66506 1.31066
      vertex -0.189341 4.66506 0.603553
      vertex -1.25 4.66506 0.957107
    endloop
  endfacet
  facet normal 0 1 0
    outer loop
      vertex -1.25 4.66506 0.957107
      vertex -2.31066 4.66506 0.603553
      vertex -1.60355 4.66506 1.31066
    endloop
  endfacet
  facet normal 0 1 0
    outer loop
      vertex -0.189341 4.66506 0.603553
      vertex -2.31066 4.66506 0.603553
      vertex -1.25 4.66506 0.957107
    endloop
  endfacet
  facet normal 0 1 -0
    outer loop
      vertex -0.189341 4.66506 -2.60355
      vertex -2.31066 4.66506 0.603553
      vertex -0.189341 4.66506 0.603553
    endloop
  endfacet
  facet normal 0 1 0
    outer loop
      vertex -0.189341 4.66506 -2.60355
      vertex -2.31066 4.66506 -2.60355
      vertex -2.31066 4.66506 0.603553
    endloop
  endfacet
  facet normal 0 1 0
    outer loop
      vertex -0.189341 4.66506 -2.60355
      vertex -1.25 4.66506 -2.95711
      vertex -2.31066 4.66506 -2.60355
    endloop
  endfacet
  facet normal -0 1 0
    outer loop
      vertex -1.25 4.66506 -2.95711
      vertex -0.189341 4.66506 -2.60355
      vertex -0.896447 4.66506 -3.31066
    endloop
  endfacet
  facet normal 0 1 0
    outer loop
      vertex -2.31066 4.66506 -2.60355
      vertex -1.25 4.66506 -2.95711
      vertex -1.60355 4.66506 -3.31066
    endloop
  endfacet
  facet normal 0.377965 0.654665 0.654642
    outer loop
      vertex -1.15527 2.66506 3.05184
      vertex -1.60355 2.66506 3.31066
      vertex -0.896447 2.25682 3.31066
    endloop
  endfacet
  facet normal 0.377971 0.654652 0.654652
    outer loop
      vertex -1.60355 4.66506 1.31066
      vertex -1.15527 2.66506 3.05184
      vertex -1.15527 4.40624 1.31066
    endloop
  endfacet
  facet normal 0.377971 0.654652 0.654652
    outer loop
      vertex -1.15527 2.66506 3.05184
      vertex -1.60355 4.66506 1.31066
      vertex -1.60355 2.66506 3.31066
    endloop
  endfacet
  facet normal 0 0 1
    outer loop
      vertex -1.60355 2.66506 3.31066
      vertex -0.896447 -2.25682 3.31066
      vertex -0.896447 2.25682 3.31066
    endloop
  endfacet
  facet normal 0 0 1
    outer loop
      vertex -0.896447 -2.25682 3.31066
      vertex -1.60355 2.66506 3.31066
      vertex -1.60355 -2.66506 3.31066
    endloop
  endfacet
  facet normal -0 0 1
    outer loop
      vertex -0.896447 2.25682 3.31066
      vertex 2.85355 0.5 3.31066
      vertex -0.896447 2.66506 3.31066
    endloop
  endfacet
  facet normal 0 0 1
    outer loop
      vertex 2.85355 0.5 3.31066
      vertex -0.896447 2.25682 3.31066
      vertex 2.85355 -0.5 3.31066
    endloop
  endfacet
  facet normal 0 0 1
    outer loop
      vertex -0.896447 -2.25682 3.31066
      vertex 2.85355 -0.5 3.31066
      vertex -0.896447 2.25682 3.31066
    endloop
  endfacet
  facet normal 0 0 1
    outer loop
      vertex 2.85355 -0.5 3.31066
      vertex -0.896447 -2.25682 3.31066
      vertex -0.896447 -2.66506 3.31066
    endloop
  endfacet
  facet normal 0.44722 -0.774591 0.447216
    outer loop
      vertex -1.15527 -4.40624 1.31066
      vertex -1.60355 -4.66506 1.31066
      vertex -1.25 -4.66506 0.957107
    endloop
  endfacet
  facet normal -0.577349 -0.577349 0.577352
    outer loop
      vertex -1.60355 -4.66506 1.31066
      vertex -4.31066 -2.66506 0.603553
      vertex -2.31066 -4.66506 0.603553
    endloop
  endfacet
  facet normal -0.57735 -0.57735 0.57735
    outer loop
      vertex -4.31066 -2.66506 0.603553
      vertex -1.60355 -4.66506 1.31066
      vertex -1.60355 -2.66506 3.31066
    endloop
  endfacet
  facet normal -0.577349 0.577349 0.577352
    outer loop
      vertex -4.31066 2.66506 0.603553
      vertex -1.60355 4.66506 1.31066
      vertex -2.31066 4.66506 0.603553
    endloop
  endfacet
  facet normal -0.57735 0.57735 0.57735
    outer loop
      vertex -1.60355 4.66506 1.31066
      vertex -4.31066 2.66506 0.603553
      vertex -1.60355 2.66506 3.31066
    endloop
  endfacet
  facet normal -0.57735 -0.57735 -0.57735
    outer loop
      vertex -1.60355 -4.66506 -3.31066
      vertex -4.31066 -2.66506 -2.60355
      vertex -3.60355 -2.66506 -3.31066
    endloop
  endfacet
  facet normal -0.57735 -0.57735 -0.57735
    outer loop
      vertex -4.31066 -2.66506 -2.60355
      vertex -1.60355 -4.66506 -3.31066
      vertex -2.31066 -4.66506 -2.60355
    endloop
  endfacet
  facet normal -0.707107 0.707107 0
    outer loop
      vertex -4.31066 2.66506 -2.60355
      vertex -2.31066 4.66506 0.603553
      vertex -2.31066 4.66506 -2.60355
    endloop
  endfacet
  facet normal -0.707107 0.707107 0
    outer loop
      vertex -2.31066 4.66506 0.603553
      vertex -4.31066 2.66506 -2.60355
      vertex -4.31066 2.66506 0.603553
    endloop
  endfacet
  facet normal 0.57735 0.57735 -0.57735
    outer loop
      vertex 5.56066 0.5 -2.60355
      vertex 2.85355 2.5 -3.31066
      vertex 3.56066 2.5 -2.60355
    endloop
  endfacet
  facet normal 0.57735 0.57735 -0.57735
    outer loop
      vertex 2.85355 2.5 -3.31066
      vertex 5.56066 0.5 -2.60355
      vertex 4.85355 0.5 -3.31066
    endloop
  endfacet
  facet normal -0.707107 -0.707107 0
    outer loop
      vertex -2.31066 -4.66506 -2.60355
      vertex -4.31066 -2.66506 0.603553
      vertex -4.31066 -2.66506 -2.60355
    endloop
  endfacet
  facet normal -0.707107 -0.707107 0
    outer loop
      vertex -4.31066 -2.66506 0.603553
      vertex -2.31066 -4.66506 -2.60355
      vertex -2.31066 -4.66506 0.603553
    endloop
  endfacet
  facet normal 0.499999 -0.866026 0
    outer loop
      vertex -0.189341 -4.66506 -2.60355
      vertex 3.56066 -2.5 0.603553
      vertex -0.189341 -4.66506 0.603553
    endloop
  endfacet
  facet normal 0.499999 -0.866026 0
    outer loop
      vertex 3.56066 -2.5 0.603553
      vertex -0.189341 -4.66506 -2.60355
      vertex 3.56066 -2.5 -2.60355
    endloop
  endfacet
  facet normal 0.499999 0.866026 -0
    outer loop
      vertex 3.56066 2.5 -2.60355
      vertex -0.189341 4.66506 0.603553
      vertex 3.56066 2.5 0.603553
    endloop
  endfacet
  facet normal 0.499999 0.866026 0
    outer loop
      vertex -0.189341 4.66506 0.603553
      vertex 3.56066 2.5 -2.60355
      vertex -0.189341 4.66506 -2.60355
    endloop
  endfacet
  facet normal 0.707107 -0.707107 0
    outer loop
      vertex 3.56066 -2.5 0.603553
      vertex 5.56066 -0.5 -2.60355
      vertex 5.56066 -0.5 0.603553
    endloop
  endfacet
  facet normal 0.707107 -0.707107 0
    outer loop
      vertex 5.56066 -0.5 -2.60355
      vertex 3.56066 -2.5 0.603553
      vertex 3.56066 -2.5 -2.60355
    endloop
  endfacet
  facet normal 0.447213 0.774597 -0.447213
    outer loop
      vertex 2.85355 2.5 -3.31066
      vertex -0.189341 4.66506 -2.60355
      vertex 3.56066 2.5 -2.60355
    endloop
  endfacet
  facet normal 0.447214 0.774598 -0.447211
    outer loop
      vertex -0.189341 4.66506 -2.60355
      vertex 2.85355 2.5 -3.31066
      vertex -0.896447 4.66506 -3.31066
    endloop
  endfacet
  facet normal -0.57735 0.57735 -0.57735
    outer loop
      vertex -3.60355 2.66506 -3.31066
      vertex -2.31066 4.66506 -2.60355
      vertex -1.60355 4.66506 -3.31066
    endloop
  endfacet
  facet normal -0.57735 0.57735 -0.57735
    outer loop
      vertex -2.31066 4.66506 -2.60355
      vertex -3.60355 2.66506 -3.31066
      vertex -4.31066 2.66506 -2.60355
    endloop
  endfacet
  facet normal 0.57735 -0.57735 -0.57735
    outer loop
      vertex 3.56066 -2.5 -2.60355
      vertex 4.85355 -0.5 -3.31066
      vertex 5.56066 -0.5 -2.60355
    endloop
  endfacet
  facet normal 0.57735 -0.57735 -0.57735
    outer loop
      vertex 4.85355 -0.5 -3.31066
      vertex 3.56066 -2.5 -2.60355
      vertex 2.85355 -2.5 -3.31066
    endloop
  endfacet
  facet normal 1 -0 0
    outer loop
      vertex 5.56066 -0.5 0.603553
      vertex 5.56066 0.5 -2.60355
      vertex 5.56066 0.5 0.603553
    endloop
  endfacet
  facet normal 1 0 0
    outer loop
      vertex 5.56066 0.5 -2.60355
      vertex 5.56066 -0.5 0.603553
      vertex 5.56066 -0.5 -2.60355
    endloop
  endfacet
  facet normal 0.707107 0.707107 0
    outer loop
      vertex 5.56066 0.5 0.603553
      vertex 3.56066 2.5 -2.60355
      vertex 3.56066 2.5 0.603553
    endloop
  endfacet
  facet normal 0.707107 0.707107 0
    outer loop
      vertex 3.56066 2.5 -2.60355
      vertex 5.56066 0.5 0.603553
      vertex 5.56066 0.5 -2.60355
    endloop
  endfacet
  facet normal 0.447214 -0.774598 -0.447211
    outer loop
      vertex 2.85355 -2.5 -3.31066
      vertex -0.189341 -4.66506 -2.60355
      vertex -0.896447 -4.66506 -3.31066
    endloop
  endfacet
  facet normal 0.447213 -0.774597 -0.447213
    outer loop
      vertex -0.189341 -4.66506 -2.60355
      vertex 2.85355 -2.5 -3.31066
      vertex 3.56066 -2.5 -2.60355
    endloop
  endfacet
  facet normal -0.707107 0 -0.707107
    outer loop
      vertex -3.60355 -2.66506 -3.31066
      vertex -4.31066 2.66506 -2.60355
      vertex -3.60355 2.66506 -3.31066
    endloop
  endfacet
  facet normal -0.707107 -0 -0.707107
    outer loop
      vertex -4.31066 2.66506 -2.60355
      vertex -3.60355 -2.66506 -3.31066
      vertex -4.31066 -2.66506 -2.60355
    endloop
  endfacet
  facet normal -1 0 0
    outer loop
      vertex -4.31066 -2.66506 -2.60355
      vertex -4.31066 2.66506 0.603553
      vertex -4.31066 2.66506 -2.60355
    endloop
  endfacet
  facet normal -1 -0 0
    outer loop
      vertex -4.31066 2.66506 0.603553
      vertex -4.31066 -2.66506 -2.60355
      vertex -4.31066 -2.66506 0.603553
    endloop
  endfacet
  facet normal 0.707107 0 -0.707107
    outer loop
      vertex 5.56066 -0.5 -2.60355
      vertex 4.85355 0.5 -3.31066
      vertex 5.56066 0.5 -2.60355
    endloop
  endfacet
  facet normal 0.707107 0 -0.707107
    outer loop
      vertex 4.85355 0.5 -3.31066
      vertex 5.56066 -0.5 -2.60355
      vertex 4.85355 -0.5 -3.31066
    endloop
  endfacet
  facet normal -0.577346 -0.577353 -0.577351
    outer loop
      vertex -0.896447 -4.66506 -3.31066
      vertex -1.25 -4.66506 -2.95711
      vertex -1.15527 -4.40624 -3.31066
    endloop
  endfacet
  facet normal -0.577346 0.577353 -0.577351
    outer loop
      vertex -1.15527 4.40624 -3.31066
      vertex -1.25 4.66506 -2.95711
      vertex -0.896447 4.66506 -3.31066
    endloop
  endfacet
  facet normal 0 0 -1
    outer loop
      vertex 2.85355 -2.5 -3.31066
      vertex 4.85355 0.5 -3.31066
      vertex 4.85355 -0.5 -3.31066
    endloop
  endfacet
  facet normal 0 0 -1
    outer loop
      vertex 2.85355 -2.5 -3.31066
      vertex 2.85355 2.5 -3.31066
      vertex 4.85355 0.5 -3.31066
    endloop
  endfacet
  facet normal 0 0 -1
    outer loop
      vertex -1.15527 -4.40624 -3.31066
      vertex 2.85355 -2.5 -3.31066
      vertex -0.896447 -4.66506 -3.31066
    endloop
  endfacet
  facet normal 0 0 -1
    outer loop
      vertex -3.60355 -2.66506 -3.31066
      vertex 2.85355 -2.5 -3.31066
      vertex -1.15527 -4.40624 -3.31066
    endloop
  endfacet
  facet normal -0 0 -1
    outer loop
      vertex 2.85355 -2.5 -3.31066
      vertex -3.60355 -2.66506 -3.31066
      vertex 2.85355 2.5 -3.31066
    endloop
  endfacet
  facet normal 0 0 -1
    outer loop
      vertex 2.85355 2.5 -3.31066
      vertex -1.15527 4.40624 -3.31066
      vertex -0.896447 4.66506 -3.31066
    endloop
  endfacet
  facet normal 0 0 -1
    outer loop
      vertex -3.60355 -2.66506 -3.31066
      vertex -1.15527 -4.40624 -3.31066
      vertex -1.60355 -4.66506 -3.31066
    endloop
  endfacet
  facet normal 0 0 -1
    outer loop
      vertex -3.60355 2.66506 -3.31066
      vertex 2.85355 2.5 -3.31066
      vertex -3.60355 -2.66506 -3.31066
    endloop
  endfacet
  facet normal 0 0 -1
    outer loop
      vertex 2.85355 2.5 -3.31066
      vertex -3.60355 2.66506 -3.31066
      vertex -1.15527 4.40624 -3.31066
    endloop
  endfacet
  facet normal -0 0 -1
    outer loop
      vertex -1.15527 4.40624 -3.31066
      vertex -3.60355 2.66506 -3.31066
      vertex -1.60355 4.66506 -3.31066
    endloop
  endfacet
  facet normal 0.57735 -0.57735 0.57735
    outer loop
      vertex 2.85355 -2.5 1.31066
      vertex 5.56066 -0.5 0.603553
      vertex 2.85355 -0.5 3.31066
    endloop
  endfacet
  facet normal 0.577349 -0.577349 0.577352
    outer loop
      vertex 5.56066 -0.5 0.603553
      vertex 2.85355 -2.5 1.31066
      vertex 3.56066 -2.5 0.603553
    endloop
  endfacet
  facet normal 0.707106 -0 0.707107
    outer loop
      vertex 2.85355 -0.5 3.31066
      vertex 5.56066 0.5 0.603553
      vertex 2.85355 0.5 3.31066
    endloop
  endfacet
  facet normal 0.707106 0 0.707107
    outer loop
      vertex 5.56066 0.5 0.603553
      vertex 2.85355 -0.5 3.31066
      vertex 5.56066 -0.5 0.603553
    endloop
  endfacet
  facet normal 0.447213 0.774597 0.447215
    outer loop
      vertex -0.189341 4.66506 0.603553
      vertex 2.85355 2.5 1.31066
      vertex 3.56066 2.5 0.603553
    endloop
  endfacet
  facet normal 0.447214 0.774597 0.447213
    outer loop
      vertex 2.85355 2.5 1.31066
      vertex -0.189341 4.66506 0.603553
      vertex -0.896447 4.66506 1.31066
    endloop
  endfacet
  facet normal 0.57735 0.57735 0.57735
    outer loop
      vertex 5.56066 0.5 0.603553
      vertex 2.85355 2.5 1.31066
      vertex 2.85355 0.5 3.31066
    endloop
  endfacet
  facet normal 0.577349 0.577349 0.577352
    outer loop
      vertex 2.85355 2.5 1.31066
      vertex 5.56066 0.5 0.603553
      vertex 3.56066 2.5 0.603553
    endloop
  endfacet
  facet normal 0.447214 -0.774597 0.447213
    outer loop
      vertex -0.189341 -4.66506 0.603553
      vertex 2.85355 -2.5 1.31066
      vertex -0.896447 -4.66506 1.31066
    endloop
  endfacet
  facet normal 0.447213 -0.774597 0.447215
    outer loop
      vertex 2.85355 -2.5 1.31066
      vertex -0.189341 -4.66506 0.603553
      vertex 3.56066 -2.5 0.603553
    endloop
  endfacet
  facet normal -0.707103 0 0.707111
    outer loop
      vertex -0.896447 -2.25682 3.31066
      vertex -1.15527 -2.66506 3.05184
      vertex -0.896447 -2.66506 3.31066
    endloop
  endfacet
  facet normal -0.707103 0 0.707111
    outer loop
      vertex -0.896447 2.66506 3.31066
      vertex -1.15527 2.66506 3.05184
      vertex -0.896447 2.25682 3.31066
    endloop
  endfacet
  facet normal 0.377964 -0.654654 0.654654
    outer loop
      vertex -0.896447 -4.66506 1.31066
      vertex 2.85355 -0.5 3.31066
      vertex -0.896447 -2.66506 3.31066
    endloop
  endfacet
  facet normal 0.377964 -0.654654 0.654654
    outer loop
      vertex 2.85355 -0.5 3.31066
      vertex -0.896447 -4.66506 1.31066
      vertex 2.85355 -2.5 1.31066
    endloop
  endfacet
  facet normal -0.577346 -0.577352 0.577352
    outer loop
      vertex -1.15527 -4.40624 1.31066
      vertex -0.896447 -2.66506 3.31066
      vertex -1.15527 -2.66506 3.05184
    endloop
  endfacet
  facet normal -0.577346 -0.577352 0.577352
    outer loop
      vertex -1.15527 -4.40624 1.31066
      vertex -0.896447 -4.66506 1.31066
      vertex -0.896447 -2.66506 3.31066
    endloop
  endfacet
  facet normal -0.577348 -0.577355 0.577348
    outer loop
      vertex -0.896447 -4.66506 1.31066
      vertex -1.15527 -4.40624 1.31066
      vertex -1.25 -4.66506 0.957107
    endloop
  endfacet
  facet normal 0.377964 0.654654 0.654654
    outer loop
      vertex 2.85355 2.5 1.31066
      vertex -0.896447 2.66506 3.31066
      vertex 2.85355 0.5 3.31066
    endloop
  endfacet
  facet normal 0.377964 0.654654 0.654654
    outer loop
      vertex -0.896447 2.66506 3.31066
      vertex 2.85355 2.5 1.31066
      vertex -0.896447 4.66506 1.31066
    endloop
  endfacet
  facet normal -0.577348 0.577355 0.577348
    outer loop
      vertex -1.15527 4.40624 1.31066
      vertex -0.896447 4.66506 1.31066
      vertex -1.25 4.66506 0.957107
    endloop
  endfacet
  facet normal -0.577346 0.577352 0.577352
    outer loop
      vertex -1.15527 2.66506 3.05184
      vertex -0.896447 4.66506 1.31066
      vertex -1.15527 4.40624 1.31066
    endloop
  endfacet
  facet normal -0.577346 0.577352 0.577352
    outer loop
      vertex -0.896447 4.66506 1.31066
      vertex -1.15527 2.66506 3.05184
      vertex -0.896447 2.66506 3.31066
    endloop
  endfacet
  facet normal 0.447219 -0.77459 -0.447219
    outer loop
      vertex -1.25 -4.66506 -2.95711
      vertex -1.60355 -4.66506 -3.31066
      vertex -1.15527 -4.40624 -3.31066
    endloop
  endfacet
  facet normal 0.447219 0.77459 -0.447219
    outer loop
      vertex -1.15527 4.40624 -3.31066
      vertex -1.60355 4.66506 -3.31066
      vertex -1.25 4.66506 -2.95711
    endloop
  endfacet
endsolid OpenSCAD_Model
