solid OpenSCAD_Model
  facet normal -0.57735 0.57735 0.57735
    outer loop
      vertex -3.06066 1 3.35355
      vertex -1.35355 2 4.06066
      vertex -2.06066 2 3.35355
    endloop
  endfacet
  facet normal -0.57735 0.57735 0.57735
    outer loop
      vertex -1.35355 2 4.06066
      vertex -3.06066 1 3.35355
      vertex -2.35355 1 4.06066
    endloop
  endfacet
  facet normal 0 0 1
    outer loop
      vertex 1.35355 2 4.06066
      vertex 2.35355 -1 4.06066
      vertex 2.35355 1 4.06066
    endloop
  endfacet
  facet normal 0 0 1
    outer loop
      vertex 1.35355 2 4.06066
      vertex 1.35355 -2 4.06066
      vertex 2.35355 -1 4.06066
    endloop
  endfacet
  facet normal -0 0 1
    outer loop
      vertex -1.35355 2 4.06066
      vertex 1.35355 -2 4.06066
      vertex 1.35355 2 4.06066
    endloop
  endfacet
  facet normal 0 0 1
    outer loop
      vertex -1.35355 2 4.06066
      vertex -1.35355 -2 4.06066
      vertex 1.35355 -2 4.06066
    endloop
  endfacet
  facet normal -0 0 1
    outer loop
      vertex -2.35355 1 4.06066
      vertex -1.35355 -2 4.06066
      vertex -1.35355 2 4.06066
    endloop
  endfacet
  facet normal 0 0 1
    outer loop
      vertex -1.35355 -2 4.06066
      vertex -2.35355 1 4.06066
      vertex -2.35355 -1 4.06066
    endloop
  endfacet
  facet normal 0 -0.780869 0.624695
    outer loop
      vertex -1.35355 -6 -0.939341
      vertex 1.35355 -2 4.06066
      vertex -1.35355 -2 4.06066
    endloop
  endfacet
  facet normal 0 -0.780869 0.624695
    outer loop
      vertex 1.35355 -2 4.06066
      vertex -1.35355 -6 -0.939341
      vertex 1.35355 -6 -0.939341
    endloop
  endfacet
  facet normal 0 1 0
    outer loop
      vertex 1.35355 6 -4.06066
      vertex 1.35355 6 -0.939341
      vertex 2.06066 6 -1.64645
    endloop
  endfacet
  facet normal 0 1 0
    outer loop
      vertex 1.35355 6 -0.939341
      vertex 1.35355 6 -4.06066
      vertex -1.35355 6 -0.939341
    endloop
  endfacet
  facet normal 0 1 0
    outer loop
      vertex 1.35355 6 -4.06066
      vertex 2.06066 6 -1.64645
      vertex 2.06066 6 -3.35355
    endloop
  endfacet
  facet normal 0 1 0
    outer loop
      vertex -1.35355 6 -4.06066
      vertex -1.35355 6 -0.939341
      vertex 1.35355 6 -4.06066
    endloop
  endfacet
  facet normal 0 1 0
    outer loop
      vertex -1.35355 6 -0.939341
      vertex -1.35355 6 -4.06066
      vertex -2.06066 6 -1.64645
    endloop
  endfacet
  facet normal 0 1 0
    outer loop
      vertex -2.06066 6 -1.64645
      vertex -1.35355 6 -4.06066
      vertex -2.06066 6 -3.35355
    endloop
  endfacet
  facet normal 0 -1 0
    outer loop
      vertex -1.35355 -6 -4.06066
      vertex -1.35355 -6 -0.939341
      vertex -2.06066 -6 -1.64645
    endloop
  endfacet
  facet normal 0 -1 0
    outer loop
      vertex -1.35355 -6 -0.939341
      vertex -1.35355 -6 -4.06066
      vertex 1.35355 -6 -0.939341
    endloop
  endfacet
  facet normal 0 -1 0
    outer loop
      vertex -1.35355 -6 -4.06066
      vertex -2.06066 -6 -1.64645
      vertex -2.06066 -6 -3.35355
    endloop
  endfacet
  facet normal 0 -1 0
    outer loop
      vertex 1.35355 -6 -4.06066
      vertex 1.35355 -6 -0.939341
      vertex -1.35355 -6 -4.06066
    endloop
  endfacet
  facet normal 0 -1 0
    outer loop
      vertex 1.35355 -6 -0.939341
      vertex 1.35355 -6 -4.06066
      vertex 2.06066 -6 -1.64645
    endloop
  endfacet
  facet normal 0 -1 -0
    outer loop
      vertex 2.06066 -6 -1.64645
      vertex 1.35355 -6 -4.06066
      vertex 2.06066 -6 -3.35355
    endloop
  endfacet
  facet normal -0.57735 -0.57735 0.57735
    outer loop
      vertex -2.06066 -2 3.35355
      vertex -2.35355 -1 4.06066
      vertex -3.06066 -1 3.35355
    endloop
  endfacet
  facet normal -0.57735 -0.57735 0.57735
    outer loop
      vertex -2.35355 -1 4.06066
      vertex -2.06066 -2 3.35355
      vertex -1.35355 -2 4.06066
    endloop
  endfacet
  facet normal -0.707107 0 0.707107
    outer loop
      vertex -3.06066 -1 3.35355
      vertex -2.35355 1 4.06066
      vertex -3.06066 1 3.35355
    endloop
  endfacet
  facet normal -0.707107 0 0.707107
    outer loop
      vertex -2.35355 1 4.06066
      vertex -3.06066 -1 3.35355
      vertex -2.35355 -1 4.06066
    endloop
  endfacet
  facet normal -0.529813 0.662266 0.529813
    outer loop
      vertex -1.35355 6 -0.939341
      vertex -2.06066 2 3.35355
      vertex -1.35355 2 4.06066
    endloop
  endfacet
  facet normal -0.529812 0.662266 0.529813
    outer loop
      vertex -2.06066 2 3.35355
      vertex -1.35355 6 -0.939341
      vertex -2.06066 6 -1.64645
    endloop
  endfacet
  facet normal 0 0.780869 0.624695
    outer loop
      vertex 1.35355 6 -0.939341
      vertex -1.35355 2 4.06066
      vertex 1.35355 2 4.06066
    endloop
  endfacet
  facet normal 0 0.780869 0.624695
    outer loop
      vertex -1.35355 2 4.06066
      vertex 1.35355 6 -0.939341
      vertex -1.35355 6 -0.939341
    endloop
  endfacet
  facet normal -0.529813 -0.662266 0.529813
    outer loop
      vertex -2.06066 -2 3.35355
      vertex -1.35355 -6 -0.939341
      vertex -1.35355 -2 4.06066
    endloop
  endfacet
  facet normal -0.529812 -0.662266 0.529813
    outer loop
      vertex -1.35355 -6 -0.939341
      vertex -2.06066 -2 3.35355
      vertex -2.06066 -6 -1.64645
    endloop
  endfacet
  facet normal -0.57735 0.57735 -0.57735
    outer loop
      vertex -6.35355 1 -4.06066
      vertex -2.06066 6 -3.35355
      vertex -1.35355 6 -4.06066
    endloop
  endfacet
  facet normal -0.57735 0.57735 -0.57735
    outer loop
      vertex -2.06066 6 -3.35355
      vertex -6.35355 1 -4.06066
      vertex -7.06066 1 -3.35355
    endloop
  endfacet
  facet normal -0.707107 0 -0.707107
    outer loop
      vertex -6.35355 -1 -4.06066
      vertex -7.06066 1 -3.35355
      vertex -6.35355 1 -4.06066
    endloop
  endfacet
  facet normal -0.707107 -0 -0.707107
    outer loop
      vertex -7.06066 1 -3.35355
      vertex -6.35355 -1 -4.06066
      vertex -7.06066 -1 -3.35355
    endloop
  endfacet
  facet normal -1 0 0
    outer loop
      vertex -7.06066 -1 -3.35355
      vertex -7.06066 1 -1.64645
      vertex -7.06066 1 -3.35355
    endloop
  endfacet
  facet normal -1 -0 0
    outer loop
      vertex -7.06066 1 -1.64645
      vertex -7.06066 -1 -3.35355
      vertex -7.06066 -1 -1.64645
    endloop
  endfacet
  facet normal 0.707107 0 -0.707107
    outer loop
      vertex 7.06066 -1 -3.35355
      vertex 6.35355 1 -4.06066
      vertex 7.06066 1 -3.35355
    endloop
  endfacet
  facet normal 0.707107 0 -0.707107
    outer loop
      vertex 6.35355 1 -4.06066
      vertex 7.06066 -1 -3.35355
      vertex 6.35355 -1 -4.06066
    endloop
  endfacet
  facet normal 0.57735 0.57735 -0.57735
    outer loop
      vertex 6.35355 1 -4.06066
      vertex 2.06066 6 -3.35355
      vertex 7.06066 1 -3.35355
    endloop
  endfacet
  facet normal 0.57735 0.57735 -0.57735
    outer loop
      vertex 2.06066 6 -3.35355
      vertex 6.35355 1 -4.06066
      vertex 1.35355 6 -4.06066
    endloop
  endfacet
  facet normal 1 -0 0
    outer loop
      vertex 7.06066 -1 -1.64645
      vertex 7.06066 1 -3.35355
      vertex 7.06066 1 -1.64645
    endloop
  endfacet
  facet normal 1 0 0
    outer loop
      vertex 7.06066 1 -3.35355
      vertex 7.06066 -1 -1.64645
      vertex 7.06066 -1 -3.35355
    endloop
  endfacet
  facet normal 0.707107 0.707107 0
    outer loop
      vertex 7.06066 1 -1.64645
      vertex 2.06066 6 -3.35355
      vertex 2.06066 6 -1.64645
    endloop
  endfacet
  facet normal 0.707107 0.707107 0
    outer loop
      vertex 2.06066 6 -3.35355
      vertex 7.06066 1 -1.64645
      vertex 7.06066 1 -3.35355
    endloop
  endfacet
  facet normal -0.57735 -0.57735 -0.57735
    outer loop
      vertex -2.06066 -6 -3.35355
      vertex -6.35355 -1 -4.06066
      vertex -1.35355 -6 -4.06066
    endloop
  endfacet
  facet normal -0.57735 -0.57735 -0.57735
    outer loop
      vertex -6.35355 -1 -4.06066
      vertex -2.06066 -6 -3.35355
      vertex -7.06066 -1 -3.35355
    endloop
  endfacet
  facet normal 0.707107 -0.707107 0
    outer loop
      vertex 2.06066 -6 -1.64645
      vertex 7.06066 -1 -3.35355
      vertex 7.06066 -1 -1.64645
    endloop
  endfacet
  facet normal 0.707107 -0.707107 0
    outer loop
      vertex 7.06066 -1 -3.35355
      vertex 2.06066 -6 -1.64645
      vertex 2.06066 -6 -3.35355
    endloop
  endfacet
  facet normal -0.707107 0.707107 0
    outer loop
      vertex -7.06066 1 -3.35355
      vertex -2.06066 6 -1.64645
      vertex -2.06066 6 -3.35355
    endloop
  endfacet
  facet normal -0.707107 0.707107 0
    outer loop
      vertex -2.06066 6 -1.64645
      vertex -7.06066 1 -3.35355
      vertex -7.06066 1 -1.64645
    endloop
  endfacet
  facet normal -0.707107 -0.707107 0
    outer loop
      vertex -2.06066 -6 -3.35355
      vertex -7.06066 -1 -1.64645
      vertex -7.06066 -1 -3.35355
    endloop
  endfacet
  facet normal -0.707107 -0.707107 0
    outer loop
      vertex -7.06066 -1 -1.64645
      vertex -2.06066 -6 -3.35355
      vertex -2.06066 -6 -1.64645
    endloop
  endfacet
  facet normal 0.57735 -0.57735 -0.57735
    outer loop
      vertex 2.06066 -6 -3.35355
      vertex 6.35355 -1 -4.06066
      vertex 7.06066 -1 -3.35355
    endloop
  endfacet
  facet normal 0.57735 -0.57735 -0.57735
    outer loop
      vertex 6.35355 -1 -4.06066
      vertex 2.06066 -6 -3.35355
      vertex 1.35355 -6 -4.06066
    endloop
  endfacet
  facet normal 0 0 -1
    outer loop
      vertex 1.35355 -6 -4.06066
      vertex 6.35355 1 -4.06066
      vertex 6.35355 -1 -4.06066
    endloop
  endfacet
  facet normal 0 0 -1
    outer loop
      vertex 1.35355 -6 -4.06066
      vertex 1.35355 6 -4.06066
      vertex 6.35355 1 -4.06066
    endloop
  endfacet
  facet normal 0 0 -1
    outer loop
      vertex -1.35355 -6 -4.06066
      vertex 1.35355 6 -4.06066
      vertex 1.35355 -6 -4.06066
    endloop
  endfacet
  facet normal 0 0 -1
    outer loop
      vertex -1.35355 -6 -4.06066
      vertex -1.35355 6 -4.06066
      vertex 1.35355 6 -4.06066
    endloop
  endfacet
  facet normal 0 0 -1
    outer loop
      vertex -6.35355 -1 -4.06066
      vertex -1.35355 6 -4.06066
      vertex -1.35355 -6 -4.06066
    endloop
  endfacet
  facet normal 0 0 -1
    outer loop
      vertex -1.35355 6 -4.06066
      vertex -6.35355 -1 -4.06066
      vertex -6.35355 1 -4.06066
    endloop
  endfacet
  facet normal -0.615457 0.615457 0.492366
    outer loop
      vertex -7.06066 1 -1.64645
      vertex -2.06066 2 3.35355
      vertex -2.06066 6 -1.64645
    endloop
  endfacet
  facet normal -0.615457 0.615457 0.492366
    outer loop
      vertex -2.06066 2 3.35355
      vertex -7.06066 1 -1.64645
      vertex -3.06066 1 3.35355
    endloop
  endfacet
  facet normal 0.780869 -0 0.624695
    outer loop
      vertex 3.06066 -1 3.35355
      vertex 7.06066 1 -1.64645
      vertex 3.06066 1 3.35355
    endloop
  endfacet
  facet normal 0.780869 0 0.624695
    outer loop
      vertex 7.06066 1 -1.64645
      vertex 3.06066 -1 3.35355
      vertex 7.06066 -1 -1.64645
    endloop
  endfacet
  facet normal 0.529813 -0.662266 0.529813
    outer loop
      vertex 1.35355 -6 -0.939341
      vertex 2.06066 -2 3.35355
      vertex 1.35355 -2 4.06066
    endloop
  endfacet
  facet normal 0.529812 -0.662266 0.529813
    outer loop
      vertex 2.06066 -2 3.35355
      vertex 1.35355 -6 -0.939341
      vertex 2.06066 -6 -1.64645
    endloop
  endfacet
  facet normal 0.615457 0.615457 0.492366
    outer loop
      vertex 7.06066 1 -1.64645
      vertex 2.06066 2 3.35355
      vertex 3.06066 1 3.35355
    endloop
  endfacet
  facet normal 0.615457 0.615457 0.492366
    outer loop
      vertex 2.06066 2 3.35355
      vertex 7.06066 1 -1.64645
      vertex 2.06066 6 -1.64645
    endloop
  endfacet
  facet normal 0.57735 -0.57735 0.57735
    outer loop
      vertex 1.35355 -2 4.06066
      vertex 3.06066 -1 3.35355
      vertex 2.35355 -1 4.06066
    endloop
  endfacet
  facet normal 0.57735 -0.57735 0.57735
    outer loop
      vertex 3.06066 -1 3.35355
      vertex 1.35355 -2 4.06066
      vertex 2.06066 -2 3.35355
    endloop
  endfacet
  facet normal 0.707107 -0 0.707107
    outer loop
      vertex 2.35355 -1 4.06066
      vertex 3.06066 1 3.35355
      vertex 2.35355 1 4.06066
    endloop
  endfacet
  facet normal 0.707107 0 0.707107
    outer loop
      vertex 3.06066 1 3.35355
      vertex 2.35355 -1 4.06066
      vertex 3.06066 -1 3.35355
    endloop
  endfacet
  facet normal 0.529813 0.662266 0.529813
    outer loop
      vertex 2.06066 2 3.35355
      vertex 1.35355 6 -0.939341
      vertex 1.35355 2 4.06066
    endloop
  endfacet
  facet normal 0.529812 0.662266 0.529813
    outer loop
      vertex 1.35355 6 -0.939341
      vertex 2.06066 2 3.35355
      vertex 2.06066 6 -1.64645
    endloop
  endfacet
  facet normal -0.780869 0 0.624695
    outer loop
      vertex -7.06066 -1 -1.64645
      vertex -3.06066 1 3.35355
      vertex -7.06066 1 -1.64645
    endloop
  endfacet
  facet normal -0.780869 0 0.624695
    outer loop
      vertex -3.06066 1 3.35355
      vertex -7.06066 -1 -1.64645
      vertex -3.06066 -1 3.35355
    endloop
  endfacet
  facet normal 0.57735 0.57735 0.57735
    outer loop
      vertex 2.35355 1 4.06066
      vertex 2.06066 2 3.35355
      vertex 1.35355 2 4.06066
    endloop
  endfacet
  facet normal 0.57735 0.57735 0.57735
    outer loop
      vertex 2.06066 2 3.35355
      vertex 2.35355 1 4.06066
      vertex 3.06066 1 3.35355
    endloop
  endfacet
  facet normal 0.615457 -0.615457 0.492366
    outer loop
      vertex 2.06066 -2 3.35355
      vertex 7.06066 -1 -1.64645
      vertex 3.06066 -1 3.35355
    endloop
  endfacet
  facet normal 0.615457 -0.615457 0.492366
    outer loop
      vertex 7.06066 -1 -1.64645
      vertex 2.06066 -2 3.35355
      vertex 2.06066 -6 -1.64645
    endloop
  endfacet
  facet normal -0.615457 -0.615457 0.492366
    outer loop
      vertex -7.06066 -1 -1.64645
      vertex -2.06066 -2 3.35355
      vertex -3.06066 -1 3.35355
    endloop
  endfacet
  facet normal -0.615457 -0.615457 0.492366
    outer loop
      vertex -2.06066 -2 3.35355
      vertex -7.06066 -1 -1.64645
      vertex -2.06066 -6 -1.64645
    endloop
  endfacet
endsolid OpenSCAD_Model
