solid OpenSCAD_Model
  facet normal -0.707107 0 0.707107
    outer loop
      vertex -4.81066 -3.75 1.10355
      vertex -4.10355 -1.25 1.81066
      vertex -4.81066 -1.25 1.10355
    endloop
  endfacet
  facet normal -0.707107 0 0.707107
    outer loop
      vertex -4.10355 -1.25 1.81066
      vertex -4.81066 -3.75 1.10355
      vertex -4.10355 -3.75 1.81066
    endloop
  endfacet
  facet normal -0 0 1
    outer loop
      vertex -4.10355 -1.25 1.81066
      vertex -0.896447 -3.75 1.81066
      vertex -0.896447 -1.25 1.81066
    endloop
  endfacet
  facet normal 0 0 1
    outer loop
      vertex -0.896447 -3.75 1.81066
      vertex -4.10355 -1.25 1.81066
      vertex -4.10355 -3.75 1.81066
    endloop
  endfacet
  facet normal 0 1 0
    outer loop
      vertex -0.896447 -1.25 -1.81066
      vertex -0.896447 -1.25 1.81066
      vertex -0.189341 -1.25 1.10355
    endloop
  endfacet
  facet normal 0 1 0
    outer loop
      vertex -0.896447 -1.25 1.81066
      vertex -0.896447 -1.25 -1.81066
      vertex -4.10355 -1.25 1.81066
    endloop
  endfacet
  facet normal 0 1 0
    outer loop
      vertex -0.896447 -1.25 -1.81066
      vertex -0.189341 -1.25 1.10355
      vertex -0.189341 -1.25 -1.10355
    endloop
  endfacet
  facet normal 0 1 0
    outer loop
      vertex -4.10355 -1.25 -1.81066
      vertex -4.10355 -1.25 1.81066
      vertex -0.896447 -1.25 -1.81066
    endloop
  endfacet
  facet normal 0 1 0
    outer loop
      vertex -4.10355 -1.25 1.81066
      vertex -4.10355 -1.25 -1.81066
      vertex -4.81066 -1.25 1.10355
    endloop
  endfacet
  facet normal 0 1 0
    outer loop
      vertex -4.81066 -1.25 1.10355
      vertex -4.10355 -1.25 -1.81066
      vertex -4.81066 -1.25 -1.10355
    endloop
  endfacet
  facet normal 0 -1 0
    outer loop
      vertex -4.10355 -3.75 -1.81066
      vertex -4.10355 -3.75 1.81066
      vertex -4.81066 -3.75 1.10355
    endloop
  endfacet
  facet normal 0 -1 0
    outer loop
      vertex -4.10355 -3.75 1.81066
      vertex -4.10355 -3.75 -1.81066
      vertex -0.896447 -3.75 1.81066
    endloop
  endfacet
  facet normal 0 -1 0
    outer loop
      vertex -4.10355 -3.75 -1.81066
      vertex -4.81066 -3.75 1.10355
      vertex -4.81066 -3.75 -1.10355
    endloop
  endfacet
  facet normal 0 -1 0
    outer loop
      vertex -0.896447 -3.75 -1.81066
      vertex -0.896447 -3.75 1.81066
      vertex -4.10355 -3.75 -1.81066
    endloop
  endfacet
  facet normal 0 -1 0
    outer loop
      vertex -0.896447 -3.75 1.81066
      vertex -0.896447 -3.75 -1.81066
      vertex -0.189341 -3.75 1.10355
    endloop
  endfacet
  facet normal 0 -1 -0
    outer loop
      vertex -0.189341 -3.75 1.10355
      vertex -0.896447 -3.75 -1.81066
      vertex -0.189341 -3.75 -1.10355
    endloop
  endfacet
  facet normal -1 0 0
    outer loop
      vertex -4.81066 -3.75 -1.10355
      vertex -4.81066 -1.25 1.10355
      vertex -4.81066 -1.25 -1.10355
    endloop
  endfacet
  facet normal -1 -0 0
    outer loop
      vertex -4.81066 -1.25 1.10355
      vertex -4.81066 -3.75 -1.10355
      vertex -4.81066 -3.75 1.10355
    endloop
  endfacet
  facet normal 0.707109 0 -0.707105
    outer loop
      vertex -0.189341 -3.75 -1.10355
      vertex -0.896447 -1.25 -1.81066
      vertex -0.189341 -1.25 -1.10355
    endloop
  endfacet
  facet normal 0.707109 0 -0.707105
    outer loop
      vertex -0.896447 -1.25 -1.81066
      vertex -0.189341 -3.75 -1.10355
      vertex -0.896447 -3.75 -1.81066
    endloop
  endfacet
  facet normal -0.707107 0 -0.707107
    outer loop
      vertex -4.10355 -3.75 -1.81066
      vertex -4.81066 -1.25 -1.10355
      vertex -4.10355 -1.25 -1.81066
    endloop
  endfacet
  facet normal -0.707107 -0 -0.707107
    outer loop
      vertex -4.81066 -1.25 -1.10355
      vertex -4.10355 -3.75 -1.81066
      vertex -4.81066 -3.75 -1.10355
    endloop
  endfacet
  facet normal 1 -0 0
    outer loop
      vertex -0.189341 -3.75 1.10355
      vertex -0.189341 -1.25 -1.10355
      vertex -0.189341 -1.25 1.10355
    endloop
  endfacet
  facet normal 1 0 0
    outer loop
      vertex -0.189341 -1.25 -1.10355
      vertex -0.189341 -3.75 1.10355
      vertex -0.189341 -3.75 -1.10355
    endloop
  endfacet
  facet normal 0 0 -1
    outer loop
      vertex -4.10355 -3.75 -1.81066
      vertex -0.896447 -1.25 -1.81066
      vertex -0.896447 -3.75 -1.81066
    endloop
  endfacet
  facet normal -0 0 -1
    outer loop
      vertex -0.896447 -1.25 -1.81066
      vertex -4.10355 -3.75 -1.81066
      vertex -4.10355 -1.25 -1.81066
    endloop
  endfacet
  facet normal 0.707109 -0 0.707105
    outer loop
      vertex -0.896447 -3.75 1.81066
      vertex -0.189341 -1.25 1.10355
      vertex -0.896447 -1.25 1.81066
    endloop
  endfacet
  facet normal 0.707109 0 0.707105
    outer loop
      vertex -0.189341 -1.25 1.10355
      vertex -0.896447 -3.75 1.81066
      vertex -0.189341 -3.75 1.10355
    endloop
  endfacet
  facet normal -0.707109 0 0.707105
    outer loop
      vertex 0.189341 -3.75 1.10355
      vertex 0.896447 -1.25 1.81066
      vertex 0.189341 -1.25 1.10355
    endloop
  endfacet
  facet normal -0.707109 0 0.707105
    outer loop
      vertex 0.896447 -1.25 1.81066
      vertex 0.189341 -3.75 1.10355
      vertex 0.896447 -3.75 1.81066
    endloop
  endfacet
  facet normal -0 0 1
    outer loop
      vertex 0.896447 -1.25 1.81066
      vertex 4.10355 -3.75 1.81066
      vertex 4.10355 -1.25 1.81066
    endloop
  endfacet
  facet normal 0 0 1
    outer loop
      vertex 4.10355 -3.75 1.81066
      vertex 0.896447 -1.25 1.81066
      vertex 0.896447 -3.75 1.81066
    endloop
  endfacet
  facet normal 0 1 0
    outer loop
      vertex 4.10355 -1.25 -1.81066
      vertex 4.10355 -1.25 1.81066
      vertex 4.81066 -1.25 1.10355
    endloop
  endfacet
  facet normal 0 1 0
    outer loop
      vertex 4.10355 -1.25 1.81066
      vertex 4.10355 -1.25 -1.81066
      vertex 0.896447 -1.25 1.81066
    endloop
  endfacet
  facet normal 0 1 0
    outer loop
      vertex 4.10355 -1.25 -1.81066
      vertex 4.81066 -1.25 1.10355
      vertex 4.81066 -1.25 -1.10355
    endloop
  endfacet
  facet normal 0 1 0
    outer loop
      vertex 0.896447 -1.25 -1.81066
      vertex 0.896447 -1.25 1.81066
      vertex 4.10355 -1.25 -1.81066
    endloop
  endfacet
  facet normal 0 1 0
    outer loop
      vertex 0.896447 -1.25 1.81066
      vertex 0.896447 -1.25 -1.81066
      vertex 0.189341 -1.25 1.10355
    endloop
  endfacet
  facet normal 0 1 0
    outer loop
      vertex 0.189341 -1.25 1.10355
      vertex 0.896447 -1.25 -1.81066
      vertex 0.189341 -1.25 -1.10355
    endloop
  endfacet
  facet normal 0 -1 0
    outer loop
      vertex 0.896447 -3.75 -1.81066
      vertex 0.896447 -3.75 1.81066
      vertex 0.189341 -3.75 1.10355
    endloop
  endfacet
  facet normal 0 -1 0
    outer loop
      vertex 0.896447 -3.75 1.81066
      vertex 0.896447 -3.75 -1.81066
      vertex 4.10355 -3.75 1.81066
    endloop
  endfacet
  facet normal 0 -1 0
    outer loop
      vertex 0.896447 -3.75 -1.81066
      vertex 0.189341 -3.75 1.10355
      vertex 0.189341 -3.75 -1.10355
    endloop
  endfacet
  facet normal 0 -1 0
    outer loop
      vertex 4.10355 -3.75 -1.81066
      vertex 4.10355 -3.75 1.81066
      vertex 0.896447 -3.75 -1.81066
    endloop
  endfacet
  facet normal 0 -1 0
    outer loop
      vertex 4.10355 -3.75 1.81066
      vertex 4.10355 -3.75 -1.81066
      vertex 4.81066 -3.75 1.10355
    endloop
  endfacet
  facet normal 0 -1 -0
    outer loop
      vertex 4.81066 -3.75 1.10355
      vertex 4.10355 -3.75 -1.81066
      vertex 4.81066 -3.75 -1.10355
    endloop
  endfacet
  facet normal -0.707109 0 -0.707105
    outer loop
      vertex 0.896447 -3.75 -1.81066
      vertex 0.189341 -1.25 -1.10355
      vertex 0.896447 -1.25 -1.81066
    endloop
  endfacet
  facet normal -0.707109 -0 -0.707105
    outer loop
      vertex 0.189341 -1.25 -1.10355
      vertex 0.896447 -3.75 -1.81066
      vertex 0.189341 -3.75 -1.10355
    endloop
  endfacet
  facet normal 0.707107 0 -0.707107
    outer loop
      vertex 4.81066 -3.75 -1.10355
      vertex 4.10355 -1.25 -1.81066
      vertex 4.81066 -1.25 -1.10355
    endloop
  endfacet
  facet normal 0.707107 0 -0.707107
    outer loop
      vertex 4.10355 -1.25 -1.81066
      vertex 4.81066 -3.75 -1.10355
      vertex 4.10355 -3.75 -1.81066
    endloop
  endfacet
  facet normal 1 -0 0
    outer loop
      vertex 4.81066 -3.75 1.10355
      vertex 4.81066 -1.25 -1.10355
      vertex 4.81066 -1.25 1.10355
    endloop
  endfacet
  facet normal 1 0 0
    outer loop
      vertex 4.81066 -1.25 -1.10355
      vertex 4.81066 -3.75 1.10355
      vertex 4.81066 -3.75 -1.10355
    endloop
  endfacet
  facet normal -1 0 0
    outer loop
      vertex 0.189341 -3.75 -1.10355
      vertex 0.189341 -1.25 1.10355
      vertex 0.189341 -1.25 -1.10355
    endloop
  endfacet
  facet normal -1 -0 0
    outer loop
      vertex 0.189341 -1.25 1.10355
      vertex 0.189341 -3.75 -1.10355
      vertex 0.189341 -3.75 1.10355
    endloop
  endfacet
  facet normal 0 0 -1
    outer loop
      vertex 0.896447 -3.75 -1.81066
      vertex 4.10355 -1.25 -1.81066
      vertex 4.10355 -3.75 -1.81066
    endloop
  endfacet
  facet normal -0 0 -1
    outer loop
      vertex 4.10355 -1.25 -1.81066
      vertex 0.896447 -3.75 -1.81066
      vertex 0.896447 -1.25 -1.81066
    endloop
  endfacet
  facet normal 0.707107 -0 0.707107
    outer loop
      vertex 4.10355 -3.75 1.81066
      vertex 4.81066 -1.25 1.10355
      vertex 4.10355 -1.25 1.81066
    endloop
  endfacet
  facet normal 0.707107 0 0.707107
    outer loop
      vertex 4.81066 -1.25 1.10355
      vertex 4.10355 -3.75 1.81066
      vertex 4.81066 -3.75 1.10355
    endloop
  endfacet
  facet normal -0.707107 0 0.707107
    outer loop
      vertex -4.81066 1.25 1.10355
      vertex -4.10355 3.75 1.81066
      vertex -4.81066 3.75 1.10355
    endloop
  endfacet
  facet normal -0.707107 0 0.707107
    outer loop
      vertex -4.10355 3.75 1.81066
      vertex -4.81066 1.25 1.10355
      vertex -4.10355 1.25 1.81066
    endloop
  endfacet
  facet normal -0 0 1
    outer loop
      vertex -4.10355 3.75 1.81066
      vertex -0.896447 1.25 1.81066
      vertex -0.896447 3.75 1.81066
    endloop
  endfacet
  facet normal 0 0 1
    outer loop
      vertex -0.896447 1.25 1.81066
      vertex -4.10355 3.75 1.81066
      vertex -4.10355 1.25 1.81066
    endloop
  endfacet
  facet normal 0 1 0
    outer loop
      vertex -0.896447 3.75 -1.81066
      vertex -0.896447 3.75 1.81066
      vertex -0.189341 3.75 1.10355
    endloop
  endfacet
  facet normal 0 1 0
    outer loop
      vertex -0.896447 3.75 1.81066
      vertex -0.896447 3.75 -1.81066
      vertex -4.10355 3.75 1.81066
    endloop
  endfacet
  facet normal 0 1 0
    outer loop
      vertex -0.896447 3.75 -1.81066
      vertex -0.189341 3.75 1.10355
      vertex -0.189341 3.75 -1.10355
    endloop
  endfacet
  facet normal 0 1 0
    outer loop
      vertex -4.10355 3.75 -1.81066
      vertex -4.10355 3.75 1.81066
      vertex -0.896447 3.75 -1.81066
    endloop
  endfacet
  facet normal 0 1 0
    outer loop
      vertex -4.10355 3.75 1.81066
      vertex -4.10355 3.75 -1.81066
      vertex -4.81066 3.75 1.10355
    endloop
  endfacet
  facet normal 0 1 0
    outer loop
      vertex -4.81066 3.75 1.10355
      vertex -4.10355 3.75 -1.81066
      vertex -4.81066 3.75 -1.10355
    endloop
  endfacet
  facet normal 0 -1 0
    outer loop
      vertex -4.10355 1.25 -1.81066
      vertex -4.10355 1.25 1.81066
      vertex -4.81066 1.25 1.10355
    endloop
  endfacet
  facet normal 0 -1 0
    outer loop
      vertex -4.10355 1.25 1.81066
      vertex -4.10355 1.25 -1.81066
      vertex -0.896447 1.25 1.81066
    endloop
  endfacet
  facet normal 0 -1 0
    outer loop
      vertex -4.10355 1.25 -1.81066
      vertex -4.81066 1.25 1.10355
      vertex -4.81066 1.25 -1.10355
    endloop
  endfacet
  facet normal 0 -1 0
    outer loop
      vertex -0.896447 1.25 -1.81066
      vertex -0.896447 1.25 1.81066
      vertex -4.10355 1.25 -1.81066
    endloop
  endfacet
  facet normal 0 -1 0
    outer loop
      vertex -0.896447 1.25 1.81066
      vertex -0.896447 1.25 -1.81066
      vertex -0.189341 1.25 1.10355
    endloop
  endfacet
  facet normal 0 -1 -0
    outer loop
      vertex -0.189341 1.25 1.10355
      vertex -0.896447 1.25 -1.81066
      vertex -0.189341 1.25 -1.10355
    endloop
  endfacet
  facet normal -0.707107 0 -0.707107
    outer loop
      vertex -4.10355 1.25 -1.81066
      vertex -4.81066 3.75 -1.10355
      vertex -4.10355 3.75 -1.81066
    endloop
  endfacet
  facet normal -0.707107 -0 -0.707107
    outer loop
      vertex -4.81066 3.75 -1.10355
      vertex -4.10355 1.25 -1.81066
      vertex -4.81066 1.25 -1.10355
    endloop
  endfacet
  facet normal 0.707109 0 -0.707105
    outer loop
      vertex -0.189341 1.25 -1.10355
      vertex -0.896447 3.75 -1.81066
      vertex -0.189341 3.75 -1.10355
    endloop
  endfacet
  facet normal 0.707109 0 -0.707105
    outer loop
      vertex -0.896447 3.75 -1.81066
      vertex -0.189341 1.25 -1.10355
      vertex -0.896447 1.25 -1.81066
    endloop
  endfacet
  facet normal 1 -0 0
    outer loop
      vertex -0.189341 1.25 1.10355
      vertex -0.189341 3.75 -1.10355
      vertex -0.189341 3.75 1.10355
    endloop
  endfacet
  facet normal 1 0 0
    outer loop
      vertex -0.189341 3.75 -1.10355
      vertex -0.189341 1.25 1.10355
      vertex -0.189341 1.25 -1.10355
    endloop
  endfacet
  facet normal -1 0 0
    outer loop
      vertex -4.81066 1.25 -1.10355
      vertex -4.81066 3.75 1.10355
      vertex -4.81066 3.75 -1.10355
    endloop
  endfacet
  facet normal -1 -0 0
    outer loop
      vertex -4.81066 3.75 1.10355
      vertex -4.81066 1.25 -1.10355
      vertex -4.81066 1.25 1.10355
    endloop
  endfacet
  facet normal 0 0 -1
    outer loop
      vertex -4.10355 1.25 -1.81066
      vertex -0.896447 3.75 -1.81066
      vertex -0.896447 1.25 -1.81066
    endloop
  endfacet
  facet normal -0 0 -1
    outer loop
      vertex -0.896447 3.75 -1.81066
      vertex -4.10355 1.25 -1.81066
      vertex -4.10355 3.75 -1.81066
    endloop
  endfacet
  facet normal 0.707109 -0 0.707105
    outer loop
      vertex -0.896447 1.25 1.81066
      vertex -0.189341 3.75 1.10355
      vertex -0.896447 3.75 1.81066
    endloop
  endfacet
  facet normal 0.707109 0 0.707105
    outer loop
      vertex -0.189341 3.75 1.10355
      vertex -0.896447 1.25 1.81066
      vertex -0.189341 1.25 1.10355
    endloop
  endfacet
  facet normal -0.707109 0 0.707105
    outer loop
      vertex 0.189341 1.25 1.10355
      vertex 0.896447 3.75 1.81066
      vertex 0.189341 3.75 1.10355
    endloop
  endfacet
  facet normal -0.707109 0 0.707105
    outer loop
      vertex 0.896447 3.75 1.81066
      vertex 0.189341 1.25 1.10355
      vertex 0.896447 1.25 1.81066
    endloop
  endfacet
  facet normal -0 0 1
    outer loop
      vertex 0.896447 3.75 1.81066
      vertex 4.10355 1.25 1.81066
      vertex 4.10355 3.75 1.81066
    endloop
  endfacet
  facet normal 0 0 1
    outer loop
      vertex 4.10355 1.25 1.81066
      vertex 0.896447 3.75 1.81066
      vertex 0.896447 1.25 1.81066
    endloop
  endfacet
  facet normal 0 1 0
    outer loop
      vertex 4.10355 3.75 -1.81066
      vertex 4.10355 3.75 1.81066
      vertex 4.81066 3.75 1.10355
    endloop
  endfacet
  facet normal 0 1 0
    outer loop
      vertex 4.10355 3.75 1.81066
      vertex 4.10355 3.75 -1.81066
      vertex 0.896447 3.75 1.81066
    endloop
  endfacet
  facet normal 0 1 0
    outer loop
      vertex 4.10355 3.75 -1.81066
      vertex 4.81066 3.75 1.10355
      vertex 4.81066 3.75 -1.10355
    endloop
  endfacet
  facet normal 0 1 0
    outer loop
      vertex 0.896447 3.75 -1.81066
      vertex 0.896447 3.75 1.81066
      vertex 4.10355 3.75 -1.81066
    endloop
  endfacet
  facet normal 0 1 0
    outer loop
      vertex 0.896447 3.75 1.81066
      vertex 0.896447 3.75 -1.81066
      vertex 0.189341 3.75 1.10355
    endloop
  endfacet
  facet normal 0 1 0
    outer loop
      vertex 0.189341 3.75 1.10355
      vertex 0.896447 3.75 -1.81066
      vertex 0.189341 3.75 -1.10355
    endloop
  endfacet
  facet normal 0 -1 0
    outer loop
      vertex 0.896447 1.25 -1.81066
      vertex 0.896447 1.25 1.81066
      vertex 0.189341 1.25 1.10355
    endloop
  endfacet
  facet normal 0 -1 0
    outer loop
      vertex 0.896447 1.25 1.81066
      vertex 0.896447 1.25 -1.81066
      vertex 4.10355 1.25 1.81066
    endloop
  endfacet
  facet normal 0 -1 0
    outer loop
      vertex 0.896447 1.25 -1.81066
      vertex 0.189341 1.25 1.10355
      vertex 0.189341 1.25 -1.10355
    endloop
  endfacet
  facet normal 0 -1 0
    outer loop
      vertex 4.10355 1.25 -1.81066
      vertex 4.10355 1.25 1.81066
      vertex 0.896447 1.25 -1.81066
    endloop
  endfacet
  facet normal 0 -1 0
    outer loop
      vertex 4.10355 1.25 1.81066
      vertex 4.10355 1.25 -1.81066
      vertex 4.81066 1.25 1.10355
    endloop
  endfacet
  facet normal 0 -1 -0
    outer loop
      vertex 4.81066 1.25 1.10355
      vertex 4.10355 1.25 -1.81066
      vertex 4.81066 1.25 -1.10355
    endloop
  endfacet
  facet normal -0.707109 0 -0.707105
    outer loop
      vertex 0.896447 1.25 -1.81066
      vertex 0.189341 3.75 -1.10355
      vertex 0.896447 3.75 -1.81066
    endloop
  endfacet
  facet normal -0.707109 -0 -0.707105
    outer loop
      vertex 0.189341 3.75 -1.10355
      vertex 0.896447 1.25 -1.81066
      vertex 0.189341 1.25 -1.10355
    endloop
  endfacet
  facet normal 0.707107 0 -0.707107
    outer loop
      vertex 4.81066 1.25 -1.10355
      vertex 4.10355 3.75 -1.81066
      vertex 4.81066 3.75 -1.10355
    endloop
  endfacet
  facet normal 0.707107 0 -0.707107
    outer loop
      vertex 4.10355 3.75 -1.81066
      vertex 4.81066 1.25 -1.10355
      vertex 4.10355 1.25 -1.81066
    endloop
  endfacet
  facet normal 1 -0 0
    outer loop
      vertex 4.81066 1.25 1.10355
      vertex 4.81066 3.75 -1.10355
      vertex 4.81066 3.75 1.10355
    endloop
  endfacet
  facet normal 1 0 0
    outer loop
      vertex 4.81066 3.75 -1.10355
      vertex 4.81066 1.25 1.10355
      vertex 4.81066 1.25 -1.10355
    endloop
  endfacet
  facet normal -1 0 0
    outer loop
      vertex 0.189341 1.25 -1.10355
      vertex 0.189341 3.75 1.10355
      vertex 0.189341 3.75 -1.10355
    endloop
  endfacet
  facet normal -1 -0 0
    outer loop
      vertex 0.189341 3.75 1.10355
      vertex 0.189341 1.25 -1.10355
      vertex 0.189341 1.25 1.10355
    endloop
  endfacet
  facet normal 0 0 -1
    outer loop
      vertex 0.896447 1.25 -1.81066
      vertex 4.10355 3.75 -1.81066
      vertex 4.10355 1.25 -1.81066
    endloop
  endfacet
  facet normal -0 0 -1
    outer loop
      vertex 4.10355 3.75 -1.81066
      vertex 0.896447 1.25 -1.81066
      vertex 0.896447 3.75 -1.81066
    endloop
  endfacet
  facet normal 0.707107 -0 0.707107
    outer loop
      vertex 4.10355 1.25 1.81066
      vertex 4.81066 3.75 1.10355
      vertex 4.10355 3.75 1.81066
    endloop
  endfacet
  facet normal 0.707107 0 0.707107
    outer loop
      vertex 4.81066 3.75 1.10355
      vertex 4.10355 1.25 1.81066
      vertex 4.81066 1.25 1.10355
    endloop
  endfacet
endsolid OpenSCAD_Model
