solid OpenSCAD_Model
  facet normal 0.447215 -0.774598 0.44721
    outer loop
      vertex -0.0606594 -4.04173 1.85355
      vertex 0.603553 -3.25 2.56066
      vertex -2.79289 -5.41506 2.20711
    endloop
  endfacet
  facet normal 0.447216 -0.774601 0.447203
    outer loop
      vertex -0.0606594 -4.04173 1.85355
      vertex -2.79289 -5.41506 2.20711
      vertex -2.43934 -5.41506 1.85355
    endloop
  endfacet
  facet normal 0.447244 -0.774597 0.447182
    outer loop
      vertex 0.603553 -3.25 2.56066
      vertex -0.0606594 -4.04173 1.85355
      vertex 0.625 -3.25 2.53921
    endloop
  endfacet
  facet normal 0.44721 0.774592 -0.447226
    outer loop
      vertex 0.603553 -1.75 -2.56066
      vertex -2.42754 0 -2.56066
      vertex -2.14176 0 -2.27489
    endloop
  endfacet
  facet normal 0.44721 -0.774592 -0.447225
    outer loop
      vertex 0.603553 -3.25 -2.56066
      vertex -2.79289 -5.41506 -2.20711
      vertex -2.43934 -5.00681 -2.56066
    endloop
  endfacet
  facet normal 0.499999 -0.866026 0
    outer loop
      vertex -2.43934 -5.41506 -1.85355
      vertex -0.0606594 -4.04173 1.85355
      vertex -2.43934 -5.41506 1.85355
    endloop
  endfacet
  facet normal 0.499999 -0.866026 0
    outer loop
      vertex -0.0606594 -4.04173 1.85355
      vertex -2.43934 -5.41506 -1.85355
      vertex -0.0606594 -4.04173 -1.85355
    endloop
  endfacet
  facet normal -0.707107 0 0.707107
    outer loop
      vertex -5.06066 -5.41506 1.85355
      vertex -4.35355 5.41506 2.56066
      vertex -5.06066 5.41506 1.85355
    endloop
  endfacet
  facet normal -0.707107 0 0.707107
    outer loop
      vertex -4.35355 5.41506 2.56066
      vertex -5.06066 -5.41506 1.85355
      vertex -4.35355 -5.41506 2.56066
    endloop
  endfacet
  facet normal 0.707156 0 -0.707057
    outer loop
      vertex 0.625 -3.25 -2.53921
      vertex 0.603553 -1.75 -2.56066
      vertex 0.625 -1.75 -2.53921
    endloop
  endfacet
  facet normal 0.707156 0 -0.707057
    outer loop
      vertex 0.603553 -1.75 -2.56066
      vertex 0.625 -3.25 -2.53921
      vertex 0.603553 -3.25 -2.56066
    endloop
  endfacet
  facet normal 0.44721 -0.774592 0.447225
    outer loop
      vertex -2.43934 -5.00681 2.56066
      vertex -2.79289 -5.41506 2.20711
      vertex 0.603553 -3.25 2.56066
    endloop
  endfacet
  facet normal 0.5 0.866025 -0
    outer loop
      vertex -0.0606594 -0.958269 -1.85355
      vertex -1.72043 0 1.85355
      vertex -0.0606594 -0.958269 1.85355
    endloop
  endfacet
  facet normal 0.5 0.866025 0
    outer loop
      vertex -1.72043 0 1.85355
      vertex -0.0606594 -0.958269 -1.85355
      vertex -1.72043 0 -1.85355
    endloop
  endfacet
  facet normal 0.44721 0.774592 0.447226
    outer loop
      vertex -2.14176 0 2.27489
      vertex -2.42754 0 2.56066
      vertex 0.603553 -1.75 2.56066
    endloop
  endfacet
  facet normal 0.707156 -0 0.707057
    outer loop
      vertex 0.603553 -3.25 2.56066
      vertex 0.625 -1.75 2.53921
      vertex 0.603553 -1.75 2.56066
    endloop
  endfacet
  facet normal 0.707156 0 0.707057
    outer loop
      vertex 0.625 -1.75 2.53921
      vertex 0.603553 -3.25 2.56066
      vertex 0.625 -3.25 2.53921
    endloop
  endfacet
  facet normal 0.447216 0.7746 -0.447205
    outer loop
      vertex -0.0606594 -0.958269 -1.85355
      vertex -2.14176 0 -2.27489
      vertex -1.72043 0 -1.85355
    endloop
  endfacet
  facet normal 0.447245 0.774597 -0.447182
    outer loop
      vertex 0.603553 -1.75 -2.56066
      vertex -0.0606594 -0.958269 -1.85355
      vertex 0.625 -1.75 -2.53921
    endloop
  endfacet
  facet normal 0.447215 0.774598 -0.44721
    outer loop
      vertex -0.0606594 -0.958269 -1.85355
      vertex 0.603553 -1.75 -2.56066
      vertex -2.14176 0 -2.27489
    endloop
  endfacet
  facet normal -1 0 0
    outer loop
      vertex -5.06066 -5.41506 -1.85355
      vertex -5.06066 5.41506 1.85355
      vertex -5.06066 5.41506 -1.85355
    endloop
  endfacet
  facet normal -1 -0 0
    outer loop
      vertex -5.06066 5.41506 1.85355
      vertex -5.06066 -5.41506 -1.85355
      vertex -5.06066 -5.41506 1.85355
    endloop
  endfacet
  facet normal 0 0 -1
    outer loop
      vertex 0.603553 -3.25 -2.56066
      vertex -2.42754 0 -2.56066
      vertex 0.603553 -1.75 -2.56066
    endloop
  endfacet
  facet normal 0 -0 -1
    outer loop
      vertex -2.42754 0 -2.56066
      vertex 0.603553 -3.25 -2.56066
      vertex -2.43934 -5.00681 -2.56066
    endloop
  endfacet
  facet normal 0 0 -1
    outer loop
      vertex -2.42754 0 -2.56066
      vertex 0.603553 3.25 -2.56066
      vertex 0.603553 1.75 -2.56066
    endloop
  endfacet
  facet normal 0 0 -1
    outer loop
      vertex -2.42754 0 -2.56066
      vertex -2.43934 5.00681 -2.56066
      vertex 0.603553 3.25 -2.56066
    endloop
  endfacet
  facet normal 0 0 -1
    outer loop
      vertex -3.64645 -5.29549 -2.56066
      vertex -2.42754 0 -2.56066
      vertex -2.43934 -5.00681 -2.56066
    endloop
  endfacet
  facet normal 0 0 -1
    outer loop
      vertex -3.64645 -5.29549 -2.56066
      vertex -2.43934 -5.00681 -2.56066
      vertex -3.14645 -5.41506 -2.56066
    endloop
  endfacet
  facet normal 0 0 -1
    outer loop
      vertex -4.35355 -5.41506 -2.56066
      vertex -2.42754 0 -2.56066
      vertex -3.64645 -5.29549 -2.56066
    endloop
  endfacet
  facet normal 0 0 -1
    outer loop
      vertex -3.64645 -5.29549 -2.56066
      vertex -3.14645 -5.41506 -2.56066
      vertex -3.64645 -5.41506 -2.56066
    endloop
  endfacet
  facet normal 0 0 -1
    outer loop
      vertex -2.42754 0 -2.56066
      vertex -3.64645 5.29549 -2.56066
      vertex -2.43934 5.00681 -2.56066
    endloop
  endfacet
  facet normal 0 0 -1
    outer loop
      vertex -2.43934 5.00681 -2.56066
      vertex -3.64645 5.29549 -2.56066
      vertex -3.14645 5.41506 -2.56066
    endloop
  endfacet
  facet normal -0 0 -1
    outer loop
      vertex -3.14645 5.41506 -2.56066
      vertex -3.64645 5.29549 -2.56066
      vertex -3.64645 5.41506 -2.56066
    endloop
  endfacet
  facet normal 0 0 -1
    outer loop
      vertex -4.35355 -5.41506 -2.56066
      vertex -3.64645 -5.29549 -2.56066
      vertex -3.85355 -5.41506 -2.56066
    endloop
  endfacet
  facet normal 0 0 -1
    outer loop
      vertex -4.35355 5.41506 -2.56066
      vertex -2.42754 0 -2.56066
      vertex -4.35355 -5.41506 -2.56066
    endloop
  endfacet
  facet normal 0 0 -1
    outer loop
      vertex -2.42754 0 -2.56066
      vertex -4.35355 5.41506 -2.56066
      vertex -3.64645 5.29549 -2.56066
    endloop
  endfacet
  facet normal 0 0 -1
    outer loop
      vertex -3.64645 5.29549 -2.56066
      vertex -4.35355 5.41506 -2.56066
      vertex -3.85355 5.41506 -2.56066
    endloop
  endfacet
  facet normal 0.447245 0.774597 0.447182
    outer loop
      vertex -0.0606594 -0.958269 1.85355
      vertex 0.603553 -1.75 2.56066
      vertex 0.625 -1.75 2.53921
    endloop
  endfacet
  facet normal 0.447215 0.774598 0.44721
    outer loop
      vertex 0.603553 -1.75 2.56066
      vertex -0.0606594 -0.958269 1.85355
      vertex -2.14176 0 2.27489
    endloop
  endfacet
  facet normal 0.447216 0.7746 0.447205
    outer loop
      vertex -2.14176 0 2.27489
      vertex -0.0606594 -0.958269 1.85355
      vertex -1.72043 0 1.85355
    endloop
  endfacet
  facet normal 0 0 1
    outer loop
      vertex 0.603553 3.25 2.56066
      vertex -2.42754 0 2.56066
      vertex 0.603553 1.75 2.56066
    endloop
  endfacet
  facet normal 0 -0 1
    outer loop
      vertex -2.42754 0 2.56066
      vertex 0.603553 3.25 2.56066
      vertex -2.43934 5.00681 2.56066
    endloop
  endfacet
  facet normal 0 0 1
    outer loop
      vertex -2.42754 0 2.56066
      vertex 0.603553 -3.25 2.56066
      vertex 0.603553 -1.75 2.56066
    endloop
  endfacet
  facet normal 0 0 1
    outer loop
      vertex -2.42754 0 2.56066
      vertex -2.43934 -5.00681 2.56066
      vertex 0.603553 -3.25 2.56066
    endloop
  endfacet
  facet normal 0 0 1
    outer loop
      vertex -3.64645 5.29549 2.56066
      vertex -2.42754 0 2.56066
      vertex -2.43934 5.00681 2.56066
    endloop
  endfacet
  facet normal -0 0 1
    outer loop
      vertex -3.64645 5.29549 2.56066
      vertex -2.43934 5.00681 2.56066
      vertex -3.14645 5.41506 2.56066
    endloop
  endfacet
  facet normal 0 0 1
    outer loop
      vertex -4.35355 5.41506 2.56066
      vertex -2.42754 0 2.56066
      vertex -3.64645 5.29549 2.56066
    endloop
  endfacet
  facet normal 0 0 1
    outer loop
      vertex -3.64645 5.29549 2.56066
      vertex -3.14645 5.41506 2.56066
      vertex -3.64645 5.41506 2.56066
    endloop
  endfacet
  facet normal 0 0 1
    outer loop
      vertex -2.42754 0 2.56066
      vertex -3.64645 -5.29549 2.56066
      vertex -2.43934 -5.00681 2.56066
    endloop
  endfacet
  facet normal 0 0 1
    outer loop
      vertex -2.43934 -5.00681 2.56066
      vertex -3.64645 -5.29549 2.56066
      vertex -3.14645 -5.41506 2.56066
    endloop
  endfacet
  facet normal 0 0 1
    outer loop
      vertex -3.14645 -5.41506 2.56066
      vertex -3.64645 -5.29549 2.56066
      vertex -3.64645 -5.41506 2.56066
    endloop
  endfacet
  facet normal -0 0 1
    outer loop
      vertex -4.35355 5.41506 2.56066
      vertex -3.64645 5.29549 2.56066
      vertex -3.85355 5.41506 2.56066
    endloop
  endfacet
  facet normal 0 0 1
    outer loop
      vertex -4.35355 -5.41506 2.56066
      vertex -2.42754 0 2.56066
      vertex -4.35355 5.41506 2.56066
    endloop
  endfacet
  facet normal 0 0 1
    outer loop
      vertex -2.42754 0 2.56066
      vertex -4.35355 -5.41506 2.56066
      vertex -3.64645 -5.29549 2.56066
    endloop
  endfacet
  facet normal 0 0 1
    outer loop
      vertex -3.64645 -5.29549 2.56066
      vertex -4.35355 -5.41506 2.56066
      vertex -3.85355 -5.41506 2.56066
    endloop
  endfacet
  facet normal -0.707107 0 -0.707107
    outer loop
      vertex -4.35355 -5.41506 -2.56066
      vertex -5.06066 5.41506 -1.85355
      vertex -4.35355 5.41506 -2.56066
    endloop
  endfacet
  facet normal -0.707107 -0 -0.707107
    outer loop
      vertex -5.06066 5.41506 -1.85355
      vertex -4.35355 -5.41506 -2.56066
      vertex -5.06066 -5.41506 -1.85355
    endloop
  endfacet
  facet normal 0.447216 -0.774601 -0.447203
    outer loop
      vertex -2.79289 -5.41506 -2.20711
      vertex -0.0606594 -4.04173 -1.85355
      vertex -2.43934 -5.41506 -1.85355
    endloop
  endfacet
  facet normal 0.447215 -0.774598 -0.44721
    outer loop
      vertex 0.603553 -3.25 -2.56066
      vertex -0.0606594 -4.04173 -1.85355
      vertex -2.79289 -5.41506 -2.20711
    endloop
  endfacet
  facet normal 0.447244 -0.774597 -0.447182
    outer loop
      vertex -0.0606594 -4.04173 -1.85355
      vertex 0.603553 -3.25 -2.56066
      vertex 0.625 -3.25 -2.53921
    endloop
  endfacet
  facet normal 0 -1 0
    outer loop
      vertex -4.35355 -5.41506 2.56066
      vertex -3.75 -5.41506 2.45711
      vertex -3.85355 -5.41506 2.56066
    endloop
  endfacet
  facet normal 0 -1 0
    outer loop
      vertex -5.06066 -5.41506 1.85355
      vertex -3.75 -5.41506 2.45711
      vertex -4.35355 -5.41506 2.56066
    endloop
  endfacet
  facet normal 0 -1 0
    outer loop
      vertex -2.43934 -5.41506 1.85355
      vertex -3.75 -5.41506 2.45711
      vertex -5.06066 -5.41506 1.85355
    endloop
  endfacet
  facet normal 0 -1 0
    outer loop
      vertex -3.75 -5.41506 2.45711
      vertex -2.43934 -5.41506 1.85355
      vertex -2.79289 -5.41506 2.20711
    endloop
  endfacet
  facet normal 0 -1 0
    outer loop
      vertex -5.06066 -5.41506 -1.85355
      vertex -2.43934 -5.41506 1.85355
      vertex -5.06066 -5.41506 1.85355
    endloop
  endfacet
  facet normal 0 -1 0
    outer loop
      vertex -5.06066 -5.41506 -1.85355
      vertex -2.43934 -5.41506 -1.85355
      vertex -2.43934 -5.41506 1.85355
    endloop
  endfacet
  facet normal 0 -1 0
    outer loop
      vertex -3.75 -5.41506 -2.45711
      vertex -2.43934 -5.41506 -1.85355
      vertex -5.06066 -5.41506 -1.85355
    endloop
  endfacet
  facet normal 0 -1 0
    outer loop
      vertex -2.43934 -5.41506 -1.85355
      vertex -3.75 -5.41506 -2.45711
      vertex -2.79289 -5.41506 -2.20711
    endloop
  endfacet
  facet normal 0 -1 0
    outer loop
      vertex -4.35355 -5.41506 -2.56066
      vertex -3.75 -5.41506 -2.45711
      vertex -5.06066 -5.41506 -1.85355
    endloop
  endfacet
  facet normal 0 -1 0
    outer loop
      vertex -3.75 -5.41506 -2.45711
      vertex -4.35355 -5.41506 -2.56066
      vertex -3.85355 -5.41506 -2.56066
    endloop
  endfacet
  facet normal 0 -1 0
    outer loop
      vertex -3.75 -5.41506 2.45711
      vertex -3.14645 -5.41506 2.56066
      vertex -3.64645 -5.41506 2.56066
    endloop
  endfacet
  facet normal 0 -1 -0
    outer loop
      vertex -3.14645 -5.41506 2.56066
      vertex -3.75 -5.41506 2.45711
      vertex -2.79289 -5.41506 2.20711
    endloop
  endfacet
  facet normal 0 -1 0
    outer loop
      vertex -3.14645 -5.41506 -2.56066
      vertex -3.75 -5.41506 -2.45711
      vertex -3.64645 -5.41506 -2.56066
    endloop
  endfacet
  facet normal 0 -1 0
    outer loop
      vertex -3.75 -5.41506 -2.45711
      vertex -3.14645 -5.41506 -2.56066
      vertex -2.79289 -5.41506 -2.20711
    endloop
  endfacet
  facet normal 0.44721 -0.774592 0.447224
    outer loop
      vertex 2.56066 -5.00681 2.56066
      vertex 2.20711 -5.41506 2.20711
      vertex 5.60355 -3.25 2.56066
    endloop
  endfacet
  facet normal 0.44721 -0.774592 -0.447224
    outer loop
      vertex 5.60355 -3.25 -2.56066
      vertex 2.20711 -5.41506 -2.20711
      vertex 2.56066 -5.00681 -2.56066
    endloop
  endfacet
  facet normal 0.499999 -0.866026 0
    outer loop
      vertex 2.56066 -5.41506 -1.85355
      vertex 6.31066 -3.25 1.85355
      vertex 2.56066 -5.41506 1.85355
    endloop
  endfacet
  facet normal 0.499999 -0.866026 0
    outer loop
      vertex 6.31066 -3.25 1.85355
      vertex 2.56066 -5.41506 -1.85355
      vertex 6.31066 -3.25 -1.85355
    endloop
  endfacet
  facet normal -1 0 0
    outer loop
      vertex -0.0606594 4.04173 -1.85355
      vertex -0.0606594 5.41506 1.85355
      vertex -0.0606594 5.41506 -1.85355
    endloop
  endfacet
  facet normal -1 -0 0
    outer loop
      vertex -0.0606594 5.41506 1.85355
      vertex -0.0606594 4.04173 -1.85355
      vertex -0.0606594 4.04173 1.85355
    endloop
  endfacet
  facet normal -1 0 0
    outer loop
      vertex -0.0606594 -5.41506 -1.85355
      vertex -0.0606594 -4.04173 1.85355
      vertex -0.0606594 -4.04173 -1.85355
    endloop
  endfacet
  facet normal -1 -0 0
    outer loop
      vertex -0.0606594 -4.04173 1.85355
      vertex -0.0606594 -5.41506 -1.85355
      vertex -0.0606594 -5.41506 1.85355
    endloop
  endfacet
  facet normal -1 0 0
    outer loop
      vertex -0.0606594 -0.958269 -1.85355
      vertex -0.0606594 0.958269 1.85355
      vertex -0.0606594 0.958269 -1.85355
    endloop
  endfacet
  facet normal -1 -0 0
    outer loop
      vertex -0.0606594 0.958269 1.85355
      vertex -0.0606594 -0.958269 -1.85355
      vertex -0.0606594 -0.958269 1.85355
    endloop
  endfacet
  facet normal 0.447213 0.774597 0.447213
    outer loop
      vertex 3.27957 0 1.85355
      vertex 5.60355 -1.75 2.56066
      vertex 6.31066 -1.75 1.85355
    endloop
  endfacet
  facet normal 0.447217 0.774599 0.447206
    outer loop
      vertex 5.60355 -1.75 2.56066
      vertex 3.27957 0 1.85355
      vertex 2.85824 0 2.27489
    endloop
  endfacet
  facet normal -0.707109 0 0.707105
    outer loop
      vertex -0.0606594 4.04173 1.85355
      vertex 0.646447 5.41506 2.56066
      vertex -0.0606594 5.41506 1.85355
    endloop
  endfacet
  facet normal -0.707108 -9.62656e-07 0.707106
    outer loop
      vertex 0.625 3.25 2.53921
      vertex 0.646447 5.41506 2.56066
      vertex -0.0606594 4.04173 1.85355
    endloop
  endfacet
  facet normal -0.707156 0 0.707057
    outer loop
      vertex 0.625 1.75 2.53921
      vertex 0.646447 5.41506 2.56066
      vertex 0.625 3.25 2.53921
    endloop
  endfacet
  facet normal -0.707107 0 0.707106
    outer loop
      vertex -0.0606594 -0.958269 1.85355
      vertex 0.625 1.75 2.53921
      vertex -0.0606594 0.958269 1.85355
    endloop
  endfacet
  facet normal -0.707107 0 0.707106
    outer loop
      vertex 0.625 -1.75 2.53921
      vertex 0.625 1.75 2.53921
      vertex -0.0606594 -0.958269 1.85355
    endloop
  endfacet
  facet normal -0.707156 0 0.707057
    outer loop
      vertex 0.625 -1.75 2.53921
      vertex 0.646447 5.41506 2.56066
      vertex 0.625 1.75 2.53921
    endloop
  endfacet
  facet normal -0.707156 0 0.707057
    outer loop
      vertex 0.625 -3.25 2.53921
      vertex 0.646447 5.41506 2.56066
      vertex 0.625 -1.75 2.53921
    endloop
  endfacet
  facet normal -0.707109 0 0.707105
    outer loop
      vertex 0.646447 -5.41506 2.56066
      vertex -0.0606594 -4.04173 1.85355
      vertex -0.0606594 -5.41506 1.85355
    endloop
  endfacet
  facet normal -0.707156 0 0.707057
    outer loop
      vertex 0.625 -3.25 2.53921
      vertex 0.646447 -5.41506 2.56066
      vertex 0.646447 5.41506 2.56066
    endloop
  endfacet
  facet normal -0.707108 9.62656e-07 0.707106
    outer loop
      vertex -0.0606594 -4.04173 1.85355
      vertex 0.646447 -5.41506 2.56066
      vertex 0.625 -3.25 2.53921
    endloop
  endfacet
  facet normal 0.447217 -0.7746 0.447204
    outer loop
      vertex 2.56066 -5.41506 1.85355
      vertex 5.60355 -3.25 2.56066
      vertex 2.20711 -5.41506 2.20711
    endloop
  endfacet
  facet normal 0.447213 -0.774597 0.447213
    outer loop
      vertex 5.60355 -3.25 2.56066
      vertex 2.56066 -5.41506 1.85355
      vertex 6.31066 -3.25 1.85355
    endloop
  endfacet
  facet normal 1 -0 0
    outer loop
      vertex 6.31066 -3.25 1.85355
      vertex 6.31066 -1.75 -1.85355
      vertex 6.31066 -1.75 1.85355
    endloop
  endfacet
  facet normal 1 0 0
    outer loop
      vertex 6.31066 -1.75 -1.85355
      vertex 6.31066 -3.25 1.85355
      vertex 6.31066 -3.25 -1.85355
    endloop
  endfacet
  facet normal 0.44721 0.774591 0.447226
    outer loop
      vertex 2.85824 0 2.27489
      vertex 2.57246 0 2.56066
      vertex 5.60355 -1.75 2.56066
    endloop
  endfacet
  facet normal 0.447217 -0.7746 -0.447204
    outer loop
      vertex 5.60355 -3.25 -2.56066
      vertex 2.56066 -5.41506 -1.85355
      vertex 2.20711 -5.41506 -2.20711
    endloop
  endfacet
  facet normal 0.447213 -0.774597 -0.447213
    outer loop
      vertex 2.56066 -5.41506 -1.85355
      vertex 5.60355 -3.25 -2.56066
      vertex 6.31066 -3.25 -1.85355
    endloop
  endfacet
  facet normal 0 -1 0
    outer loop
      vertex 0.646447 -5.41506 2.56066
      vertex 1.25 -5.41506 2.45711
      vertex 1.14645 -5.41506 2.56066
    endloop
  endfacet
  facet normal 0 -1 0
    outer loop
      vertex -0.0606594 -5.41506 1.85355
      vertex 1.25 -5.41506 2.45711
      vertex 0.646447 -5.41506 2.56066
    endloop
  endfacet
  facet normal 0 -1 0
    outer loop
      vertex 2.56066 -5.41506 1.85355
      vertex 1.25 -5.41506 2.45711
      vertex -0.0606594 -5.41506 1.85355
    endloop
  endfacet
  facet normal 0 -1 0
    outer loop
      vertex 1.25 -5.41506 2.45711
      vertex 2.56066 -5.41506 1.85355
      vertex 2.20711 -5.41506 2.20711
    endloop
  endfacet
  facet normal 0 -1 0
    outer loop
      vertex -0.0606594 -5.41506 -1.85355
      vertex 2.56066 -5.41506 1.85355
      vertex -0.0606594 -5.41506 1.85355
    endloop
  endfacet
  facet normal 0 -1 0
    outer loop
      vertex -0.0606594 -5.41506 -1.85355
      vertex 2.56066 -5.41506 -1.85355
      vertex 2.56066 -5.41506 1.85355
    endloop
  endfacet
  facet normal 0 -1 0
    outer loop
      vertex 1.25 -5.41506 -2.45711
      vertex 2.56066 -5.41506 -1.85355
      vertex -0.0606594 -5.41506 -1.85355
    endloop
  endfacet
  facet normal 0 -1 0
    outer loop
      vertex 2.56066 -5.41506 -1.85355
      vertex 1.25 -5.41506 -2.45711
      vertex 2.20711 -5.41506 -2.20711
    endloop
  endfacet
  facet normal 0 -1 0
    outer loop
      vertex 0.646447 -5.41506 -2.56066
      vertex 1.25 -5.41506 -2.45711
      vertex -0.0606594 -5.41506 -1.85355
    endloop
  endfacet
  facet normal 0 -1 0
    outer loop
      vertex 1.25 -5.41506 -2.45711
      vertex 0.646447 -5.41506 -2.56066
      vertex 1.14645 -5.41506 -2.56066
    endloop
  endfacet
  facet normal 0 -1 0
    outer loop
      vertex 1.25 -5.41506 2.45711
      vertex 1.85355 -5.41506 2.56066
      vertex 1.35355 -5.41506 2.56066
    endloop
  endfacet
  facet normal 0 -1 -0
    outer loop
      vertex 1.85355 -5.41506 2.56066
      vertex 1.25 -5.41506 2.45711
      vertex 2.20711 -5.41506 2.20711
    endloop
  endfacet
  facet normal 0 -1 0
    outer loop
      vertex 1.85355 -5.41506 -2.56066
      vertex 1.25 -5.41506 -2.45711
      vertex 1.35355 -5.41506 -2.56066
    endloop
  endfacet
  facet normal 0 -1 0
    outer loop
      vertex 1.25 -5.41506 -2.45711
      vertex 1.85355 -5.41506 -2.56066
      vertex 2.20711 -5.41506 -2.20711
    endloop
  endfacet
  facet normal 0.44721 0.774591 -0.447226
    outer loop
      vertex 5.60355 -1.75 -2.56066
      vertex 2.57246 0 -2.56066
      vertex 2.85824 0 -2.27489
    endloop
  endfacet
  facet normal 0.707107 -0 0.707107
    outer loop
      vertex 5.60355 -3.25 2.56066
      vertex 6.31066 -1.75 1.85355
      vertex 5.60355 -1.75 2.56066
    endloop
  endfacet
  facet normal 0.707107 0 0.707107
    outer loop
      vertex 6.31066 -1.75 1.85355
      vertex 5.60355 -3.25 2.56066
      vertex 6.31066 -3.25 1.85355
    endloop
  endfacet
  facet normal -0.707109 0 -0.707105
    outer loop
      vertex 0.646447 5.41506 -2.56066
      vertex -0.0606594 4.04173 -1.85355
      vertex -0.0606594 5.41506 -1.85355
    endloop
  endfacet
  facet normal -0.707108 -9.62656e-07 -0.707106
    outer loop
      vertex 0.646447 5.41506 -2.56066
      vertex 0.625 3.25 -2.53921
      vertex -0.0606594 4.04173 -1.85355
    endloop
  endfacet
  facet normal -0.707156 0 -0.707057
    outer loop
      vertex 0.646447 5.41506 -2.56066
      vertex 0.625 1.75 -2.53921
      vertex 0.625 3.25 -2.53921
    endloop
  endfacet
  facet normal -0.707107 0 -0.707106
    outer loop
      vertex 0.625 1.75 -2.53921
      vertex -0.0606594 -0.958269 -1.85355
      vertex -0.0606594 0.958269 -1.85355
    endloop
  endfacet
  facet normal -0.707107 -0 -0.707106
    outer loop
      vertex 0.625 1.75 -2.53921
      vertex 0.625 -1.75 -2.53921
      vertex -0.0606594 -0.958269 -1.85355
    endloop
  endfacet
  facet normal -0.707156 0 -0.707057
    outer loop
      vertex 0.646447 5.41506 -2.56066
      vertex 0.625 -1.75 -2.53921
      vertex 0.625 1.75 -2.53921
    endloop
  endfacet
  facet normal -0.707156 0 -0.707057
    outer loop
      vertex 0.646447 5.41506 -2.56066
      vertex 0.625 -3.25 -2.53921
      vertex 0.625 -1.75 -2.53921
    endloop
  endfacet
  facet normal -0.707156 0 -0.707057
    outer loop
      vertex 0.646447 -5.41506 -2.56066
      vertex 0.625 -3.25 -2.53921
      vertex 0.646447 5.41506 -2.56066
    endloop
  endfacet
  facet normal -0.707108 9.62656e-07 -0.707106
    outer loop
      vertex 0.646447 -5.41506 -2.56066
      vertex -0.0606594 -4.04173 -1.85355
      vertex 0.625 -3.25 -2.53921
    endloop
  endfacet
  facet normal -0.707109 -0 -0.707105
    outer loop
      vertex -0.0606594 -4.04173 -1.85355
      vertex 0.646447 -5.41506 -2.56066
      vertex -0.0606594 -5.41506 -1.85355
    endloop
  endfacet
  facet normal 0.447213 0.774597 -0.447213
    outer loop
      vertex 5.60355 -1.75 -2.56066
      vertex 3.27957 0 -1.85355
      vertex 6.31066 -1.75 -1.85355
    endloop
  endfacet
  facet normal 0.447217 0.774599 -0.447206
    outer loop
      vertex 3.27957 0 -1.85355
      vertex 5.60355 -1.75 -2.56066
      vertex 2.85824 0 -2.27489
    endloop
  endfacet
  facet normal 0.5 0.866025 -0
    outer loop
      vertex 6.31066 -1.75 -1.85355
      vertex 3.27957 0 1.85355
      vertex 6.31066 -1.75 1.85355
    endloop
  endfacet
  facet normal 0.5 0.866025 0
    outer loop
      vertex 3.27957 0 1.85355
      vertex 6.31066 -1.75 -1.85355
      vertex 3.27957 0 -1.85355
    endloop
  endfacet
  facet normal 0.707107 0 -0.707107
    outer loop
      vertex 6.31066 -3.25 -1.85355
      vertex 5.60355 -1.75 -2.56066
      vertex 6.31066 -1.75 -1.85355
    endloop
  endfacet
  facet normal 0.707107 0 -0.707107
    outer loop
      vertex 5.60355 -1.75 -2.56066
      vertex 6.31066 -3.25 -1.85355
      vertex 5.60355 -3.25 -2.56066
    endloop
  endfacet
  facet normal 0 0 1
    outer loop
      vertex 5.60355 3.25 2.56066
      vertex 2.57246 0 2.56066
      vertex 5.60355 1.75 2.56066
    endloop
  endfacet
  facet normal 0 -0 1
    outer loop
      vertex 2.57246 0 2.56066
      vertex 5.60355 3.25 2.56066
      vertex 2.56066 5.00681 2.56066
    endloop
  endfacet
  facet normal 0 0 1
    outer loop
      vertex 2.57246 0 2.56066
      vertex 5.60355 -3.25 2.56066
      vertex 5.60355 -1.75 2.56066
    endloop
  endfacet
  facet normal 0 0 1
    outer loop
      vertex 2.57246 0 2.56066
      vertex 2.56066 -5.00681 2.56066
      vertex 5.60355 -3.25 2.56066
    endloop
  endfacet
  facet normal 0 0 1
    outer loop
      vertex 1.35355 5.29549 2.56066
      vertex 2.57246 0 2.56066
      vertex 2.56066 5.00681 2.56066
    endloop
  endfacet
  facet normal -0 0 1
    outer loop
      vertex 1.35355 5.29549 2.56066
      vertex 2.56066 5.00681 2.56066
      vertex 1.85355 5.41506 2.56066
    endloop
  endfacet
  facet normal 0 0 1
    outer loop
      vertex 0.646447 5.41506 2.56066
      vertex 2.57246 0 2.56066
      vertex 1.35355 5.29549 2.56066
    endloop
  endfacet
  facet normal 0 0 1
    outer loop
      vertex 1.35355 5.29549 2.56066
      vertex 1.85355 5.41506 2.56066
      vertex 1.35355 5.41506 2.56066
    endloop
  endfacet
  facet normal 0 0 1
    outer loop
      vertex 2.57246 0 2.56066
      vertex 1.35355 -5.29549 2.56066
      vertex 2.56066 -5.00681 2.56066
    endloop
  endfacet
  facet normal 0 0 1
    outer loop
      vertex 2.56066 -5.00681 2.56066
      vertex 1.35355 -5.29549 2.56066
      vertex 1.85355 -5.41506 2.56066
    endloop
  endfacet
  facet normal 0 0 1
    outer loop
      vertex 1.85355 -5.41506 2.56066
      vertex 1.35355 -5.29549 2.56066
      vertex 1.35355 -5.41506 2.56066
    endloop
  endfacet
  facet normal -0 0 1
    outer loop
      vertex 0.646447 5.41506 2.56066
      vertex 1.35355 5.29549 2.56066
      vertex 1.14645 5.41506 2.56066
    endloop
  endfacet
  facet normal 0 0 1
    outer loop
      vertex 0.646447 -5.41506 2.56066
      vertex 2.57246 0 2.56066
      vertex 0.646447 5.41506 2.56066
    endloop
  endfacet
  facet normal 0 0 1
    outer loop
      vertex 2.57246 0 2.56066
      vertex 0.646447 -5.41506 2.56066
      vertex 1.35355 -5.29549 2.56066
    endloop
  endfacet
  facet normal 0 0 1
    outer loop
      vertex 1.35355 -5.29549 2.56066
      vertex 0.646447 -5.41506 2.56066
      vertex 1.14645 -5.41506 2.56066
    endloop
  endfacet
  facet normal 0 0 -1
    outer loop
      vertex 5.60355 -3.25 -2.56066
      vertex 2.57246 0 -2.56066
      vertex 5.60355 -1.75 -2.56066
    endloop
  endfacet
  facet normal 0 -0 -1
    outer loop
      vertex 2.57246 0 -2.56066
      vertex 5.60355 -3.25 -2.56066
      vertex 2.56066 -5.00681 -2.56066
    endloop
  endfacet
  facet normal 0 0 -1
    outer loop
      vertex 2.57246 0 -2.56066
      vertex 5.60355 3.25 -2.56066
      vertex 5.60355 1.75 -2.56066
    endloop
  endfacet
  facet normal 0 0 -1
    outer loop
      vertex 2.57246 0 -2.56066
      vertex 2.56066 5.00681 -2.56066
      vertex 5.60355 3.25 -2.56066
    endloop
  endfacet
  facet normal 0 0 -1
    outer loop
      vertex 1.35355 -5.29549 -2.56066
      vertex 2.57246 0 -2.56066
      vertex 2.56066 -5.00681 -2.56066
    endloop
  endfacet
  facet normal 0 0 -1
    outer loop
      vertex 1.35355 -5.29549 -2.56066
      vertex 2.56066 -5.00681 -2.56066
      vertex 1.85355 -5.41506 -2.56066
    endloop
  endfacet
  facet normal 0 0 -1
    outer loop
      vertex 0.646447 -5.41506 -2.56066
      vertex 2.57246 0 -2.56066
      vertex 1.35355 -5.29549 -2.56066
    endloop
  endfacet
  facet normal 0 0 -1
    outer loop
      vertex 1.35355 -5.29549 -2.56066
      vertex 1.85355 -5.41506 -2.56066
      vertex 1.35355 -5.41506 -2.56066
    endloop
  endfacet
  facet normal 0 0 -1
    outer loop
      vertex 2.57246 0 -2.56066
      vertex 1.35355 5.29549 -2.56066
      vertex 2.56066 5.00681 -2.56066
    endloop
  endfacet
  facet normal 0 0 -1
    outer loop
      vertex 2.56066 5.00681 -2.56066
      vertex 1.35355 5.29549 -2.56066
      vertex 1.85355 5.41506 -2.56066
    endloop
  endfacet
  facet normal -0 0 -1
    outer loop
      vertex 1.85355 5.41506 -2.56066
      vertex 1.35355 5.29549 -2.56066
      vertex 1.35355 5.41506 -2.56066
    endloop
  endfacet
  facet normal 0 0 -1
    outer loop
      vertex 0.646447 -5.41506 -2.56066
      vertex 1.35355 -5.29549 -2.56066
      vertex 1.14645 -5.41506 -2.56066
    endloop
  endfacet
  facet normal 0 0 -1
    outer loop
      vertex 0.646447 5.41506 -2.56066
      vertex 2.57246 0 -2.56066
      vertex 0.646447 -5.41506 -2.56066
    endloop
  endfacet
  facet normal 0 0 -1
    outer loop
      vertex 2.57246 0 -2.56066
      vertex 0.646447 5.41506 -2.56066
      vertex 1.35355 5.29549 -2.56066
    endloop
  endfacet
  facet normal 0 0 -1
    outer loop
      vertex 1.35355 5.29549 -2.56066
      vertex 0.646447 5.41506 -2.56066
      vertex 1.14645 5.41506 -2.56066
    endloop
  endfacet
  facet normal 0.44721 -0.774591 0.447226
    outer loop
      vertex 5.60355 1.75 2.56066
      vertex 2.57246 0 2.56066
      vertex 2.85824 0 2.27489
    endloop
  endfacet
  facet normal 0.44721 -0.774591 -0.447226
    outer loop
      vertex 2.85824 0 -2.27489
      vertex 2.57246 0 -2.56066
      vertex 5.60355 1.75 -2.56066
    endloop
  endfacet
  facet normal 0.5 -0.866025 0
    outer loop
      vertex 3.27957 0 -1.85355
      vertex 6.31066 1.75 1.85355
      vertex 3.27957 0 1.85355
    endloop
  endfacet
  facet normal 0.5 -0.866025 0
    outer loop
      vertex 6.31066 1.75 1.85355
      vertex 3.27957 0 -1.85355
      vertex 6.31066 1.75 -1.85355
    endloop
  endfacet
  facet normal 0.447213 0.774597 0.447213
    outer loop
      vertex 2.56066 5.41506 1.85355
      vertex 5.60355 3.25 2.56066
      vertex 6.31066 3.25 1.85355
    endloop
  endfacet
  facet normal 0.447217 0.7746 0.447204
    outer loop
      vertex 5.60355 3.25 2.56066
      vertex 2.56066 5.41506 1.85355
      vertex 2.20711 5.41506 2.20711
    endloop
  endfacet
  facet normal 0.447217 -0.774599 0.447206
    outer loop
      vertex 3.27957 0 1.85355
      vertex 5.60355 1.75 2.56066
      vertex 2.85824 0 2.27489
    endloop
  endfacet
  facet normal 0.447213 -0.774597 0.447213
    outer loop
      vertex 5.60355 1.75 2.56066
      vertex 3.27957 0 1.85355
      vertex 6.31066 1.75 1.85355
    endloop
  endfacet
  facet normal 1 -0 0
    outer loop
      vertex 6.31066 1.75 1.85355
      vertex 6.31066 3.25 -1.85355
      vertex 6.31066 3.25 1.85355
    endloop
  endfacet
  facet normal 1 0 0
    outer loop
      vertex 6.31066 3.25 -1.85355
      vertex 6.31066 1.75 1.85355
      vertex 6.31066 1.75 -1.85355
    endloop
  endfacet
  facet normal 0.44721 0.774592 0.447224
    outer loop
      vertex 5.60355 3.25 2.56066
      vertex 2.20711 5.41506 2.20711
      vertex 2.56066 5.00681 2.56066
    endloop
  endfacet
  facet normal 0.447217 -0.774599 -0.447206
    outer loop
      vertex 5.60355 1.75 -2.56066
      vertex 3.27957 0 -1.85355
      vertex 2.85824 0 -2.27489
    endloop
  endfacet
  facet normal 0.447213 -0.774597 -0.447213
    outer loop
      vertex 3.27957 0 -1.85355
      vertex 5.60355 1.75 -2.56066
      vertex 6.31066 1.75 -1.85355
    endloop
  endfacet
  facet normal 0.44721 0.774592 -0.447224
    outer loop
      vertex 2.56066 5.00681 -2.56066
      vertex 2.20711 5.41506 -2.20711
      vertex 5.60355 3.25 -2.56066
    endloop
  endfacet
  facet normal 0.707107 -0 0.707107
    outer loop
      vertex 5.60355 1.75 2.56066
      vertex 6.31066 3.25 1.85355
      vertex 5.60355 3.25 2.56066
    endloop
  endfacet
  facet normal 0.707107 0 0.707107
    outer loop
      vertex 6.31066 3.25 1.85355
      vertex 5.60355 1.75 2.56066
      vertex 6.31066 1.75 1.85355
    endloop
  endfacet
  facet normal 0.447213 0.774597 -0.447213
    outer loop
      vertex 5.60355 3.25 -2.56066
      vertex 2.56066 5.41506 -1.85355
      vertex 6.31066 3.25 -1.85355
    endloop
  endfacet
  facet normal 0.447217 0.7746 -0.447204
    outer loop
      vertex 2.56066 5.41506 -1.85355
      vertex 5.60355 3.25 -2.56066
      vertex 2.20711 5.41506 -2.20711
    endloop
  endfacet
  facet normal 0.499999 0.866026 -0
    outer loop
      vertex 6.31066 3.25 -1.85355
      vertex 2.56066 5.41506 1.85355
      vertex 6.31066 3.25 1.85355
    endloop
  endfacet
  facet normal 0.499999 0.866026 0
    outer loop
      vertex 2.56066 5.41506 1.85355
      vertex 6.31066 3.25 -1.85355
      vertex 2.56066 5.41506 -1.85355
    endloop
  endfacet
  facet normal 0 1 0
    outer loop
      vertex 1.85355 5.41506 2.56066
      vertex 1.25 5.41506 2.45711
      vertex 1.35355 5.41506 2.56066
    endloop
  endfacet
  facet normal -0 1 0
    outer loop
      vertex 1.25 5.41506 2.45711
      vertex 1.85355 5.41506 2.56066
      vertex 2.20711 5.41506 2.20711
    endloop
  endfacet
  facet normal 0 1 0
    outer loop
      vertex 1.25 5.41506 2.45711
      vertex 0.646447 5.41506 2.56066
      vertex 1.14645 5.41506 2.56066
    endloop
  endfacet
  facet normal 0 1 0
    outer loop
      vertex 2.56066 5.41506 1.85355
      vertex 1.25 5.41506 2.45711
      vertex 2.20711 5.41506 2.20711
    endloop
  endfacet
  facet normal 0 1 0
    outer loop
      vertex 1.25 5.41506 2.45711
      vertex 2.56066 5.41506 1.85355
      vertex -0.0606594 5.41506 1.85355
    endloop
  endfacet
  facet normal 0 1 0
    outer loop
      vertex 1.25 5.41506 2.45711
      vertex -0.0606594 5.41506 1.85355
      vertex 0.646447 5.41506 2.56066
    endloop
  endfacet
  facet normal 0 1 -0
    outer loop
      vertex 2.56066 5.41506 -1.85355
      vertex -0.0606594 5.41506 1.85355
      vertex 2.56066 5.41506 1.85355
    endloop
  endfacet
  facet normal 0 1 0
    outer loop
      vertex 2.56066 5.41506 -1.85355
      vertex -0.0606594 5.41506 -1.85355
      vertex -0.0606594 5.41506 1.85355
    endloop
  endfacet
  facet normal 0 1 0
    outer loop
      vertex 1.25 5.41506 -2.45711
      vertex 2.56066 5.41506 -1.85355
      vertex 2.20711 5.41506 -2.20711
    endloop
  endfacet
  facet normal 0 1 0
    outer loop
      vertex 2.56066 5.41506 -1.85355
      vertex 1.25 5.41506 -2.45711
      vertex -0.0606594 5.41506 -1.85355
    endloop
  endfacet
  facet normal 0 1 0
    outer loop
      vertex 0.646447 5.41506 -2.56066
      vertex 1.25 5.41506 -2.45711
      vertex 1.14645 5.41506 -2.56066
    endloop
  endfacet
  facet normal 0 1 0
    outer loop
      vertex 1.25 5.41506 -2.45711
      vertex 0.646447 5.41506 -2.56066
      vertex -0.0606594 5.41506 -1.85355
    endloop
  endfacet
  facet normal 0 1 -0
    outer loop
      vertex 1.85355 5.41506 -2.56066
      vertex 1.25 5.41506 -2.45711
      vertex 2.20711 5.41506 -2.20711
    endloop
  endfacet
  facet normal 0 1 0
    outer loop
      vertex 1.25 5.41506 -2.45711
      vertex 1.85355 5.41506 -2.56066
      vertex 1.35355 5.41506 -2.56066
    endloop
  endfacet
  facet normal 0.707107 0 -0.707107
    outer loop
      vertex 6.31066 1.75 -1.85355
      vertex 5.60355 3.25 -2.56066
      vertex 6.31066 3.25 -1.85355
    endloop
  endfacet
  facet normal 0.707107 0 -0.707107
    outer loop
      vertex 5.60355 3.25 -2.56066
      vertex 6.31066 1.75 -1.85355
      vertex 5.60355 1.75 -2.56066
    endloop
  endfacet
  facet normal 0.44721 -0.774592 0.447226
    outer loop
      vertex 0.603553 1.75 2.56066
      vertex -2.42754 0 2.56066
      vertex -2.14176 0 2.27489
    endloop
  endfacet
  facet normal 0.44721 -0.774592 -0.447226
    outer loop
      vertex -2.14176 0 -2.27489
      vertex -2.42754 0 -2.56066
      vertex 0.603553 1.75 -2.56066
    endloop
  endfacet
  facet normal 0.5 -0.866025 0
    outer loop
      vertex -1.72043 0 -1.85355
      vertex -0.0606594 0.958269 1.85355
      vertex -1.72043 0 1.85355
    endloop
  endfacet
  facet normal 0.5 -0.866025 0
    outer loop
      vertex -0.0606594 0.958269 1.85355
      vertex -1.72043 0 -1.85355
      vertex -0.0606594 0.958269 -1.85355
    endloop
  endfacet
  facet normal 0.447244 0.774597 0.447182
    outer loop
      vertex -0.0606594 4.04173 1.85355
      vertex 0.603553 3.25 2.56066
      vertex 0.625 3.25 2.53921
    endloop
  endfacet
  facet normal 0.447215 0.774598 0.44721
    outer loop
      vertex 0.603553 3.25 2.56066
      vertex -0.0606594 4.04173 1.85355
      vertex -2.79289 5.41506 2.20711
    endloop
  endfacet
  facet normal 0.447216 0.774601 0.447203
    outer loop
      vertex -2.79289 5.41506 2.20711
      vertex -0.0606594 4.04173 1.85355
      vertex -2.43934 5.41506 1.85355
    endloop
  endfacet
  facet normal 0.447215 -0.774598 0.44721
    outer loop
      vertex -0.0606594 0.958269 1.85355
      vertex 0.603553 1.75 2.56066
      vertex -2.14176 0 2.27489
    endloop
  endfacet
  facet normal 0.447216 -0.7746 0.447205
    outer loop
      vertex -0.0606594 0.958269 1.85355
      vertex -2.14176 0 2.27489
      vertex -1.72043 0 1.85355
    endloop
  endfacet
  facet normal 0.447245 -0.774597 0.447182
    outer loop
      vertex 0.603553 1.75 2.56066
      vertex -0.0606594 0.958269 1.85355
      vertex 0.625 1.75 2.53921
    endloop
  endfacet
  facet normal 0.44721 0.774592 0.447225
    outer loop
      vertex 0.603553 3.25 2.56066
      vertex -2.79289 5.41506 2.20711
      vertex -2.43934 5.00681 2.56066
    endloop
  endfacet
  facet normal 0.447216 -0.7746 -0.447205
    outer loop
      vertex -2.14176 0 -2.27489
      vertex -0.0606594 0.958269 -1.85355
      vertex -1.72043 0 -1.85355
    endloop
  endfacet
  facet normal 0.447215 -0.774598 -0.44721
    outer loop
      vertex 0.603553 1.75 -2.56066
      vertex -0.0606594 0.958269 -1.85355
      vertex -2.14176 0 -2.27489
    endloop
  endfacet
  facet normal 0.447245 -0.774597 -0.447182
    outer loop
      vertex -0.0606594 0.958269 -1.85355
      vertex 0.603553 1.75 -2.56066
      vertex 0.625 1.75 -2.53921
    endloop
  endfacet
  facet normal 0.44721 0.774592 -0.447225
    outer loop
      vertex -2.43934 5.00681 -2.56066
      vertex -2.79289 5.41506 -2.20711
      vertex 0.603553 3.25 -2.56066
    endloop
  endfacet
  facet normal 0.707156 -0 0.707057
    outer loop
      vertex 0.603553 1.75 2.56066
      vertex 0.625 3.25 2.53921
      vertex 0.603553 3.25 2.56066
    endloop
  endfacet
  facet normal 0.707156 0 0.707057
    outer loop
      vertex 0.625 3.25 2.53921
      vertex 0.603553 1.75 2.56066
      vertex 0.625 1.75 2.53921
    endloop
  endfacet
  facet normal 0.447216 0.774601 -0.447203
    outer loop
      vertex -0.0606594 4.04173 -1.85355
      vertex -2.79289 5.41506 -2.20711
      vertex -2.43934 5.41506 -1.85355
    endloop
  endfacet
  facet normal 0.447244 0.774597 -0.447182
    outer loop
      vertex 0.603553 3.25 -2.56066
      vertex -0.0606594 4.04173 -1.85355
      vertex 0.625 3.25 -2.53921
    endloop
  endfacet
  facet normal 0.447215 0.774598 -0.44721
    outer loop
      vertex -0.0606594 4.04173 -1.85355
      vertex 0.603553 3.25 -2.56066
      vertex -2.79289 5.41506 -2.20711
    endloop
  endfacet
  facet normal 0.499999 0.866026 -0
    outer loop
      vertex -0.0606594 4.04173 -1.85355
      vertex -2.43934 5.41506 1.85355
      vertex -0.0606594 4.04173 1.85355
    endloop
  endfacet
  facet normal 0.499999 0.866026 0
    outer loop
      vertex -2.43934 5.41506 1.85355
      vertex -0.0606594 4.04173 -1.85355
      vertex -2.43934 5.41506 -1.85355
    endloop
  endfacet
  facet normal 0 1 0
    outer loop
      vertex -3.14645 5.41506 2.56066
      vertex -3.75 5.41506 2.45711
      vertex -3.64645 5.41506 2.56066
    endloop
  endfacet
  facet normal -0 1 0
    outer loop
      vertex -3.75 5.41506 2.45711
      vertex -3.14645 5.41506 2.56066
      vertex -2.79289 5.41506 2.20711
    endloop
  endfacet
  facet normal 0 1 0
    outer loop
      vertex -3.75 5.41506 2.45711
      vertex -4.35355 5.41506 2.56066
      vertex -3.85355 5.41506 2.56066
    endloop
  endfacet
  facet normal 0 1 0
    outer loop
      vertex -2.43934 5.41506 1.85355
      vertex -3.75 5.41506 2.45711
      vertex -2.79289 5.41506 2.20711
    endloop
  endfacet
  facet normal 0 1 0
    outer loop
      vertex -3.75 5.41506 2.45711
      vertex -2.43934 5.41506 1.85355
      vertex -5.06066 5.41506 1.85355
    endloop
  endfacet
  facet normal 0 1 0
    outer loop
      vertex -3.75 5.41506 2.45711
      vertex -5.06066 5.41506 1.85355
      vertex -4.35355 5.41506 2.56066
    endloop
  endfacet
  facet normal 0 1 -0
    outer loop
      vertex -2.43934 5.41506 -1.85355
      vertex -5.06066 5.41506 1.85355
      vertex -2.43934 5.41506 1.85355
    endloop
  endfacet
  facet normal 0 1 0
    outer loop
      vertex -2.43934 5.41506 -1.85355
      vertex -5.06066 5.41506 -1.85355
      vertex -5.06066 5.41506 1.85355
    endloop
  endfacet
  facet normal 0 1 0
    outer loop
      vertex -3.75 5.41506 -2.45711
      vertex -2.43934 5.41506 -1.85355
      vertex -2.79289 5.41506 -2.20711
    endloop
  endfacet
  facet normal 0 1 0
    outer loop
      vertex -2.43934 5.41506 -1.85355
      vertex -3.75 5.41506 -2.45711
      vertex -5.06066 5.41506 -1.85355
    endloop
  endfacet
  facet normal 0 1 0
    outer loop
      vertex -4.35355 5.41506 -2.56066
      vertex -3.75 5.41506 -2.45711
      vertex -3.85355 5.41506 -2.56066
    endloop
  endfacet
  facet normal 0 1 0
    outer loop
      vertex -3.75 5.41506 -2.45711
      vertex -4.35355 5.41506 -2.56066
      vertex -5.06066 5.41506 -1.85355
    endloop
  endfacet
  facet normal 0 1 -0
    outer loop
      vertex -3.14645 5.41506 -2.56066
      vertex -3.75 5.41506 -2.45711
      vertex -2.79289 5.41506 -2.20711
    endloop
  endfacet
  facet normal 0 1 0
    outer loop
      vertex -3.75 5.41506 -2.45711
      vertex -3.14645 5.41506 -2.56066
      vertex -3.64645 5.41506 -2.56066
    endloop
  endfacet
  facet normal 0.707156 0 -0.707057
    outer loop
      vertex 0.625 1.75 -2.53921
      vertex 0.603553 3.25 -2.56066
      vertex 0.625 3.25 -2.53921
    endloop
  endfacet
  facet normal 0.707156 0 -0.707057
    outer loop
      vertex 0.603553 3.25 -2.56066
      vertex 0.625 1.75 -2.53921
      vertex 0.603553 1.75 -2.56066
    endloop
  endfacet
  facet normal 0.447215 0.774595 -0.447215
    outer loop
      vertex 1.35355 5.29549 -2.56066
      vertex 1.14645 5.41506 -2.56066
      vertex 1.25 5.41506 -2.45711
    endloop
  endfacet
  facet normal 0.447215 0.774595 -0.447215
    outer loop
      vertex -3.64645 5.29549 -2.56066
      vertex -3.85355 5.41506 -2.56066
      vertex -3.75 5.41506 -2.45711
    endloop
  endfacet
  facet normal -0.707107 0 -0.707107
    outer loop
      vertex -3.64645 -5.41506 -2.56066
      vertex -3.75 -5.41506 -2.45711
      vertex -3.64645 -5.29549 -2.56066
    endloop
  endfacet
  facet normal 0.447211 -0.774592 -0.447224
    outer loop
      vertex -2.79289 -5.41506 -2.20711
      vertex -3.14645 -5.41506 -2.56066
      vertex -2.43934 -5.00681 -2.56066
    endloop
  endfacet
  facet normal -0.707107 0 -0.707107
    outer loop
      vertex 1.35355 -5.41506 -2.56066
      vertex 1.25 -5.41506 -2.45711
      vertex 1.35355 -5.29549 -2.56066
    endloop
  endfacet
  facet normal 0.447211 -0.774592 -0.447224
    outer loop
      vertex 2.20711 -5.41506 -2.20711
      vertex 1.85355 -5.41506 -2.56066
      vertex 2.56066 -5.00681 -2.56066
    endloop
  endfacet
  facet normal 0.447215 -0.774595 -0.447215
    outer loop
      vertex -3.75 -5.41506 -2.45711
      vertex -3.85355 -5.41506 -2.56066
      vertex -3.64645 -5.29549 -2.56066
    endloop
  endfacet
  facet normal 0.447215 -0.774595 -0.447215
    outer loop
      vertex 1.25 -5.41506 -2.45711
      vertex 1.14645 -5.41506 -2.56066
      vertex 1.35355 -5.29549 -2.56066
    endloop
  endfacet
  facet normal 0.447211 0.774592 -0.447224
    outer loop
      vertex 2.56066 5.00681 -2.56066
      vertex 1.85355 5.41506 -2.56066
      vertex 2.20711 5.41506 -2.20711
    endloop
  endfacet
  facet normal -0.707107 0 -0.707107
    outer loop
      vertex 1.35355 5.29549 -2.56066
      vertex 1.25 5.41506 -2.45711
      vertex 1.35355 5.41506 -2.56066
    endloop
  endfacet
  facet normal 0.447211 0.774592 -0.447224
    outer loop
      vertex -2.43934 5.00681 -2.56066
      vertex -3.14645 5.41506 -2.56066
      vertex -2.79289 5.41506 -2.20711
    endloop
  endfacet
  facet normal -0.707107 0 -0.707107
    outer loop
      vertex -3.64645 5.29549 -2.56066
      vertex -3.75 5.41506 -2.45711
      vertex -3.64645 5.41506 -2.56066
    endloop
  endfacet
  facet normal 0.447215 -0.774595 0.447215
    outer loop
      vertex -3.64645 -5.29549 2.56066
      vertex -3.85355 -5.41506 2.56066
      vertex -3.75 -5.41506 2.45711
    endloop
  endfacet
  facet normal 0.447215 -0.774595 0.447215
    outer loop
      vertex 1.35355 -5.29549 2.56066
      vertex 1.14645 -5.41506 2.56066
      vertex 1.25 -5.41506 2.45711
    endloop
  endfacet
  facet normal -0.707107 0 0.707107
    outer loop
      vertex -3.64645 -5.29549 2.56066
      vertex -3.75 -5.41506 2.45711
      vertex -3.64645 -5.41506 2.56066
    endloop
  endfacet
  facet normal 0.447211 -0.774592 0.447224
    outer loop
      vertex -2.43934 -5.00681 2.56066
      vertex -3.14645 -5.41506 2.56066
      vertex -2.79289 -5.41506 2.20711
    endloop
  endfacet
  facet normal -0.707107 0 0.707107
    outer loop
      vertex 1.35355 -5.29549 2.56066
      vertex 1.25 -5.41506 2.45711
      vertex 1.35355 -5.41506 2.56066
    endloop
  endfacet
  facet normal 0.447211 -0.774592 0.447224
    outer loop
      vertex 2.56066 -5.00681 2.56066
      vertex 1.85355 -5.41506 2.56066
      vertex 2.20711 -5.41506 2.20711
    endloop
  endfacet
  facet normal 0.447211 0.774592 0.447224
    outer loop
      vertex 2.20711 5.41506 2.20711
      vertex 1.85355 5.41506 2.56066
      vertex 2.56066 5.00681 2.56066
    endloop
  endfacet
  facet normal -0.707107 0 0.707107
    outer loop
      vertex 1.35355 5.41506 2.56066
      vertex 1.25 5.41506 2.45711
      vertex 1.35355 5.29549 2.56066
    endloop
  endfacet
  facet normal 0.447211 0.774592 0.447224
    outer loop
      vertex -2.79289 5.41506 2.20711
      vertex -3.14645 5.41506 2.56066
      vertex -2.43934 5.00681 2.56066
    endloop
  endfacet
  facet normal -0.707107 0 0.707107
    outer loop
      vertex -3.64645 5.41506 2.56066
      vertex -3.75 5.41506 2.45711
      vertex -3.64645 5.29549 2.56066
    endloop
  endfacet
  facet normal 0.447215 0.774595 0.447215
    outer loop
      vertex 1.25 5.41506 2.45711
      vertex 1.14645 5.41506 2.56066
      vertex 1.35355 5.29549 2.56066
    endloop
  endfacet
  facet normal 0.447215 0.774595 0.447215
    outer loop
      vertex -3.75 5.41506 2.45711
      vertex -3.85355 5.41506 2.56066
      vertex -3.64645 5.29549 2.56066
    endloop
  endfacet
endsolid OpenSCAD_Model
