solid OpenSCAD_Model
  facet normal 0.57735 -0.57735 0.57735
    outer loop
      vertex -1.25 -3.25 1.75
      vertex 0 -4 -0.25
      vertex 0 -3.25 0.5
    endloop
  endfacet
  facet normal 0.57735 -0.57735 0.57735
    outer loop
      vertex 0 -4 -0.25
      vertex -1.25 -3.25 1.75
      vertex -1.25 -5.25 -0.25
    endloop
  endfacet
  facet normal -0.57735 0.57735 0.57735
    outer loop
      vertex -5.75 -1.75 -0.25
      vertex -3.75 0 0
      vertex -4 0 -0.25
    endloop
  endfacet
  facet normal -0.57735 0.57735 0.57735
    outer loop
      vertex -3.75 0 0
      vertex -5.75 -1.75 -0.25
      vertex -3.75 -1.75 1.75
    endloop
  endfacet
  facet normal 0 -1 0
    outer loop
      vertex -3.75 -5.25 -1.75
      vertex -1.25 -5.25 -0.25
      vertex -3.75 -5.25 -0.25
    endloop
  endfacet
  facet normal 0 -1 -0
    outer loop
      vertex -1.25 -5.25 -0.25
      vertex -3.75 -5.25 -1.75
      vertex -1.25 -5.25 -1.75
    endloop
  endfacet
  facet normal -0.57735 -0.57735 0.57735
    outer loop
      vertex -3.75 -3.25 1.75
      vertex -5.75 -3.25 -0.25
      vertex -3.75 -5.25 -0.25
    endloop
  endfacet
  facet normal 0 -0.707107 0.707107
    outer loop
      vertex -3.75 -5.25 -0.25
      vertex -1.25 -3.25 1.75
      vertex -3.75 -3.25 1.75
    endloop
  endfacet
  facet normal 0 -0.707107 0.707107
    outer loop
      vertex -1.25 -3.25 1.75
      vertex -3.75 -5.25 -0.25
      vertex -1.25 -5.25 -0.25
    endloop
  endfacet
  facet normal 0 0.707107 0.707107
    outer loop
      vertex -1.25 0 0
      vertex -3.75 -1.75 1.75
      vertex -1.25 -1.75 1.75
    endloop
  endfacet
  facet normal 0 0.707107 0.707107
    outer loop
      vertex -3.75 -1.75 1.75
      vertex -1.25 0 0
      vertex -3.75 0 0
    endloop
  endfacet
  facet normal -0.707107 0.707107 0
    outer loop
      vertex -5.75 -1.75 -1.75
      vertex -4 0 -0.25
      vertex -4 0 -1.75
    endloop
  endfacet
  facet normal -0.707107 0.707107 0
    outer loop
      vertex -4 0 -0.25
      vertex -5.75 -1.75 -1.75
      vertex -5.75 -1.75 -0.25
    endloop
  endfacet
  facet normal 0.707107 0.707107 0
    outer loop
      vertex 0 -1 -0.25
      vertex -1 0 -1.75
      vertex -1 0 -0.25
    endloop
  endfacet
  facet normal 0.707107 0.707107 0
    outer loop
      vertex -1 0 -1.75
      vertex 0 -1 -0.25
      vertex 0 -1 -1.75
    endloop
  endfacet
  facet normal -0 0 1
    outer loop
      vertex -3.75 -1.75 1.75
      vertex -1.25 -3.25 1.75
      vertex -1.25 -1.75 1.75
    endloop
  endfacet
  facet normal 0 0 1
    outer loop
      vertex -1.25 -3.25 1.75
      vertex -3.75 -1.75 1.75
      vertex -3.75 -3.25 1.75
    endloop
  endfacet
  facet normal 0.57735 0.57735 0.57735
    outer loop
      vertex -1.25 0 0
      vertex 0 -1 -0.25
      vertex -1 0 -0.25
    endloop
  endfacet
  facet normal 0.57735 0.57735 0.57735
    outer loop
      vertex 0 -1.75 0.5
      vertex -1.25 0 0
      vertex -1.25 -1.75 1.75
    endloop
  endfacet
  facet normal 0.57735 0.57735 0.57735
    outer loop
      vertex -1.25 0 0
      vertex 0 -1.75 0.5
      vertex 0 -1 -0.25
    endloop
  endfacet
  facet normal -1 0 0
    outer loop
      vertex -5.75 -3.25 -1.75
      vertex -5.75 -1.75 -0.25
      vertex -5.75 -1.75 -1.75
    endloop
  endfacet
  facet normal -1 -0 0
    outer loop
      vertex -5.75 -1.75 -0.25
      vertex -5.75 -3.25 -1.75
      vertex -5.75 -3.25 -0.25
    endloop
  endfacet
  facet normal 0.707107 -0.707107 0
    outer loop
      vertex -1.25 -5.25 -0.25
      vertex 0 -4 -1.75
      vertex 0 -4 -0.25
    endloop
  endfacet
  facet normal 0.707107 -0.707107 0
    outer loop
      vertex 0 -4 -1.75
      vertex -1.25 -5.25 -0.25
      vertex -1.25 -5.25 -1.75
    endloop
  endfacet
  facet normal 0.707107 -0 0.707107
    outer loop
      vertex -1.25 -3.25 1.75
      vertex 0 -1.75 0.5
      vertex -1.25 -1.75 1.75
    endloop
  endfacet
  facet normal 0.707107 0 0.707107
    outer loop
      vertex 0 -1.75 0.5
      vertex -1.25 -3.25 1.75
      vertex 0 -3.25 0.5
    endloop
  endfacet
  facet normal 0 0 -1
    outer loop
      vertex 5.75 -3.25 -1.75
      vertex 4 0 -1.75
      vertex 5.75 -1.75 -1.75
    endloop
  endfacet
  facet normal 0 -0 -1
    outer loop
      vertex 4 0 -1.75
      vertex 5.75 -3.25 -1.75
      vertex 3.75 -5.25 -1.75
    endloop
  endfacet
  facet normal 0 0 -1
    outer loop
      vertex 4 0 -1.75
      vertex 5.75 3.25 -1.75
      vertex 5.75 1.75 -1.75
    endloop
  endfacet
  facet normal 0 0 -1
    outer loop
      vertex 4 0 -1.75
      vertex 3.75 5.25 -1.75
      vertex 5.75 3.25 -1.75
    endloop
  endfacet
  facet normal 0 0 -1
    outer loop
      vertex 0 -4 -1.75
      vertex 4 0 -1.75
      vertex 3.75 -5.25 -1.75
    endloop
  endfacet
  facet normal 0 0 -1
    outer loop
      vertex 0 -4 -1.75
      vertex 3.75 -5.25 -1.75
      vertex 1.25 -5.25 -1.75
    endloop
  endfacet
  facet normal 0 0 -1
    outer loop
      vertex 0 4 -1.75
      vertex 4 0 -1.75
      vertex 1 0 -1.75
    endloop
  endfacet
  facet normal 0 0 -1
    outer loop
      vertex 4 0 -1.75
      vertex 0 4 -1.75
      vertex 3.75 5.25 -1.75
    endloop
  endfacet
  facet normal -0 0 -1
    outer loop
      vertex 4 0 -1.75
      vertex 0 -4 -1.75
      vertex 1 0 -1.75
    endloop
  endfacet
  facet normal 0 0 -1
    outer loop
      vertex 0 -4 -1.75
      vertex 0 -1 -1.75
      vertex 1 0 -1.75
    endloop
  endfacet
  facet normal 0 0 -1
    outer loop
      vertex 0 -4 -1.75
      vertex -1 0 -1.75
      vertex 0 -1 -1.75
    endloop
  endfacet
  facet normal 0 0 -1
    outer loop
      vertex -3.75 -5.25 -1.75
      vertex 0 -4 -1.75
      vertex -1.25 -5.25 -1.75
    endloop
  endfacet
  facet normal 0 0 -1
    outer loop
      vertex -5.75 3.25 -1.75
      vertex -4 0 -1.75
      vertex -5.75 1.75 -1.75
    endloop
  endfacet
  facet normal 0 0 -1
    outer loop
      vertex -4 0 -1.75
      vertex -5.75 3.25 -1.75
      vertex -3.75 5.25 -1.75
    endloop
  endfacet
  facet normal 0 0 -1
    outer loop
      vertex 0 4 -1.75
      vertex 1 0 -1.75
      vertex 0 1 -1.75
    endloop
  endfacet
  facet normal -0 0 -1
    outer loop
      vertex 3.75 5.25 -1.75
      vertex 0 4 -1.75
      vertex 1.25 5.25 -1.75
    endloop
  endfacet
  facet normal 0 0 -1
    outer loop
      vertex -1 0 -1.75
      vertex 0 4 -1.75
      vertex 0 1 -1.75
    endloop
  endfacet
  facet normal 0 0 -1
    outer loop
      vertex -4 0 -1.75
      vertex 0 4 -1.75
      vertex -1 0 -1.75
    endloop
  endfacet
  facet normal 0 0 -1
    outer loop
      vertex 0 -4 -1.75
      vertex -4 0 -1.75
      vertex -1 0 -1.75
    endloop
  endfacet
  facet normal -0 0 -1
    outer loop
      vertex 0 -4 -1.75
      vertex -3.75 -5.25 -1.75
      vertex -4 0 -1.75
    endloop
  endfacet
  facet normal 0 -0 -1
    outer loop
      vertex -3.75 5.25 -1.75
      vertex 0 4 -1.75
      vertex -4 0 -1.75
    endloop
  endfacet
  facet normal 0 0 -1
    outer loop
      vertex 0 4 -1.75
      vertex -3.75 5.25 -1.75
      vertex -1.25 5.25 -1.75
    endloop
  endfacet
  facet normal 0 0 -1
    outer loop
      vertex -5.75 -3.25 -1.75
      vertex -4 0 -1.75
      vertex -3.75 -5.25 -1.75
    endloop
  endfacet
  facet normal 0 0 -1
    outer loop
      vertex -4 0 -1.75
      vertex -5.75 -3.25 -1.75
      vertex -5.75 -1.75 -1.75
    endloop
  endfacet
  facet normal -0.707107 -0.707107 0
    outer loop
      vertex -3.75 -5.25 -1.75
      vertex -5.75 -3.25 -0.25
      vertex -5.75 -3.25 -1.75
    endloop
  endfacet
  facet normal -0.707107 -0.707107 0
    outer loop
      vertex -5.75 -3.25 -0.25
      vertex -3.75 -5.25 -1.75
      vertex -3.75 -5.25 -0.25
    endloop
  endfacet
  facet normal -0.707107 0 0.707107
    outer loop
      vertex -5.75 -3.25 -0.25
      vertex -3.75 -1.75 1.75
      vertex -5.75 -1.75 -0.25
    endloop
  endfacet
  facet normal -0.707107 0 0.707107
    outer loop
      vertex -3.75 -1.75 1.75
      vertex -5.75 -3.25 -0.25
      vertex -3.75 -3.25 1.75
    endloop
  endfacet
  facet normal 0.57735 -0.57735 0.57735
    outer loop
      vertex 3.75 -3.25 1.75
      vertex 3.75 -5.25 -0.25
      vertex 5.75 -3.25 -0.25
    endloop
  endfacet
  facet normal -0.57735 0.57735 0.57735
    outer loop
      vertex 0 -1 -0.25
      vertex 1.25 0 0
      vertex 1 0 -0.25
    endloop
  endfacet
  facet normal -0.57735 0.57735 0.57735
    outer loop
      vertex 0 -1.75 0.5
      vertex 1.25 0 0
      vertex 0 -1 -0.25
    endloop
  endfacet
  facet normal -0.57735 0.57735 0.57735
    outer loop
      vertex 1.25 0 0
      vertex 0 -1.75 0.5
      vertex 1.25 -1.75 1.75
    endloop
  endfacet
  facet normal 0 -1 0
    outer loop
      vertex 1.25 -5.25 -1.75
      vertex 3.75 -5.25 -0.25
      vertex 1.25 -5.25 -0.25
    endloop
  endfacet
  facet normal 0 -1 -0
    outer loop
      vertex 3.75 -5.25 -0.25
      vertex 1.25 -5.25 -1.75
      vertex 3.75 -5.25 -1.75
    endloop
  endfacet
  facet normal -0.707107 -0.707107 0
    outer loop
      vertex 1.25 -5.25 -1.75
      vertex 0 -4 -0.25
      vertex 0 -4 -1.75
    endloop
  endfacet
  facet normal -0.707107 -0.707107 0
    outer loop
      vertex 0 -4 -0.25
      vertex 1.25 -5.25 -1.75
      vertex 1.25 -5.25 -0.25
    endloop
  endfacet
  facet normal 0 -0.707107 0.707107
    outer loop
      vertex 1.25 -5.25 -0.25
      vertex 3.75 -3.25 1.75
      vertex 1.25 -3.25 1.75
    endloop
  endfacet
  facet normal 0 -0.707107 0.707107
    outer loop
      vertex 3.75 -3.25 1.75
      vertex 1.25 -5.25 -0.25
      vertex 3.75 -5.25 -0.25
    endloop
  endfacet
  facet normal 0 0.707107 0.707107
    outer loop
      vertex 3.75 0 0
      vertex 1.25 -1.75 1.75
      vertex 3.75 -1.75 1.75
    endloop
  endfacet
  facet normal 0 0.707107 0.707107
    outer loop
      vertex 1.25 -1.75 1.75
      vertex 3.75 0 0
      vertex 1.25 0 0
    endloop
  endfacet
  facet normal -0 0 1
    outer loop
      vertex 1.25 -1.75 1.75
      vertex 3.75 -3.25 1.75
      vertex 3.75 -1.75 1.75
    endloop
  endfacet
  facet normal 0 0 1
    outer loop
      vertex 3.75 -3.25 1.75
      vertex 1.25 -1.75 1.75
      vertex 1.25 -3.25 1.75
    endloop
  endfacet
  facet normal 0.707107 0.707107 0
    outer loop
      vertex 5.75 -1.75 -0.25
      vertex 4 0 -1.75
      vertex 4 0 -0.25
    endloop
  endfacet
  facet normal 0.707107 0.707107 0
    outer loop
      vertex 4 0 -1.75
      vertex 5.75 -1.75 -0.25
      vertex 5.75 -1.75 -1.75
    endloop
  endfacet
  facet normal 1 -0 0
    outer loop
      vertex 5.75 -3.25 -0.25
      vertex 5.75 -1.75 -1.75
      vertex 5.75 -1.75 -0.25
    endloop
  endfacet
  facet normal 1 0 0
    outer loop
      vertex 5.75 -1.75 -1.75
      vertex 5.75 -3.25 -0.25
      vertex 5.75 -3.25 -1.75
    endloop
  endfacet
  facet normal -0.707107 0 0.707107
    outer loop
      vertex 0 -3.25 0.5
      vertex 1.25 -1.75 1.75
      vertex 0 -1.75 0.5
    endloop
  endfacet
  facet normal -0.707107 0 0.707107
    outer loop
      vertex 1.25 -1.75 1.75
      vertex 0 -3.25 0.5
      vertex 1.25 -3.25 1.75
    endloop
  endfacet
  facet normal 0.707107 -0.707107 0
    outer loop
      vertex 3.75 -5.25 -0.25
      vertex 5.75 -3.25 -1.75
      vertex 5.75 -3.25 -0.25
    endloop
  endfacet
  facet normal 0.707107 -0.707107 0
    outer loop
      vertex 5.75 -3.25 -1.75
      vertex 3.75 -5.25 -0.25
      vertex 3.75 -5.25 -1.75
    endloop
  endfacet
  facet normal -0.707107 0.707107 0
    outer loop
      vertex 0 -1 -1.75
      vertex 1 0 -0.25
      vertex 1 0 -1.75
    endloop
  endfacet
  facet normal -0.707107 0.707107 0
    outer loop
      vertex 1 0 -0.25
      vertex 0 -1 -1.75
      vertex 0 -1 -0.25
    endloop
  endfacet
  facet normal -0.57735 -0.57735 0.57735
    outer loop
      vertex 0 -4 -0.25
      vertex 1.25 -3.25 1.75
      vertex 0 -3.25 0.5
    endloop
  endfacet
  facet normal -0.57735 -0.57735 0.57735
    outer loop
      vertex 1.25 -3.25 1.75
      vertex 0 -4 -0.25
      vertex 1.25 -5.25 -0.25
    endloop
  endfacet
  facet normal 0.57735 0.57735 0.57735
    outer loop
      vertex 5.75 -1.75 -0.25
      vertex 3.75 0 0
      vertex 3.75 -1.75 1.75
    endloop
  endfacet
  facet normal 0.57735 0.57735 0.57735
    outer loop
      vertex 3.75 0 0
      vertex 5.75 -1.75 -0.25
      vertex 4 0 -0.25
    endloop
  endfacet
  facet normal 0.707107 -0 0.707107
    outer loop
      vertex 3.75 -3.25 1.75
      vertex 5.75 -1.75 -0.25
      vertex 3.75 -1.75 1.75
    endloop
  endfacet
  facet normal 0.707107 0 0.707107
    outer loop
      vertex 5.75 -1.75 -0.25
      vertex 3.75 -3.25 1.75
      vertex 5.75 -3.25 -0.25
    endloop
  endfacet
  facet normal -0 0 1
    outer loop
      vertex -3.75 3.25 1.75
      vertex -1.25 1.75 1.75
      vertex -1.25 3.25 1.75
    endloop
  endfacet
  facet normal 0 0 1
    outer loop
      vertex -1.25 1.75 1.75
      vertex -3.75 3.25 1.75
      vertex -3.75 1.75 1.75
    endloop
  endfacet
  facet normal -0.707107 -0.707107 0
    outer loop
      vertex -4 0 -1.75
      vertex -5.75 1.75 -0.25
      vertex -5.75 1.75 -1.75
    endloop
  endfacet
  facet normal -0.707107 -0.707107 0
    outer loop
      vertex -5.75 1.75 -0.25
      vertex -4 0 -1.75
      vertex -4 0 -0.25
    endloop
  endfacet
  facet normal -0.57735 -0.57735 0.57735
    outer loop
      vertex -3.75 0 0
      vertex -5.75 1.75 -0.25
      vertex -4 0 -0.25
    endloop
  endfacet
  facet normal -0.57735 -0.57735 0.57735
    outer loop
      vertex -5.75 1.75 -0.25
      vertex -3.75 0 0
      vertex -3.75 1.75 1.75
    endloop
  endfacet
  facet normal -0.707107 0.707107 0
    outer loop
      vertex -5.75 3.25 -1.75
      vertex -3.75 5.25 -0.25
      vertex -3.75 5.25 -1.75
    endloop
  endfacet
  facet normal -0.707107 0.707107 0
    outer loop
      vertex -3.75 5.25 -0.25
      vertex -5.75 3.25 -1.75
      vertex -5.75 3.25 -0.25
    endloop
  endfacet
  facet normal -0.707107 0 0.707107
    outer loop
      vertex -5.75 1.75 -0.25
      vertex -3.75 3.25 1.75
      vertex -5.75 3.25 -0.25
    endloop
  endfacet
  facet normal -0.707107 0 0.707107
    outer loop
      vertex -3.75 3.25 1.75
      vertex -5.75 1.75 -0.25
      vertex -3.75 1.75 1.75
    endloop
  endfacet
  facet normal 0 1 -0
    outer loop
      vertex -1.25 5.25 -1.75
      vertex -3.75 5.25 -0.25
      vertex -1.25 5.25 -0.25
    endloop
  endfacet
  facet normal 0 1 0
    outer loop
      vertex -3.75 5.25 -0.25
      vertex -1.25 5.25 -1.75
      vertex -3.75 5.25 -1.75
    endloop
  endfacet
  facet normal 0 -0.707107 0.707107
    outer loop
      vertex -3.75 0 0
      vertex -1.25 1.75 1.75
      vertex -3.75 1.75 1.75
    endloop
  endfacet
  facet normal 0 -0.707107 0.707107
    outer loop
      vertex -1.25 1.75 1.75
      vertex -3.75 0 0
      vertex -1.25 0 0
    endloop
  endfacet
  facet normal 0.57735 0.57735 0.57735
    outer loop
      vertex -1.25 3.25 1.75
      vertex 0 4 -0.25
      vertex -1.25 5.25 -0.25
    endloop
  endfacet
  facet normal 0.57735 0.57735 0.57735
    outer loop
      vertex 0 4 -0.25
      vertex -1.25 3.25 1.75
      vertex 0 3.25 0.5
    endloop
  endfacet
  facet normal 0.707107 -0.707107 0
    outer loop
      vertex -1 0 -0.25
      vertex 0 1 -1.75
      vertex 0 1 -0.25
    endloop
  endfacet
  facet normal 0.707107 -0.707107 0
    outer loop
      vertex 0 1 -1.75
      vertex -1 0 -0.25
      vertex -1 0 -1.75
    endloop
  endfacet
  facet normal -0.57735 0.57735 0.57735
    outer loop
      vertex -3.75 5.25 -0.25
      vertex -5.75 3.25 -0.25
      vertex -3.75 3.25 1.75
    endloop
  endfacet
  facet normal -1 0 0
    outer loop
      vertex -5.75 1.75 -1.75
      vertex -5.75 3.25 -0.25
      vertex -5.75 3.25 -1.75
    endloop
  endfacet
  facet normal -1 -0 0
    outer loop
      vertex -5.75 3.25 -0.25
      vertex -5.75 1.75 -1.75
      vertex -5.75 1.75 -0.25
    endloop
  endfacet
  facet normal 0.707107 0.707107 0
    outer loop
      vertex 0 4 -0.25
      vertex -1.25 5.25 -1.75
      vertex -1.25 5.25 -0.25
    endloop
  endfacet
  facet normal 0.707107 0.707107 0
    outer loop
      vertex -1.25 5.25 -1.75
      vertex 0 4 -0.25
      vertex 0 4 -1.75
    endloop
  endfacet
  facet normal 0 0.707107 0.707107
    outer loop
      vertex -1.25 5.25 -0.25
      vertex -3.75 3.25 1.75
      vertex -1.25 3.25 1.75
    endloop
  endfacet
  facet normal 0 0.707107 0.707107
    outer loop
      vertex -3.75 3.25 1.75
      vertex -1.25 5.25 -0.25
      vertex -3.75 5.25 -0.25
    endloop
  endfacet
  facet normal 0.707107 -0 0.707107
    outer loop
      vertex -1.25 1.75 1.75
      vertex 0 3.25 0.5
      vertex -1.25 3.25 1.75
    endloop
  endfacet
  facet normal 0.707107 0 0.707107
    outer loop
      vertex 0 3.25 0.5
      vertex -1.25 1.75 1.75
      vertex 0 1.75 0.5
    endloop
  endfacet
  facet normal 0.57735 -0.57735 0.57735
    outer loop
      vertex -1.25 0 0
      vertex 0 1.75 0.5
      vertex -1.25 1.75 1.75
    endloop
  endfacet
  facet normal 0.57735 -0.57735 0.57735
    outer loop
      vertex 0 1.75 0.5
      vertex -1.25 0 0
      vertex 0 1 -0.25
    endloop
  endfacet
  facet normal 0.57735 -0.57735 0.57735
    outer loop
      vertex 0 1 -0.25
      vertex -1.25 0 0
      vertex -1 0 -0.25
    endloop
  endfacet
  facet normal -0 0 1
    outer loop
      vertex 1.25 3.25 1.75
      vertex 3.75 1.75 1.75
      vertex 3.75 3.25 1.75
    endloop
  endfacet
  facet normal 0 0 1
    outer loop
      vertex 3.75 1.75 1.75
      vertex 1.25 3.25 1.75
      vertex 1.25 1.75 1.75
    endloop
  endfacet
  facet normal -0.707107 -0.707107 0
    outer loop
      vertex 1 0 -1.75
      vertex 0 1 -0.25
      vertex 0 1 -1.75
    endloop
  endfacet
  facet normal -0.707107 -0.707107 0
    outer loop
      vertex 0 1 -0.25
      vertex 1 0 -1.75
      vertex 1 0 -0.25
    endloop
  endfacet
  facet normal -0.57735 -0.57735 0.57735
    outer loop
      vertex 1.25 0 0
      vertex 0 1.75 0.5
      vertex 0 1 -0.25
    endloop
  endfacet
  facet normal -0.57735 -0.57735 0.57735
    outer loop
      vertex 1.25 0 0
      vertex 0 1 -0.25
      vertex 1 0 -0.25
    endloop
  endfacet
  facet normal -0.57735 -0.57735 0.57735
    outer loop
      vertex 0 1.75 0.5
      vertex 1.25 0 0
      vertex 1.25 1.75 1.75
    endloop
  endfacet
  facet normal -0.707107 0.707107 0
    outer loop
      vertex 0 4 -1.75
      vertex 1.25 5.25 -0.25
      vertex 1.25 5.25 -1.75
    endloop
  endfacet
  facet normal -0.707107 0.707107 0
    outer loop
      vertex 1.25 5.25 -0.25
      vertex 0 4 -1.75
      vertex 0 4 -0.25
    endloop
  endfacet
  facet normal -0.707107 0 0.707107
    outer loop
      vertex 0 1.75 0.5
      vertex 1.25 3.25 1.75
      vertex 0 3.25 0.5
    endloop
  endfacet
  facet normal -0.707107 0 0.707107
    outer loop
      vertex 1.25 3.25 1.75
      vertex 0 1.75 0.5
      vertex 1.25 1.75 1.75
    endloop
  endfacet
  facet normal 0 1 -0
    outer loop
      vertex 3.75 5.25 -1.75
      vertex 1.25 5.25 -0.25
      vertex 3.75 5.25 -0.25
    endloop
  endfacet
  facet normal 0 1 0
    outer loop
      vertex 1.25 5.25 -0.25
      vertex 3.75 5.25 -1.75
      vertex 1.25 5.25 -1.75
    endloop
  endfacet
  facet normal 0 -0.707107 0.707107
    outer loop
      vertex 1.25 0 0
      vertex 3.75 1.75 1.75
      vertex 1.25 1.75 1.75
    endloop
  endfacet
  facet normal 0 -0.707107 0.707107
    outer loop
      vertex 3.75 1.75 1.75
      vertex 1.25 0 0
      vertex 3.75 0 0
    endloop
  endfacet
  facet normal 0.57735 0.57735 0.57735
    outer loop
      vertex 3.75 5.25 -0.25
      vertex 3.75 3.25 1.75
      vertex 5.75 3.25 -0.25
    endloop
  endfacet
  facet normal 0.707107 -0.707107 0
    outer loop
      vertex 4 0 -0.25
      vertex 5.75 1.75 -1.75
      vertex 5.75 1.75 -0.25
    endloop
  endfacet
  facet normal 0.707107 -0.707107 0
    outer loop
      vertex 5.75 1.75 -1.75
      vertex 4 0 -0.25
      vertex 4 0 -1.75
    endloop
  endfacet
  facet normal -0.57735 0.57735 0.57735
    outer loop
      vertex 0 3.25 0.5
      vertex 1.25 5.25 -0.25
      vertex 0 4 -0.25
    endloop
  endfacet
  facet normal -0.57735 0.57735 0.57735
    outer loop
      vertex 1.25 5.25 -0.25
      vertex 0 3.25 0.5
      vertex 1.25 3.25 1.75
    endloop
  endfacet
  facet normal 0.707107 0.707107 0
    outer loop
      vertex 5.75 3.25 -0.25
      vertex 3.75 5.25 -1.75
      vertex 3.75 5.25 -0.25
    endloop
  endfacet
  facet normal 0.707107 0.707107 0
    outer loop
      vertex 3.75 5.25 -1.75
      vertex 5.75 3.25 -0.25
      vertex 5.75 3.25 -1.75
    endloop
  endfacet
  facet normal 0 0.707107 0.707107
    outer loop
      vertex 3.75 5.25 -0.25
      vertex 1.25 3.25 1.75
      vertex 3.75 3.25 1.75
    endloop
  endfacet
  facet normal 0 0.707107 0.707107
    outer loop
      vertex 1.25 3.25 1.75
      vertex 3.75 5.25 -0.25
      vertex 1.25 5.25 -0.25
    endloop
  endfacet
  facet normal 1 -0 0
    outer loop
      vertex 5.75 1.75 -0.25
      vertex 5.75 3.25 -1.75
      vertex 5.75 3.25 -0.25
    endloop
  endfacet
  facet normal 1 0 0
    outer loop
      vertex 5.75 3.25 -1.75
      vertex 5.75 1.75 -0.25
      vertex 5.75 1.75 -1.75
    endloop
  endfacet
  facet normal 0.707107 -0 0.707107
    outer loop
      vertex 3.75 1.75 1.75
      vertex 5.75 3.25 -0.25
      vertex 3.75 3.25 1.75
    endloop
  endfacet
  facet normal 0.707107 0 0.707107
    outer loop
      vertex 5.75 3.25 -0.25
      vertex 3.75 1.75 1.75
      vertex 5.75 1.75 -0.25
    endloop
  endfacet
  facet normal 0.57735 -0.57735 0.57735
    outer loop
      vertex 3.75 0 0
      vertex 5.75 1.75 -0.25
      vertex 3.75 1.75 1.75
    endloop
  endfacet
  facet normal 0.57735 -0.57735 0.57735
    outer loop
      vertex 5.75 1.75 -0.25
      vertex 3.75 0 0
      vertex 4 0 -0.25
    endloop
  endfacet
endsolid OpenSCAD_Model
