solid OpenSCAD_Model
  facet normal 0.852631 -0.522514 0
    outer loop
      vertex 2.95167 -1.45399 3.35355
      vertex 2.86968 -1.58778 3.35355
      vertex 2.95167 -1.45399 -3.35355
    endloop
  endfacet
  facet normal -0.996918 0.0784508 0
    outer loop
      vertex -3.04835 1.15643 3.35355
      vertex -3.04835 1.15643 -3.35355
      vertex -3.06066 1 3.35355
    endloop
  endfacet
  facet normal 0.649421 0.760429 0
    outer loop
      vertex 2.76777 1.70711 3.35355
      vertex 2.64844 1.80902 -3.35355
      vertex 2.64844 1.80902 3.35355
    endloop
  endfacet
  facet normal 0.706015 0.0555587 0.706015
    outer loop
      vertex 3.06066 1 3.35355
      vertex 3.04835 1.15643 3.35355
      vertex 2.35355 1 4.06066
    endloop
  endfacet
  facet normal 0.64881 0.397608 -0.64881
    outer loop
      vertex 2.24456 1.45399 -4.06066
      vertex 2.86968 1.58778 -3.35355
      vertex 2.95167 1.45399 -3.35355
    endloop
  endfacet
  facet normal 0.357413 0.862851 0.357413
    outer loop
      vertex 1.66257 1.95106 4.06066
      vertex 2.51465 1.89101 3.35355
      vertex 2.36968 1.95106 3.35355
    endloop
  endfacet
  facet normal -0 0 -1
    outer loop
      vertex 2.24456 1.45399 -4.06066
      vertex 1.94134 -1.80902 -4.06066
      vertex 2.16257 1.58778 -4.06066
    endloop
  endfacet
  facet normal -0.852631 -0.522514 0
    outer loop
      vertex -2.95167 -1.45399 -3.35355
      vertex -2.86968 -1.58778 -3.35355
      vertex -2.95167 -1.45399 3.35355
    endloop
  endfacet
  facet normal 0.697135 0.167351 -0.697135
    outer loop
      vertex 3.01172 1.30902 -3.35355
      vertex 3.04835 1.15643 -3.35355
      vertex 2.30461 1.30902 -4.06066
    endloop
  endfacet
  facet normal 0.707107 0 0.707107
    outer loop
      vertex 3.06066 1 3.35355
      vertex 2.35355 -1 4.06066
      vertex 3.06066 -1 3.35355
    endloop
  endfacet
  facet normal -0.706015 0.0555587 0.706015
    outer loop
      vertex -3.06066 1 3.35355
      vertex -2.35355 1 4.06066
      vertex -3.04835 1.15643 3.35355
    endloop
  endfacet
  facet normal 0.6053 0.516937 0.6053
    outer loop
      vertex 2.16257 1.58778 4.06066
      vertex 2.76777 1.70711 3.35355
      vertex 2.06066 1.70711 4.06066
    endloop
  endfacet
  facet normal 0.357413 0.862851 0.357413
    outer loop
      vertex 1.80754 1.89101 4.06066
      vertex 2.51465 1.89101 3.35355
      vertex 1.66257 1.95106 4.06066
    endloop
  endfacet
  facet normal 0 0 1
    outer loop
      vertex -2.30461 1.30902 4.06066
      vertex 2.24456 1.45399 4.06066
      vertex -2.24456 1.45399 4.06066
    endloop
  endfacet
  facet normal 0.522514 0.852631 0
    outer loop
      vertex 2.64844 1.80902 3.35355
      vertex 2.64844 1.80902 -3.35355
      vertex 2.51465 1.89101 3.35355
    endloop
  endfacet
  facet normal -0.233424 -0.972375 -0
    outer loop
      vertex -2.21709 -1.98769 3.35355
      vertex -2.36968 -1.95106 3.35355
      vertex -2.21709 -1.98769 -3.35355
    endloop
  endfacet
  facet normal 0.6053 -0.516937 -0.6053
    outer loop
      vertex 2.06066 -1.70711 -4.06066
      vertex 2.16257 -1.58778 -4.06066
      vertex 2.76777 -1.70711 -3.35355
    endloop
  endfacet
  facet normal -0.0782105 0.993864 -0.0782105
    outer loop
      vertex -1.35355 2 -4.06066
      vertex -2.21709 1.98769 -3.35355
      vertex -2.06066 2 -3.35355
    endloop
  endfacet
  facet normal 0 -0 1
    outer loop
      vertex -1.94134 -1.80902 4.06066
      vertex 2.24456 1.45399 4.06066
      vertex -2.06066 -1.70711 4.06066
    endloop
  endfacet
  facet normal -0.697135 0.167351 0.697135
    outer loop
      vertex -2.34124 1.15643 4.06066
      vertex -2.30461 1.30902 4.06066
      vertex -3.04835 1.15643 3.35355
    endloop
  endfacet
  facet normal 0.697135 0.167351 0.697135
    outer loop
      vertex 2.30461 1.30902 4.06066
      vertex 3.04835 1.15643 3.35355
      vertex 3.01172 1.30902 3.35355
    endloop
  endfacet
  facet normal -0 0 1
    outer loop
      vertex -2.06066 1.70711 4.06066
      vertex 2.24456 1.45399 4.06066
      vertex -1.94134 1.80902 4.06066
    endloop
  endfacet
  facet normal 0.463107 -0.755691 0.463101
    outer loop
      vertex 2.64844 -1.80902 3.35355
      vertex 1.94134 -1.80902 4.06066
      vertex 2.51465 -1.89101 3.35355
    endloop
  endfacet
  facet normal 0.706015 -0.0555587 0.706015
    outer loop
      vertex 3.04835 -1.15643 3.35355
      vertex 2.35355 -1 4.06066
      vertex 2.34124 -1.15643 4.06066
    endloop
  endfacet
  facet normal 0.227313 -0.94692 -0.227313
    outer loop
      vertex 2.36968 -1.95106 -3.35355
      vertex 2.21709 -1.98769 -3.35355
      vertex 1.66257 -1.95106 -4.06066
    endloop
  endfacet
  facet normal -0.463106 -0.755689 0.463106
    outer loop
      vertex -1.80754 -1.89101 4.06066
      vertex -2.64844 -1.80902 3.35355
      vertex -2.51465 -1.89101 3.35355
    endloop
  endfacet
  facet normal 0.463086 -0.755713 0.463086
    outer loop
      vertex 2.51465 -1.89101 3.35355
      vertex 1.94134 -1.80902 4.06066
      vertex 1.80754 -1.89101 4.06066
    endloop
  endfacet
  facet normal 0 -0 1
    outer loop
      vertex -2.30461 -1.30902 4.06066
      vertex 2.24456 1.45399 4.06066
      vertex -2.34124 -1.15643 4.06066
    endloop
  endfacet
  facet normal -0.706015 0.0555587 -0.706015
    outer loop
      vertex -3.06066 1 -3.35355
      vertex -3.04835 1.15643 -3.35355
      vertex -2.35355 1 -4.06066
    endloop
  endfacet
  facet normal 0.64881 -0.397608 -0.64881
    outer loop
      vertex 2.86968 -1.58778 -3.35355
      vertex 2.16257 -1.58778 -4.06066
      vertex 2.95167 -1.45399 -3.35355
    endloop
  endfacet
  facet normal 0 0 -1
    outer loop
      vertex -2.34124 -1.15643 -4.06066
      vertex 1.94134 -1.80902 -4.06066
      vertex -2.30461 -1.30902 -4.06066
    endloop
  endfacet
  facet normal -0 0 1
    outer loop
      vertex -1.50999 1.98769 4.06066
      vertex 2.24456 1.45399 4.06066
      vertex -1.35355 2 4.06066
    endloop
  endfacet
  facet normal 0.227326 -0.946914 -0.227323
    outer loop
      vertex 1.66257 -1.95106 -4.06066
      vertex 2.21709 -1.98769 -3.35355
      vertex 1.50999 -1.98769 -4.06066
    endloop
  endfacet
  facet normal -0.923876 0.382691 0
    outer loop
      vertex -2.95167 1.45399 3.35355
      vertex -2.95167 1.45399 -3.35355
      vertex -3.01172 1.30902 3.35355
    endloop
  endfacet
  facet normal 0.0782056 0.993865 -0.0782056
    outer loop
      vertex 2.06066 2 -3.35355
      vertex 1.50999 1.98769 -4.06066
      vertex 1.35355 2 -4.06066
    endloop
  endfacet
  facet normal -0 0 -1
    outer loop
      vertex 2.35355 1 -4.06066
      vertex 1.94134 -1.80902 -4.06066
      vertex 2.34124 1.15643 -4.06066
    endloop
  endfacet
  facet normal -0.697135 0.167351 -0.697135
    outer loop
      vertex -2.30461 1.30902 -4.06066
      vertex -3.04835 1.15643 -3.35355
      vertex -3.01172 1.30902 -3.35355
    endloop
  endfacet
  facet normal -0 1 0
    outer loop
      vertex -2.06066 2 -3.35355
      vertex -1.35355 2 4.06066
      vertex -1.35355 2 -4.06066
    endloop
  endfacet
  facet normal 0.544665 -0.637714 -0.544665
    outer loop
      vertex 2.76777 -1.70711 -3.35355
      vertex 1.94134 -1.80902 -4.06066
      vertex 2.06066 -1.70711 -4.06066
    endloop
  endfacet
  facet normal 1 -0 0
    outer loop
      vertex 3.06066 -1 3.35355
      vertex 3.06066 1 -3.35355
      vertex 3.06066 1 3.35355
    endloop
  endfacet
  facet normal -0.923876 -0.382691 -0
    outer loop
      vertex -2.95167 -1.45399 3.35355
      vertex -3.01172 -1.30902 3.35355
      vertex -2.95167 -1.45399 -3.35355
    endloop
  endfacet
  facet normal -0.463086 0.755713 0.463086
    outer loop
      vertex -2.51465 1.89101 3.35355
      vertex -1.94134 1.80902 4.06066
      vertex -1.80754 1.89101 4.06066
    endloop
  endfacet
  facet normal 0 -1 0
    outer loop
      vertex -1.35355 -2 -4.06066
      vertex 1.35355 -2 4.06066
      vertex -2.06066 -2 -3.35355
    endloop
  endfacet
  facet normal -0.649421 0.760429 0
    outer loop
      vertex -2.64844 1.80902 -3.35355
      vertex -2.76777 1.70711 3.35355
      vertex -2.64844 1.80902 3.35355
    endloop
  endfacet
  facet normal 0.382691 0.923876 0
    outer loop
      vertex 2.51465 1.89101 3.35355
      vertex 2.51465 1.89101 -3.35355
      vertex 2.36968 1.95106 3.35355
    endloop
  endfacet
  facet normal 0.357413 0.862851 -0.357413
    outer loop
      vertex 1.66257 1.95106 -4.06066
      vertex 2.51465 1.89101 -3.35355
      vertex 1.80754 1.89101 -4.06066
    endloop
  endfacet
  facet normal -0.227326 0.946914 0.227323
    outer loop
      vertex -2.21709 1.98769 3.35355
      vertex -1.66257 1.95106 4.06066
      vertex -1.50999 1.98769 4.06066
    endloop
  endfacet
  facet normal 0.697135 -0.167351 0.697135
    outer loop
      vertex 2.30461 -1.30902 4.06066
      vertex 3.01172 -1.30902 3.35355
      vertex 2.34124 -1.15643 4.06066
    endloop
  endfacet
  facet normal 0.544647 0.637746 -0.544647
    outer loop
      vertex 2.06066 1.70711 -4.06066
      vertex 2.64844 1.80902 -3.35355
      vertex 2.76777 1.70711 -3.35355
    endloop
  endfacet
  facet normal 0.233424 0.972375 -0
    outer loop
      vertex 2.21709 1.98769 -3.35355
      vertex 2.21709 1.98769 3.35355
      vertex 2.36968 1.95106 -3.35355
    endloop
  endfacet
  facet normal -0.6053 0.516937 -0.6053
    outer loop
      vertex -2.06066 1.70711 -4.06066
      vertex -2.16257 1.58778 -4.06066
      vertex -2.76777 1.70711 -3.35355
    endloop
  endfacet
  facet normal -0.996918 0.0784508 0
    outer loop
      vertex -3.06066 1 3.35355
      vertex -3.04835 1.15643 -3.35355
      vertex -3.06066 1 -3.35355
    endloop
  endfacet
  facet normal -0.382691 0.923876 0
    outer loop
      vertex -2.51465 1.89101 -3.35355
      vertex -2.51465 1.89101 3.35355
      vertex -2.36968 1.95106 -3.35355
    endloop
  endfacet
  facet normal -0.923876 0.382691 0
    outer loop
      vertex -3.01172 1.30902 3.35355
      vertex -2.95167 1.45399 -3.35355
      vertex -3.01172 1.30902 -3.35355
    endloop
  endfacet
  facet normal -0.852631 -0.522514 0
    outer loop
      vertex -2.95167 -1.45399 3.35355
      vertex -2.86968 -1.58778 -3.35355
      vertex -2.86968 -1.58778 3.35355
    endloop
  endfacet
  facet normal 0.760429 -0.649421 0
    outer loop
      vertex 2.76777 -1.70711 -3.35355
      vertex 2.86968 -1.58778 3.35355
      vertex 2.76777 -1.70711 3.35355
    endloop
  endfacet
  facet normal -0.227313 0.94692 0.227313
    outer loop
      vertex -2.36968 1.95106 3.35355
      vertex -1.66257 1.95106 4.06066
      vertex -2.21709 1.98769 3.35355
    endloop
  endfacet
  facet normal 0.0782105 0.993864 -0.0782094
    outer loop
      vertex 2.21709 1.98769 -3.35355
      vertex 1.50999 1.98769 -4.06066
      vertex 2.06066 2 -3.35355
    endloop
  endfacet
  facet normal 0.227313 0.946921 -0.22731
    outer loop
      vertex 2.36968 1.95106 -3.35355
      vertex 1.50999 1.98769 -4.06066
      vertex 2.21709 1.98769 -3.35355
    endloop
  endfacet
  facet normal -0.544665 -0.637714 -0.544665
    outer loop
      vertex -2.06066 -1.70711 -4.06066
      vertex -1.94134 -1.80902 -4.06066
      vertex -2.76777 -1.70711 -3.35355
    endloop
  endfacet
  facet normal -0.972375 -0.233424 -0
    outer loop
      vertex -3.01172 -1.30902 3.35355
      vertex -3.04835 -1.15643 3.35355
      vertex -3.01172 -1.30902 -3.35355
    endloop
  endfacet
  facet normal -0.463086 -0.755713 -0.463086
    outer loop
      vertex -2.51465 -1.89101 -3.35355
      vertex -1.94134 -1.80902 -4.06066
      vertex -1.80754 -1.89101 -4.06066
    endloop
  endfacet
  facet normal 0.6053 -0.516937 -0.6053
    outer loop
      vertex 2.76777 -1.70711 -3.35355
      vertex 2.16257 -1.58778 -4.06066
      vertex 2.86968 -1.58778 -3.35355
    endloop
  endfacet
  facet normal -0.0782056 0.993865 0.0782045
    outer loop
      vertex -1.35355 2 4.06066
      vertex -2.21709 1.98769 3.35355
      vertex -1.50999 1.98769 4.06066
    endloop
  endfacet
  facet normal 0 -0 1
    outer loop
      vertex -1.80754 -1.89101 4.06066
      vertex 2.24456 1.45399 4.06066
      vertex -1.94134 -1.80902 4.06066
    endloop
  endfacet
  facet normal -0.0782056 -0.993865 0.0782056
    outer loop
      vertex -1.35355 -2 4.06066
      vertex -1.50999 -1.98769 4.06066
      vertex -2.06066 -2 3.35355
    endloop
  endfacet
  facet normal 0.357413 -0.862851 -0.357413
    outer loop
      vertex 2.51465 -1.89101 -3.35355
      vertex 1.66257 -1.95106 -4.06066
      vertex 1.80754 -1.89101 -4.06066
    endloop
  endfacet
  facet normal 0.0784508 0.996918 0
    outer loop
      vertex 2.06066 2 3.35355
      vertex 2.21709 1.98769 3.35355
      vertex 2.06066 2 -3.35355
    endloop
  endfacet
  facet normal 0.707107 0 -0.707107
    outer loop
      vertex 3.06066 1 -3.35355
      vertex 2.35355 -1 -4.06066
      vertex 2.35355 1 -4.06066
    endloop
  endfacet
  facet normal -0.227326 0.946914 -0.227323
    outer loop
      vertex -1.66257 1.95106 -4.06066
      vertex -2.21709 1.98769 -3.35355
      vertex -1.50999 1.98769 -4.06066
    endloop
  endfacet
  facet normal -0.706015 0.0555587 0.706015
    outer loop
      vertex -3.04835 1.15643 3.35355
      vertex -2.35355 1 4.06066
      vertex -2.34124 1.15643 4.06066
    endloop
  endfacet
  facet normal 0.0782056 -0.993865 0.0782045
    outer loop
      vertex 1.50999 -1.98769 4.06066
      vertex 1.35355 -2 4.06066
      vertex 2.21709 -1.98769 3.35355
    endloop
  endfacet
  facet normal -0.678597 0.281091 -0.678597
    outer loop
      vertex -2.30461 1.30902 -4.06066
      vertex -2.95167 1.45399 -3.35355
      vertex -2.24456 1.45399 -4.06066
    endloop
  endfacet
  facet normal -0.697135 0.167351 0.697135
    outer loop
      vertex -3.04835 1.15643 3.35355
      vertex -2.30461 1.30902 4.06066
      vertex -3.01172 1.30902 3.35355
    endloop
  endfacet
  facet normal 0.64881 -0.397608 0.64881
    outer loop
      vertex 2.16257 -1.58778 4.06066
      vertex 2.86968 -1.58778 3.35355
      vertex 2.24456 -1.45399 4.06066
    endloop
  endfacet
  facet normal 0.544647 0.637746 0.544647
    outer loop
      vertex 2.76777 1.70711 3.35355
      vertex 2.64844 1.80902 3.35355
      vertex 2.06066 1.70711 4.06066
    endloop
  endfacet
  facet normal 0.6053 0.516937 0.6053
    outer loop
      vertex 2.86968 1.58778 3.35355
      vertex 2.76777 1.70711 3.35355
      vertex 2.16257 1.58778 4.06066
    endloop
  endfacet
  facet normal 0.6053 0.516937 -0.6053
    outer loop
      vertex 2.76777 1.70711 -3.35355
      vertex 2.86968 1.58778 -3.35355
      vertex 2.06066 1.70711 -4.06066
    endloop
  endfacet
  facet normal -0 -0 -1
    outer loop
      vertex 1.80754 1.89101 -4.06066
      vertex 1.94134 -1.80902 -4.06066
      vertex 1.66257 1.95106 -4.06066
    endloop
  endfacet
  facet normal -0.544665 0.637714 0.544665
    outer loop
      vertex -2.06066 1.70711 4.06066
      vertex -1.94134 1.80902 4.06066
      vertex -2.76777 1.70711 3.35355
    endloop
  endfacet
  facet normal -0.463107 0.755691 0.463101
    outer loop
      vertex -2.64844 1.80902 3.35355
      vertex -1.94134 1.80902 4.06066
      vertex -2.51465 1.89101 3.35355
    endloop
  endfacet
  facet normal -0.0782105 -0.993864 0.0782094
    outer loop
      vertex -2.06066 -2 3.35355
      vertex -1.50999 -1.98769 4.06066
      vertex -2.21709 -1.98769 3.35355
    endloop
  endfacet
  facet normal 0.996918 -0.0784508 0
    outer loop
      vertex 3.06066 -1 3.35355
      vertex 3.04835 -1.15643 -3.35355
      vertex 3.06066 -1 -3.35355
    endloop
  endfacet
  facet normal 0.996918 -0.0784508 0
    outer loop
      vertex 3.04835 -1.15643 3.35355
      vertex 3.04835 -1.15643 -3.35355
      vertex 3.06066 -1 3.35355
    endloop
  endfacet
  facet normal 0 0 -1
    outer loop
      vertex -2.35355 -1 -4.06066
      vertex 1.94134 -1.80902 -4.06066
      vertex -2.34124 -1.15643 -4.06066
    endloop
  endfacet
  facet normal -0.972375 0.233424 0
    outer loop
      vertex -3.01172 1.30902 -3.35355
      vertex -3.04835 1.15643 -3.35355
      vertex -3.01172 1.30902 3.35355
    endloop
  endfacet
  facet normal -0.544649 0.637749 -0.544641
    outer loop
      vertex -2.64844 1.80902 -3.35355
      vertex -1.94134 1.80902 -4.06066
      vertex -2.76777 1.70711 -3.35355
    endloop
  endfacet
  facet normal -0 0 -1
    outer loop
      vertex 2.34124 -1.15643 -4.06066
      vertex 1.94134 -1.80902 -4.06066
      vertex 2.35355 -1 -4.06066
    endloop
  endfacet
  facet normal 0 0 -1
    outer loop
      vertex -1.50999 -1.98769 -4.06066
      vertex 1.94134 -1.80902 -4.06066
      vertex -1.35355 -2 -4.06066
    endloop
  endfacet
  facet normal 0 0 1
    outer loop
      vertex -2.35355 1 4.06066
      vertex 2.24456 1.45399 4.06066
      vertex -2.34124 1.15643 4.06066
    endloop
  endfacet
  facet normal -0.707107 0 0.707107
    outer loop
      vertex -3.06066 -1 3.35355
      vertex -2.35355 1 4.06066
      vertex -3.06066 1 3.35355
    endloop
  endfacet
  facet normal -0.678597 0.281091 -0.678597
    outer loop
      vertex -3.01172 1.30902 -3.35355
      vertex -2.95167 1.45399 -3.35355
      vertex -2.30461 1.30902 -4.06066
    endloop
  endfacet
  facet normal 0.6053 0.516937 -0.6053
    outer loop
      vertex 2.06066 1.70711 -4.06066
      vertex 2.86968 1.58778 -3.35355
      vertex 2.16257 1.58778 -4.06066
    endloop
  endfacet
  facet normal -0.357413 0.862851 -0.357413
    outer loop
      vertex -2.51465 1.89101 -3.35355
      vertex -2.36968 1.95106 -3.35355
      vertex -1.80754 1.89101 -4.06066
    endloop
  endfacet
  facet normal -0 0 -1
    outer loop
      vertex 2.30461 1.30902 -4.06066
      vertex 1.94134 -1.80902 -4.06066
      vertex 2.24456 1.45399 -4.06066
    endloop
  endfacet
  facet normal 0.972375 -0.233424 0
    outer loop
      vertex 3.01172 -1.30902 3.35355
      vertex 3.04835 -1.15643 -3.35355
      vertex 3.04835 -1.15643 3.35355
    endloop
  endfacet
  facet normal 0.996918 0.0784508 0
    outer loop
      vertex 3.06066 1 3.35355
      vertex 3.04835 1.15643 -3.35355
      vertex 3.04835 1.15643 3.35355
    endloop
  endfacet
  facet normal 0.697135 -0.167351 0.697135
    outer loop
      vertex 2.34124 -1.15643 4.06066
      vertex 3.01172 -1.30902 3.35355
      vertex 3.04835 -1.15643 3.35355
    endloop
  endfacet
  facet normal -0.544647 -0.637746 0.544647
    outer loop
      vertex -2.76777 -1.70711 3.35355
      vertex -2.64844 -1.80902 3.35355
      vertex -2.06066 -1.70711 4.06066
    endloop
  endfacet
  facet normal 0.544665 -0.637714 0.544665
    outer loop
      vertex 2.06066 -1.70711 4.06066
      vertex 1.94134 -1.80902 4.06066
      vertex 2.76777 -1.70711 3.35355
    endloop
  endfacet
  facet normal 0 0 -1
    outer loop
      vertex 1.66257 -1.95106 -4.06066
      vertex 1.94134 -1.80902 -4.06066
      vertex 1.80754 -1.89101 -4.06066
    endloop
  endfacet
  facet normal -0.678597 -0.281091 -0.678597
    outer loop
      vertex -3.01172 -1.30902 -3.35355
      vertex -2.24456 -1.45399 -4.06066
      vertex -2.95167 -1.45399 -3.35355
    endloop
  endfacet
  facet normal -0.233424 0.972375 0
    outer loop
      vertex -2.36968 1.95106 -3.35355
      vertex -2.21709 1.98769 3.35355
      vertex -2.21709 1.98769 -3.35355
    endloop
  endfacet
  facet normal -0.697135 -0.167351 -0.697135
    outer loop
      vertex -3.01172 -1.30902 -3.35355
      vertex -3.04835 -1.15643 -3.35355
      vertex -2.30461 -1.30902 -4.06066
    endloop
  endfacet
  facet normal 0.463086 -0.755713 -0.463086
    outer loop
      vertex 1.80754 -1.89101 -4.06066
      vertex 1.94134 -1.80902 -4.06066
      vertex 2.51465 -1.89101 -3.35355
    endloop
  endfacet
  facet normal 0 -0 1
    outer loop
      vertex -2.34124 -1.15643 4.06066
      vertex 2.24456 1.45399 4.06066
      vertex -2.35355 -1 4.06066
    endloop
  endfacet
  facet normal 0 1 -0
    outer loop
      vertex 2.06066 2 -3.35355
      vertex -1.35355 2 4.06066
      vertex 2.06066 2 3.35355
    endloop
  endfacet
  facet normal 0 -0 -1
    outer loop
      vertex -1.94134 1.80902 -4.06066
      vertex 1.94134 -1.80902 -4.06066
      vertex -2.06066 1.70711 -4.06066
    endloop
  endfacet
  facet normal 1 0 0
    outer loop
      vertex 3.06066 -1 -3.35355
      vertex 3.06066 1 -3.35355
      vertex 3.06066 -1 3.35355
    endloop
  endfacet
  facet normal 0.972375 0.233424 0
    outer loop
      vertex 3.04835 1.15643 3.35355
      vertex 3.04835 1.15643 -3.35355
      vertex 3.01172 1.30902 3.35355
    endloop
  endfacet
  facet normal -0.227326 -0.946914 -0.227323
    outer loop
      vertex -1.50999 -1.98769 -4.06066
      vertex -2.21709 -1.98769 -3.35355
      vertex -1.66257 -1.95106 -4.06066
    endloop
  endfacet
  facet normal -0 0 -1
    outer loop
      vertex 2.24456 -1.45399 -4.06066
      vertex 1.94134 -1.80902 -4.06066
      vertex 2.30461 -1.30902 -4.06066
    endloop
  endfacet
  facet normal -0.678597 -0.281091 0.678597
    outer loop
      vertex -2.24456 -1.45399 4.06066
      vertex -3.01172 -1.30902 3.35355
      vertex -2.95167 -1.45399 3.35355
    endloop
  endfacet
  facet normal 0.852631 0.522514 0
    outer loop
      vertex 2.86968 1.58778 -3.35355
      vertex 2.95167 1.45399 3.35355
      vertex 2.95167 1.45399 -3.35355
    endloop
  endfacet
  facet normal -0.463088 -0.755715 0.463081
    outer loop
      vertex -1.94134 -1.80902 4.06066
      vertex -2.64844 -1.80902 3.35355
      vertex -1.80754 -1.89101 4.06066
    endloop
  endfacet
  facet normal 0.357413 -0.862851 0.357413
    outer loop
      vertex 1.80754 -1.89101 4.06066
      vertex 1.66257 -1.95106 4.06066
      vertex 2.51465 -1.89101 3.35355
    endloop
  endfacet
  facet normal 0.0782105 0.993864 0.0782105
    outer loop
      vertex 1.35355 2 4.06066
      vertex 2.21709 1.98769 3.35355
      vertex 2.06066 2 3.35355
    endloop
  endfacet
  facet normal -0 0 -1
    outer loop
      vertex 2.34124 1.15643 -4.06066
      vertex 1.94134 -1.80902 -4.06066
      vertex 2.30461 1.30902 -4.06066
    endloop
  endfacet
  facet normal -0.463107 -0.755691 -0.463101
    outer loop
      vertex -2.64844 -1.80902 -3.35355
      vertex -1.94134 -1.80902 -4.06066
      vertex -2.51465 -1.89101 -3.35355
    endloop
  endfacet
  facet normal -0.463107 0.755691 -0.463101
    outer loop
      vertex -2.51465 1.89101 -3.35355
      vertex -1.94134 1.80902 -4.06066
      vertex -2.64844 1.80902 -3.35355
    endloop
  endfacet
  facet normal -0.0782056 0.993865 -0.0782045
    outer loop
      vertex -1.50999 1.98769 -4.06066
      vertex -2.21709 1.98769 -3.35355
      vertex -1.35355 2 -4.06066
    endloop
  endfacet
  facet normal 0 -0 1
    outer loop
      vertex 2.24456 -1.45399 4.06066
      vertex 2.24456 1.45399 4.06066
      vertex 2.16257 -1.58778 4.06066
    endloop
  endfacet
  facet normal 0.6053 -0.516937 0.6053
    outer loop
      vertex 2.06066 -1.70711 4.06066
      vertex 2.86968 -1.58778 3.35355
      vertex 2.16257 -1.58778 4.06066
    endloop
  endfacet
  facet normal 0.678597 -0.281091 0.678597
    outer loop
      vertex 2.24456 -1.45399 4.06066
      vertex 3.01172 -1.30902 3.35355
      vertex 2.30461 -1.30902 4.06066
    endloop
  endfacet
  facet normal -1 0 0
    outer loop
      vertex -3.06066 -1 3.35355
      vertex -3.06066 1 -3.35355
      vertex -3.06066 -1 -3.35355
    endloop
  endfacet
  facet normal -1 -0 -0
    outer loop
      vertex -3.06066 1 3.35355
      vertex -3.06066 1 -3.35355
      vertex -3.06066 -1 3.35355
    endloop
  endfacet
  facet normal -0.852631 0.522514 0
    outer loop
      vertex -2.95167 1.45399 -3.35355
      vertex -2.86968 1.58778 3.35355
      vertex -2.86968 1.58778 -3.35355
    endloop
  endfacet
  facet normal -0.760429 0.649421 0
    outer loop
      vertex -2.86968 1.58778 -3.35355
      vertex -2.86968 1.58778 3.35355
      vertex -2.76777 1.70711 -3.35355
    endloop
  endfacet
  facet normal -0.357413 0.862851 0.357413
    outer loop
      vertex -1.80754 1.89101 4.06066
      vertex -1.66257 1.95106 4.06066
      vertex -2.51465 1.89101 3.35355
    endloop
  endfacet
  facet normal 0.233424 0.972375 -0
    outer loop
      vertex 2.36968 1.95106 -3.35355
      vertex 2.21709 1.98769 3.35355
      vertex 2.36968 1.95106 3.35355
    endloop
  endfacet
  facet normal 0.463106 0.755689 0.463106
    outer loop
      vertex 1.80754 1.89101 4.06066
      vertex 2.64844 1.80902 3.35355
      vertex 2.51465 1.89101 3.35355
    endloop
  endfacet
  facet normal 0.760429 0.649421 0
    outer loop
      vertex 2.76777 1.70711 3.35355
      vertex 2.86968 1.58778 -3.35355
      vertex 2.76777 1.70711 -3.35355
    endloop
  endfacet
  facet normal 0.649421 -0.760429 0
    outer loop
      vertex 2.64844 -1.80902 3.35355
      vertex 2.64844 -1.80902 -3.35355
      vertex 2.76777 -1.70711 3.35355
    endloop
  endfacet
  facet normal 0 0 1
    outer loop
      vertex 1.94134 1.80902 4.06066
      vertex 2.24456 1.45399 4.06066
      vertex 2.06066 1.70711 4.06066
    endloop
  endfacet
  facet normal 0.357413 -0.862851 0.357413
    outer loop
      vertex 2.51465 -1.89101 3.35355
      vertex 1.66257 -1.95106 4.06066
      vertex 2.36968 -1.95106 3.35355
    endloop
  endfacet
  facet normal 0.0784508 0.996918 0
    outer loop
      vertex 2.06066 2 -3.35355
      vertex 2.21709 1.98769 3.35355
      vertex 2.21709 1.98769 -3.35355
    endloop
  endfacet
  facet normal 0.0782105 -0.993864 0.0782105
    outer loop
      vertex 2.21709 -1.98769 3.35355
      vertex 1.35355 -2 4.06066
      vertex 2.06066 -2 3.35355
    endloop
  endfacet
  facet normal 0.227313 -0.94692 0.227313
    outer loop
      vertex 2.36968 -1.95106 3.35355
      vertex 1.66257 -1.95106 4.06066
      vertex 2.21709 -1.98769 3.35355
    endloop
  endfacet
  facet normal 0.64881 -0.397608 0.64881
    outer loop
      vertex 2.24456 -1.45399 4.06066
      vertex 2.86968 -1.58778 3.35355
      vertex 2.95167 -1.45399 3.35355
    endloop
  endfacet
  facet normal 0.6053 -0.516937 0.6053
    outer loop
      vertex 2.76777 -1.70711 3.35355
      vertex 2.86968 -1.58778 3.35355
      vertex 2.06066 -1.70711 4.06066
    endloop
  endfacet
  facet normal -0.706015 -0.0555587 -0.706015
    outer loop
      vertex -2.34124 -1.15643 -4.06066
      vertex -3.04835 -1.15643 -3.35355
      vertex -2.35355 -1 -4.06066
    endloop
  endfacet
  facet normal 0 0 -1
    outer loop
      vertex -1.80754 -1.89101 -4.06066
      vertex 1.94134 -1.80902 -4.06066
      vertex -1.66257 -1.95106 -4.06066
    endloop
  endfacet
  facet normal 0.972375 -0.233424 0
    outer loop
      vertex 3.01172 -1.30902 -3.35355
      vertex 3.04835 -1.15643 -3.35355
      vertex 3.01172 -1.30902 3.35355
    endloop
  endfacet
  facet normal 0 -0 -1
    outer loop
      vertex -2.34124 1.15643 -4.06066
      vertex 1.94134 -1.80902 -4.06066
      vertex -2.35355 1 -4.06066
    endloop
  endfacet
  facet normal -0.382691 0.923876 0
    outer loop
      vertex -2.36968 1.95106 -3.35355
      vertex -2.51465 1.89101 3.35355
      vertex -2.36968 1.95106 3.35355
    endloop
  endfacet
  facet normal 0 -0 1
    outer loop
      vertex 2.16257 -1.58778 4.06066
      vertex 2.24456 1.45399 4.06066
      vertex 2.06066 -1.70711 4.06066
    endloop
  endfacet
  facet normal -0.6053 0.516937 -0.6053
    outer loop
      vertex -2.76777 1.70711 -3.35355
      vertex -2.16257 1.58778 -4.06066
      vertex -2.86968 1.58778 -3.35355
    endloop
  endfacet
  facet normal 0 -0 1
    outer loop
      vertex -2.24456 -1.45399 4.06066
      vertex 2.24456 1.45399 4.06066
      vertex -2.30461 -1.30902 4.06066
    endloop
  endfacet
  facet normal -0.649421 0.760429 0
    outer loop
      vertex -2.76777 1.70711 -3.35355
      vertex -2.76777 1.70711 3.35355
      vertex -2.64844 1.80902 -3.35355
    endloop
  endfacet
  facet normal 0 0 -1
    outer loop
      vertex -2.16257 -1.58778 -4.06066
      vertex 1.94134 -1.80902 -4.06066
      vertex -2.06066 -1.70711 -4.06066
    endloop
  endfacet
  facet normal 0 0 -1
    outer loop
      vertex -2.35355 1 -4.06066
      vertex 1.94134 -1.80902 -4.06066
      vertex -2.35355 -1 -4.06066
    endloop
  endfacet
  facet normal 0.64881 -0.397608 -0.64881
    outer loop
      vertex 2.95167 -1.45399 -3.35355
      vertex 2.16257 -1.58778 -4.06066
      vertex 2.24456 -1.45399 -4.06066
    endloop
  endfacet
  facet normal 0.678597 -0.281091 -0.678597
    outer loop
      vertex 2.24456 -1.45399 -4.06066
      vertex 3.01172 -1.30902 -3.35355
      vertex 2.95167 -1.45399 -3.35355
    endloop
  endfacet
  facet normal 0.678597 -0.281091 -0.678597
    outer loop
      vertex 2.30461 -1.30902 -4.06066
      vertex 3.01172 -1.30902 -3.35355
      vertex 2.24456 -1.45399 -4.06066
    endloop
  endfacet
  facet normal 0.64881 0.397608 -0.64881
    outer loop
      vertex 2.16257 1.58778 -4.06066
      vertex 2.86968 1.58778 -3.35355
      vertex 2.24456 1.45399 -4.06066
    endloop
  endfacet
  facet normal 0.382691 -0.923876 0
    outer loop
      vertex 2.36968 -1.95106 3.35355
      vertex 2.51465 -1.89101 -3.35355
      vertex 2.51465 -1.89101 3.35355
    endloop
  endfacet
  facet normal 0 0 1
    outer loop
      vertex -2.24456 1.45399 4.06066
      vertex 2.24456 1.45399 4.06066
      vertex -2.16257 1.58778 4.06066
    endloop
  endfacet
  facet normal 0.697135 -0.167351 -0.697135
    outer loop
      vertex 2.34124 -1.15643 -4.06066
      vertex 3.04835 -1.15643 -3.35355
      vertex 2.30461 -1.30902 -4.06066
    endloop
  endfacet
  facet normal -0.678597 -0.281091 -0.678597
    outer loop
      vertex -2.30461 -1.30902 -4.06066
      vertex -2.24456 -1.45399 -4.06066
      vertex -3.01172 -1.30902 -3.35355
    endloop
  endfacet
  facet normal -0 0 -1
    outer loop
      vertex 2.30461 -1.30902 -4.06066
      vertex 1.94134 -1.80902 -4.06066
      vertex 2.34124 -1.15643 -4.06066
    endloop
  endfacet
  facet normal 0.357413 0.862851 -0.357413
    outer loop
      vertex 2.36968 1.95106 -3.35355
      vertex 2.51465 1.89101 -3.35355
      vertex 1.66257 1.95106 -4.06066
    endloop
  endfacet
  facet normal 0.382691 0.923876 0
    outer loop
      vertex 2.36968 1.95106 3.35355
      vertex 2.51465 1.89101 -3.35355
      vertex 2.36968 1.95106 -3.35355
    endloop
  endfacet
  facet normal 0 0 -1
    outer loop
      vertex -1.66257 -1.95106 -4.06066
      vertex 1.94134 -1.80902 -4.06066
      vertex -1.50999 -1.98769 -4.06066
    endloop
  endfacet
  facet normal 0 0 -1
    outer loop
      vertex -2.24456 -1.45399 -4.06066
      vertex 1.94134 -1.80902 -4.06066
      vertex -2.16257 -1.58778 -4.06066
    endloop
  endfacet
  facet normal 0.382691 -0.923876 0
    outer loop
      vertex 2.36968 -1.95106 -3.35355
      vertex 2.51465 -1.89101 -3.35355
      vertex 2.36968 -1.95106 3.35355
    endloop
  endfacet
  facet normal 0 1 -0
    outer loop
      vertex 1.35355 2 -4.06066
      vertex -1.35355 2 4.06066
      vertex 2.06066 2 -3.35355
    endloop
  endfacet
  facet normal 0.707107 0 -0.707107
    outer loop
      vertex 3.06066 -1 -3.35355
      vertex 2.35355 -1 -4.06066
      vertex 3.06066 1 -3.35355
    endloop
  endfacet
  facet normal -0.64881 -0.397608 -0.64881
    outer loop
      vertex -2.24456 -1.45399 -4.06066
      vertex -2.86968 -1.58778 -3.35355
      vertex -2.95167 -1.45399 -3.35355
    endloop
  endfacet
  facet normal 0 -0 -1
    outer loop
      vertex -1.66257 1.95106 -4.06066
      vertex 1.94134 -1.80902 -4.06066
      vertex -1.80754 1.89101 -4.06066
    endloop
  endfacet
  facet normal -0.649421 -0.760429 0
    outer loop
      vertex -2.76777 -1.70711 -3.35355
      vertex -2.64844 -1.80902 3.35355
      vertex -2.76777 -1.70711 3.35355
    endloop
  endfacet
  facet normal 0 0 -1
    outer loop
      vertex -2.30461 -1.30902 -4.06066
      vertex 1.94134 -1.80902 -4.06066
      vertex -2.24456 -1.45399 -4.06066
    endloop
  endfacet
  facet normal 0 0 -1
    outer loop
      vertex -1.35355 -2 -4.06066
      vertex 1.94134 -1.80902 -4.06066
      vertex 1.35355 -2 -4.06066
    endloop
  endfacet
  facet normal -0.6053 0.516937 0.6053
    outer loop
      vertex -2.86968 1.58778 3.35355
      vertex -2.16257 1.58778 4.06066
      vertex -2.76777 1.70711 3.35355
    endloop
  endfacet
  facet normal -0.678597 -0.281091 0.678597
    outer loop
      vertex -2.30461 -1.30902 4.06066
      vertex -3.01172 -1.30902 3.35355
      vertex -2.24456 -1.45399 4.06066
    endloop
  endfacet
  facet normal -0.544665 0.637714 -0.544665
    outer loop
      vertex -2.76777 1.70711 -3.35355
      vertex -1.94134 1.80902 -4.06066
      vertex -2.06066 1.70711 -4.06066
    endloop
  endfacet
  facet normal -0.463086 0.755713 -0.463086
    outer loop
      vertex -1.80754 1.89101 -4.06066
      vertex -1.94134 1.80902 -4.06066
      vertex -2.51465 1.89101 -3.35355
    endloop
  endfacet
  facet normal 0.233424 -0.972375 0
    outer loop
      vertex 2.36968 -1.95106 3.35355
      vertex 2.21709 -1.98769 -3.35355
      vertex 2.36968 -1.95106 -3.35355
    endloop
  endfacet
  facet normal 0.233424 -0.972375 0
    outer loop
      vertex 2.21709 -1.98769 3.35355
      vertex 2.21709 -1.98769 -3.35355
      vertex 2.36968 -1.95106 3.35355
    endloop
  endfacet
  facet normal -0.357413 -0.862851 -0.357413
    outer loop
      vertex -2.51465 -1.89101 -3.35355
      vertex -1.66257 -1.95106 -4.06066
      vertex -2.36968 -1.95106 -3.35355
    endloop
  endfacet
  facet normal -0.0782105 -0.993864 -0.0782105
    outer loop
      vertex -2.06066 -2 -3.35355
      vertex -2.21709 -1.98769 -3.35355
      vertex -1.35355 -2 -4.06066
    endloop
  endfacet
  facet normal -0.227313 -0.94692 -0.227313
    outer loop
      vertex -1.66257 -1.95106 -4.06066
      vertex -2.21709 -1.98769 -3.35355
      vertex -2.36968 -1.95106 -3.35355
    endloop
  endfacet
  facet normal -0.233424 -0.972375 0
    outer loop
      vertex -2.21709 -1.98769 -3.35355
      vertex -2.36968 -1.95106 3.35355
      vertex -2.36968 -1.95106 -3.35355
    endloop
  endfacet
  facet normal -0.760429 -0.649421 -0
    outer loop
      vertex -2.86968 -1.58778 3.35355
      vertex -2.86968 -1.58778 -3.35355
      vertex -2.76777 -1.70711 3.35355
    endloop
  endfacet
  facet normal 0 -0 1
    outer loop
      vertex -1.35355 -2 4.06066
      vertex 2.24456 1.45399 4.06066
      vertex -1.50999 -1.98769 4.06066
    endloop
  endfacet
  facet normal 0.0782056 0.993865 0.0782045
    outer loop
      vertex 1.50999 1.98769 4.06066
      vertex 2.21709 1.98769 3.35355
      vertex 1.35355 2 4.06066
    endloop
  endfacet
  facet normal 0.227326 0.946914 -0.227326
    outer loop
      vertex 1.66257 1.95106 -4.06066
      vertex 1.50999 1.98769 -4.06066
      vertex 2.36968 1.95106 -3.35355
    endloop
  endfacet
  facet normal -0 1 0
    outer loop
      vertex -2.06066 2 3.35355
      vertex -1.35355 2 4.06066
      vertex -2.06066 2 -3.35355
    endloop
  endfacet
  facet normal 0 0 1
    outer loop
      vertex -2.34124 1.15643 4.06066
      vertex 2.24456 1.45399 4.06066
      vertex -2.30461 1.30902 4.06066
    endloop
  endfacet
  facet normal 0 -1 0
    outer loop
      vertex 1.35355 -2 -4.06066
      vertex 1.35355 -2 4.06066
      vertex -1.35355 -2 -4.06066
    endloop
  endfacet
  facet normal -0 0 1
    outer loop
      vertex -1.94134 1.80902 4.06066
      vertex 2.24456 1.45399 4.06066
      vertex -1.80754 1.89101 4.06066
    endloop
  endfacet
  facet normal -0.382691 -0.923876 0
    outer loop
      vertex -2.36968 -1.95106 -3.35355
      vertex -2.36968 -1.95106 3.35355
      vertex -2.51465 -1.89101 -3.35355
    endloop
  endfacet
  facet normal -0.382691 -0.923876 0
    outer loop
      vertex -2.51465 -1.89101 -3.35355
      vertex -2.36968 -1.95106 3.35355
      vertex -2.51465 -1.89101 3.35355
    endloop
  endfacet
  facet normal 0.706015 -0.0555587 0.706015
    outer loop
      vertex 3.06066 -1 3.35355
      vertex 2.35355 -1 4.06066
      vertex 3.04835 -1.15643 3.35355
    endloop
  endfacet
  facet normal 0.707107 0 0.707107
    outer loop
      vertex 2.35355 1 4.06066
      vertex 2.35355 -1 4.06066
      vertex 3.06066 1 3.35355
    endloop
  endfacet
  facet normal 0 1 0
    outer loop
      vertex -1.35355 2 -4.06066
      vertex -1.35355 2 4.06066
      vertex 1.35355 2 -4.06066
    endloop
  endfacet
  facet normal -0 0 1
    outer loop
      vertex -1.80754 1.89101 4.06066
      vertex 2.24456 1.45399 4.06066
      vertex -1.66257 1.95106 4.06066
    endloop
  endfacet
  facet normal -0.707107 0 -0.707107
    outer loop
      vertex -2.35355 -1 -4.06066
      vertex -3.06066 1 -3.35355
      vertex -2.35355 1 -4.06066
    endloop
  endfacet
  facet normal -0.707107 0 -0.707107
    outer loop
      vertex -3.06066 -1 -3.35355
      vertex -3.06066 1 -3.35355
      vertex -2.35355 -1 -4.06066
    endloop
  endfacet
  facet normal -0.760429 0.649421 0
    outer loop
      vertex -2.76777 1.70711 -3.35355
      vertex -2.86968 1.58778 3.35355
      vertex -2.76777 1.70711 3.35355
    endloop
  endfacet
  facet normal 0 0 1
    outer loop
      vertex 2.30461 1.30902 4.06066
      vertex 2.24456 1.45399 4.06066
      vertex 2.34124 1.15643 4.06066
    endloop
  endfacet
  facet normal -0.972375 0.233424 0
    outer loop
      vertex -3.01172 1.30902 3.35355
      vertex -3.04835 1.15643 -3.35355
      vertex -3.04835 1.15643 3.35355
    endloop
  endfacet
  facet normal 0 -0 1
    outer loop
      vertex 1.80754 -1.89101 4.06066
      vertex 2.24456 1.45399 4.06066
      vertex 1.66257 -1.95106 4.06066
    endloop
  endfacet
  facet normal 0.852631 0.522514 0
    outer loop
      vertex 2.86968 1.58778 3.35355
      vertex 2.95167 1.45399 3.35355
      vertex 2.86968 1.58778 -3.35355
    endloop
  endfacet
  facet normal 0 1 0
    outer loop
      vertex 2.06066 2 3.35355
      vertex -1.35355 2 4.06066
      vertex 1.35355 2 4.06066
    endloop
  endfacet
  facet normal 0.463106 0.755689 -0.463106
    outer loop
      vertex 2.51465 1.89101 -3.35355
      vertex 2.64844 1.80902 -3.35355
      vertex 1.80754 1.89101 -4.06066
    endloop
  endfacet
  facet normal 0.522514 0.852631 0
    outer loop
      vertex 2.51465 1.89101 3.35355
      vertex 2.64844 1.80902 -3.35355
      vertex 2.51465 1.89101 -3.35355
    endloop
  endfacet
  facet normal 0.522514 -0.852631 0
    outer loop
      vertex 2.51465 -1.89101 3.35355
      vertex 2.64844 -1.80902 -3.35355
      vertex 2.64844 -1.80902 3.35355
    endloop
  endfacet
  facet normal -0 -0 -1
    outer loop
      vertex 1.50999 1.98769 -4.06066
      vertex 1.94134 -1.80902 -4.06066
      vertex 1.35355 2 -4.06066
    endloop
  endfacet
  facet normal 0.227326 -0.946914 0.227323
    outer loop
      vertex 2.21709 -1.98769 3.35355
      vertex 1.66257 -1.95106 4.06066
      vertex 1.50999 -1.98769 4.06066
    endloop
  endfacet
  facet normal 0.64881 0.397608 0.64881
    outer loop
      vertex 2.86968 1.58778 3.35355
      vertex 2.24456 1.45399 4.06066
      vertex 2.95167 1.45399 3.35355
    endloop
  endfacet
  facet normal -0.544649 -0.637749 -0.544641
    outer loop
      vertex -2.76777 -1.70711 -3.35355
      vertex -1.94134 -1.80902 -4.06066
      vertex -2.64844 -1.80902 -3.35355
    endloop
  endfacet
  facet normal 0.522514 -0.852631 0
    outer loop
      vertex 2.51465 -1.89101 -3.35355
      vertex 2.64844 -1.80902 -3.35355
      vertex 2.51465 -1.89101 3.35355
    endloop
  endfacet
  facet normal 0.678597 -0.281091 0.678597
    outer loop
      vertex 2.95167 -1.45399 3.35355
      vertex 3.01172 -1.30902 3.35355
      vertex 2.24456 -1.45399 4.06066
    endloop
  endfacet
  facet normal 0.697135 -0.167351 -0.697135
    outer loop
      vertex 2.30461 -1.30902 -4.06066
      vertex 3.04835 -1.15643 -3.35355
      vertex 3.01172 -1.30902 -3.35355
    endloop
  endfacet
  facet normal 0.760429 -0.649421 0
    outer loop
      vertex 2.86968 -1.58778 -3.35355
      vertex 2.86968 -1.58778 3.35355
      vertex 2.76777 -1.70711 -3.35355
    endloop
  endfacet
  facet normal 0.852631 -0.522514 0
    outer loop
      vertex 2.95167 -1.45399 -3.35355
      vertex 2.86968 -1.58778 3.35355
      vertex 2.86968 -1.58778 -3.35355
    endloop
  endfacet
  facet normal -0.697135 -0.167351 -0.697135
    outer loop
      vertex -2.30461 -1.30902 -4.06066
      vertex -3.04835 -1.15643 -3.35355
      vertex -2.34124 -1.15643 -4.06066
    endloop
  endfacet
  facet normal -0.706015 -0.0555587 -0.706015
    outer loop
      vertex -2.35355 -1 -4.06066
      vertex -3.04835 -1.15643 -3.35355
      vertex -3.06066 -1 -3.35355
    endloop
  endfacet
  facet normal -0.227313 0.94692 -0.227313
    outer loop
      vertex -2.36968 1.95106 -3.35355
      vertex -2.21709 1.98769 -3.35355
      vertex -1.66257 1.95106 -4.06066
    endloop
  endfacet
  facet normal -0.357413 0.862851 -0.357413
    outer loop
      vertex -1.80754 1.89101 -4.06066
      vertex -2.36968 1.95106 -3.35355
      vertex -1.66257 1.95106 -4.06066
    endloop
  endfacet
  facet normal 0 0 -1
    outer loop
      vertex -2.06066 -1.70711 -4.06066
      vertex 1.94134 -1.80902 -4.06066
      vertex -1.94134 -1.80902 -4.06066
    endloop
  endfacet
  facet normal 0 0 -1
    outer loop
      vertex -1.94134 -1.80902 -4.06066
      vertex 1.94134 -1.80902 -4.06066
      vertex -1.80754 -1.89101 -4.06066
    endloop
  endfacet
  facet normal -0.357413 -0.862851 -0.357413
    outer loop
      vertex -1.80754 -1.89101 -4.06066
      vertex -1.66257 -1.95106 -4.06066
      vertex -2.51465 -1.89101 -3.35355
    endloop
  endfacet
  facet normal 0.357413 -0.862851 -0.357413
    outer loop
      vertex 2.36968 -1.95106 -3.35355
      vertex 1.66257 -1.95106 -4.06066
      vertex 2.51465 -1.89101 -3.35355
    endloop
  endfacet
  facet normal -0.64881 0.397608 -0.64881
    outer loop
      vertex -2.16257 1.58778 -4.06066
      vertex -2.95167 1.45399 -3.35355
      vertex -2.86968 1.58778 -3.35355
    endloop
  endfacet
  facet normal -0.64881 0.397608 -0.64881
    outer loop
      vertex -2.24456 1.45399 -4.06066
      vertex -2.95167 1.45399 -3.35355
      vertex -2.16257 1.58778 -4.06066
    endloop
  endfacet
  facet normal 0.923876 -0.382691 0
    outer loop
      vertex 2.95167 -1.45399 3.35355
      vertex 3.01172 -1.30902 -3.35355
      vertex 3.01172 -1.30902 3.35355
    endloop
  endfacet
  facet normal 0.923876 -0.382691 0
    outer loop
      vertex 2.95167 -1.45399 -3.35355
      vertex 3.01172 -1.30902 -3.35355
      vertex 2.95167 -1.45399 3.35355
    endloop
  endfacet
  facet normal 0.697135 0.167351 -0.697135
    outer loop
      vertex 2.30461 1.30902 -4.06066
      vertex 3.04835 1.15643 -3.35355
      vertex 2.34124 1.15643 -4.06066
    endloop
  endfacet
  facet normal 0.706015 0.0555587 -0.706015
    outer loop
      vertex 2.34124 1.15643 -4.06066
      vertex 3.04835 1.15643 -3.35355
      vertex 2.35355 1 -4.06066
    endloop
  endfacet
  facet normal 0.649421 0.760429 -0
    outer loop
      vertex 2.76777 1.70711 -3.35355
      vertex 2.64844 1.80902 -3.35355
      vertex 2.76777 1.70711 3.35355
    endloop
  endfacet
  facet normal -0 0 -1
    outer loop
      vertex 2.16257 1.58778 -4.06066
      vertex 1.94134 -1.80902 -4.06066
      vertex 2.06066 1.70711 -4.06066
    endloop
  endfacet
  facet normal -0.923876 -0.382691 0
    outer loop
      vertex -2.95167 -1.45399 -3.35355
      vertex -3.01172 -1.30902 3.35355
      vertex -3.01172 -1.30902 -3.35355
    endloop
  endfacet
  facet normal -0.544649 0.637749 0.544641
    outer loop
      vertex -2.76777 1.70711 3.35355
      vertex -1.94134 1.80902 4.06066
      vertex -2.64844 1.80902 3.35355
    endloop
  endfacet
  facet normal 0 0 1
    outer loop
      vertex 2.34124 -1.15643 4.06066
      vertex 2.24456 1.45399 4.06066
      vertex 2.30461 -1.30902 4.06066
    endloop
  endfacet
  facet normal 0.463107 -0.755691 -0.463101
    outer loop
      vertex 2.51465 -1.89101 -3.35355
      vertex 1.94134 -1.80902 -4.06066
      vertex 2.64844 -1.80902 -3.35355
    endloop
  endfacet
  facet normal -0 0 -1
    outer loop
      vertex 2.16257 -1.58778 -4.06066
      vertex 1.94134 -1.80902 -4.06066
      vertex 2.24456 -1.45399 -4.06066
    endloop
  endfacet
  facet normal -0 0 -1
    outer loop
      vertex 2.35355 -1 -4.06066
      vertex 1.94134 -1.80902 -4.06066
      vertex 2.35355 1 -4.06066
    endloop
  endfacet
  facet normal 0.760429 0.649421 0
    outer loop
      vertex 2.86968 1.58778 3.35355
      vertex 2.86968 1.58778 -3.35355
      vertex 2.76777 1.70711 3.35355
    endloop
  endfacet
  facet normal 0 0 1
    outer loop
      vertex 1.66257 1.95106 4.06066
      vertex 2.24456 1.45399 4.06066
      vertex 1.80754 1.89101 4.06066
    endloop
  endfacet
  facet normal 0 -0 -1
    outer loop
      vertex -1.80754 1.89101 -4.06066
      vertex 1.94134 -1.80902 -4.06066
      vertex -1.94134 1.80902 -4.06066
    endloop
  endfacet
  facet normal -0.649421 -0.760429 0
    outer loop
      vertex -2.64844 -1.80902 -3.35355
      vertex -2.64844 -1.80902 3.35355
      vertex -2.76777 -1.70711 -3.35355
    endloop
  endfacet
  facet normal -0 -0 -1
    outer loop
      vertex 1.94134 1.80902 -4.06066
      vertex 1.94134 -1.80902 -4.06066
      vertex 1.80754 1.89101 -4.06066
    endloop
  endfacet
  facet normal -0 0 -1
    outer loop
      vertex 2.06066 1.70711 -4.06066
      vertex 1.94134 -1.80902 -4.06066
      vertex 1.94134 1.80902 -4.06066
    endloop
  endfacet
  facet normal -0.6053 -0.516937 -0.6053
    outer loop
      vertex -2.76777 -1.70711 -3.35355
      vertex -2.86968 -1.58778 -3.35355
      vertex -2.06066 -1.70711 -4.06066
    endloop
  endfacet
  facet normal -0.760429 -0.649421 -0
    outer loop
      vertex -2.76777 -1.70711 3.35355
      vertex -2.86968 -1.58778 -3.35355
      vertex -2.76777 -1.70711 -3.35355
    endloop
  endfacet
  facet normal 0.0784508 -0.996918 0
    outer loop
      vertex 2.06066 -2 3.35355
      vertex 2.21709 -1.98769 -3.35355
      vertex 2.21709 -1.98769 3.35355
    endloop
  endfacet
  facet normal -0.0782056 -0.993865 -0.0782045
    outer loop
      vertex -1.35355 -2 -4.06066
      vertex -2.21709 -1.98769 -3.35355
      vertex -1.50999 -1.98769 -4.06066
    endloop
  endfacet
  facet normal -0 0 1
    outer loop
      vertex -1.35355 2 4.06066
      vertex 2.24456 1.45399 4.06066
      vertex 1.35355 2 4.06066
    endloop
  endfacet
  facet normal -0.357413 0.862851 0.357413
    outer loop
      vertex -2.51465 1.89101 3.35355
      vertex -1.66257 1.95106 4.06066
      vertex -2.36968 1.95106 3.35355
    endloop
  endfacet
  facet normal 0 -0 -1
    outer loop
      vertex -1.50999 1.98769 -4.06066
      vertex 1.94134 -1.80902 -4.06066
      vertex -1.66257 1.95106 -4.06066
    endloop
  endfacet
  facet normal 0.0782056 -0.993865 -0.0782045
    outer loop
      vertex 1.50999 -1.98769 -4.06066
      vertex 2.21709 -1.98769 -3.35355
      vertex 1.35355 -2 -4.06066
    endloop
  endfacet
  facet normal 0 -0 -1
    outer loop
      vertex -2.30461 1.30902 -4.06066
      vertex 1.94134 -1.80902 -4.06066
      vertex -2.34124 1.15643 -4.06066
    endloop
  endfacet
  facet normal 0 -0 -1
    outer loop
      vertex -2.24456 1.45399 -4.06066
      vertex 1.94134 -1.80902 -4.06066
      vertex -2.30461 1.30902 -4.06066
    endloop
  endfacet
  facet normal 0.544649 -0.637749 -0.544641
    outer loop
      vertex 2.64844 -1.80902 -3.35355
      vertex 1.94134 -1.80902 -4.06066
      vertex 2.76777 -1.70711 -3.35355
    endloop
  endfacet
  facet normal -0 0 -1
    outer loop
      vertex 2.06066 -1.70711 -4.06066
      vertex 1.94134 -1.80902 -4.06066
      vertex 2.16257 -1.58778 -4.06066
    endloop
  endfacet
  facet normal -0.0784508 -0.996918 -0
    outer loop
      vertex -2.06066 -2 3.35355
      vertex -2.21709 -1.98769 -3.35355
      vertex -2.06066 -2 -3.35355
    endloop
  endfacet
  facet normal -0.0784508 -0.996918 -0
    outer loop
      vertex -2.21709 -1.98769 3.35355
      vertex -2.21709 -1.98769 -3.35355
      vertex -2.06066 -2 3.35355
    endloop
  endfacet
  facet normal 0.227326 0.946914 0.227323
    outer loop
      vertex 1.66257 1.95106 4.06066
      vertex 2.21709 1.98769 3.35355
      vertex 1.50999 1.98769 4.06066
    endloop
  endfacet
  facet normal 0.227313 0.94692 0.227313
    outer loop
      vertex 2.36968 1.95106 3.35355
      vertex 2.21709 1.98769 3.35355
      vertex 1.66257 1.95106 4.06066
    endloop
  endfacet
  facet normal 0.544649 -0.637749 0.544641
    outer loop
      vertex 2.76777 -1.70711 3.35355
      vertex 1.94134 -1.80902 4.06066
      vertex 2.64844 -1.80902 3.35355
    endloop
  endfacet
  facet normal -0.544668 -0.637717 0.54466
    outer loop
      vertex -2.06066 -1.70711 4.06066
      vertex -2.64844 -1.80902 3.35355
      vertex -1.94134 -1.80902 4.06066
    endloop
  endfacet
  facet normal -0.522514 0.852631 0
    outer loop
      vertex -2.64844 1.80902 -3.35355
      vertex -2.51465 1.89101 3.35355
      vertex -2.51465 1.89101 -3.35355
    endloop
  endfacet
  facet normal -0.522514 0.852631 0
    outer loop
      vertex -2.64844 1.80902 3.35355
      vertex -2.51465 1.89101 3.35355
      vertex -2.64844 1.80902 -3.35355
    endloop
  endfacet
  facet normal -0.697135 -0.167351 0.697135
    outer loop
      vertex -2.30461 -1.30902 4.06066
      vertex -3.04835 -1.15643 3.35355
      vertex -3.01172 -1.30902 3.35355
    endloop
  endfacet
  facet normal -0.64881 -0.397608 0.64881
    outer loop
      vertex -2.95167 -1.45399 3.35355
      vertex -2.16257 -1.58778 4.06066
      vertex -2.24456 -1.45399 4.06066
    endloop
  endfacet
  facet normal -0.227326 -0.946914 0.227326
    outer loop
      vertex -2.36968 -1.95106 3.35355
      vertex -1.50999 -1.98769 4.06066
      vertex -1.66257 -1.95106 4.06066
    endloop
  endfacet
  facet normal -0.227313 -0.946921 0.22731
    outer loop
      vertex -2.21709 -1.98769 3.35355
      vertex -1.50999 -1.98769 4.06066
      vertex -2.36968 -1.95106 3.35355
    endloop
  endfacet
  facet normal -0.357413 -0.862851 0.357413
    outer loop
      vertex -1.80754 -1.89101 4.06066
      vertex -2.36968 -1.95106 3.35355
      vertex -1.66257 -1.95106 4.06066
    endloop
  endfacet
  facet normal -0.357413 -0.862851 0.357413
    outer loop
      vertex -2.51465 -1.89101 3.35355
      vertex -2.36968 -1.95106 3.35355
      vertex -1.80754 -1.89101 4.06066
    endloop
  endfacet
  facet normal -0.6053 -0.516937 0.6053
    outer loop
      vertex -2.06066 -1.70711 4.06066
      vertex -2.16257 -1.58778 4.06066
      vertex -2.76777 -1.70711 3.35355
    endloop
  endfacet
  facet normal 0 -0 1
    outer loop
      vertex -1.66257 -1.95106 4.06066
      vertex 2.24456 1.45399 4.06066
      vertex -1.80754 -1.89101 4.06066
    endloop
  endfacet
  facet normal -0.64881 0.397608 0.64881
    outer loop
      vertex -2.24456 1.45399 4.06066
      vertex -2.16257 1.58778 4.06066
      vertex -2.95167 1.45399 3.35355
    endloop
  endfacet
  facet normal -0.64881 -0.397608 0.64881
    outer loop
      vertex -2.86968 -1.58778 3.35355
      vertex -2.16257 -1.58778 4.06066
      vertex -2.95167 -1.45399 3.35355
    endloop
  endfacet
  facet normal -0.6053 -0.516937 0.6053
    outer loop
      vertex -2.76777 -1.70711 3.35355
      vertex -2.16257 -1.58778 4.06066
      vertex -2.86968 -1.58778 3.35355
    endloop
  endfacet
  facet normal -0.707107 0 0.707107
    outer loop
      vertex -2.35355 -1 4.06066
      vertex -2.35355 1 4.06066
      vertex -3.06066 -1 3.35355
    endloop
  endfacet
  facet normal -0.697135 0.167351 -0.697135
    outer loop
      vertex -2.34124 1.15643 -4.06066
      vertex -3.04835 1.15643 -3.35355
      vertex -2.30461 1.30902 -4.06066
    endloop
  endfacet
  facet normal -0.706015 0.0555587 -0.706015
    outer loop
      vertex -2.35355 1 -4.06066
      vertex -3.04835 1.15643 -3.35355
      vertex -2.34124 1.15643 -4.06066
    endloop
  endfacet
  facet normal -0.852631 0.522514 0
    outer loop
      vertex -2.95167 1.45399 3.35355
      vertex -2.86968 1.58778 3.35355
      vertex -2.95167 1.45399 -3.35355
    endloop
  endfacet
  facet normal -0.678597 0.281091 0.678597
    outer loop
      vertex -3.01172 1.30902 3.35355
      vertex -2.30461 1.30902 4.06066
      vertex -2.95167 1.45399 3.35355
    endloop
  endfacet
  facet normal -0.678597 0.281091 0.678597
    outer loop
      vertex -2.95167 1.45399 3.35355
      vertex -2.30461 1.30902 4.06066
      vertex -2.24456 1.45399 4.06066
    endloop
  endfacet
  facet normal -0.0784508 0.996918 0
    outer loop
      vertex -2.21709 1.98769 -3.35355
      vertex -2.21709 1.98769 3.35355
      vertex -2.06066 2 -3.35355
    endloop
  endfacet
  facet normal 0.972375 0.233424 0
    outer loop
      vertex 3.01172 1.30902 3.35355
      vertex 3.04835 1.15643 -3.35355
      vertex 3.01172 1.30902 -3.35355
    endloop
  endfacet
  facet normal 0.923876 0.382691 0
    outer loop
      vertex 2.95167 1.45399 3.35355
      vertex 3.01172 1.30902 -3.35355
      vertex 2.95167 1.45399 -3.35355
    endloop
  endfacet
  facet normal 0.463088 0.755715 0.463081
    outer loop
      vertex 1.94134 1.80902 4.06066
      vertex 2.64844 1.80902 3.35355
      vertex 1.80754 1.89101 4.06066
    endloop
  endfacet
  facet normal 0.544668 0.637717 0.54466
    outer loop
      vertex 2.06066 1.70711 4.06066
      vertex 2.64844 1.80902 3.35355
      vertex 1.94134 1.80902 4.06066
    endloop
  endfacet
  facet normal 0 -0 1
    outer loop
      vertex 1.50999 -1.98769 4.06066
      vertex 2.24456 1.45399 4.06066
      vertex 1.35355 -2 4.06066
    endloop
  endfacet
  facet normal 0 0 1
    outer loop
      vertex 2.35355 -1 4.06066
      vertex 2.24456 1.45399 4.06066
      vertex 2.34124 -1.15643 4.06066
    endloop
  endfacet
  facet normal 0 -1 0
    outer loop
      vertex -2.06066 -2 3.35355
      vertex 1.35355 -2 4.06066
      vertex -1.35355 -2 4.06066
    endloop
  endfacet
  facet normal 0 -1 0
    outer loop
      vertex -2.06066 -2 -3.35355
      vertex 1.35355 -2 4.06066
      vertex -2.06066 -2 3.35355
    endloop
  endfacet
  facet normal -0 -0 -1
    outer loop
      vertex 1.66257 1.95106 -4.06066
      vertex 1.94134 -1.80902 -4.06066
      vertex 1.50999 1.98769 -4.06066
    endloop
  endfacet
  facet normal 0.649421 -0.760429 0
    outer loop
      vertex 2.76777 -1.70711 3.35355
      vertex 2.64844 -1.80902 -3.35355
      vertex 2.76777 -1.70711 -3.35355
    endloop
  endfacet
  facet normal -0.996918 -0.0784508 0
    outer loop
      vertex -3.04835 -1.15643 -3.35355
      vertex -3.04835 -1.15643 3.35355
      vertex -3.06066 -1 -3.35355
    endloop
  endfacet
  facet normal -0.706015 -0.0555587 0.706015
    outer loop
      vertex -2.35355 -1 4.06066
      vertex -3.04835 -1.15643 3.35355
      vertex -2.34124 -1.15643 4.06066
    endloop
  endfacet
  facet normal -0.233424 0.972375 0
    outer loop
      vertex -2.36968 1.95106 3.35355
      vertex -2.21709 1.98769 3.35355
      vertex -2.36968 1.95106 -3.35355
    endloop
  endfacet
  facet normal 0 0 1
    outer loop
      vertex 2.30461 -1.30902 4.06066
      vertex 2.24456 1.45399 4.06066
      vertex 2.24456 -1.45399 4.06066
    endloop
  endfacet
  facet normal 0.706015 -0.0555587 -0.706015
    outer loop
      vertex 2.35355 -1 -4.06066
      vertex 3.04835 -1.15643 -3.35355
      vertex 2.34124 -1.15643 -4.06066
    endloop
  endfacet
  facet normal 0.706015 -0.0555587 -0.706015
    outer loop
      vertex 3.06066 -1 -3.35355
      vertex 3.04835 -1.15643 -3.35355
      vertex 2.35355 -1 -4.06066
    endloop
  endfacet
  facet normal 0 -0 -1
    outer loop
      vertex -2.16257 1.58778 -4.06066
      vertex 1.94134 -1.80902 -4.06066
      vertex -2.24456 1.45399 -4.06066
    endloop
  endfacet
  facet normal 0 -0 -1
    outer loop
      vertex -2.06066 1.70711 -4.06066
      vertex 1.94134 -1.80902 -4.06066
      vertex -2.16257 1.58778 -4.06066
    endloop
  endfacet
  facet normal 0 -0 1
    outer loop
      vertex -1.50999 -1.98769 4.06066
      vertex 2.24456 1.45399 4.06066
      vertex -1.66257 -1.95106 4.06066
    endloop
  endfacet
  facet normal 0 -0 1
    outer loop
      vertex 1.94134 -1.80902 4.06066
      vertex 2.24456 1.45399 4.06066
      vertex 1.80754 -1.89101 4.06066
    endloop
  endfacet
  facet normal -0.64881 -0.397608 -0.64881
    outer loop
      vertex -2.16257 -1.58778 -4.06066
      vertex -2.86968 -1.58778 -3.35355
      vertex -2.24456 -1.45399 -4.06066
    endloop
  endfacet
  facet normal -0.6053 -0.516937 -0.6053
    outer loop
      vertex -2.06066 -1.70711 -4.06066
      vertex -2.86968 -1.58778 -3.35355
      vertex -2.16257 -1.58778 -4.06066
    endloop
  endfacet
  facet normal 0 0 -1
    outer loop
      vertex 1.35355 -2 -4.06066
      vertex 1.94134 -1.80902 -4.06066
      vertex 1.50999 -1.98769 -4.06066
    endloop
  endfacet
  facet normal 0 0 -1
    outer loop
      vertex 1.50999 -1.98769 -4.06066
      vertex 1.94134 -1.80902 -4.06066
      vertex 1.66257 -1.95106 -4.06066
    endloop
  endfacet
  facet normal 0 -0 1
    outer loop
      vertex -2.06066 -1.70711 4.06066
      vertex 2.24456 1.45399 4.06066
      vertex -2.16257 -1.58778 4.06066
    endloop
  endfacet
  facet normal -0 0 1
    outer loop
      vertex -1.66257 1.95106 4.06066
      vertex 2.24456 1.45399 4.06066
      vertex -1.50999 1.98769 4.06066
    endloop
  endfacet
  facet normal 0.678597 0.281091 0.678597
    outer loop
      vertex 3.01172 1.30902 3.35355
      vertex 2.24456 1.45399 4.06066
      vertex 2.30461 1.30902 4.06066
    endloop
  endfacet
  facet normal 0.678597 0.281091 0.678597
    outer loop
      vertex 2.95167 1.45399 3.35355
      vertex 2.24456 1.45399 4.06066
      vertex 3.01172 1.30902 3.35355
    endloop
  endfacet
  facet normal -0.522514 -0.852631 0
    outer loop
      vertex -2.51465 -1.89101 -3.35355
      vertex -2.64844 -1.80902 3.35355
      vertex -2.64844 -1.80902 -3.35355
    endloop
  endfacet
  facet normal -0.522514 -0.852631 -0
    outer loop
      vertex -2.51465 -1.89101 3.35355
      vertex -2.64844 -1.80902 3.35355
      vertex -2.51465 -1.89101 -3.35355
    endloop
  endfacet
  facet normal 0 -0 1
    outer loop
      vertex -2.16257 -1.58778 4.06066
      vertex 2.24456 1.45399 4.06066
      vertex -2.24456 -1.45399 4.06066
    endloop
  endfacet
  facet normal 0 0 1
    outer loop
      vertex -2.35355 -1 4.06066
      vertex 2.24456 1.45399 4.06066
      vertex -2.35355 1 4.06066
    endloop
  endfacet
  facet normal 0 -0 1
    outer loop
      vertex 2.06066 -1.70711 4.06066
      vertex 2.24456 1.45399 4.06066
      vertex 1.94134 -1.80902 4.06066
    endloop
  endfacet
  facet normal -0 0 1
    outer loop
      vertex -2.16257 1.58778 4.06066
      vertex 2.24456 1.45399 4.06066
      vertex -2.06066 1.70711 4.06066
    endloop
  endfacet
  facet normal -0 -1 0
    outer loop
      vertex 2.06066 -2 -3.35355
      vertex 1.35355 -2 4.06066
      vertex 1.35355 -2 -4.06066
    endloop
  endfacet
  facet normal -0 -1 -0
    outer loop
      vertex 2.06066 -2 3.35355
      vertex 1.35355 -2 4.06066
      vertex 2.06066 -2 -3.35355
    endloop
  endfacet
  facet normal -0.972375 -0.233424 0
    outer loop
      vertex -3.01172 -1.30902 -3.35355
      vertex -3.04835 -1.15643 3.35355
      vertex -3.04835 -1.15643 -3.35355
    endloop
  endfacet
  facet normal -0.697135 -0.167351 0.697135
    outer loop
      vertex -2.34124 -1.15643 4.06066
      vertex -3.04835 -1.15643 3.35355
      vertex -2.30461 -1.30902 4.06066
    endloop
  endfacet
  facet normal 0 0 1
    outer loop
      vertex 1.80754 1.89101 4.06066
      vertex 2.24456 1.45399 4.06066
      vertex 1.94134 1.80902 4.06066
    endloop
  endfacet
  facet normal 0.923876 0.382691 0
    outer loop
      vertex 3.01172 1.30902 3.35355
      vertex 3.01172 1.30902 -3.35355
      vertex 2.95167 1.45399 3.35355
    endloop
  endfacet
  facet normal 0.697135 0.167351 0.697135
    outer loop
      vertex 2.34124 1.15643 4.06066
      vertex 3.04835 1.15643 3.35355
      vertex 2.30461 1.30902 4.06066
    endloop
  endfacet
  facet normal 0.706015 0.0555587 0.706015
    outer loop
      vertex 2.35355 1 4.06066
      vertex 3.04835 1.15643 3.35355
      vertex 2.34124 1.15643 4.06066
    endloop
  endfacet
  facet normal 0.678597 0.281091 -0.678597
    outer loop
      vertex 2.24456 1.45399 -4.06066
      vertex 3.01172 1.30902 -3.35355
      vertex 2.30461 1.30902 -4.06066
    endloop
  endfacet
  facet normal 0.678597 0.281091 -0.678597
    outer loop
      vertex 2.95167 1.45399 -3.35355
      vertex 3.01172 1.30902 -3.35355
      vertex 2.24456 1.45399 -4.06066
    endloop
  endfacet
  facet normal 0.544668 0.637717 -0.54466
    outer loop
      vertex 1.94134 1.80902 -4.06066
      vertex 2.64844 1.80902 -3.35355
      vertex 2.06066 1.70711 -4.06066
    endloop
  endfacet
  facet normal 0.463088 0.755715 -0.463081
    outer loop
      vertex 1.80754 1.89101 -4.06066
      vertex 2.64844 1.80902 -3.35355
      vertex 1.94134 1.80902 -4.06066
    endloop
  endfacet
  facet normal 0 -0 -1
    outer loop
      vertex -1.35355 2 -4.06066
      vertex 1.94134 -1.80902 -4.06066
      vertex -1.50999 1.98769 -4.06066
    endloop
  endfacet
  facet normal -0 -0 -1
    outer loop
      vertex 1.35355 2 -4.06066
      vertex 1.94134 -1.80902 -4.06066
      vertex -1.35355 2 -4.06066
    endloop
  endfacet
  facet normal 0.0784508 -0.996918 0
    outer loop
      vertex 2.06066 -2 -3.35355
      vertex 2.21709 -1.98769 -3.35355
      vertex 2.06066 -2 3.35355
    endloop
  endfacet
  facet normal 0.0782105 -0.993864 -0.0782105
    outer loop
      vertex 1.35355 -2 -4.06066
      vertex 2.21709 -1.98769 -3.35355
      vertex 2.06066 -2 -3.35355
    endloop
  endfacet
  facet normal -0.64881 0.397608 0.64881
    outer loop
      vertex -2.95167 1.45399 3.35355
      vertex -2.16257 1.58778 4.06066
      vertex -2.86968 1.58778 3.35355
    endloop
  endfacet
  facet normal -0.6053 0.516937 0.6053
    outer loop
      vertex -2.76777 1.70711 3.35355
      vertex -2.16257 1.58778 4.06066
      vertex -2.06066 1.70711 4.06066
    endloop
  endfacet
  facet normal -0.0782105 0.993864 0.0782105
    outer loop
      vertex -2.06066 2 3.35355
      vertex -2.21709 1.98769 3.35355
      vertex -1.35355 2 4.06066
    endloop
  endfacet
  facet normal -0.0784508 0.996918 0
    outer loop
      vertex -2.06066 2 -3.35355
      vertex -2.21709 1.98769 3.35355
      vertex -2.06066 2 3.35355
    endloop
  endfacet
  facet normal 0 0 1
    outer loop
      vertex 2.34124 1.15643 4.06066
      vertex 2.24456 1.45399 4.06066
      vertex 2.35355 1 4.06066
    endloop
  endfacet
  facet normal 0 0 1
    outer loop
      vertex 2.35355 1 4.06066
      vertex 2.24456 1.45399 4.06066
      vertex 2.35355 -1 4.06066
    endloop
  endfacet
  facet normal 0 -0 1
    outer loop
      vertex 1.66257 -1.95106 4.06066
      vertex 2.24456 1.45399 4.06066
      vertex 1.50999 -1.98769 4.06066
    endloop
  endfacet
  facet normal 0 -0 1
    outer loop
      vertex 1.35355 -2 4.06066
      vertex 2.24456 1.45399 4.06066
      vertex -1.35355 -2 4.06066
    endloop
  endfacet
  facet normal 0 0 1
    outer loop
      vertex 1.50999 1.98769 4.06066
      vertex 2.24456 1.45399 4.06066
      vertex 1.66257 1.95106 4.06066
    endloop
  endfacet
  facet normal 0 0 1
    outer loop
      vertex 1.35355 2 4.06066
      vertex 2.24456 1.45399 4.06066
      vertex 1.50999 1.98769 4.06066
    endloop
  endfacet
  facet normal -0.706015 -0.0555587 0.706015
    outer loop
      vertex -3.06066 -1 3.35355
      vertex -3.04835 -1.15643 3.35355
      vertex -2.35355 -1 4.06066
    endloop
  endfacet
  facet normal -0.996918 -0.0784508 0
    outer loop
      vertex -3.06066 -1 -3.35355
      vertex -3.04835 -1.15643 3.35355
      vertex -3.06066 -1 3.35355
    endloop
  endfacet
  facet normal 0.64881 0.397608 0.64881
    outer loop
      vertex 2.16257 1.58778 4.06066
      vertex 2.24456 1.45399 4.06066
      vertex 2.86968 1.58778 3.35355
    endloop
  endfacet
  facet normal 0 0 1
    outer loop
      vertex 2.06066 1.70711 4.06066
      vertex 2.24456 1.45399 4.06066
      vertex 2.16257 1.58778 4.06066
    endloop
  endfacet
  facet normal 0.996918 0.0784508 -0
    outer loop
      vertex 3.06066 1 -3.35355
      vertex 3.04835 1.15643 -3.35355
      vertex 3.06066 1 3.35355
    endloop
  endfacet
  facet normal 0.706015 0.0555587 -0.706015
    outer loop
      vertex 2.35355 1 -4.06066
      vertex 3.04835 1.15643 -3.35355
      vertex 3.06066 1 -3.35355
    endloop
  endfacet
endsolid OpenSCAD_Model
