solid OpenSCAD_Model
  facet normal 0 0 -1
    outer loop
      vertex 3.08778 2.80902 -4.75
      vertex -1.09357 5.15275 -4.75
      vertex 2.95399 2.89101 -4.75
    endloop
  endfacet
  facet normal -0.707107 0 0.707107
    outer loop
      vertex -2.25 2.16506 4.75
      vertex -4.25 2.16506 2.75
      vertex -2.25 -2.16506 4.75
    endloop
  endfacet
  facet normal 0 0 1
    outer loop
      vertex -0.940984 3.11612 4.75
      vertex 3.30902 0.587785 4.75
      vertex -0.79601 3.05607 4.75
    endloop
  endfacet
  facet normal -1 0 0
    outer loop
      vertex -4.25 2.16506 -4.75
      vertex -4.25 -2.16506 -4.75
      vertex -4.25 2.16506 2.75
    endloop
  endfacet
  facet normal 0.167355 -0.697134 0.697134
    outer loop
      vertex -1.09357 -3.15275 4.75
      vertex -0.940984 -5.11612 2.75
      vertex -0.940984 -3.11612 4.75
    endloop
  endfacet
  facet normal 0 -0 1
    outer loop
      vertex -1.83778 -2.97408 4.75
      vertex 3.30902 0.587785 4.75
      vertex -1.95711 -2.87217 4.75
    endloop
  endfacet
  facet normal 0.0784508 0.996918 0
    outer loop
      vertex -1.25 5.16506 -4.75
      vertex -1.09357 5.15275 2.75
      vertex -1.09357 5.15275 -4.75
    endloop
  endfacet
  facet normal -0 0 1
    outer loop
      vertex -1.70399 3.05607 4.75
      vertex 3.30902 0.587785 4.75
      vertex -1.55902 3.11612 4.75
    endloop
  endfacet
  facet normal 0 0 1
    outer loop
      vertex 3.48769 -0.156434 4.75
      vertex 3.30902 0.587785 4.75
      vertex 3.45106 -0.309016 4.75
    endloop
  endfacet
  facet normal 0 -0 -1
    outer loop
      vertex -4.20106 2.47408 -4.75
      vertex -1.09357 5.15275 -4.75
      vertex -4.23769 2.3215 -4.75
    endloop
  endfacet
  facet normal 0.522514 -0.852631 0
    outer loop
      vertex 3.08778 -2.80902 -4.75
      vertex 2.95399 -2.89101 2.75
      vertex 2.95399 -2.89101 -4.75
    endloop
  endfacet
  facet normal 0 0 -1
    outer loop
      vertex -0.940984 -5.11612 -4.75
      vertex -1.09357 5.15275 -4.75
      vertex -0.79601 -5.05607 -4.75
    endloop
  endfacet
  facet normal -0.281091 0.678597 0.678597
    outer loop
      vertex -1.55902 3.11612 4.75
      vertex -1.55902 5.11612 2.75
      vertex -1.70399 3.05607 4.75
    endloop
  endfacet
  facet normal -0.706015 -0.0555551 0.706015
    outer loop
      vertex -2.23769 -2.3215 4.75
      vertex -2.25 -2.16506 4.75
      vertex -4.23769 -2.3215 2.75
    endloop
  endfacet
  facet normal 0 0 -1
    outer loop
      vertex -1.09357 -5.15275 -4.75
      vertex -1.09357 5.15275 -4.75
      vertex -0.940984 -5.11612 -4.75
    endloop
  endfacet
  facet normal -0.0555587 -0.706015 0.706015
    outer loop
      vertex -1.25 -3.16506 4.75
      vertex -1.40643 -5.15275 2.75
      vertex -1.25 -5.16506 2.75
    endloop
  endfacet
  facet normal -0.605286 -0.516969 0.605286
    outer loop
      vertex -2.05902 -2.75285 4.75
      vertex -4.05902 -2.75285 2.75
      vertex -1.95711 -2.87217 4.75
    endloop
  endfacet
  facet normal -0.972372 0.233438 0
    outer loop
      vertex -4.20106 2.47408 2.75
      vertex -4.23769 2.3215 -4.75
      vertex -4.23769 2.3215 2.75
    endloop
  endfacet
  facet normal 0.516933 -0.605301 0.605302
    outer loop
      vertex 3.20711 -0.707107 4.75
      vertex 3.08778 -0.809016 4.75
      vertex 3.20711 -2.70711 2.75
    endloop
  endfacet
  facet normal 0.649421 -0.760429 0
    outer loop
      vertex 3.20711 -2.70711 -4.75
      vertex 3.20711 -2.70711 2.75
      vertex 3.08778 -2.80902 -4.75
    endloop
  endfacet
  facet normal 0.516937 0.6053 0.6053
    outer loop
      vertex 3.08778 2.80902 2.75
      vertex 3.20711 0.707107 4.75
      vertex 3.20711 2.70711 2.75
    endloop
  endfacet
  facet normal -0.852648 0.522486 0
    outer loop
      vertex -4.05902 2.75285 2.75
      vertex -4.14101 2.61905 -4.75
      vertex -4.14101 2.61905 2.75
    endloop
  endfacet
  facet normal -0.706015 -0.0555551 0.706015
    outer loop
      vertex -4.23769 -2.3215 2.75
      vertex -2.25 -2.16506 4.75
      vertex -4.25 -2.16506 2.75
    endloop
  endfacet
  facet normal 0.499999 -0.866026 0
    outer loop
      vertex -0.79601 -5.05607 -4.75
      vertex 2.95399 -2.89101 2.75
      vertex -0.79601 -5.05607 2.75
    endloop
  endfacet
  facet normal -0.167351 0.697135 0.697135
    outer loop
      vertex -1.40643 3.15275 4.75
      vertex -1.40643 5.15275 2.75
      vertex -1.55902 3.11612 4.75
    endloop
  endfacet
  facet normal -0.706015 0.0555551 0.706015
    outer loop
      vertex -4.25 2.16506 2.75
      vertex -2.23769 2.3215 4.75
      vertex -4.23769 2.3215 2.75
    endloop
  endfacet
  facet normal -0.707107 0.707107 0
    outer loop
      vertex -1.95711 4.87217 2.75
      vertex -3.95711 2.87217 -4.75
      vertex -3.95711 2.87217 2.75
    endloop
  endfacet
  facet normal -1 -0 0
    outer loop
      vertex -4.25 2.16506 2.75
      vertex -4.25 -2.16506 -4.75
      vertex -4.25 -2.16506 2.75
    endloop
  endfacet
  facet normal 0 0 1
    outer loop
      vertex -0.79601 3.05607 4.75
      vertex 3.30902 0.587785 4.75
      vertex 2.95399 0.891006 4.75
    endloop
  endfacet
  facet normal -0.516937 -0.6053 0.6053
    outer loop
      vertex -1.83778 -4.97408 2.75
      vertex -1.83778 -2.97408 4.75
      vertex -1.95711 -4.87217 2.75
    endloop
  endfacet
  facet normal -0.382691 0.923876 0
    outer loop
      vertex -1.70399 5.05607 2.75
      vertex -1.55902 5.11612 -4.75
      vertex -1.70399 5.05607 -4.75
    endloop
  endfacet
  facet normal 0.0555587 -0.706015 0.706015
    outer loop
      vertex -1.09357 -3.15275 4.75
      vertex -1.25 -5.16506 2.75
      vertex -1.09357 -5.15275 2.75
    endloop
  endfacet
  facet normal -0.397608 0.64881 0.64881
    outer loop
      vertex -1.70399 3.05607 4.75
      vertex -1.83778 4.97408 2.75
      vertex -1.83778 2.97408 4.75
    endloop
  endfacet
  facet normal -0.0555587 0.706015 0.706015
    outer loop
      vertex -1.25 3.16506 4.75
      vertex -1.40643 5.15275 2.75
      vertex -1.40643 3.15275 4.75
    endloop
  endfacet
  facet normal -0.852648 -0.522486 0
    outer loop
      vertex -4.14101 -2.61905 2.75
      vertex -4.05902 -2.75285 -4.75
      vertex -4.05902 -2.75285 2.75
    endloop
  endfacet
  facet normal -0.649421 -0.760429 -0
    outer loop
      vertex -1.83778 -4.97408 2.75
      vertex -1.95711 -4.87217 -4.75
      vertex -1.83778 -4.97408 -4.75
    endloop
  endfacet
  facet normal 0.706015 -0.0555572 0.706015
    outer loop
      vertex 5.5 0 2.75
      vertex 3.48769 -0.156434 4.75
      vertex 5.48769 -0.156434 2.75
    endloop
  endfacet
  facet normal 0 0 1
    outer loop
      vertex 3.45106 -0.309016 4.75
      vertex 3.30902 0.587785 4.75
      vertex 3.39101 -0.45399 4.75
    endloop
  endfacet
  facet normal -0.697133 -0.167361 0.697133
    outer loop
      vertex -4.23769 -2.3215 2.75
      vertex -2.20106 -2.47408 4.75
      vertex -2.23769 -2.3215 4.75
    endloop
  endfacet
  facet normal -0.707107 0 0.707107
    outer loop
      vertex -2.25 -2.16506 4.75
      vertex -4.25 2.16506 2.75
      vertex -4.25 -2.16506 2.75
    endloop
  endfacet
  facet normal -0.760403 -0.649452 -0
    outer loop
      vertex -4.05902 -2.75285 2.75
      vertex -4.05902 -2.75285 -4.75
      vertex -3.95711 -2.87217 2.75
    endloop
  endfacet
  facet normal -0.923876 0.382691 0
    outer loop
      vertex -4.20106 2.47408 2.75
      vertex -4.14101 2.61905 -4.75
      vertex -4.20106 2.47408 -4.75
    endloop
  endfacet
  facet normal -0.57735 0.57735 0.57735
    outer loop
      vertex -1.95711 2.87217 4.75
      vertex -1.95711 4.87217 2.75
      vertex -3.95711 2.87217 2.75
    endloop
  endfacet
  facet normal -0.516937 0.6053 0.6053
    outer loop
      vertex -1.83778 2.97408 4.75
      vertex -1.83778 4.97408 2.75
      vertex -1.95711 2.87217 4.75
    endloop
  endfacet
  facet normal -0.678597 0.281091 0.678597
    outer loop
      vertex -2.20106 2.47408 4.75
      vertex -4.14101 2.61905 2.75
      vertex -4.20106 2.47408 2.75
    endloop
  endfacet
  facet normal -0.678597 0.281091 0.678597
    outer loop
      vertex -2.14101 2.61905 4.75
      vertex -4.14101 2.61905 2.75
      vertex -2.20106 2.47408 4.75
    endloop
  endfacet
  facet normal -0.972372 -0.233438 0
    outer loop
      vertex -4.23769 -2.3215 -4.75
      vertex -4.20106 -2.47408 -4.75
      vertex -4.23769 -2.3215 2.75
    endloop
  endfacet
  facet normal -0.996918 -0.0784458 0
    outer loop
      vertex -4.25 -2.16506 2.75
      vertex -4.23769 -2.3215 -4.75
      vertex -4.23769 -2.3215 2.75
    endloop
  endfacet
  facet normal 0.382682 -0.92388 0
    outer loop
      vertex -0.79601 -5.05607 -4.75
      vertex -0.940984 -5.11612 2.75
      vertex -0.940984 -5.11612 -4.75
    endloop
  endfacet
  facet normal 0.281084 -0.678599 0.678599
    outer loop
      vertex -0.940984 -3.11612 4.75
      vertex -0.940984 -5.11612 2.75
      vertex -0.79601 -3.05607 4.75
    endloop
  endfacet
  facet normal -0.697133 0.167361 0.697133
    outer loop
      vertex -4.23769 2.3215 2.75
      vertex -2.23769 2.3215 4.75
      vertex -4.20106 2.47408 2.75
    endloop
  endfacet
  facet normal -0.522514 -0.852631 0
    outer loop
      vertex -1.83778 -4.97408 2.75
      vertex -1.70399 -5.05607 -4.75
      vertex -1.70399 -5.05607 2.75
    endloop
  endfacet
  facet normal 0 -0 1
    outer loop
      vertex -0.940984 -3.11612 4.75
      vertex 3.30902 0.587785 4.75
      vertex -1.09357 -3.15275 4.75
    endloop
  endfacet
  facet normal 0.522514 0.852631 -0
    outer loop
      vertex 3.08778 2.80902 -4.75
      vertex 2.95399 2.89101 2.75
      vertex 3.08778 2.80902 2.75
    endloop
  endfacet
  facet normal -0.605286 0.516969 0.605286
    outer loop
      vertex -4.05902 2.75285 2.75
      vertex -2.05902 2.75285 4.75
      vertex -3.95711 2.87217 2.75
    endloop
  endfacet
  facet normal 0.397607 -0.648809 0.648811
    outer loop
      vertex 2.95399 -2.89101 2.75
      vertex 3.08778 -0.809016 4.75
      vertex 2.95399 -0.891006 4.75
    endloop
  endfacet
  facet normal 0.516937 -0.605299 0.605301
    outer loop
      vertex 3.20711 -2.70711 2.75
      vertex 3.08778 -0.809016 4.75
      vertex 3.08778 -2.80902 2.75
    endloop
  endfacet
  facet normal -0.281091 0.678597 0.678597
    outer loop
      vertex -1.70399 3.05607 4.75
      vertex -1.55902 5.11612 2.75
      vertex -1.70399 5.05607 2.75
    endloop
  endfacet
  facet normal 0.0555587 -0.706015 0.706015
    outer loop
      vertex -1.25 -3.16506 4.75
      vertex -1.25 -5.16506 2.75
      vertex -1.09357 -3.15275 4.75
    endloop
  endfacet
  facet normal 0.852639 0.5225 0
    outer loop
      vertex 5.30902 0.587785 2.75
      vertex 5.39101 0.45399 2.75
      vertex 5.30902 0.587785 -4.75
    endloop
  endfacet
  facet normal -0.57735 -0.57735 0.57735
    outer loop
      vertex -1.95711 -2.87217 4.75
      vertex -3.95711 -2.87217 2.75
      vertex -1.95711 -4.87217 2.75
    endloop
  endfacet
  facet normal -0.760403 0.649452 0
    outer loop
      vertex -4.05902 2.75285 2.75
      vertex -3.95711 2.87217 -4.75
      vertex -4.05902 2.75285 -4.75
    endloop
  endfacet
  facet normal 0.972372 0.233435 -0
    outer loop
      vertex 5.45106 0.309016 -4.75
      vertex 5.45106 0.309016 2.75
      vertex 5.48769 0.156434 -4.75
    endloop
  endfacet
  facet normal 0.281084 0.678599 0.678599
    outer loop
      vertex -0.79601 3.05607 4.75
      vertex -0.940984 5.11612 2.75
      vertex -0.940984 3.11612 4.75
    endloop
  endfacet
  facet normal 0.233429 -0.972374 0
    outer loop
      vertex -0.940984 -5.11612 2.75
      vertex -1.09357 -5.15275 -4.75
      vertex -0.940984 -5.11612 -4.75
    endloop
  endfacet
  facet normal -0.697133 -0.167361 0.697133
    outer loop
      vertex -4.20106 -2.47408 2.75
      vertex -2.20106 -2.47408 4.75
      vertex -4.23769 -2.3215 2.75
    endloop
  endfacet
  facet normal 0.648814 -0.397595 0.648814
    outer loop
      vertex 5.39101 -0.45399 2.75
      vertex 3.30902 -0.587785 4.75
      vertex 5.30902 -0.587785 2.75
    endloop
  endfacet
  facet normal -0.233424 0.972375 0
    outer loop
      vertex -1.40643 5.15275 2.75
      vertex -1.40643 5.15275 -4.75
      vertex -1.55902 5.11612 2.75
    endloop
  endfacet
  facet normal -0.852648 0.522486 0
    outer loop
      vertex -4.05902 2.75285 -4.75
      vertex -4.14101 2.61905 -4.75
      vertex -4.05902 2.75285 2.75
    endloop
  endfacet
  facet normal -0.605286 -0.516969 0.605286
    outer loop
      vertex -1.95711 -2.87217 4.75
      vertex -4.05902 -2.75285 2.75
      vertex -3.95711 -2.87217 2.75
    endloop
  endfacet
  facet normal -0.516937 0.6053 0.6053
    outer loop
      vertex -1.95711 2.87217 4.75
      vertex -1.83778 4.97408 2.75
      vertex -1.95711 4.87217 2.75
    endloop
  endfacet
  facet normal -0.648817 -0.397583 0.648817
    outer loop
      vertex -2.14101 -2.61905 4.75
      vertex -4.05902 -2.75285 2.75
      vertex -2.05902 -2.75285 4.75
    endloop
  endfacet
  facet normal -0.649421 0.760429 0
    outer loop
      vertex -1.95711 4.87217 2.75
      vertex -1.83778 4.97408 -4.75
      vertex -1.95711 4.87217 -4.75
    endloop
  endfacet
  facet normal 0.649421 0.760429 0
    outer loop
      vertex 3.08778 2.80902 2.75
      vertex 3.20711 2.70711 -4.75
      vertex 3.08778 2.80902 -4.75
    endloop
  endfacet
  facet normal 0 -0 -1
    outer loop
      vertex -1.25 5.16506 -4.75
      vertex -1.09357 5.15275 -4.75
      vertex -1.40643 5.15275 -4.75
    endloop
  endfacet
  facet normal -0.706015 0.0555551 0.706015
    outer loop
      vertex -2.25 2.16506 4.75
      vertex -2.23769 2.3215 4.75
      vertex -4.25 2.16506 2.75
    endloop
  endfacet
  facet normal 0.707107 0.707106 0
    outer loop
      vertex 3.20711 2.70711 2.75
      vertex 5.20711 0.707107 2.75
      vertex 3.20711 2.70711 -4.75
    endloop
  endfacet
  facet normal -0.996918 -0.0784458 0
    outer loop
      vertex -4.25 -2.16506 -4.75
      vertex -4.23769 -2.3215 -4.75
      vertex -4.25 -2.16506 2.75
    endloop
  endfacet
  facet normal 0 -0 1
    outer loop
      vertex -1.09357 -3.15275 4.75
      vertex 3.30902 0.587785 4.75
      vertex -1.25 -3.16506 4.75
    endloop
  endfacet
  facet normal -0.697133 0.167361 0.697133
    outer loop
      vertex -4.20106 2.47408 2.75
      vertex -2.23769 2.3215 4.75
      vertex -2.20106 2.47408 4.75
    endloop
  endfacet
  facet normal 0.697134 -0.167359 0.697134
    outer loop
      vertex 5.48769 -0.156434 2.75
      vertex 3.48769 -0.156434 4.75
      vertex 5.45106 -0.309016 2.75
    endloop
  endfacet
  facet normal -0 0 1
    outer loop
      vertex -1.95711 2.87217 4.75
      vertex 3.30902 0.587785 4.75
      vertex -1.83778 2.97408 4.75
    endloop
  endfacet
  facet normal -0.678597 -0.281091 0.678597
    outer loop
      vertex -2.20106 -2.47408 4.75
      vertex -4.14101 -2.61905 2.75
      vertex -2.14101 -2.61905 4.75
    endloop
  endfacet
  facet normal -0.678597 -0.281091 0.678597
    outer loop
      vertex -4.20106 -2.47408 2.75
      vertex -4.14101 -2.61905 2.75
      vertex -2.20106 -2.47408 4.75
    endloop
  endfacet
  facet normal 0.0784508 -0.996918 0
    outer loop
      vertex -1.25 -5.16506 -4.75
      vertex -1.09357 -5.15275 -4.75
      vertex -1.25 -5.16506 2.75
    endloop
  endfacet
  facet normal -0.760403 -0.649452 -0
    outer loop
      vertex -3.95711 -2.87217 2.75
      vertex -4.05902 -2.75285 -4.75
      vertex -3.95711 -2.87217 -4.75
    endloop
  endfacet
  facet normal 0.996918 -0.0784488 0
    outer loop
      vertex 5.5 0 2.75
      vertex 5.48769 -0.156434 -4.75
      vertex 5.5 0 -4.75
    endloop
  endfacet
  facet normal -0.605286 0.516969 0.605286
    outer loop
      vertex -3.95711 2.87217 2.75
      vertex -2.05902 2.75285 4.75
      vertex -1.95711 2.87217 4.75
    endloop
  endfacet
  facet normal -0.397608 -0.64881 0.64881
    outer loop
      vertex -1.70399 -3.05607 4.75
      vertex -1.83778 -2.97408 4.75
      vertex -1.70399 -5.05607 2.75
    endloop
  endfacet
  facet normal 0 -0 1
    outer loop
      vertex -2.05902 -2.75285 4.75
      vertex 3.30902 0.587785 4.75
      vertex -2.14101 -2.61905 4.75
    endloop
  endfacet
  facet normal -0 0 1
    outer loop
      vertex -2.20106 2.47408 4.75
      vertex 3.30902 0.587785 4.75
      vertex -2.14101 2.61905 4.75
    endloop
  endfacet
  facet normal 0.233429 0.972374 -0
    outer loop
      vertex -0.940984 5.11612 -4.75
      vertex -1.09357 5.15275 2.75
      vertex -0.940984 5.11612 2.75
    endloop
  endfacet
  facet normal 0 -0 1
    outer loop
      vertex 2.95399 -0.891006 4.75
      vertex 3.30902 0.587785 4.75
      vertex -0.79601 -3.05607 4.75
    endloop
  endfacet
  facet normal -0.516937 -0.6053 0.6053
    outer loop
      vertex -1.95711 -4.87217 2.75
      vertex -1.83778 -2.97408 4.75
      vertex -1.95711 -2.87217 4.75
    endloop
  endfacet
  facet normal -0.167351 -0.697135 0.697135
    outer loop
      vertex -1.55902 -3.11612 4.75
      vertex -1.40643 -5.15275 2.75
      vertex -1.40643 -3.15275 4.75
    endloop
  endfacet
  facet normal 0.605289 -0.516963 0.605289
    outer loop
      vertex 5.30902 -0.587785 2.75
      vertex 3.30902 -0.587785 4.75
      vertex 5.20711 -0.707107 2.75
    endloop
  endfacet
  facet normal -0.923876 0.382691 0
    outer loop
      vertex -4.14101 2.61905 2.75
      vertex -4.14101 2.61905 -4.75
      vertex -4.20106 2.47408 2.75
    endloop
  endfacet
  facet normal -0.760403 0.649452 0
    outer loop
      vertex -3.95711 2.87217 2.75
      vertex -3.95711 2.87217 -4.75
      vertex -4.05902 2.75285 2.75
    endloop
  endfacet
  facet normal 0.707107 -0.707106 0
    outer loop
      vertex 3.20711 -2.70711 -4.75
      vertex 5.20711 -0.707107 -4.75
      vertex 3.20711 -2.70711 2.75
    endloop
  endfacet
  facet normal 0 -0 -1
    outer loop
      vertex -1.95711 4.87217 -4.75
      vertex -1.09357 5.15275 -4.75
      vertex -3.95711 2.87217 -4.75
    endloop
  endfacet
  facet normal -0.397608 0.64881 0.64881
    outer loop
      vertex -1.70399 5.05607 2.75
      vertex -1.83778 4.97408 2.75
      vertex -1.70399 3.05607 4.75
    endloop
  endfacet
  facet normal 0 0 -1
    outer loop
      vertex 5.45106 -0.309016 -4.75
      vertex -1.09357 5.15275 -4.75
      vertex 5.48769 -0.156434 -4.75
    endloop
  endfacet
  facet normal 0 0 -1
    outer loop
      vertex 5.48769 -0.156434 -4.75
      vertex -1.09357 5.15275 -4.75
      vertex 5.5 0 -4.75
    endloop
  endfacet
  facet normal -0.852648 -0.522486 0
    outer loop
      vertex -4.14101 -2.61905 -4.75
      vertex -4.05902 -2.75285 -4.75
      vertex -4.14101 -2.61905 2.75
    endloop
  endfacet
  facet normal -0.707107 0.707107 0
    outer loop
      vertex -1.95711 4.87217 -4.75
      vertex -3.95711 2.87217 -4.75
      vertex -1.95711 4.87217 2.75
    endloop
  endfacet
  facet normal -0.996918 0.0784458 0
    outer loop
      vertex -4.25 2.16506 2.75
      vertex -4.23769 2.3215 -4.75
      vertex -4.25 2.16506 -4.75
    endloop
  endfacet
  facet normal -0.648817 0.397583 0.648817
    outer loop
      vertex -4.14101 2.61905 2.75
      vertex -2.05902 2.75285 4.75
      vertex -4.05902 2.75285 2.75
    endloop
  endfacet
  facet normal -0.648817 0.397583 0.648817
    outer loop
      vertex -2.14101 2.61905 4.75
      vertex -2.05902 2.75285 4.75
      vertex -4.14101 2.61905 2.75
    endloop
  endfacet
  facet normal 0.499999 0.866026 0
    outer loop
      vertex -0.79601 5.05607 -4.75
      vertex 2.95399 2.89101 2.75
      vertex 2.95399 2.89101 -4.75
    endloop
  endfacet
  facet normal -0.972372 -0.233438 0
    outer loop
      vertex -4.23769 -2.3215 2.75
      vertex -4.20106 -2.47408 -4.75
      vertex -4.20106 -2.47408 2.75
    endloop
  endfacet
  facet normal 0 -0 1
    outer loop
      vertex -1.95711 -2.87217 4.75
      vertex 3.30902 0.587785 4.75
      vertex -2.05902 -2.75285 4.75
    endloop
  endfacet
  facet normal 0.516933 0.605301 0.605302
    outer loop
      vertex 3.08778 0.809016 4.75
      vertex 3.20711 0.707107 4.75
      vertex 3.08778 2.80902 2.75
    endloop
  endfacet
  facet normal -0.0784508 0.996918 0
    outer loop
      vertex -1.25 5.16506 -4.75
      vertex -1.40643 5.15275 -4.75
      vertex -1.25 5.16506 2.75
    endloop
  endfacet
  facet normal 0.377964 -0.654654 0.654654
    outer loop
      vertex -0.79601 -5.05607 2.75
      vertex 2.95399 -2.89101 2.75
      vertex -0.79601 -3.05607 4.75
    endloop
  endfacet
  facet normal -0.649421 0.760429 0
    outer loop
      vertex -1.83778 4.97408 2.75
      vertex -1.83778 4.97408 -4.75
      vertex -1.95711 4.87217 2.75
    endloop
  endfacet
  facet normal 0.760408 0.649446 -0
    outer loop
      vertex 5.20711 0.707107 -4.75
      vertex 5.20711 0.707107 2.75
      vertex 5.30902 0.587785 -4.75
    endloop
  endfacet
  facet normal -0.281091 -0.678597 0.678597
    outer loop
      vertex -1.55902 -3.11612 4.75
      vertex -1.70399 -5.05607 2.75
      vertex -1.55902 -5.11612 2.75
    endloop
  endfacet
  facet normal -0.281091 -0.678597 0.678597
    outer loop
      vertex -1.70399 -3.05607 4.75
      vertex -1.70399 -5.05607 2.75
      vertex -1.55902 -3.11612 4.75
    endloop
  endfacet
  facet normal 0.397607 -0.648809 0.648811
    outer loop
      vertex 3.08778 -2.80902 2.75
      vertex 3.08778 -0.809016 4.75
      vertex 2.95399 -2.89101 2.75
    endloop
  endfacet
  facet normal 0.577351 -0.57735 0.577351
    outer loop
      vertex 3.20711 -0.707107 4.75
      vertex 3.20711 -2.70711 2.75
      vertex 5.20711 -0.707107 2.75
    endloop
  endfacet
  facet normal 0.397607 0.648809 0.648811
    outer loop
      vertex 3.08778 2.80902 2.75
      vertex 2.95399 2.89101 2.75
      vertex 3.08778 0.809016 4.75
    endloop
  endfacet
  facet normal 0.397607 0.648809 0.648811
    outer loop
      vertex 3.08778 0.809016 4.75
      vertex 2.95399 2.89101 2.75
      vertex 2.95399 0.891006 4.75
    endloop
  endfacet
  facet normal 0 0 -1
    outer loop
      vertex 2.95399 2.89101 -4.75
      vertex -1.09357 5.15275 -4.75
      vertex -0.79601 5.05607 -4.75
    endloop
  endfacet
  facet normal 0 0 1
    outer loop
      vertex 3.48769 0.156434 4.75
      vertex 3.30902 0.587785 4.75
      vertex 3.5 0 4.75
    endloop
  endfacet
  facet normal 0.707107 -0.707106 0
    outer loop
      vertex 3.20711 -2.70711 2.75
      vertex 5.20711 -0.707107 -4.75
      vertex 5.20711 -0.707107 2.75
    endloop
  endfacet
  facet normal 0.499999 0.866026 0
    outer loop
      vertex -0.79601 5.05607 2.75
      vertex 2.95399 2.89101 2.75
      vertex -0.79601 5.05607 -4.75
    endloop
  endfacet
  facet normal 0.648814 0.397595 0.648814
    outer loop
      vertex 5.30902 0.587785 2.75
      vertex 3.30902 0.587785 4.75
      vertex 5.39101 0.45399 2.75
    endloop
  endfacet
  facet normal 0.678599 -0.281084 0.678599
    outer loop
      vertex 5.39101 -0.45399 2.75
      vertex 3.45106 -0.309016 4.75
      vertex 3.39101 -0.45399 4.75
    endloop
  endfacet
  facet normal 0.707107 0.707106 0
    outer loop
      vertex 3.20711 2.70711 -4.75
      vertex 5.20711 0.707107 2.75
      vertex 5.20711 0.707107 -4.75
    endloop
  endfacet
  facet normal 0 -0 -1
    outer loop
      vertex -1.55902 5.11612 -4.75
      vertex -1.09357 5.15275 -4.75
      vertex -1.70399 5.05607 -4.75
    endloop
  endfacet
  facet normal -0.233424 -0.972375 0
    outer loop
      vertex -1.40643 -5.15275 -4.75
      vertex -1.40643 -5.15275 2.75
      vertex -1.55902 -5.11612 -4.75
    endloop
  endfacet
  facet normal -0.382691 -0.923876 0
    outer loop
      vertex -1.70399 -5.05607 -4.75
      vertex -1.55902 -5.11612 -4.75
      vertex -1.70399 -5.05607 2.75
    endloop
  endfacet
  facet normal -0.996918 0.0784458 0
    outer loop
      vertex -4.23769 2.3215 2.75
      vertex -4.23769 2.3215 -4.75
      vertex -4.25 2.16506 2.75
    endloop
  endfacet
  facet normal -0.972372 0.233438 0
    outer loop
      vertex -4.20106 2.47408 -4.75
      vertex -4.23769 2.3215 -4.75
      vertex -4.20106 2.47408 2.75
    endloop
  endfacet
  facet normal 0 0 1
    outer loop
      vertex 3.45106 0.309016 4.75
      vertex 3.30902 0.587785 4.75
      vertex 3.48769 0.156434 4.75
    endloop
  endfacet
  facet normal 0.648814 0.397595 0.648814
    outer loop
      vertex 5.39101 0.45399 2.75
      vertex 3.30902 0.587785 4.75
      vertex 3.39101 0.45399 4.75
    endloop
  endfacet
  facet normal -0.0555587 0.706015 0.706015
    outer loop
      vertex -1.25 5.16506 2.75
      vertex -1.40643 5.15275 2.75
      vertex -1.25 3.16506 4.75
    endloop
  endfacet
  facet normal 0.0784508 0.996918 0
    outer loop
      vertex -1.25 5.16506 2.75
      vertex -1.09357 5.15275 2.75
      vertex -1.25 5.16506 -4.75
    endloop
  endfacet
  facet normal -0.522514 0.852631 0
    outer loop
      vertex -1.70399 5.05607 2.75
      vertex -1.83778 4.97408 -4.75
      vertex -1.83778 4.97408 2.75
    endloop
  endfacet
  facet normal -0.522514 0.852631 0
    outer loop
      vertex -1.70399 5.05607 -4.75
      vertex -1.83778 4.97408 -4.75
      vertex -1.70399 5.05607 2.75
    endloop
  endfacet
  facet normal 0 0 -1
    outer loop
      vertex 2.95399 -2.89101 -4.75
      vertex -1.09357 5.15275 -4.75
      vertex 3.08778 -2.80902 -4.75
    endloop
  endfacet
  facet normal -0.522514 -0.852631 0
    outer loop
      vertex -1.83778 -4.97408 -4.75
      vertex -1.70399 -5.05607 -4.75
      vertex -1.83778 -4.97408 2.75
    endloop
  endfacet
  facet normal -0.707107 -0.707107 0
    outer loop
      vertex -3.95711 -2.87217 2.75
      vertex -1.95711 -4.87217 -4.75
      vertex -1.95711 -4.87217 2.75
    endloop
  endfacet
  facet normal 0 0 -1
    outer loop
      vertex 3.08778 -2.80902 -4.75
      vertex -1.09357 5.15275 -4.75
      vertex 3.20711 -2.70711 -4.75
    endloop
  endfacet
  facet normal -0.923876 -0.382691 -0
    outer loop
      vertex -4.14101 -2.61905 2.75
      vertex -4.20106 -2.47408 -4.75
      vertex -4.14101 -2.61905 -4.75
    endloop
  endfacet
  facet normal -0.923876 -0.382691 -0
    outer loop
      vertex -4.20106 -2.47408 2.75
      vertex -4.20106 -2.47408 -4.75
      vertex -4.14101 -2.61905 2.75
    endloop
  endfacet
  facet normal 0.678599 0.281084 0.678599
    outer loop
      vertex 3.39101 0.45399 4.75
      vertex 5.45106 0.309016 2.75
      vertex 5.39101 0.45399 2.75
    endloop
  endfacet
  facet normal 0 -0 1
    outer loop
      vertex -2.20106 -2.47408 4.75
      vertex 3.30902 0.587785 4.75
      vertex -2.23769 -2.3215 4.75
    endloop
  endfacet
  facet normal -0.648817 -0.397583 0.648817
    outer loop
      vertex -4.14101 -2.61905 2.75
      vertex -4.05902 -2.75285 2.75
      vertex -2.14101 -2.61905 4.75
    endloop
  endfacet
  facet normal 0 -0 -1
    outer loop
      vertex -1.40643 5.15275 -4.75
      vertex -1.09357 5.15275 -4.75
      vertex -1.55902 5.11612 -4.75
    endloop
  endfacet
  facet normal 0.92388 -0.382682 0
    outer loop
      vertex 5.45106 -0.309016 2.75
      vertex 5.39101 -0.45399 -4.75
      vertex 5.45106 -0.309016 -4.75
    endloop
  endfacet
  facet normal 0.706015 0.0555572 0.706015
    outer loop
      vertex 3.5 0 4.75
      vertex 5.48769 0.156434 2.75
      vertex 3.48769 0.156434 4.75
    endloop
  endfacet
  facet normal 0.167355 -0.697134 0.697134
    outer loop
      vertex -1.09357 -5.15275 2.75
      vertex -0.940984 -5.11612 2.75
      vertex -1.09357 -3.15275 4.75
    endloop
  endfacet
  facet normal 0 0 1
    outer loop
      vertex -1.09357 3.15275 4.75
      vertex 3.30902 0.587785 4.75
      vertex -0.940984 3.11612 4.75
    endloop
  endfacet
  facet normal 0 -0 -1
    outer loop
      vertex -4.23769 2.3215 -4.75
      vertex -1.09357 5.15275 -4.75
      vertex -4.25 2.16506 -4.75
    endloop
  endfacet
  facet normal 0 0 1
    outer loop
      vertex -2.25 -2.16506 4.75
      vertex 3.30902 0.587785 4.75
      vertex -2.25 2.16506 4.75
    endloop
  endfacet
  facet normal -0.0784508 -0.996918 0
    outer loop
      vertex -1.25 -5.16506 -4.75
      vertex -1.40643 -5.15275 2.75
      vertex -1.40643 -5.15275 -4.75
    endloop
  endfacet
  facet normal 0 0 -1
    outer loop
      vertex 5.39101 -0.45399 -4.75
      vertex -1.09357 5.15275 -4.75
      vertex 5.45106 -0.309016 -4.75
    endloop
  endfacet
  facet normal 0 0 -1
    outer loop
      vertex -0.79601 -5.05607 -4.75
      vertex -1.09357 5.15275 -4.75
      vertex 2.95399 -2.89101 -4.75
    endloop
  endfacet
  facet normal 0 0 -1
    outer loop
      vertex 5.48769 0.156434 -4.75
      vertex -1.09357 5.15275 -4.75
      vertex 5.45106 0.309016 -4.75
    endloop
  endfacet
  facet normal -0.397608 -0.64881 0.64881
    outer loop
      vertex -1.70399 -5.05607 2.75
      vertex -1.83778 -2.97408 4.75
      vertex -1.83778 -4.97408 2.75
    endloop
  endfacet
  facet normal 0 0 -1
    outer loop
      vertex 5.39101 0.45399 -4.75
      vertex -1.09357 5.15275 -4.75
      vertex 5.30902 0.587785 -4.75
    endloop
  endfacet
  facet normal 0 -0 1
    outer loop
      vertex -2.14101 -2.61905 4.75
      vertex 3.30902 0.587785 4.75
      vertex -2.20106 -2.47408 4.75
    endloop
  endfacet
  facet normal 0 -0 1
    outer loop
      vertex -1.25 -3.16506 4.75
      vertex 3.30902 0.587785 4.75
      vertex -1.40643 -3.15275 4.75
    endloop
  endfacet
  facet normal 0.0784508 -0.996918 0
    outer loop
      vertex -1.25 -5.16506 2.75
      vertex -1.09357 -5.15275 -4.75
      vertex -1.09357 -5.15275 2.75
    endloop
  endfacet
  facet normal 0.649421 0.760429 0
    outer loop
      vertex 3.20711 2.70711 2.75
      vertex 3.20711 2.70711 -4.75
      vertex 3.08778 2.80902 2.75
    endloop
  endfacet
  facet normal 0.522514 -0.852631 0
    outer loop
      vertex 3.08778 -2.80902 2.75
      vertex 2.95399 -2.89101 2.75
      vertex 3.08778 -2.80902 -4.75
    endloop
  endfacet
  facet normal 0.281084 0.678599 0.678599
    outer loop
      vertex -0.79601 5.05607 2.75
      vertex -0.940984 5.11612 2.75
      vertex -0.79601 3.05607 4.75
    endloop
  endfacet
  facet normal 0.972372 0.233435 -0
    outer loop
      vertex 5.48769 0.156434 -4.75
      vertex 5.45106 0.309016 2.75
      vertex 5.48769 0.156434 2.75
    endloop
  endfacet
  facet normal 0.697134 0.167359 0.697134
    outer loop
      vertex 5.48769 0.156434 2.75
      vertex 5.45106 0.309016 2.75
      vertex 3.48769 0.156434 4.75
    endloop
  endfacet
  facet normal -0.233424 0.972375 0
    outer loop
      vertex -1.55902 5.11612 2.75
      vertex -1.40643 5.15275 -4.75
      vertex -1.55902 5.11612 -4.75
    endloop
  endfacet
  facet normal -0.649421 -0.760429 -0
    outer loop
      vertex -1.95711 -4.87217 2.75
      vertex -1.95711 -4.87217 -4.75
      vertex -1.83778 -4.97408 2.75
    endloop
  endfacet
  facet normal -0.707107 -0.707107 0
    outer loop
      vertex -3.95711 -2.87217 -4.75
      vertex -1.95711 -4.87217 -4.75
      vertex -3.95711 -2.87217 2.75
    endloop
  endfacet
  facet normal -0.382691 -0.923876 0
    outer loop
      vertex -1.70399 -5.05607 2.75
      vertex -1.55902 -5.11612 -4.75
      vertex -1.55902 -5.11612 2.75
    endloop
  endfacet
  facet normal 0.499999 -0.866026 0
    outer loop
      vertex 2.95399 -2.89101 -4.75
      vertex 2.95399 -2.89101 2.75
      vertex -0.79601 -5.05607 -4.75
    endloop
  endfacet
  facet normal 0.92388 0.382682 0
    outer loop
      vertex 5.39101 0.45399 2.75
      vertex 5.45106 0.309016 2.75
      vertex 5.39101 0.45399 -4.75
    endloop
  endfacet
  facet normal 0 0 1
    outer loop
      vertex -1.25 3.16506 4.75
      vertex 3.30902 0.587785 4.75
      vertex -1.09357 3.15275 4.75
    endloop
  endfacet
  facet normal -0 0 1
    outer loop
      vertex -1.40643 3.15275 4.75
      vertex 3.30902 0.587785 4.75
      vertex -1.25 3.16506 4.75
    endloop
  endfacet
  facet normal 0 -0 1
    outer loop
      vertex -0.79601 -3.05607 4.75
      vertex 3.30902 0.587785 4.75
      vertex -0.940984 -3.11612 4.75
    endloop
  endfacet
  facet normal 0 -0 1
    outer loop
      vertex -1.40643 -3.15275 4.75
      vertex 3.30902 0.587785 4.75
      vertex -1.55902 -3.11612 4.75
    endloop
  endfacet
  facet normal -0.167351 0.697135 0.697135
    outer loop
      vertex -1.55902 3.11612 4.75
      vertex -1.40643 5.15275 2.75
      vertex -1.55902 5.11612 2.75
    endloop
  endfacet
  facet normal 0 0 -1
    outer loop
      vertex -3.95711 -2.87217 -4.75
      vertex -1.09357 5.15275 -4.75
      vertex -1.95711 -4.87217 -4.75
    endloop
  endfacet
  facet normal 0.233429 -0.972374 0
    outer loop
      vertex -1.09357 -5.15275 2.75
      vertex -1.09357 -5.15275 -4.75
      vertex -0.940984 -5.11612 2.75
    endloop
  endfacet
  facet normal 0 0 -1
    outer loop
      vertex 5.5 0 -4.75
      vertex -1.09357 5.15275 -4.75
      vertex 5.48769 0.156434 -4.75
    endloop
  endfacet
  facet normal 0 0 -1
    outer loop
      vertex -1.55902 -5.11612 -4.75
      vertex -1.09357 5.15275 -4.75
      vertex -1.40643 -5.15275 -4.75
    endloop
  endfacet
  facet normal 0 0 -1
    outer loop
      vertex -1.40643 -5.15275 -4.75
      vertex -1.09357 5.15275 -4.75
      vertex -1.25 -5.16506 -4.75
    endloop
  endfacet
  facet normal 0.996918 0.0784488 -0
    outer loop
      vertex 5.48769 0.156434 -4.75
      vertex 5.48769 0.156434 2.75
      vertex 5.5 0 -4.75
    endloop
  endfacet
  facet normal 0 0 1
    outer loop
      vertex 2.95399 0.891006 4.75
      vertex 3.30902 0.587785 4.75
      vertex 3.08778 0.809016 4.75
    endloop
  endfacet
  facet normal 0.852639 -0.5225 0
    outer loop
      vertex 5.30902 -0.587785 2.75
      vertex 5.39101 -0.45399 -4.75
      vertex 5.39101 -0.45399 2.75
    endloop
  endfacet
  facet normal 0 -0 -1
    outer loop
      vertex -4.14101 2.61905 -4.75
      vertex -1.09357 5.15275 -4.75
      vertex -4.20106 2.47408 -4.75
    endloop
  endfacet
  facet normal 0.382682 -0.92388 0
    outer loop
      vertex -0.79601 -5.05607 2.75
      vertex -0.940984 -5.11612 2.75
      vertex -0.79601 -5.05607 -4.75
    endloop
  endfacet
  facet normal 0.281084 -0.678599 0.678599
    outer loop
      vertex -0.79601 -3.05607 4.75
      vertex -0.940984 -5.11612 2.75
      vertex -0.79601 -5.05607 2.75
    endloop
  endfacet
  facet normal -0.0555587 -0.706015 0.706015
    outer loop
      vertex -1.40643 -3.15275 4.75
      vertex -1.40643 -5.15275 2.75
      vertex -1.25 -3.16506 4.75
    endloop
  endfacet
  facet normal -0.0784508 -0.996918 -0
    outer loop
      vertex -1.25 -5.16506 2.75
      vertex -1.40643 -5.15275 2.75
      vertex -1.25 -5.16506 -4.75
    endloop
  endfacet
  facet normal 0.972372 -0.233435 0
    outer loop
      vertex 5.45106 -0.309016 2.75
      vertex 5.48769 -0.156434 -4.75
      vertex 5.48769 -0.156434 2.75
    endloop
  endfacet
  facet normal 0 0 -1
    outer loop
      vertex 5.20711 0.707107 -4.75
      vertex -1.09357 5.15275 -4.75
      vertex 3.20711 2.70711 -4.75
    endloop
  endfacet
  facet normal 0.852639 -0.5225 0
    outer loop
      vertex 5.30902 -0.587785 -4.75
      vertex 5.39101 -0.45399 -4.75
      vertex 5.30902 -0.587785 2.75
    endloop
  endfacet
  facet normal 0.92388 -0.382682 0
    outer loop
      vertex 5.39101 -0.45399 2.75
      vertex 5.39101 -0.45399 -4.75
      vertex 5.45106 -0.309016 2.75
    endloop
  endfacet
  facet normal 0 0 1
    outer loop
      vertex 3.5 0 4.75
      vertex 3.30902 0.587785 4.75
      vertex 3.48769 -0.156434 4.75
    endloop
  endfacet
  facet normal 0.996918 -0.0784488 0
    outer loop
      vertex 5.48769 -0.156434 2.75
      vertex 5.48769 -0.156434 -4.75
      vertex 5.5 0 2.75
    endloop
  endfacet
  facet normal 0 0 -1
    outer loop
      vertex -1.25 -5.16506 -4.75
      vertex -1.09357 5.15275 -4.75
      vertex -1.09357 -5.15275 -4.75
    endloop
  endfacet
  facet normal 0 0 -1
    outer loop
      vertex 5.20711 -0.707107 -4.75
      vertex -1.09357 5.15275 -4.75
      vertex 5.30902 -0.587785 -4.75
    endloop
  endfacet
  facet normal 0.697134 -0.167359 0.697134
    outer loop
      vertex 5.45106 -0.309016 2.75
      vertex 3.48769 -0.156434 4.75
      vertex 3.45106 -0.309016 4.75
    endloop
  endfacet
  facet normal -0 0 1
    outer loop
      vertex -1.83778 2.97408 4.75
      vertex 3.30902 0.587785 4.75
      vertex -1.70399 3.05607 4.75
    endloop
  endfacet
  facet normal 0 0 1
    outer loop
      vertex 3.39101 0.45399 4.75
      vertex 3.30902 0.587785 4.75
      vertex 3.45106 0.309016 4.75
    endloop
  endfacet
  facet normal 0.649421 -0.760429 0
    outer loop
      vertex 3.08778 -2.80902 -4.75
      vertex 3.20711 -2.70711 2.75
      vertex 3.08778 -2.80902 2.75
    endloop
  endfacet
  facet normal 0.678599 -0.281084 0.678599
    outer loop
      vertex 5.45106 -0.309016 2.75
      vertex 3.45106 -0.309016 4.75
      vertex 5.39101 -0.45399 2.75
    endloop
  endfacet
  facet normal 0.382682 0.92388 -0
    outer loop
      vertex -0.79601 5.05607 -4.75
      vertex -0.940984 5.11612 -4.75
      vertex -0.79601 5.05607 2.75
    endloop
  endfacet
  facet normal 0.577351 0.57735 0.577351
    outer loop
      vertex 3.20711 2.70711 2.75
      vertex 3.20711 0.707107 4.75
      vertex 5.20711 0.707107 2.75
    endloop
  endfacet
  facet normal -0 0 1
    outer loop
      vertex -2.23769 2.3215 4.75
      vertex 3.30902 0.587785 4.75
      vertex -2.20106 2.47408 4.75
    endloop
  endfacet
  facet normal -0 0 1
    outer loop
      vertex -1.55902 3.11612 4.75
      vertex 3.30902 0.587785 4.75
      vertex -1.40643 3.15275 4.75
    endloop
  endfacet
  facet normal 0 -0 1
    outer loop
      vertex 3.30902 -0.587785 4.75
      vertex 3.30902 0.587785 4.75
      vertex 3.20711 -0.707107 4.75
    endloop
  endfacet
  facet normal 0 0 -1
    outer loop
      vertex 3.20711 2.70711 -4.75
      vertex -1.09357 5.15275 -4.75
      vertex 3.08778 2.80902 -4.75
    endloop
  endfacet
  facet normal 0.522514 0.852631 -0
    outer loop
      vertex 2.95399 2.89101 -4.75
      vertex 2.95399 2.89101 2.75
      vertex 3.08778 2.80902 -4.75
    endloop
  endfacet
  facet normal 0.706015 -0.0555572 0.706015
    outer loop
      vertex 3.5 0 4.75
      vertex 3.48769 -0.156434 4.75
      vertex 5.5 0 2.75
    endloop
  endfacet
  facet normal 0.760408 0.649446 -0
    outer loop
      vertex 5.30902 0.587785 -4.75
      vertex 5.20711 0.707107 2.75
      vertex 5.30902 0.587785 2.75
    endloop
  endfacet
  facet normal 0.167355 0.697134 0.697134
    outer loop
      vertex -0.940984 5.11612 2.75
      vertex -1.09357 5.15275 2.75
      vertex -0.940984 3.11612 4.75
    endloop
  endfacet
  facet normal 0 0 -1
    outer loop
      vertex 5.45106 0.309016 -4.75
      vertex -1.09357 5.15275 -4.75
      vertex 5.39101 0.45399 -4.75
    endloop
  endfacet
  facet normal 0.760408 -0.649446 0
    outer loop
      vertex 5.30902 -0.587785 2.75
      vertex 5.20711 -0.707107 -4.75
      vertex 5.30902 -0.587785 -4.75
    endloop
  endfacet
  facet normal 0.760408 -0.649446 0
    outer loop
      vertex 5.20711 -0.707107 2.75
      vertex 5.20711 -0.707107 -4.75
      vertex 5.30902 -0.587785 2.75
    endloop
  endfacet
  facet normal 0.92388 0.382682 0
    outer loop
      vertex 5.39101 0.45399 -4.75
      vertex 5.45106 0.309016 2.75
      vertex 5.45106 0.309016 -4.75
    endloop
  endfacet
  facet normal 0.852639 0.5225 0
    outer loop
      vertex 5.30902 0.587785 -4.75
      vertex 5.39101 0.45399 2.75
      vertex 5.39101 0.45399 -4.75
    endloop
  endfacet
  facet normal 0 0 -1
    outer loop
      vertex -4.25 -2.16506 -4.75
      vertex -1.09357 5.15275 -4.75
      vertex -4.23769 -2.3215 -4.75
    endloop
  endfacet
  facet normal 0 0 -1
    outer loop
      vertex -4.25 2.16506 -4.75
      vertex -1.09357 5.15275 -4.75
      vertex -4.25 -2.16506 -4.75
    endloop
  endfacet
  facet normal 0.377964 0.654654 0.654654
    outer loop
      vertex -0.79601 3.05607 4.75
      vertex 2.95399 2.89101 2.75
      vertex -0.79601 5.05607 2.75
    endloop
  endfacet
  facet normal 0.377964 0.654653 0.654654
    outer loop
      vertex 2.95399 0.891006 4.75
      vertex 2.95399 2.89101 2.75
      vertex -0.79601 3.05607 4.75
    endloop
  endfacet
  facet normal 0 0 -1
    outer loop
      vertex -1.95711 -4.87217 -4.75
      vertex -1.09357 5.15275 -4.75
      vertex -1.83778 -4.97408 -4.75
    endloop
  endfacet
  facet normal 0.233429 0.972374 -0
    outer loop
      vertex -1.09357 5.15275 -4.75
      vertex -1.09357 5.15275 2.75
      vertex -0.940984 5.11612 -4.75
    endloop
  endfacet
  facet normal -0.0784508 0.996918 0
    outer loop
      vertex -1.25 5.16506 2.75
      vertex -1.40643 5.15275 -4.75
      vertex -1.40643 5.15275 2.75
    endloop
  endfacet
  facet normal -0.382691 0.923876 0
    outer loop
      vertex -1.55902 5.11612 2.75
      vertex -1.55902 5.11612 -4.75
      vertex -1.70399 5.05607 2.75
    endloop
  endfacet
  facet normal -0.167351 -0.697135 0.697135
    outer loop
      vertex -1.55902 -5.11612 2.75
      vertex -1.40643 -5.15275 2.75
      vertex -1.55902 -3.11612 4.75
    endloop
  endfacet
  facet normal -0.233424 -0.972375 0
    outer loop
      vertex -1.55902 -5.11612 -4.75
      vertex -1.40643 -5.15275 2.75
      vertex -1.55902 -5.11612 2.75
    endloop
  endfacet
  facet normal 0.648814 -0.397595 0.648814
    outer loop
      vertex 3.39101 -0.45399 4.75
      vertex 3.30902 -0.587785 4.75
      vertex 5.39101 -0.45399 2.75
    endloop
  endfacet
  facet normal 0.377964 -0.654653 0.654654
    outer loop
      vertex -0.79601 -3.05607 4.75
      vertex 2.95399 -2.89101 2.75
      vertex 2.95399 -0.891006 4.75
    endloop
  endfacet
  facet normal 0 0 1
    outer loop
      vertex 3.39101 -0.45399 4.75
      vertex 3.30902 0.587785 4.75
      vertex 3.30902 -0.587785 4.75
    endloop
  endfacet
  facet normal 0.972372 -0.233435 0
    outer loop
      vertex 5.45106 -0.309016 -4.75
      vertex 5.48769 -0.156434 -4.75
      vertex 5.45106 -0.309016 2.75
    endloop
  endfacet
  facet normal 0 0 -1
    outer loop
      vertex 3.20711 -2.70711 -4.75
      vertex -1.09357 5.15275 -4.75
      vertex 5.20711 -0.707107 -4.75
    endloop
  endfacet
  facet normal 0 0 -1
    outer loop
      vertex 5.30902 -0.587785 -4.75
      vertex -1.09357 5.15275 -4.75
      vertex 5.39101 -0.45399 -4.75
    endloop
  endfacet
  facet normal 0 0 -1
    outer loop
      vertex 5.30902 0.587785 -4.75
      vertex -1.09357 5.15275 -4.75
      vertex 5.20711 0.707107 -4.75
    endloop
  endfacet
  facet normal 0.382682 0.92388 0
    outer loop
      vertex -0.79601 5.05607 2.75
      vertex -0.940984 5.11612 -4.75
      vertex -0.940984 5.11612 2.75
    endloop
  endfacet
  facet normal 0 0 1
    outer loop
      vertex 3.08778 0.809016 4.75
      vertex 3.30902 0.587785 4.75
      vertex 3.20711 0.707107 4.75
    endloop
  endfacet
  facet normal 0.605289 -0.516963 0.605289
    outer loop
      vertex 5.20711 -0.707107 2.75
      vertex 3.30902 -0.587785 4.75
      vertex 3.20711 -0.707107 4.75
    endloop
  endfacet
  facet normal 0 -0 1
    outer loop
      vertex -1.55902 -3.11612 4.75
      vertex 3.30902 0.587785 4.75
      vertex -1.70399 -3.05607 4.75
    endloop
  endfacet
  facet normal 0 -0 1
    outer loop
      vertex -1.70399 -3.05607 4.75
      vertex 3.30902 0.587785 4.75
      vertex -1.83778 -2.97408 4.75
    endloop
  endfacet
  facet normal 0.605289 0.516963 0.605289
    outer loop
      vertex 3.20711 0.707107 4.75
      vertex 3.30902 0.587785 4.75
      vertex 5.20711 0.707107 2.75
    endloop
  endfacet
  facet normal 0.605289 0.516963 0.605289
    outer loop
      vertex 5.20711 0.707107 2.75
      vertex 3.30902 0.587785 4.75
      vertex 5.30902 0.587785 2.75
    endloop
  endfacet
  facet normal 0.706015 0.0555572 0.706015
    outer loop
      vertex 5.5 0 2.75
      vertex 5.48769 0.156434 2.75
      vertex 3.5 0 4.75
    endloop
  endfacet
  facet normal 0.996918 0.0784488 -0
    outer loop
      vertex 5.5 0 -4.75
      vertex 5.48769 0.156434 2.75
      vertex 5.5 0 2.75
    endloop
  endfacet
  facet normal 0 -0 1
    outer loop
      vertex -2.23769 -2.3215 4.75
      vertex 3.30902 0.587785 4.75
      vertex -2.25 -2.16506 4.75
    endloop
  endfacet
  facet normal -0 0 1
    outer loop
      vertex -2.25 2.16506 4.75
      vertex 3.30902 0.587785 4.75
      vertex -2.23769 2.3215 4.75
    endloop
  endfacet
  facet normal 0 0 -1
    outer loop
      vertex -4.23769 -2.3215 -4.75
      vertex -1.09357 5.15275 -4.75
      vertex -4.20106 -2.47408 -4.75
    endloop
  endfacet
  facet normal 0 0 -1
    outer loop
      vertex -4.20106 -2.47408 -4.75
      vertex -1.09357 5.15275 -4.75
      vertex -4.14101 -2.61905 -4.75
    endloop
  endfacet
  facet normal 0 0 -1
    outer loop
      vertex -4.14101 -2.61905 -4.75
      vertex -1.09357 5.15275 -4.75
      vertex -4.05902 -2.75285 -4.75
    endloop
  endfacet
  facet normal 0 0 -1
    outer loop
      vertex -4.05902 -2.75285 -4.75
      vertex -1.09357 5.15275 -4.75
      vertex -3.95711 -2.87217 -4.75
    endloop
  endfacet
  facet normal 0 0 -1
    outer loop
      vertex -1.83778 -4.97408 -4.75
      vertex -1.09357 5.15275 -4.75
      vertex -1.70399 -5.05607 -4.75
    endloop
  endfacet
  facet normal 0 0 -1
    outer loop
      vertex -1.70399 -5.05607 -4.75
      vertex -1.09357 5.15275 -4.75
      vertex -1.55902 -5.11612 -4.75
    endloop
  endfacet
  facet normal 0 0 -1
    outer loop
      vertex -0.79601 5.05607 -4.75
      vertex -1.09357 5.15275 -4.75
      vertex -0.940984 5.11612 -4.75
    endloop
  endfacet
  facet normal 0.167355 0.697134 0.697134
    outer loop
      vertex -0.940984 3.11612 4.75
      vertex -1.09357 5.15275 2.75
      vertex -1.09357 3.15275 4.75
    endloop
  endfacet
  facet normal 0 -0 1
    outer loop
      vertex 3.08778 -0.809016 4.75
      vertex 3.30902 0.587785 4.75
      vertex 2.95399 -0.891006 4.75
    endloop
  endfacet
  facet normal 0 -0 1
    outer loop
      vertex 3.20711 -0.707107 4.75
      vertex 3.30902 0.587785 4.75
      vertex 3.08778 -0.809016 4.75
    endloop
  endfacet
  facet normal 0.678599 0.281084 0.678599
    outer loop
      vertex 3.45106 0.309016 4.75
      vertex 5.45106 0.309016 2.75
      vertex 3.39101 0.45399 4.75
    endloop
  endfacet
  facet normal 0.697134 0.167359 0.697134
    outer loop
      vertex 3.48769 0.156434 4.75
      vertex 5.45106 0.309016 2.75
      vertex 3.45106 0.309016 4.75
    endloop
  endfacet
  facet normal -0 0 1
    outer loop
      vertex -2.05902 2.75285 4.75
      vertex 3.30902 0.587785 4.75
      vertex -1.95711 2.87217 4.75
    endloop
  endfacet
  facet normal -0 0 1
    outer loop
      vertex -2.14101 2.61905 4.75
      vertex 3.30902 0.587785 4.75
      vertex -2.05902 2.75285 4.75
    endloop
  endfacet
  facet normal 0 -0 -1
    outer loop
      vertex -4.05902 2.75285 -4.75
      vertex -1.09357 5.15275 -4.75
      vertex -4.14101 2.61905 -4.75
    endloop
  endfacet
  facet normal 0 -0 -1
    outer loop
      vertex -3.95711 2.87217 -4.75
      vertex -1.09357 5.15275 -4.75
      vertex -4.05902 2.75285 -4.75
    endloop
  endfacet
  facet normal 0 -0 -1
    outer loop
      vertex -1.83778 4.97408 -4.75
      vertex -1.09357 5.15275 -4.75
      vertex -1.95711 4.87217 -4.75
    endloop
  endfacet
  facet normal 0 -0 -1
    outer loop
      vertex -1.70399 5.05607 -4.75
      vertex -1.09357 5.15275 -4.75
      vertex -1.83778 4.97408 -4.75
    endloop
  endfacet
  facet normal 0.0555587 0.706015 0.706015
    outer loop
      vertex -1.25 3.16506 4.75
      vertex -1.09357 5.15275 2.75
      vertex -1.25 5.16506 2.75
    endloop
  endfacet
  facet normal 0.0555587 0.706015 0.706015
    outer loop
      vertex -1.09357 3.15275 4.75
      vertex -1.09357 5.15275 2.75
      vertex -1.25 3.16506 4.75
    endloop
  endfacet
endsolid OpenSCAD_Model
