solid OpenSCAD_Model
  facet normal 0.5 0.5 -0.707107
    outer loop
      vertex 1.53033 0.762563 -5.10355
      vertex 1.38388 1.61612 -4.60355
      vertex 5.7981 0.0303307 -2.60355
    endloop
  endfacet
  facet normal -0.408247 0.816497 -0.408249
    outer loop
      vertex -2.67678 2.67677 -5.22487
      vertex -5.09099 1.26256 -5.63909
      vertex -5.05546 1.38388 -5.43198
    endloop
  endfacet
  facet normal 0.288673 0.866025 -0.40825
    outer loop
      vertex 1.38388 1.61612 -4.60355
      vertex -2.67678 2.67677 -5.22487
      vertex -0.737436 3.73744 -1.60355
    endloop
  endfacet
  facet normal 0.357407 0.862856 -0.357406
    outer loop
      vertex 5.65165 0.883883 -2.10355
      vertex -0.737436 3.73744 -1.60355
      vertex 3.53033 3.0052 0.896445
    endloop
  endfacet
  facet normal 0.156742 0.0216327 -0.987403
    outer loop
      vertex -4.03838 0.172315 -6.00043
      vertex -4.94454 0.409009 -6.13909
      vertex -2.53033 1.82322 -5.72487
    endloop
  endfacet
  facet normal -0.921899 0.381849 -0.0655247
    outer loop
      vertex -5.59099 0.762562 -4.93198
      vertex -6.65165 -1.17678 -1.31066
      vertex -6.61612 -1.05546 -1.10355
    endloop
  endfacet
  facet normal -0.959683 -2.91025e-06 -0.281086
    outer loop
      vertex -6.5052 -2.03033 -1.81066
      vertex -5.59099 0.762562 -4.93198
      vertex -5.44454 -0.0909901 -5.43198
    endloop
  endfacet
  facet normal -0.959683 -2.91026e-06 -0.281086
    outer loop
      vertex -5.59099 0.762562 -4.93198
      vertex -6.5052 -2.03033 -1.81066
      vertex -6.65165 -1.17678 -1.31066
    endloop
  endfacet
  facet normal -0.985599 -3.40052e-05 0.169101
    outer loop
      vertex -6.61612 -1.05546 -1.10355
      vertex -6.65165 -1.17678 -1.31066
      vertex -6.62221 -1.27728 -1.13909
    endloop
  endfacet
  facet normal 0.136573 -0.0565303 -0.989016
    outer loop
      vertex -4.23743 -0.0052042 -6.01777
      vertex -4.94454 0.409009 -6.13909
      vertex -4.03838 0.172315 -6.00043
    endloop
  endfacet
  facet normal -0.363418 -0.772796 -0.520301
    outer loop
      vertex -5.44454 -0.0909901 -5.43198
      vertex -5.79809 -2.44454 -1.68934
      vertex -6.5052 -2.03033 -1.81066
    endloop
  endfacet
  facet normal -0.363421 -0.772795 -0.520301
    outer loop
      vertex -5.79809 -2.44454 -1.68934
      vertex -5.44454 -0.0909901 -5.43198
      vertex -4.73743 -0.505203 -5.31066
    endloop
  endfacet
  facet normal -0.921899 0.381849 -0.0655247
    outer loop
      vertex -5.59099 0.762562 -4.93198
      vertex -6.61612 -1.05546 -1.10355
      vertex -5.55546 0.883882 -4.72487
    endloop
  endfacet
  facet normal -0.853554 0.146444 -0.5
    outer loop
      vertex -5.44454 -0.0909901 -5.43198
      vertex -5.59099 0.762562 -4.93198
      vertex -5.09099 1.26256 -5.63909
    endloop
  endfacet
  facet normal -0.281085 -0.678601 -0.678596
    outer loop
      vertex -4.94454 0.409009 -6.13909
      vertex -4.73743 -0.505203 -5.31066
      vertex -5.44454 -0.0909901 -5.43198
    endloop
  endfacet
  facet normal -0.281085 -0.678601 -0.678596
    outer loop
      vertex -4.73743 -0.505203 -5.31066
      vertex -4.94454 0.409009 -6.13909
      vertex -4.23743 -0.0052042 -6.01777
    endloop
  endfacet
  facet normal -0.408243 -0.816498 -0.40825
    outer loop
      vertex -6.47577 -2.13083 -1.63909
      vertex -6.5052 -2.03033 -1.81066
      vertex -5.79809 -2.44454 -1.68934
    endloop
  endfacet
  facet normal -0.853554 0.146444 -0.5
    outer loop
      vertex -4.94454 0.409009 -6.13909
      vertex -5.44454 -0.0909901 -5.43198
      vertex -5.09099 1.26256 -5.63909
    endloop
  endfacet
  facet normal -0.134838 0.483508 -0.864892
    outer loop
      vertex -5.09099 1.26256 -5.63909
      vertex -2.53033 1.82322 -5.72487
      vertex -4.94454 0.409009 -6.13909
    endloop
  endfacet
  facet normal -0.134838 0.483509 -0.864892
    outer loop
      vertex -2.53033 1.82322 -5.72487
      vertex -5.09099 1.26256 -5.63909
      vertex -2.67678 2.67677 -5.22487
    endloop
  endfacet
  facet normal 0.357407 0.862856 -0.357407
    outer loop
      vertex 1.38388 1.61612 -4.60355
      vertex -0.737436 3.73744 -1.60355
      vertex 5.65165 0.883883 -2.10355
    endloop
  endfacet
  facet normal 0.5 0.500002 -0.707106
    outer loop
      vertex 5.7981 0.0303307 -2.60355
      vertex 1.38388 1.61612 -4.60355
      vertex 5.65165 0.883883 -2.10355
    endloop
  endfacet
  facet normal -0.812928 0.552476 -0.184168
    outer loop
      vertex -5.59099 0.762562 -4.93198
      vertex -5.05546 1.38388 -5.43198
      vertex -5.09099 1.26256 -5.63909
    endloop
  endfacet
  facet normal -0.812928 0.552476 -0.184168
    outer loop
      vertex -5.05546 1.38388 -5.43198
      vertex -5.59099 0.762562 -4.93198
      vertex -5.55546 0.883882 -4.72487
    endloop
  endfacet
  facet normal 0.260442 0.520885 -0.812926
    outer loop
      vertex -2.53033 1.82322 -5.72487
      vertex 1.38388 1.61612 -4.60355
      vertex 1.53033 0.762563 -5.10355
    endloop
  endfacet
  facet normal 0.260442 0.520888 -0.812924
    outer loop
      vertex 1.38388 1.61612 -4.60355
      vertex -2.53033 1.82322 -5.72487
      vertex -2.67678 2.67677 -5.22487
    endloop
  endfacet
  facet normal -0.978775 -0.198281 0.0518031
    outer loop
      vertex -6.5052 -2.03033 -1.81066
      vertex -6.62221 -1.27728 -1.13909
      vertex -6.65165 -1.17678 -1.31066
    endloop
  endfacet
  facet normal -0.978784 -0.19825 0.051766
    outer loop
      vertex -6.62221 -1.27728 -1.13909
      vertex -6.5052 -2.03033 -1.81066
      vertex -6.47577 -2.13083 -1.63909
    endloop
  endfacet
  facet normal 0.357414 -0.862854 -0.357404
    outer loop
      vertex 5.2981 -3.2981 -1.89645
      vertex 4.73744 -4.73744 1.01777
      vertex 4.23744 -5.23744 1.72487
    endloop
  endfacet
  facet normal 0.357414 -0.862854 -0.357404
    outer loop
      vertex 4.73744 -4.73744 1.01777
      vertex 5.2981 -3.2981 -1.89645
      vertex 5.7981 -2.7981 -2.60355
    endloop
  endfacet
  facet normal 0.107877 -0.889207 -0.444604
    outer loop
      vertex 4.23744 -5.23744 1.72487
      vertex -0.0303288 -4.5052 -0.775126
      vertex 1.03033 -2.56586 -4.39645
    endloop
  endfacet
  facet normal 0.408258 -0.816487 0.408258
    outer loop
      vertex 4.32322 -4.94454 2.22487
      vertex 2.23744 -5.23744 3.72487
      vertex 4.23744 -5.23744 1.72487
    endloop
  endfacet
  facet normal 0.146447 -0.853552 -0.500003
    outer loop
      vertex 5.2981 -3.2981 -1.89645
      vertex 1.03033 -2.56586 -4.39645
      vertex 1.53033 -2.06586 -5.10355
    endloop
  endfacet
  facet normal -0.215741 -0.952319 -0.215741
    outer loop
      vertex -0.0303288 -4.5052 -0.775126
      vertex -2.03033 -4.5052 1.22487
      vertex -1.25687 -4.18482 -0.962799
    endloop
  endfacet
  facet normal 0.921899 -0.381848 0.0655255
    outer loop
      vertex 4.73744 -4.73744 1.01777
      vertex 5.88388 -2.5052 -2.10355
      vertex 4.82322 -4.44454 1.51777
    endloop
  endfacet
  facet normal 0.921899 -0.381848 0.0655255
    outer loop
      vertex 5.88388 -2.5052 -2.10355
      vertex 4.73744 -4.73744 1.01777
      vertex 5.7981 -2.7981 -2.60355
    endloop
  endfacet
  facet normal -0.106958 -0.774602 -0.623339
    outer loop
      vertex 0.498638 -2.28225 -4.65765
      vertex 1.03033 -2.56586 -4.39645
      vertex 0.319541 -2.3802 -4.5052
    endloop
  endfacet
  facet normal -0.106954 -0.774599 -0.623343
    outer loop
      vertex 0.88388 -1.89701 -5.20247
      vertex 1.03033 -2.56586 -4.39645
      vertex 0.498638 -2.28225 -4.65765
    endloop
  endfacet
  facet normal -0.106937 -0.774599 -0.623346
    outer loop
      vertex 1.03033 -2.56586 -4.39645
      vertex 0.88388 -1.89701 -5.20247
      vertex 1.53033 -2.06586 -5.10355
    endloop
  endfacet
  facet normal -0.10695 -0.988495 -0.106951
    outer loop
      vertex 4.23744 -5.23744 1.72487
      vertex -2.03033 -4.5052 1.22487
      vertex -0.0303288 -4.5052 -0.775126
    endloop
  endfacet
  facet normal 0.505449 0 -0.862856
    outer loop
      vertex 1.53033 -2.06586 -5.10355
      vertex 5.7981 -2.40757 -2.60355
      vertex 5.7981 -2.7981 -2.60355
    endloop
  endfacet
  facet normal 0.505449 0 -0.862856
    outer loop
      vertex 5.7981 -2.40757 -2.60355
      vertex 1.53033 -2.06586 -5.10355
      vertex 5.7981 -1.92584 -2.60355
    endloop
  endfacet
  facet normal 0.505449 0 -0.862856
    outer loop
      vertex 5.7981 -1.92584 -2.60355
      vertex 1.53033 -2.06586 -5.10355
      vertex 1.53033 -1.42511 -5.10355
    endloop
  endfacet
  facet normal 0.505449 0 -0.862856
    outer loop
      vertex 1.53033 -1.1936 -5.10355
      vertex 5.7981 -1.92584 -2.60355
      vertex 1.53033 -1.42511 -5.10355
    endloop
  endfacet
  facet normal 0.505449 0 -0.862856
    outer loop
      vertex 5.7981 -1.92584 -2.60355
      vertex 1.53033 -1.1936 -5.10355
      vertex 5.7981 0.0303307 -2.60355
    endloop
  endfacet
  facet normal 0.505449 0 -0.862856
    outer loop
      vertex 5.7981 0.0303307 -2.60355
      vertex 1.53033 -1.1936 -5.10355
      vertex 1.53033 0.762563 -5.10355
    endloop
  endfacet
  facet normal 0.107878 -0.889207 -0.444604
    outer loop
      vertex 4.23744 -5.23744 1.72487
      vertex 1.03033 -2.56586 -4.39645
      vertex 5.2981 -3.2981 -1.89645
    endloop
  endfacet
  facet normal -0.146451 -0.853552 -0.500001
    outer loop
      vertex 1.03033 -2.56586 -4.39645
      vertex -0.555458 -3.98007 -1.51777
      vertex 0.223222 -2.55631 -4.17635
    endloop
  endfacet
  facet normal -0.146449 -0.853553 -0.5
    outer loop
      vertex -0.555458 -3.98007 -1.51777
      vertex 1.03033 -2.56586 -4.39645
      vertex -0.0303288 -4.5052 -0.775126
    endloop
  endfacet
  facet normal -0.146451 -0.853552 -0.5
    outer loop
      vertex 1.03033 -2.56586 -4.39645
      vertex 0.223222 -2.55631 -4.17635
      vertex 0.319541 -2.3802 -4.5052
    endloop
  endfacet
  facet normal -0.499999 -0.500001 0.707107
    outer loop
      vertex -1.82322 -4.17677 3.10355
      vertex -6.23744 -2.59099 1.10355
      vertex -6.09099 -3.44454 0.603554
    endloop
  endfacet
  facet normal -0.10695 -0.988495 -0.10695
    outer loop
      vertex 2.23744 -5.23744 3.72487
      vertex -2.03033 -4.5052 1.22487
      vertex 4.23744 -5.23744 1.72487
    endloop
  endfacet
  facet normal -0.275694 -0.94127 0.194946
    outer loop
      vertex -1.82322 -4.17677 3.10355
      vertex -2.03033 -4.5052 1.22487
      vertex 2.23744 -5.23744 3.72487
    endloop
  endfacet
  facet normal -0.275692 -0.941271 0.194945
    outer loop
      vertex -2.03033 -4.5052 1.22487
      vertex -1.82322 -4.17677 3.10355
      vertex -6.09099 -3.44454 0.603554
    endloop
  endfacet
  facet normal 0.146447 -0.853552 -0.500003
    outer loop
      vertex 5.2981 -3.2981 -1.89645
      vertex 1.53033 -2.06586 -5.10355
      vertex 5.7981 -2.7981 -2.60355
    endloop
  endfacet
  facet normal -0.260444 -0.520883 0.812927
    outer loop
      vertex 2.09099 -4.38388 4.22487
      vertex -1.82322 -4.17677 3.10355
      vertex 2.23744 -5.23744 3.72487
    endloop
  endfacet
  facet normal -0.260443 -0.520888 0.812924
    outer loop
      vertex -1.82322 -4.17677 3.10355
      vertex 2.09099 -4.38388 4.22487
      vertex -1.96967 -3.32322 3.60355
    endloop
  endfacet
  facet normal -0.499999 -0.500003 0.707105
    outer loop
      vertex -1.96967 -3.32322 3.60355
      vertex -6.23744 -2.59099 1.10355
      vertex -1.82322 -4.17677 3.10355
    endloop
  endfacet
  facet normal 0.812929 -0.552473 0.184172
    outer loop
      vertex 4.23744 -5.23744 1.72487
      vertex 4.82322 -4.44454 1.51777
      vertex 4.32322 -4.94454 2.22487
    endloop
  endfacet
  facet normal 0.812929 -0.552473 0.184172
    outer loop
      vertex 4.82322 -4.44454 1.51777
      vertex 4.23744 -5.23744 1.72487
      vertex 4.73744 -4.73744 1.01777
    endloop
  endfacet
  facet normal 0.985601 0 -0.16909
    outer loop
      vertex 5.88388 -2.5052 -2.10355
      vertex 5.7981 -2.7981 -2.60355
      vertex 5.7981 -2.40757 -2.60355
    endloop
  endfacet
  facet normal 0.169169 0 -0.985587
    outer loop
      vertex 1.41445 -1.73546 -5.12344
      vertex 1.53033 -1.42511 -5.10355
      vertex 1.53033 -2.06586 -5.10355
    endloop
  endfacet
  facet normal 0.169141 1.08334e-05 -0.985592
    outer loop
      vertex 1.53033 -1.42511 -5.10355
      vertex 1.41445 -1.73546 -5.12344
      vertex 1.42731 -1.45811 -5.12123
    endloop
  endfacet
  facet normal 0.169092 -2.77635e-05 -0.9856
    outer loop
      vertex 1.53033 -2.06586 -5.10355
      vertex 1.40901 -1.85266 -5.12437
      vertex 1.41445 -1.73546 -5.12344
    endloop
  endfacet
  facet normal 0.169075 -3.781e-05 -0.985603
    outer loop
      vertex 1.40901 -1.85266 -5.12437
      vertex 1.53033 -2.06586 -5.10355
      vertex 1.19262 -1.86804 -5.16149
    endloop
  endfacet
  facet normal -0.146449 -0.853555 -0.499997
    outer loop
      vertex -0.676779 -4.2019 -1.10355
      vertex -0.0303288 -4.5052 -0.775126
      vertex -1.25687 -4.18482 -0.962799
    endloop
  endfacet
  facet normal -0.146446 -0.853553 -0.500001
    outer loop
      vertex -0.0303288 -4.5052 -0.775126
      vertex -0.676779 -4.2019 -1.10355
      vertex -0.555458 -3.98007 -1.51777
    endloop
  endfacet
  facet normal 0.136557 -0.0565519 -0.989017
    outer loop
      vertex 1.53033 -2.06586 -5.10355
      vertex 0.964526 -1.88944 -5.19176
      vertex 1.19262 -1.86804 -5.16149
    endloop
  endfacet
  facet normal 0.136776 -0.0558517 -0.989026
    outer loop
      vertex 0.964526 -1.88944 -5.19176
      vertex 1.53033 -2.06586 -5.10355
      vertex 0.961065 -1.88977 -5.19222
    endloop
  endfacet
  facet normal 0.136624 -0.0563399 -0.98902
    outer loop
      vertex 1.53033 -2.06586 -5.10355
      vertex 0.88388 -1.89701 -5.20247
      vertex 0.961065 -1.88977 -5.19222
    endloop
  endfacet
  facet normal 0.812917 0.5525 0.184146
    outer loop
      vertex 6.03643 -0.429825 0.139087
      vertex 3.9151 1.69149 3.13909
      vertex 3.94454 1.59099 3.31066
    endloop
  endfacet
  facet normal 0.853554 -0.146444 0.5
    outer loop
      vertex 5.0052 -2.46967 3.93198
      vertex 4.5052 -2.96967 4.63909
      vertex 4.65165 -3.82322 4.13909
    endloop
  endfacet
  facet normal 0.812936 0.55246 0.184184
    outer loop
      vertex 6.03643 -0.429825 0.139087
      vertex 3.94454 1.59099 3.31066
      vertex 6.06586 -0.530331 0.310659
    endloop
  endfacet
  facet normal 0.6786 0.281085 0.678597
    outer loop
      vertex 3.44454 1.09099 4.01777
      vertex 5.0052 -2.46967 3.93198
      vertex 3.94454 1.59099 3.31066
    endloop
  endfacet
  facet normal 0.6786 0.281085 0.678597
    outer loop
      vertex 5.0052 -2.46967 3.93198
      vertex 3.44454 1.09099 4.01777
      vertex 4.5052 -2.96967 4.63909
    endloop
  endfacet
  facet normal -0.0955403 0.126128 0.987402
    outer loop
      vertex 3.44454 1.09099 4.01777
      vertex 2.99864 1.35219 3.94126
      vertex 3.66749 -1.20847 4.33307
    endloop
  endfacet
  facet normal 0.921899 -0.381849 0.0655248
    outer loop
      vertex 5.11612 -3.44454 3.22487
      vertex 6.21231 -1.38388 -0.18934
      vertex 5.15165 -3.32322 3.43198
    endloop
  endfacet
  facet normal 0.921899 -0.381848 0.0655255
    outer loop
      vertex 6.21231 -1.38388 -0.18934
      vertex 5.11612 -3.44454 3.22487
      vertex 6.17678 -1.5052 -0.396446
    endloop
  endfacet
  facet normal 0.281079 0.678607 0.678591
    outer loop
      vertex 3.44454 1.09099 4.01777
      vertex 3.11611 1.46967 3.77512
      vertex 2.99864 1.35219 3.94126
    endloop
  endfacet
  facet normal 0.281049 0.678596 0.678615
    outer loop
      vertex 3.44454 1.09099 4.01777
      vertex 3.13693 1.56155 3.67462
      vertex 3.11611 1.46967 3.77512
    endloop
  endfacet
  facet normal 0.281081 0.678603 0.678596
    outer loop
      vertex 3.94454 1.59099 3.31066
      vertex 3.13693 1.56155 3.67462
      vertex 3.44454 1.09099 4.01777
    endloop
  endfacet
  facet normal 0.281082 0.6786 0.678597
    outer loop
      vertex 3.13693 1.56155 3.67462
      vertex 3.94454 1.59099 3.31066
      vertex 3.23743 2.0052 3.18934
    endloop
  endfacet
  facet normal 0.408251 0.816505 0.408229
    outer loop
      vertex 3.9151 1.69149 3.13909
      vertex 3.23743 2.0052 3.18934
      vertex 3.94454 1.59099 3.31066
    endloop
  endfacet
  facet normal -0.156742 -0.0216328 0.987403
    outer loop
      vertex 3.59904 -2.73298 4.50043
      vertex 2.09099 -4.38388 4.22487
      vertex 4.5052 -2.96967 4.63909
    endloop
  endfacet
  facet normal -0.0955256 0.126131 0.987404
    outer loop
      vertex 4.5052 -2.96967 4.63909
      vertex 3.77184 -1.75328 4.41276
      vertex 3.79809 -2.55546 4.51777
    endloop
  endfacet
  facet normal -0.095492 0.126151 0.987404
    outer loop
      vertex 4.5052 -2.96967 4.63909
      vertex 3.76641 -1.58715 4.39101
      vertex 3.77184 -1.75328 4.41276
    endloop
  endfacet
  facet normal -0.095558 0.126116 0.987402
    outer loop
      vertex 4.5052 -2.96967 4.63909
      vertex 3.66749 -1.20847 4.33307
      vertex 3.76641 -1.58715 4.39101
    endloop
  endfacet
  facet normal -0.0955291 0.12613 0.987403
    outer loop
      vertex 3.66749 -1.20847 4.33307
      vertex 4.5052 -2.96967 4.63909
      vertex 3.44454 1.09099 4.01777
    endloop
  endfacet
  facet normal 0.40825 -0.816496 0.408248
    outer loop
      vertex 4.65165 -3.82322 4.13909
      vertex 2.23744 -5.23744 3.72487
      vertex 4.61612 -3.94454 3.93198
    endloop
  endfacet
  facet normal 0.959683 3.19555e-06 0.281086
    outer loop
      vertex 6.06586 -0.530331 0.310659
      vertex 5.0052 -2.46967 3.93198
      vertex 6.21231 -1.38388 -0.18934
    endloop
  endfacet
  facet normal 0.959683 2.91026e-06 0.281086
    outer loop
      vertex 6.21231 -1.38388 -0.18934
      vertex 5.0052 -2.46967 3.93198
      vertex 5.15165 -3.32322 3.43198
    endloop
  endfacet
  facet normal 0.866026 0.288675 0.408248
    outer loop
      vertex 6.06586 -0.530331 0.310659
      vertex 3.94454 1.59099 3.31066
      vertex 5.0052 -2.46967 3.93198
    endloop
  endfacet
  facet normal -0.136573 0.0565304 0.989016
    outer loop
      vertex 3.79809 -2.55546 4.51777
      vertex 3.59904 -2.73298 4.50043
      vertex 4.5052 -2.96967 4.63909
    endloop
  endfacet
  facet normal 0.853554 -0.146444 0.5
    outer loop
      vertex 5.0052 -2.46967 3.93198
      vertex 4.65165 -3.82322 4.13909
      vertex 5.15165 -3.32322 3.43198
    endloop
  endfacet
  facet normal 0.134838 -0.483509 0.864892
    outer loop
      vertex 2.09099 -4.38388 4.22487
      vertex 4.65165 -3.82322 4.13909
      vertex 4.5052 -2.96967 4.63909
    endloop
  endfacet
  facet normal 0.134837 -0.483505 0.864894
    outer loop
      vertex 4.65165 -3.82322 4.13909
      vertex 2.09099 -4.38388 4.22487
      vertex 2.23744 -5.23744 3.72487
    endloop
  endfacet
  facet normal 0.985599 2.95349e-05 -0.169101
    outer loop
      vertex 6.21231 -1.38388 -0.18934
      vertex 6.17678 -1.5052 -0.396446
      vertex 6.18287 -1.28338 -0.360912
    endloop
  endfacet
  facet normal 0.978785 0.198246 -0.051761
    outer loop
      vertex 6.06586 -0.530331 0.310659
      vertex 6.18287 -1.28338 -0.360912
      vertex 6.03643 -0.429825 0.139087
    endloop
  endfacet
  facet normal 0.978775 0.198281 -0.0518025
    outer loop
      vertex 6.18287 -1.28338 -0.360912
      vertex 6.06586 -0.530331 0.310659
      vertex 6.21231 -1.38388 -0.18934
    endloop
  endfacet
  facet normal 0.812929 -0.552475 0.184168
    outer loop
      vertex 4.61612 -3.94454 3.93198
      vertex 5.15165 -3.32322 3.43198
      vertex 4.65165 -3.82322 4.13909
    endloop
  endfacet
  facet normal 0.812929 -0.552475 0.184168
    outer loop
      vertex 5.15165 -3.32322 3.43198
      vertex 4.61612 -3.94454 3.93198
      vertex 5.11612 -3.44454 3.22487
    endloop
  endfacet
  facet normal 0.288667 -0.408269 0.866019
    outer loop
      vertex 3.01992 -2.64929 4.73292
      vertex 3.59904 -2.73298 4.50043
      vertex 3.79809 -2.55546 4.51777
    endloop
  endfacet
  facet normal 0.288673 -0.408247 0.866027
    outer loop
      vertex 3.59904 -2.73298 4.50043
      vertex 3.01992 -2.64929 4.73292
      vertex 2.09099 -4.38388 4.22487
    endloop
  endfacet
  facet normal -0.194217 -0.178509 0.96458
    outer loop
      vertex 3.01992 -2.64929 4.73292
      vertex -1.96967 -3.32322 3.60355
      vertex 2.09099 -4.38388 4.22487
    endloop
  endfacet
  facet normal -0.194217 -0.178509 0.96458
    outer loop
      vertex -1.04074 -1.58863 4.1116
      vertex -1.96967 -3.32322 3.60355
      vertex 3.01992 -2.64929 4.73292
    endloop
  endfacet
  facet normal -0.503274 0.016469 0.86397
    outer loop
      vertex -1.8825 -1.44421 3.61851
      vertex -1.96967 -3.32322 3.60355
      vertex -1.04074 -1.58863 4.1116
    endloop
  endfacet
  facet normal -0.0698761 -0.983191 -0.168678
    outer loop
      vertex -1.25687 -4.18482 -0.962799
      vertex -1.32322 -4.09099 -1.48223
      vertex -0.676779 -4.2019 -1.10355
    endloop
  endfacet
  facet normal -0.069848 -0.983193 -0.168682
    outer loop
      vertex -1.32322 -4.09099 -1.48223
      vertex -1.25687 -4.18482 -0.962799
      vertex -2.03033 -4.5052 1.22487
    endloop
  endfacet
  facet normal -0.146447 -0.853553 -0.5
    outer loop
      vertex -1.32322 -4.09099 -1.48223
      vertex -5.38388 -3.03033 -2.10355
      vertex -4.32322 -1.09099 -5.72487
    endloop
  endfacet
  facet normal 0.107884 -0.889206 -0.444604
    outer loop
      vertex -1.32322 -4.09099 -1.48223
      vertex -0.555458 -3.98007 -1.51777
      vertex -0.676779 -4.2019 -1.10355
    endloop
  endfacet
  facet normal 0.107885 -0.889207 -0.444602
    outer loop
      vertex -1.32322 -4.09099 -1.48223
      vertex 0.223222 -2.55631 -4.17635
      vertex -0.555458 -3.98007 -1.51777
    endloop
  endfacet
  facet normal 0.107884 -0.889207 -0.444602
    outer loop
      vertex 0.223222 -2.55631 -4.17635
      vertex -1.32322 -4.09099 -1.48223
      vertex -0.262562 -2.15165 -5.10355
    endloop
  endfacet
  facet normal -0.854728 -0.309985 -0.416352
    outer loop
      vertex -5.38388 -3.03033 -2.10355
      vertex -4.39429 -0.990484 -5.6538
      vertex -4.32322 -1.09099 -5.72487
    endloop
  endfacet
  facet normal -0.854732 -0.309978 -0.416349
    outer loop
      vertex -4.39429 -0.990484 -5.6538
      vertex -5.38388 -3.03033 -2.10355
      vertex -5.45495 -2.92982 -2.03248
    endloop
  endfacet
  facet normal 0.503267 -0.0165041 -0.863973
    outer loop
      vertex 1.40901 -1.85266 -5.12437
      vertex 0.295379 -1.54346 -5.77897
      vertex 1.41445 -1.73546 -5.12344
    endloop
  endfacet
  facet normal 0.503275 -0.0164671 -0.863969
    outer loop
      vertex 0.295379 -1.54346 -5.77897
      vertex 1.40901 -1.85266 -5.12437
      vertex 0.237437 -1.65165 -5.81066
    endloop
  endfacet
  facet normal -0.218257 -0.954531 -0.203061
    outer loop
      vertex -5.38388 -3.03033 -2.10355
      vertex -2.03033 -4.5052 1.22487
      vertex -6.09099 -3.44454 0.603554
    endloop
  endfacet
  facet normal -0.218257 -0.954531 -0.203062
    outer loop
      vertex -2.03033 -4.5052 1.22487
      vertex -5.38388 -3.03033 -2.10355
      vertex -1.32322 -4.09099 -1.48223
    endloop
  endfacet
  facet normal -0.146447 -0.853553 -0.5
    outer loop
      vertex -1.32322 -4.09099 -1.48223
      vertex -4.32322 -1.09099 -5.72487
      vertex -0.262562 -2.15165 -5.10355
    endloop
  endfacet
  facet normal 0.146436 -0.853564 -0.499986
    outer loop
      vertex 1.19262 -1.86804 -5.16149
      vertex 0.237437 -1.65165 -5.81066
      vertex 1.40901 -1.85266 -5.12437
    endloop
  endfacet
  facet normal 0.146434 -0.853565 -0.499984
    outer loop
      vertex 0.237437 -1.65165 -5.81066
      vertex 1.19262 -1.86804 -5.16149
      vertex 0.964526 -1.88944 -5.19176
    endloop
  endfacet
  facet normal -0.10695 -0.774598 -0.623346
    outer loop
      vertex 0.237437 -1.65165 -5.81066
      vertex -4.32322 -1.09099 -5.72487
      vertex -3.82322 -0.59099 -6.43198
    endloop
  endfacet
  facet normal 0.107874 -0.889212 -0.444595
    outer loop
      vertex 0.319541 -2.3802 -4.5052
      vertex -0.262562 -2.15165 -5.10355
      vertex 0.498638 -2.28225 -4.65765
    endloop
  endfacet
  facet normal 0.107883 -0.889208 -0.444602
    outer loop
      vertex -0.262562 -2.15165 -5.10355
      vertex 0.319541 -2.3802 -4.5052
      vertex 0.223222 -2.55631 -4.17635
    endloop
  endfacet
  facet normal 0.146444 -0.853556 -0.499995
    outer loop
      vertex -0.262562 -2.15165 -5.10355
      vertex 0.88388 -1.89701 -5.20247
      vertex 0.498638 -2.28225 -4.65765
    endloop
  endfacet
  facet normal 0.146443 -0.853554 -0.5
    outer loop
      vertex 0.88388 -1.89701 -5.20247
      vertex -0.262562 -2.15165 -5.10355
      vertex 0.237437 -1.65165 -5.81066
    endloop
  endfacet
  facet normal 0.146464 -0.853541 -0.500017
    outer loop
      vertex 0.237437 -1.65165 -5.81066
      vertex 0.961065 -1.88977 -5.19222
      vertex 0.88388 -1.89701 -5.20247
    endloop
  endfacet
  facet normal 0.147917 -0.852522 -0.501325
    outer loop
      vertex 0.961065 -1.88977 -5.19222
      vertex 0.237437 -1.65165 -5.81066
      vertex 0.964526 -1.88944 -5.19176
    endloop
  endfacet
  facet normal 0.19422 0.178519 -0.964577
    outer loop
      vertex 0.237437 -1.65165 -5.81066
      vertex -3.76528 -0.482796 -6.40029
      vertex 0.295379 -1.54346 -5.77897
    endloop
  endfacet
  facet normal 0.194219 0.178517 -0.964578
    outer loop
      vertex -3.76528 -0.482796 -6.40029
      vertex 0.237437 -1.65165 -5.81066
      vertex -3.82322 -0.59099 -6.43198
    endloop
  endfacet
  facet normal -0.10695 -0.774598 -0.623346
    outer loop
      vertex -0.262562 -2.15165 -5.10355
      vertex -4.32322 -1.09099 -5.72487
      vertex 0.237437 -1.65165 -5.81066
    endloop
  endfacet
  facet normal -0.288683 0.408253 -0.866021
    outer loop
      vertex -3.82322 -0.59099 -6.43198
      vertex -3.89429 -0.490485 -6.36091
      vertex -3.76528 -0.482796 -6.40029
    endloop
  endfacet
  facet normal -0.774597 -0.106953 -0.623347
    outer loop
      vertex -3.82322 -0.59099 -6.43198
      vertex -4.39429 -0.990484 -5.6538
      vertex -3.89429 -0.490485 -6.36091
    endloop
  endfacet
  facet normal -0.774597 -0.106952 -0.623347
    outer loop
      vertex -4.39429 -0.990484 -5.6538
      vertex -3.82322 -0.59099 -6.43198
      vertex -4.32322 -1.09099 -5.72487
    endloop
  endfacet
  facet normal -0.866028 -0.408242 -0.288676
    outer loop
      vertex -5.38388 -3.03033 -2.10355
      vertex -6.09099 -3.44454 0.603554
      vertex -5.45495 -2.92982 -2.03248
    endloop
  endfacet
  facet normal -0.629065 0.777352 0
    outer loop
      vertex -5.57914 -3.03033 -1.51777
      vertex -6.09099 -3.44454 0.603554
      vertex -5.57914 -3.03033 -1.51776
    endloop
  endfacet
  facet normal 0.878137 0.383009 0.28667
    outer loop
      vertex -6.09099 -3.44454 0.603554
      vertex -5.57914 -3.03033 -1.51777
      vertex -5.45495 -2.92982 -2.03248
    endloop
  endfacet
  facet normal 0.978775 0.198284 -0.0517954
    outer loop
      vertex 6.00867 -0.335068 -0.0226727
      vertex 6.11504 -1.05177 -0.75629
      vertex 6.03521 -0.718334 -0.98837
    endloop
  endfacet
  facet normal 0.978779 0.198268 -0.0517793
    outer loop
      vertex 6.11504 -1.05177 -0.75629
      vertex 6.00867 -0.335068 -0.0226727
      vertex 6.15512 -1.18862 -0.522673
    endloop
  endfacet
  facet normal 0.812925 0.552482 0.184162
    outer loop
      vertex 5.89429 0.0554552 -0.689341
      vertex 3.77297 2.17677 2.31066
      vertex 6.00867 -0.335068 -0.0226727
    endloop
  endfacet
  facet normal -0.169132 1.60455e-05 0.985593
    outer loop
      vertex -1.96967 -1.36705 3.60355
      vertex -1.8825 -1.44421 3.61851
      vertex -1.87923 -1.37382 3.61907
    endloop
  endfacet
  facet normal -0.169146 0 0.985591
    outer loop
      vertex -1.8825 -1.44421 3.61851
      vertex -1.96967 -1.36705 3.60355
      vertex -1.96967 -3.32322 3.60355
    endloop
  endfacet
  facet normal -0.985601 0 0.16909
    outer loop
      vertex -6.23744 -0.634823 1.10355
      vertex -6.35013 -0.348349 0.446698
      vertex -6.23744 -2.59099 1.10355
    endloop
  endfacet
  facet normal -0.505449 0 0.862856
    outer loop
      vertex -6.23744 -0.634823 1.10355
      vertex -1.96967 -1.13555 3.60355
      vertex -1.96967 -0.494795 3.60355
    endloop
  endfacet
  facet normal -0.505449 0 0.862856
    outer loop
      vertex -1.96967 -1.13555 3.60355
      vertex -6.23744 -0.634823 1.10355
      vertex -1.96967 -1.36705 3.60355
    endloop
  endfacet
  facet normal -0.505449 0 0.862856
    outer loop
      vertex -6.23744 -0.153088 1.10355
      vertex -1.96967 -0.494795 3.60355
      vertex -6.23744 0.237436 1.10355
    endloop
  endfacet
  facet normal -0.505449 0 0.862856
    outer loop
      vertex -6.23744 -0.634823 1.10355
      vertex -1.96967 -0.494795 3.60355
      vertex -6.23744 -0.153088 1.10355
    endloop
  endfacet
  facet normal -0.505449 0 0.862856
    outer loop
      vertex -1.96967 -1.36705 3.60355
      vertex -6.23744 -0.634823 1.10355
      vertex -6.23744 -2.59099 1.10355
    endloop
  endfacet
  facet normal -0.505449 0 0.862856
    outer loop
      vertex -1.96967 -1.36705 3.60355
      vertex -6.23744 -2.59099 1.10355
      vertex -1.96967 -3.32322 3.60355
    endloop
  endfacet
  facet normal 0.85935 0.18304 0.477509
    outer loop
      vertex -6.28769 -1.59099 0.81066
      vertex -6.23744 -2.59099 1.10355
      vertex -6.35013 -0.348349 0.446698
    endloop
  endfacet
  facet normal 0.408259 0.816496 0.40824
    outer loop
      vertex 3.77297 2.17677 2.31066
      vertex 3.37968 2.39435 2.2688
      vertex 3.88735 1.78625 2.97733
    endloop
  endfacet
  facet normal 0.408298 0.816541 0.408111
    outer loop
      vertex 3.37968 2.39435 2.2688
      vertex 3.77297 2.17677 2.31066
      vertex 3.38244 2.40554 2.24365
    endloop
  endfacet
  facet normal 0.707107 -0.707107 0
    outer loop
      vertex 5.09099 -3.53033 3.07843
      vertex 4.73744 -3.88388 3.57842
      vertex 5.09099 -3.53033 3.07842
    endloop
  endfacet
  facet normal 0.707107 -0.707107 7.65899e-10
    outer loop
      vertex 4.59099 -4.03033 3.78553
      vertex 4.73744 -3.88388 3.57842
      vertex 5.09099 -3.53033 3.07843
    endloop
  endfacet
  facet normal 0.812927 -0.552479 0.184165
    outer loop
      vertex 4.59099 -4.03033 3.78553
      vertex 4.67236 -3.98891 3.55061
      vertex 4.73744 -3.88388 3.57842
    endloop
  endfacet
  facet normal 0.812931 -0.552472 0.184168
    outer loop
      vertex 4.67236 -3.98891 3.55061
      vertex 4.59099 -4.03033 3.78553
      vertex 4.53861 -4.20918 3.48022
    endloop
  endfacet
  facet normal 0.408247 -0.816492 0.408259
    outer loop
      vertex 4.59099 -4.03033 3.78553
      vertex 2.23744 -5.23744 3.72487
      vertex 4.53861 -4.20918 3.48022
    endloop
  endfacet
  facet normal 0.812925 0.552484 0.18416
    outer loop
      vertex 6.00867 -0.335068 -0.0226727
      vertex 3.77297 2.17677 2.31066
      vertex 3.88735 1.78625 2.97733
    endloop
  endfacet
  facet normal 0.978779 0.198266 -0.0517881
    outer loop
      vertex 6.03521 -0.718334 -0.98837
      vertex 5.89429 0.0554552 -0.689341
      vertex 6.00867 -0.335068 -0.0226727
    endloop
  endfacet
  facet normal 0.978786 0.198246 -0.0517331
    outer loop
      vertex 5.89429 0.0554552 -0.689341
      vertex 6.03521 -0.718334 -0.98837
      vertex 6.00641 -0.597999 -1.07213
    endloop
  endfacet
  facet normal 0.408243 0.816499 0.408248
    outer loop
      vertex 3.88735 1.78625 2.97733
      vertex 3.29631 2.08846 2.96394
      vertex 3.28898 2.0781 2.99199
    endloop
  endfacet
  facet normal 0.408227 0.816471 0.408321
    outer loop
      vertex 3.88735 1.78625 2.97733
      vertex 3.3085 2.10571 2.91726
      vertex 3.29631 2.08846 2.96394
    endloop
  endfacet
  facet normal 0.408248 0.816497 0.408248
    outer loop
      vertex 3.88735 1.78625 2.97733
      vertex 3.3498 2.27317 2.54104
      vertex 3.3085 2.10571 2.91726
    endloop
  endfacet
  facet normal 0.408248 0.816497 0.408248
    outer loop
      vertex 3.3498 2.27317 2.54104
      vertex 3.88735 1.78625 2.97733
      vertex 3.37968 2.39435 2.2688
    endloop
  endfacet
  facet normal 0.985603 2.74294e-05 -0.169077
    outer loop
      vertex 6.15512 -1.18862 -0.522673
      vertex 6.14277 -1.22487 -0.594671
      vertex 6.11504 -1.05177 -0.75629
    endloop
  endfacet
  facet normal 0.985604 9.31736e-06 -0.169068
    outer loop
      vertex 6.14277 -1.22487 -0.594671
      vertex 6.15512 -1.18862 -0.522673
      vertex 6.15401 -1.31753 -0.529151
    endloop
  endfacet
  facet normal 0.119576 -0.985598 -0.119572
    outer loop
      vertex 2.23744 -5.23744 3.72487
      vertex 4.7019 -4.82322 2.77512
      vertex 4.94454 -4.82322 3.01777
    endloop
  endfacet
  facet normal 0.119575 -0.985598 -0.119575
    outer loop
      vertex 4.7019 -4.82322 2.77512
      vertex 2.23744 -5.23744 3.72487
      vertex 4.35876 -4.82322 2.43198
    endloop
  endfacet
  facet normal 0.357408 -0.862855 -0.357408
    outer loop
      vertex 4.7019 -4.82322 2.77512
      vertex 4.35876 -4.82322 2.43198
      vertex 5.2019 -4.32322 2.06802
    endloop
  endfacet
  facet normal 0.357414 -0.862854 -0.357404
    outer loop
      vertex 6.26256 -2.38388 -1.5533
      vertex 5.2019 -4.32322 2.06802
      vertex 5.91942 -2.38388 -1.89645
    endloop
  endfacet
  facet normal 0.357412 -0.862856 -0.357401
    outer loop
      vertex 4.85876 -4.32322 1.72487
      vertex 5.2019 -4.32322 2.06802
      vertex 4.35876 -4.82322 2.43198
    endloop
  endfacet
  facet normal 0.357414 -0.862854 -0.357404
    outer loop
      vertex 5.2019 -4.32322 2.06802
      vertex 4.85876 -4.32322 1.72487
      vertex 5.91942 -2.38388 -1.89645
    endloop
  endfacet
  facet normal -0.866022 -0.408256 -0.288674
    outer loop
      vertex -5.85529 -3.03033 -0.689339
      vertex -6.09099 -3.44454 0.603554
      vertex -5.91942 -2.85876 -0.739591
    endloop
  endfacet
  facet normal 0.696939 -0.16906 -0.696918
    outer loop
      vertex 5.91942 -2.38388 -1.89645
      vertex 5.91079 -2.21231 -1.9467
      vertex 6.26256 -2.38388 -1.5533
    endloop
  endfacet
  facet normal -0.898646 -0.438675 -0
    outer loop
      vertex -5.57914 -3.03033 -1.51776
      vertex -5.70665 -2.76912 -1.50464
      vertex -5.57914 -3.03033 -1.51777
    endloop
  endfacet
  facet normal -0.866022 -0.40825 -0.288684
    outer loop
      vertex -5.70665 -2.76912 -1.50464
      vertex -5.57914 -3.03033 -1.51776
      vertex -5.85529 -3.03033 -0.689339
    endloop
  endfacet
  facet normal 0.812918 -0.552499 0.184144
    outer loop
      vertex 4.32322 -4.94454 2.22487
      vertex 4.85876 -4.32322 1.72487
      vertex 4.35876 -4.82322 2.43198
    endloop
  endfacet
  facet normal 0.81292 -0.552495 0.18415
    outer loop
      vertex 4.85876 -4.32322 1.72487
      vertex 4.32322 -4.94454 2.22487
      vertex 4.82322 -4.44454 1.51777
    endloop
  endfacet
  facet normal 0.408244 -0.816506 0.408235
    outer loop
      vertex 4.35876 -4.82322 2.43198
      vertex 2.23744 -5.23744 3.72487
      vertex 4.32322 -4.94454 2.22487
    endloop
  endfacet
  facet normal 0.985599 -6.04672e-05 -0.169101
    outer loop
      vertex 5.88388 -2.5052 -2.10355
      vertex 5.7981 -2.40757 -2.60355
      vertex 5.91942 -2.38388 -1.89645
    endloop
  endfacet
  facet normal -0.866009 -0.40828 -0.28868
    outer loop
      vertex -5.57914 -3.03033 -1.51776
      vertex -6.09099 -3.44454 0.603554
      vertex -5.85529 -3.03033 -0.689339
    endloop
  endfacet
  facet normal 0.169122 7.27662e-05 -0.985595
    outer loop
      vertex 1.53033 -1.42511 -5.10355
      vertex 1.42731 -1.45811 -5.12123
      vertex 1.4291 -1.41954 -5.12092
    endloop
  endfacet
  facet normal 0.985598 0 -0.169103
    outer loop
      vertex 5.91942 -2.38388 -1.89645
      vertex 5.7981 -2.40757 -2.60355
      vertex 5.7981 -1.92584 -2.60355
    endloop
  endfacet
  facet normal 0.921887 -0.381881 0.0655042
    outer loop
      vertex 4.82322 -4.44454 1.51777
      vertex 5.91942 -2.38388 -1.89645
      vertex 4.85876 -4.32322 1.72487
    endloop
  endfacet
  facet normal 0.921887 -0.381881 0.0655042
    outer loop
      vertex 5.91942 -2.38388 -1.89645
      vertex 4.82322 -4.44454 1.51777
      vertex 5.88388 -2.5052 -2.10355
    endloop
  endfacet
  facet normal 0.978773 0.198288 -0.0518151
    outer loop
      vertex 6.15512 -1.18862 -0.522673
      vertex 6.00867 -0.335068 -0.0226727
      vertex 6.03643 -0.429825 0.139087
    endloop
  endfacet
  facet normal 0.408246 0.816489 0.408266
    outer loop
      vertex 3.9151 1.69149 3.13909
      vertex 3.28693 2.0752 2.99985
      vertex 3.23743 2.0052 3.18934
    endloop
  endfacet
  facet normal 0.408253 0.816494 0.408249
    outer loop
      vertex 3.28693 2.0752 2.99985
      vertex 3.9151 1.69149 3.13909
      vertex 3.28736 2.07581 2.9982
    endloop
  endfacet
  facet normal 0.812916 0.552503 0.184143
    outer loop
      vertex 6.00867 -0.335068 -0.0226727
      vertex 3.9151 1.69149 3.13909
      vertex 6.03643 -0.429825 0.139087
    endloop
  endfacet
  facet normal 0.985599 2.91851e-05 -0.169099
    outer loop
      vertex 6.17678 -1.5052 -0.396446
      vertex 6.16603 -1.44934 -0.459093
      vertex 6.18287 -1.28338 -0.360912
    endloop
  endfacet
  facet normal 0.985571 -0.000157994 -0.169261
    outer loop
      vertex 6.16603 -1.44934 -0.459093
      vertex 6.17678 -1.5052 -0.396446
      vertex 6.17234 -1.52034 -0.422285
    endloop
  endfacet
  facet normal 0.812923 -0.552489 0.184154
    outer loop
      vertex 4.59099 -4.03033 3.78553
      vertex 5.11612 -3.44454 3.22487
      vertex 4.61612 -3.94454 3.93198
    endloop
  endfacet
  facet normal 0.812925 -0.552483 0.184162
    outer loop
      vertex 5.11612 -3.44454 3.22487
      vertex 4.59099 -4.03033 3.78553
      vertex 5.09099 -3.53033 3.07843
    endloop
  endfacet
  facet normal 0.985603 9.63222e-06 -0.169074
    outer loop
      vertex 6.18287 -1.28338 -0.360912
      vertex 6.15401 -1.31753 -0.529151
      vertex 6.15512 -1.18862 -0.522673
    endloop
  endfacet
  facet normal 0.985607 -8.50523e-05 -0.169055
    outer loop
      vertex 6.18287 -1.28338 -0.360912
      vertex 6.15512 -1.32669 -0.522675
      vertex 6.15401 -1.31753 -0.529151
    endloop
  endfacet
  facet normal 0.985602 1.89247e-05 -0.169082
    outer loop
      vertex 6.15512 -1.32669 -0.522675
      vertex 6.18287 -1.28338 -0.360912
      vertex 6.16603 -1.44934 -0.459093
    endloop
  endfacet
  facet normal 0.408245 0.816488 0.408269
    outer loop
      vertex 3.88735 1.78625 2.97733
      vertex 3.28736 2.07581 2.9982
      vertex 3.9151 1.69149 3.13909
    endloop
  endfacet
  facet normal 0.40834 0.816725 0.407699
    outer loop
      vertex 3.28736 2.07581 2.9982
      vertex 3.88735 1.78625 2.97733
      vertex 3.28898 2.0781 2.99199
    endloop
  endfacet
  facet normal 0.812933 0.552465 0.184179
    outer loop
      vertex 6.00867 -0.335068 -0.0226727
      vertex 3.88735 1.78625 2.97733
      vertex 3.9151 1.69149 3.13909
    endloop
  endfacet
  facet normal 0.978783 0.198252 -0.0517728
    outer loop
      vertex 6.15512 -1.18862 -0.522673
      vertex 6.03643 -0.429825 0.139087
      vertex 6.18287 -1.28338 -0.360912
    endloop
  endfacet
  facet normal 0.40825 -0.816496 0.408248
    outer loop
      vertex 4.61612 -3.94454 3.93198
      vertex 2.23744 -5.23744 3.72487
      vertex 4.59099 -4.03033 3.78553
    endloop
  endfacet
  facet normal 0.921843 -0.382002 0.0654253
    outer loop
      vertex 6.17678 -1.5052 -0.396446
      vertex 5.23608 -3.23223 2.77433
      vertex 6.17234 -1.52034 -0.422285
    endloop
  endfacet
  facet normal 0.921889 -0.381877 0.0655067
    outer loop
      vertex 5.11612 -3.44454 3.22487
      vertex 5.23608 -3.23223 2.77433
      vertex 6.17678 -1.5052 -0.396446
    endloop
  endfacet
  facet normal 0.921888 -0.381879 0.0655055
    outer loop
      vertex 5.11612 -3.44454 3.22487
      vertex 5.19052 -3.31753 2.91824
      vertex 5.23608 -3.23223 2.77433
    endloop
  endfacet
  facet normal 0.92189 -0.381873 0.0655088
    outer loop
      vertex 5.11612 -3.44454 3.22487
      vertex 5.09099 -3.53033 3.07842
      vertex 5.19052 -3.31753 2.91824
    endloop
  endfacet
  facet normal 0.959675 -0.281112 0
    outer loop
      vertex 5.09099 -3.53033 3.07842
      vertex 5.11612 -3.44454 3.22487
      vertex 5.09099 -3.53033 3.07843
    endloop
  endfacet
  facet normal 0.862887 0.357368 0.35737
    outer loop
      vertex 6.15401 -1.31753 -0.529151
      vertex 6.22068 -1.33507 -0.672589
      vertex 6.14277 -1.22487 -0.594671
    endloop
  endfacet
  facet normal 0.862924 0.357247 0.357402
    outer loop
      vertex 6.15512 -1.32669 -0.522675
      vertex 6.22068 -1.33507 -0.672589
      vertex 6.15401 -1.31753 -0.529151
    endloop
  endfacet
  facet normal 0.862847 0.35748 0.357355
    outer loop
      vertex 6.22068 -1.33507 -0.672589
      vertex 6.15512 -1.32669 -0.522675
      vertex 6.35876 -1.53033 -0.81066
    endloop
  endfacet
  facet normal -0.866022 -0.40825 -0.288682
    outer loop
      vertex -6.56239 -1.83507 -0.258374
      vertex -6.66002 -1.22559 -0.82741
      vertex -6.09099 -3.44454 0.603554
    endloop
  endfacet
  facet normal 0.822694 0.568485 -0
    outer loop
      vertex -6.28769 -1.59099 0.810659
      vertex -6.70884 -0.981515 0.241625
      vertex -6.28769 -1.59099 0.81066
    endloop
  endfacet
  facet normal -0.696925 0.169101 0.696922
    outer loop
      vertex -6.23744 -2.59099 1.10355
      vertex -6.28769 -1.59099 0.81066
      vertex -6.70884 -0.981515 0.241625
    endloop
  endfacet
  facet normal 0.866023 0.408249 0.288682
    outer loop
      vertex 6.12305 -0.725592 -1.24162
      vertex 5.65165 0.883883 -2.10355
      vertex 6.22068 -1.33507 -0.672589
    endloop
  endfacet
  facet normal 0.865923 0.40832 0.28888
    outer loop
      vertex 6.22068 -1.33507 -0.672589
      vertex 6.00641 -0.597999 -1.07213
      vertex 6.03521 -0.718334 -0.98837
    endloop
  endfacet
  facet normal 0.866058 0.408218 0.28862
    outer loop
      vertex 6.00641 -0.597999 -1.07213
      vertex 6.22068 -1.33507 -0.672589
      vertex 5.65165 0.883883 -2.10355
    endloop
  endfacet
  facet normal 0.866073 0.408212 0.288582
    outer loop
      vertex 6.11504 -1.05177 -0.75629
      vertex 6.22068 -1.33507 -0.672589
      vertex 6.03521 -0.718334 -0.98837
    endloop
  endfacet
  facet normal 0.866057 0.408218 0.288622
    outer loop
      vertex 6.22068 -1.33507 -0.672589
      vertex 6.11504 -1.05177 -0.75629
      vertex 6.14277 -1.22487 -0.594671
    endloop
  endfacet
  facet normal -0.866044 -0.408223 -0.288655
    outer loop
      vertex -6.55438 -1.50889 -0.743709
      vertex -6.66002 -1.22559 -0.82741
      vertex -6.58211 -1.33578 -0.905328
    endloop
  endfacet
  facet normal -0.866057 -0.408218 -0.288623
    outer loop
      vertex -6.44575 -1.96266 -0.427873
      vertex -6.66002 -1.22559 -0.82741
      vertex -6.55438 -1.50889 -0.743709
    endloop
  endfacet
  facet normal -0.866067 -0.408211 -0.288604
    outer loop
      vertex -6.66002 -1.22559 -0.82741
      vertex -6.44575 -1.96266 -0.427873
      vertex -6.09099 -3.44454 0.603554
    endloop
  endfacet
  facet normal -0.968137 -0.227466 0.104741
    outer loop
      vertex -6.23744 -2.59099 1.10355
      vertex -6.56239 -1.83507 -0.258374
      vertex -6.09099 -3.44454 0.603554
    endloop
  endfacet
  facet normal -0.968137 -0.227466 0.104742
    outer loop
      vertex -6.23744 -2.59099 1.10355
      vertex -6.70884 -0.981515 0.241625
      vertex -6.56239 -1.83507 -0.258374
    endloop
  endfacet
  facet normal 0.69693 -0.1691 -0.696917
    outer loop
      vertex 5.84835 -0.969667 -2.31066
      vertex 5.7981 0.0303307 -2.60355
      vertex 6.2695 -1.57914 -1.74162
    endloop
  endfacet
  facet normal -0.854747 -0.309953 -0.416337
    outer loop
      vertex -6.61042 -1.03602 -1.07037
      vertex -5.73743 0.909009 -4.31066
      vertex -5.62986 0.756871 -4.41824
    endloop
  endfacet
  facet normal -0.854728 -0.309986 -0.416352
    outer loop
      vertex -5.73743 0.909009 -4.31066
      vertex -6.61042 -1.03602 -1.07037
      vertex -6.79809 -1.03033 -0.689339
    endloop
  endfacet
  facet normal -0.854731 -0.309976 -0.416353
    outer loop
      vertex -6.6043 -1.10082 -1.03469
      vertex -6.79809 -1.03033 -0.689339
      vertex -6.61042 -1.03602 -1.07037
    endloop
  endfacet
  facet normal -0.854764 -0.309921 -0.416327
    outer loop
      vertex -6.66002 -1.22559 -0.82741
      vertex -6.6043 -1.10082 -1.03469
      vertex -6.59314 -1.21899 -0.969635
    endloop
  endfacet
  facet normal -0.85473 -0.309978 -0.416353
    outer loop
      vertex -6.6043 -1.10082 -1.03469
      vertex -6.66002 -1.22559 -0.82741
      vertex -6.79809 -1.03033 -0.689339
    endloop
  endfacet
  facet normal -0.854751 -0.309961 -0.416323
    outer loop
      vertex -6.66002 -1.22559 -0.82741
      vertex -6.59314 -1.21899 -0.969635
      vertex -6.58211 -1.33578 -0.905328
    endloop
  endfacet
  facet normal 0.774606 0.10691 0.623342
    outer loop
      vertex 5.09099 -3.53033 3.07842
      vertex 5.29809 -3.46967 2.81066
      vertex 5.19052 -3.31753 2.91824
    endloop
  endfacet
  facet normal 0.774605 0.106938 0.623339
    outer loop
      vertex 4.79809 -3.96967 3.51777
      vertex 5.09099 -3.53033 3.07842
      vertex 4.73744 -3.88388 3.57842
    endloop
  endfacet
  facet normal 0.774599 0.106948 0.623345
    outer loop
      vertex 5.09099 -3.53033 3.07842
      vertex 4.79809 -3.96967 3.51777
      vertex 5.29809 -3.46967 2.81066
    endloop
  endfacet
  facet normal 0.288672 -0.408186 0.866056
    outer loop
      vertex 4.73744 -3.88388 3.57842
      vertex 4.67236 -3.98891 3.55061
      vertex 4.79809 -3.96967 3.51777
    endloop
  endfacet
  facet normal 0.968137 0.227466 -0.104741
    outer loop
      vertex 6.12305 -0.725592 -1.24162
      vertex 5.7981 0.0303307 -2.60355
      vertex 5.65165 0.883883 -2.10355
    endloop
  endfacet
  facet normal 0.968137 0.227467 -0.10474
    outer loop
      vertex 5.7981 0.0303307 -2.60355
      vertex 6.12305 -0.725592 -1.24162
      vertex 6.2695 -1.57914 -1.74162
    endloop
  endfacet
  facet normal 0.849821 0.289347 0.440547
    outer loop
      vertex 5.23608 -3.23223 2.77433
      vertex 5.19052 -3.31753 2.91824
      vertex 5.29809 -3.46967 2.81066
    endloop
  endfacet
  facet normal 0.86601 0.408264 0.2887
    outer loop
      vertex 6.35876 -1.53033 -0.81066
      vertex 6.12305 -0.725592 -1.24162
      vertex 6.22068 -1.33507 -0.672589
    endloop
  endfacet
  facet normal 0.696923 -0.169105 -0.696924
    outer loop
      vertex 5.91079 -2.21231 -1.9467
      vertex 5.84835 -0.969668 -2.31066
      vertex 6.26256 -2.38388 -1.5533
    endloop
  endfacet
  facet normal 0.696923 -0.169104 -0.696923
    outer loop
      vertex 5.84835 -0.969668 -2.31066
      vertex 6.5052 -2.38388 -1.31066
      vertex 6.26256 -2.38388 -1.5533
    endloop
  endfacet
  facet normal 0.289469 -0.446356 0.846743
    outer loop
      vertex 4.53861 -4.20918 3.48022
      vertex 4.79809 -3.96967 3.51777
      vertex 4.67236 -3.98891 3.55061
    endloop
  endfacet
  facet normal 0.289463 -0.44635 0.846748
    outer loop
      vertex 4.79809 -3.96967 3.51777
      vertex 4.53861 -4.20918 3.48022
      vertex 4.94454 -4.82322 3.01777
    endloop
  endfacet
  facet normal 0.289469 -0.446346 0.846748
    outer loop
      vertex 4.94454 -4.82322 3.01777
      vertex 4.53861 -4.20918 3.48022
      vertex 2.23744 -5.23744 3.72487
    endloop
  endfacet
  facet normal 0.696938 -0.169089 -0.696912
    outer loop
      vertex 5.84835 -0.969668 -2.31066
      vertex 6.2695 -1.57914 -1.74162
      vertex 6.5052 -2.38388 -1.31066
    endloop
  endfacet
  facet normal 0.968134 0.227472 -0.104751
    outer loop
      vertex 6.35876 -1.53033 -0.81066
      vertex 6.2695 -1.57914 -1.74162
      vertex 6.12305 -0.725592 -1.24162
    endloop
  endfacet
  facet normal 0.968137 0.227461 -0.10475
    outer loop
      vertex 6.2695 -1.57914 -1.74162
      vertex 6.35876 -1.53033 -0.81066
      vertex 6.5052 -2.38388 -1.31066
    endloop
  endfacet
  facet normal 0.853554 -0.146444 0.5
    outer loop
      vertex 5.29809 -3.46967 2.81066
      vertex 4.94454 -4.82322 3.01777
      vertex 5.44454 -4.32322 2.31066
    endloop
  endfacet
  facet normal 0.803801 0 -0.594898
    outer loop
      vertex 5.84835 -0.969668 -2.31066
      vertex 5.84835 -0.969667 -2.31066
      vertex 6.2695 -1.57914 -1.74162
    endloop
  endfacet
  facet normal 0.853554 -0.146444 0.5
    outer loop
      vertex 5.29809 -3.46967 2.81066
      vertex 4.79809 -3.96967 3.51777
      vertex 4.94454 -4.82322 3.01777
    endloop
  endfacet
  facet normal 0.959682 1.72857e-06 0.281088
    outer loop
      vertex 5.44454 -4.32322 2.31066
      vertex 6.35876 -1.53033 -0.81066
      vertex 5.29809 -3.46967 2.81066
    endloop
  endfacet
  facet normal 0.959684 -5.64828e-06 0.281082
    outer loop
      vertex 6.35876 -1.53033 -0.81066
      vertex 5.44454 -4.32322 2.31066
      vertex 6.5052 -2.38388 -1.31066
    endloop
  endfacet
  facet normal 0.357414 -0.862856 -0.3574
    outer loop
      vertex 4.94454 -4.82322 3.01777
      vertex 4.7019 -4.82322 2.77512
      vertex 5.44454 -4.32322 2.31066
    endloop
  endfacet
  facet normal 0.866023 0.288675 0.408254
    outer loop
      vertex 6.16603 -1.44934 -0.459093
      vertex 6.35876 -1.53033 -0.81066
      vertex 6.15512 -1.32669 -0.522675
    endloop
  endfacet
  facet normal 0.866032 0.288624 0.408271
    outer loop
      vertex 6.17234 -1.52034 -0.422285
      vertex 6.35876 -1.53033 -0.81066
      vertex 6.16603 -1.44934 -0.459093
    endloop
  endfacet
  facet normal 0.866045 0.288639 0.408232
    outer loop
      vertex 5.29809 -3.46967 2.81066
      vertex 6.17234 -1.52034 -0.422285
      vertex 5.23608 -3.23223 2.77433
    endloop
  endfacet
  facet normal 0.866012 0.288699 0.40826
    outer loop
      vertex 6.17234 -1.52034 -0.422285
      vertex 5.29809 -3.46967 2.81066
      vertex 6.35876 -1.53033 -0.81066
    endloop
  endfacet
  facet normal 0.357408 -0.862855 -0.357408
    outer loop
      vertex 5.2019 -4.32322 2.06802
      vertex 5.44454 -4.32322 2.31066
      vertex 4.7019 -4.82322 2.77512
    endloop
  endfacet
  facet normal 0.357407 -0.862856 -0.357407
    outer loop
      vertex 5.44454 -4.32322 2.31066
      vertex 5.2019 -4.32322 2.06802
      vertex 6.26256 -2.38388 -1.5533
    endloop
  endfacet
  facet normal 0.357407 -0.862856 -0.357407
    outer loop
      vertex 6.5052 -2.38388 -1.31066
      vertex 5.44454 -4.32322 2.31066
      vertex 6.26256 -2.38388 -1.5533
    endloop
  endfacet
  facet normal -0.408268 -0.816489 -0.408243
    outer loop
      vertex -6.09099 -3.44454 0.603554
      vertex -6.33363 -2.61611 -0.810658
      vertex -5.91942 -2.85876 -0.739591
    endloop
  endfacet
  facet normal -0.978778 -0.198275 0.0517841
    outer loop
      vertex -6.09099 -3.44454 0.603554
      vertex -6.44575 -1.96266 -0.427873
      vertex -6.33363 -2.61611 -0.810658
    endloop
  endfacet
  facet normal -0.408248 0.408248 0.816497
    outer loop
      vertex -3.23744 3.23744 1.10355
      vertex -1.96967 -0.494795 3.60355
      vertex 1.03033 2.5052 3.60355
    endloop
  endfacet
  facet normal -0.408248 0.408248 0.816497
    outer loop
      vertex -1.96967 -0.494795 3.60355
      vertex -3.23744 3.23744 1.10355
      vertex -6.23744 0.237436 1.10355
    endloop
  endfacet
  facet normal -0.184163 0.965489 -0.184163
    outer loop
      vertex -2.67678 2.67677 -5.22487
      vertex -4.67678 2.67677 -3.22487
      vertex -2.73744 3.73744 0.396447
    endloop
  endfacet
  facet normal -0.146446 0.853552 0.500002
    outer loop
      vertex -2.73744 3.73744 0.396447
      vertex -3.23744 3.23744 1.10355
      vertex 1.03033 2.5052 3.60355
    endloop
  endfacet
  facet normal 0.10695 0.988495 0.106951
    outer loop
      vertex -0.737436 3.73744 -1.60355
      vertex -2.73744 3.73744 0.396447
      vertex 1.53033 3.0052 2.89645
    endloop
  endfacet
  facet normal -0.169085 3.21617e-05 0.985602
    outer loop
      vertex -1.96967 -0.494795 3.60355
      vertex -1.84835 -0.707999 3.62437
      vertex -1.73397 -0.632867 3.64399
    endloop
  endfacet
  facet normal -0.169092 2.77628e-05 0.9856
    outer loop
      vertex -1.96967 -0.494795 3.60355
      vertex -1.85379 -0.825202 3.62344
      vertex -1.84835 -0.707999 3.62437
    endloop
  endfacet
  facet normal -0.169169 0 0.985587
    outer loop
      vertex -1.96967 -1.13555 3.60355
      vertex -1.85379 -0.825202 3.62344
      vertex -1.96967 -0.494795 3.60355
    endloop
  endfacet
  facet normal -0.169141 -1.08335e-05 0.985592
    outer loop
      vertex -1.85379 -0.825202 3.62344
      vertex -1.96967 -1.13555 3.60355
      vertex -1.86665 -1.10255 3.62123
    endloop
  endfacet
  facet normal -0.985601 0 0.169091
    outer loop
      vertex -6.23744 0.237436 1.10355
      vertex -6.32322 -0.0554562 0.603553
      vertex -6.23744 -0.153088 1.10355
    endloop
  endfacet
  facet normal -0.0956219 0.126088 0.9874
    outer loop
      vertex 1.19052 2.28533 3.64714
      vertex 1.03033 2.5052 3.60355
      vertex 1.13916 2.2297 3.64927
    endloop
  endfacet
  facet normal -0.0954909 0.126184 0.9874
    outer loop
      vertex 1.03033 2.5052 3.60355
      vertex 1.19052 2.28533 3.64714
      vertex 1.36804 2.30738 3.66149
    endloop
  endfacet
  facet normal -0.136625 0.0563097 0.989021
    outer loop
      vertex -1.66303 -0.57489 3.65047
      vertex -1.96967 -0.494795 3.60355
      vertex -1.67613 -0.585598 3.64927
    endloop
  endfacet
  facet normal -0.812927 0.552487 -0.184141
    outer loop
      vertex -4.67678 2.67677 -3.22487
      vertex -4.69204 2.62467 -3.31382
      vertex -4.70047 2.63633 -3.24162
    endloop
  endfacet
  facet normal -0.812925 0.552489 -0.184147
    outer loop
      vertex -5.18371 2.15308 -2.55821
      vertex -4.67678 2.67677 -3.22487
      vertex -4.70047 2.63633 -3.24162
    endloop
  endfacet
  facet normal -0.812972 0.552377 -0.184271
    outer loop
      vertex -4.67678 2.67677 -3.22487
      vertex -5.18371 2.15308 -2.55821
      vertex -5.17678 2.17677 -2.51777
    endloop
  endfacet
  facet normal 0.408251 0.816488 0.408263
    outer loop
      vertex 2.17895 2.79843 2.66137
      vertex 1.53033 3.0052 2.89645
      vertex 1.94454 2.76256 2.96751
    endloop
  endfacet
  facet normal 0.408248 0.816497 0.408247
    outer loop
      vertex 1.53033 3.0052 2.89645
      vertex 2.17895 2.79843 2.66137
      vertex 3.53033 3.0052 0.896445
    endloop
  endfacet
  facet normal -0.146447 0.853552 0.500003
    outer loop
      vertex 1.53033 3.0052 2.89645
      vertex -2.73744 3.73744 0.396447
      vertex 1.03033 2.5052 3.60355
    endloop
  endfacet
  facet normal 0.106951 0.988495 0.10695
    outer loop
      vertex 3.53033 3.0052 0.896445
      vertex -0.737436 3.73744 -1.60355
      vertex 1.53033 3.0052 2.89645
    endloop
  endfacet
  facet normal -0.623349 0.774596 0.106948
    outer loop
      vertex -2.73744 3.73744 0.396447
      vertex -5.17678 2.17677 -2.51777
      vertex -3.23744 3.23744 1.10355
    endloop
  endfacet
  facet normal -0.623349 0.774596 0.106949
    outer loop
      vertex -5.17678 2.17677 -2.51777
      vertex -2.73744 3.73744 0.396447
      vertex -4.67678 2.67677 -3.22487
    endloop
  endfacet
  facet normal -0.921953 0.381704 -0.0656138
    outer loop
      vertex -5.19149 2.14124 -2.51777
      vertex -5.17678 2.17677 -2.51777
      vertex -5.18371 2.15308 -2.55821
    endloop
  endfacet
  facet normal -0.921952 0.381703 -0.0656372
    outer loop
      vertex -5.17678 2.17677 -2.51777
      vertex -5.19149 2.14124 -2.51777
      vertex -5.24944 2.03529 -2.31993
    endloop
  endfacet
  facet normal -0.9219 0.381845 -0.0655256
    outer loop
      vertex -6.20995 0.151651 0.216823
      vertex -6.32322 -0.0554562 0.603553
      vertex -6.15826 0.26574 0.154425
    endloop
  endfacet
  facet normal -0.921923 0.381782 -0.0655701
    outer loop
      vertex -5.87348 0.894289 -0.189339
      vertex -5.17678 2.17677 -2.51777
      vertex -5.24944 2.03529 -2.31993
    endloop
  endfacet
  facet normal -0.921901 0.381844 -0.0655218
    outer loop
      vertex -6.23744 0.237436 1.10355
      vertex -6.07449 0.450637 0.0533018
      vertex -6.15826 0.26574 0.154425
    endloop
  endfacet
  facet normal -0.921886 0.381884 -0.0655028
    outer loop
      vertex -5.87348 0.894289 -0.189339
      vertex -6.23744 0.237436 1.10355
      vertex -5.17678 2.17677 -2.51777
    endloop
  endfacet
  facet normal -0.921895 0.38186 -0.0655178
    outer loop
      vertex -6.07449 0.450637 0.0533018
      vertex -6.23744 0.237436 1.10355
      vertex -5.87348 0.894289 -0.189339
    endloop
  endfacet
  facet normal -0.921899 0.38185 -0.0655214
    outer loop
      vertex -6.23744 0.237436 1.10355
      vertex -6.15826 0.26574 0.154425
      vertex -6.32322 -0.0554562 0.603553
    endloop
  endfacet
  facet normal -0.136536 0.0565959 0.989017
    outer loop
      vertex -1.67613 -0.585598 3.64927
      vertex -1.96967 -0.494795 3.60355
      vertex -1.73397 -0.632867 3.64399
    endloop
  endfacet
  facet normal -0.184162 0.965489 -0.184163
    outer loop
      vertex -2.67678 2.67677 -5.22487
      vertex -2.73744 3.73744 0.396447
      vertex -0.737436 3.73744 -1.60355
    endloop
  endfacet
  facet normal 0.28107 0.678591 0.678611
    outer loop
      vertex 1.44038 2.37972 3.55919
      vertex 1.03033 2.5052 3.60355
      vertex 1.36804 2.30738 3.66149
    endloop
  endfacet
  facet normal 0.281087 0.678598 0.678597
    outer loop
      vertex 1.53033 3.0052 2.89645
      vertex 1.44038 2.37972 3.55919
      vertex 1.82322 2.76256 3.01777
    endloop
  endfacet
  facet normal 0.281072 0.678603 0.678599
    outer loop
      vertex 1.44038 2.37972 3.55919
      vertex 1.53033 3.0052 2.89645
      vertex 1.03033 2.5052 3.60355
    endloop
  endfacet
  facet normal 0.281115 0.678616 0.678568
    outer loop
      vertex 1.53033 3.0052 2.89645
      vertex 1.82322 2.76256 3.01777
      vertex 1.94454 2.76256 2.96751
    endloop
  endfacet
  facet normal -0.0954604 0.126154 0.987407
    outer loop
      vertex 1.13916 2.2297 3.64927
      vertex 1.03033 2.5052 3.60355
      vertex 1.11042 2.19856 3.65047
    endloop
  endfacet
  facet normal -0.119577 0.119578 0.985598
    outer loop
      vertex 1.03033 2.5052 3.60355
      vertex 0.403987 1.49213 3.65047
      vertex 1.11042 2.19856 3.65047
    endloop
  endfacet
  facet normal -0.119578 0.119578 0.985597
    outer loop
      vertex -1.96967 -0.494795 3.60355
      vertex 0.403987 1.49213 3.65047
      vertex 1.03033 2.5052 3.60355
    endloop
  endfacet
  facet normal -0.119576 0.119576 0.985598
    outer loop
      vertex 0.403987 1.49213 3.65047
      vertex -1.96967 -0.494795 3.60355
      vertex -1.66303 -0.57489 3.65047
    endloop
  endfacet
  facet normal -0.696924 0.696923 0.169101
    outer loop
      vertex -5.17678 2.17677 -2.51777
      vertex -6.23744 0.237436 1.10355
      vertex -3.23744 3.23744 1.10355
    endloop
  endfacet
  facet normal -0.408222 0.816523 -0.408222
    outer loop
      vertex -2.67678 2.67677 -5.22487
      vertex -4.69204 2.62467 -3.31382
      vertex -4.67678 2.67677 -3.22487
    endloop
  endfacet
  facet normal -0.146456 0.853546 0.500009
    outer loop
      vertex 2.32322 2.09099 4.31066
      vertex 1.44038 2.37972 3.55919
      vertex 1.36804 2.30738 3.66149
    endloop
  endfacet
  facet normal -0.146439 0.853561 0.499989
    outer loop
      vertex 2.32322 2.09099 4.31066
      vertex 1.36804 2.30738 3.66149
      vertex 1.19052 2.28533 3.64714
    endloop
  endfacet
  facet normal -0.146445 0.853554 0.499999
    outer loop
      vertex 2.82322 2.59099 3.60355
      vertex 1.44038 2.37972 3.55919
      vertex 2.32322 2.09099 4.31066
    endloop
  endfacet
  facet normal -0.146445 0.853554 0.499999
    outer loop
      vertex 1.44038 2.37972 3.55919
      vertex 2.82322 2.59099 3.60355
      vertex 1.82322 2.76256 3.01777
    endloop
  endfacet
  facet normal 0.849809 0.440548 0.289382
    outer loop
      vertex 2.82322 2.59099 3.60355
      vertex 3.38244 2.40554 2.24365
      vertex 3.53033 3.0052 0.896445
    endloop
  endfacet
  facet normal 0.849745 0.440703 0.289334
    outer loop
      vertex 2.82322 2.59099 3.60355
      vertex 3.37968 2.39435 2.2688
      vertex 3.38244 2.40554 2.24365
    endloop
  endfacet
  facet normal 0.8498 0.440568 0.289377
    outer loop
      vertex 3.37968 2.39435 2.2688
      vertex 2.82322 2.59099 3.60355
      vertex 3.3498 2.27317 2.54104
    endloop
  endfacet
  facet normal 0.069875 0.98319 0.168688
    outer loop
      vertex 3.53033 3.0052 0.896445
      vertex 2.17895 2.79843 2.66137
      vertex 2.82322 2.59099 3.60355
    endloop
  endfacet
  facet normal 0.0698787 0.983191 0.168677
    outer loop
      vertex 2.82322 2.59099 3.60355
      vertex 1.94454 2.76256 2.96751
      vertex 1.82322 2.76256 3.01777
    endloop
  endfacet
  facet normal 0.0698654 0.983189 0.168695
    outer loop
      vertex 1.94454 2.76256 2.96751
      vertex 2.82322 2.59099 3.60355
      vertex 2.17895 2.79843 2.66137
    endloop
  endfacet
  facet normal 0.678602 0.281082 0.678596
    outer loop
      vertex 2.32322 2.09099 4.31066
      vertex 3.11611 1.46967 3.77512
      vertex 2.82322 2.59099 3.60355
    endloop
  endfacet
  facet normal 0.678608 0.2811 0.678583
    outer loop
      vertex 2.32322 2.09099 4.31066
      vertex 2.99864 1.35219 3.94126
      vertex 3.11611 1.46967 3.77512
    endloop
  endfacet
  facet normal 0.678599 0.281085 0.678598
    outer loop
      vertex 2.32322 2.09099 4.31066
      vertex 3.66749 -1.20847 4.33307
      vertex 2.99864 1.35219 3.94126
    endloop
  endfacet
  facet normal 0.678599 0.281085 0.678598
    outer loop
      vertex 3.38388 -1.96967 4.93198
      vertex 3.66749 -1.20847 4.33307
      vertex 2.32322 2.09099 4.31066
    endloop
  endfacet
  facet normal 0.678589 0.281093 0.678604
    outer loop
      vertex 3.66749 -1.20847 4.33307
      vertex 3.38388 -1.96967 4.93198
      vertex 3.76641 -1.58715 4.39101
    endloop
  endfacet
  facet normal 0.774602 0.106927 0.623344
    outer loop
      vertex 3.38388 -1.96967 4.93198
      vertex 3.77184 -1.75328 4.41276
      vertex 3.76641 -1.58715 4.39101
    endloop
  endfacet
  facet normal 0.774594 0.106955 0.623349
    outer loop
      vertex 3.77184 -1.75328 4.41276
      vertex 3.38388 -1.96967 4.93198
      vertex 3.45495 -2.07017 4.86091
    endloop
  endfacet
  facet normal 0.288685 -0.408267 0.866014
    outer loop
      vertex 3.38388 -1.96967 4.93198
      vertex 3.32594 -2.07786 4.90029
      vertex 3.45495 -2.07017 4.86091
    endloop
  endfacet
  facet normal 0.862857 0.357394 0.357416
    outer loop
      vertex 2.89429 2.49048 3.53248
      vertex 3.3085 2.10571 2.91726
      vertex 2.82322 2.59099 3.60355
    endloop
  endfacet
  facet normal 0.862855 0.357413 0.357403
    outer loop
      vertex 3.3085 2.10571 2.91726
      vertex 2.89429 2.49048 3.53248
      vertex 3.29631 2.08846 2.96394
    endloop
  endfacet
  facet normal 0.849808 0.289384 0.44055
    outer loop
      vertex 2.82322 2.59099 3.60355
      vertex 3.13693 1.56155 3.67462
      vertex 2.89429 2.49048 3.53248
    endloop
  endfacet
  facet normal 0.849781 0.289379 0.440603
    outer loop
      vertex 3.13693 1.56155 3.67462
      vertex 2.82322 2.59099 3.60355
      vertex 3.11611 1.46967 3.77512
    endloop
  endfacet
  facet normal -0.119573 0.119573 0.985599
    outer loop
      vertex 2.32322 2.09099 4.31066
      vertex -0.676777 -0.909009 4.31066
      vertex 3.38388 -1.96967 4.93198
    endloop
  endfacet
  facet normal -0.503276 0.0164627 0.863969
    outer loop
      vertex -1.84835 -0.707999 3.62437
      vertex -0.734718 -1.0172 4.27897
      vertex -0.676777 -0.909009 4.31066
    endloop
  endfacet
  facet normal -0.503267 0.0165036 0.863973
    outer loop
      vertex -0.734718 -1.0172 4.27897
      vertex -1.84835 -0.707999 3.62437
      vertex -1.85379 -0.825202 3.62344
    endloop
  endfacet
  facet normal 0.849805 0.440554 0.289384
    outer loop
      vertex 3.3498 2.27317 2.54104
      vertex 2.82322 2.59099 3.60355
      vertex 3.3085 2.10571 2.91726
    endloop
  endfacet
  facet normal -0.40825 0.408249 0.816495
    outer loop
      vertex 0.403987 1.49213 3.65047
      vertex -0.676777 -0.909009 4.31066
      vertex 2.32322 2.09099 4.31066
    endloop
  endfacet
  facet normal -0.40825 0.40825 0.816495
    outer loop
      vertex -1.66303 -0.57489 3.65047
      vertex -0.676777 -0.909009 4.31066
      vertex 0.403987 1.49213 3.65047
    endloop
  endfacet
  facet normal -0.408347 0.408058 0.816542
    outer loop
      vertex -1.67613 -0.585598 3.64927
      vertex -0.676777 -0.909009 4.31066
      vertex -1.66303 -0.57489 3.65047
    endloop
  endfacet
  facet normal -0.408222 0.408313 0.816478
    outer loop
      vertex -1.73397 -0.632867 3.64399
      vertex -0.676777 -0.909009 4.31066
      vertex -1.67613 -0.585598 3.64927
    endloop
  endfacet
  facet normal -0.408237 0.408277 0.816488
    outer loop
      vertex -0.676777 -0.909009 4.31066
      vertex -1.73397 -0.632867 3.64399
      vertex -1.84835 -0.707999 3.62437
    endloop
  endfacet
  facet normal -0.408268 0.408194 0.816514
    outer loop
      vertex 1.13916 2.2297 3.64927
      vertex 2.32322 2.09099 4.31066
      vertex 1.19052 2.28533 3.64714
    endloop
  endfacet
  facet normal -0.40825 0.40825 0.816495
    outer loop
      vertex 1.11042 2.19856 3.65047
      vertex 2.32322 2.09099 4.31066
      vertex 1.13916 2.2297 3.64927
    endloop
  endfacet
  facet normal -0.40825 0.408252 0.816494
    outer loop
      vertex 2.32322 2.09099 4.31066
      vertex 1.11042 2.19856 3.65047
      vertex 0.403987 1.49213 3.65047
    endloop
  endfacet
  facet normal -0.19422 -0.178522 0.964577
    outer loop
      vertex -0.676777 -0.909009 4.31066
      vertex 3.32594 -2.07786 4.90029
      vertex 3.38388 -1.96967 4.93198
    endloop
  endfacet
  facet normal -0.19422 -0.178519 0.964577
    outer loop
      vertex 3.32594 -2.07786 4.90029
      vertex -0.676777 -0.909009 4.31066
      vertex -0.734718 -1.0172 4.27897
    endloop
  endfacet
  facet normal 0.978778 0.198274 -0.0517849
    outer loop
      vertex 6.00641 -0.597999 -1.07213
      vertex 5.65165 0.883883 -2.10355
      vertex 5.89429 0.0554552 -0.689341
    endloop
  endfacet
  facet normal 0.408248 0.816496 0.40825
    outer loop
      vertex 3.53033 3.0052 0.896445
      vertex 3.38244 2.40554 2.24365
      vertex 3.77297 2.17677 2.31066
    endloop
  endfacet
  facet normal -0.853554 0.146444 -0.5
    outer loop
      vertex -5.23743 1.40901 -5.01777
      vertex -5.73743 0.909009 -4.31066
      vertex -5.38388 2.26256 -4.51777
    endloop
  endfacet
  facet normal -0.288678 0.408157 -0.866067
    outer loop
      vertex -5.23743 1.40901 -5.01777
      vertex -5.12524 1.40639 -5.0564
      vertex -5.17677 1.32322 -5.07842
    endloop
  endfacet
  facet normal -0.288672 0.408192 -0.866053
    outer loop
      vertex -5.12524 1.40639 -5.0564
      vertex -5.23743 1.40901 -5.01777
      vertex -5.1117 1.42825 -5.05061
    endloop
  endfacet
  facet normal -0.696927 0.169081 0.696925
    outer loop
      vertex -6.7019 -0.176777 0.0533018
      vertex -6.94454 -0.176777 -0.189339
      vertex -6.35013 -0.348349 0.446698
    endloop
  endfacet
  facet normal -0.696926 0.696922 0.169098
    outer loop
      vertex -5.24944 2.03529 -2.31993
      vertex -6.94454 -0.176777 -0.189339
      vertex -5.87348 0.894289 -0.189339
    endloop
  endfacet
  facet normal -0.696915 0.696934 0.169096
    outer loop
      vertex -5.88388 1.76256 -3.81066
      vertex -5.24944 2.03529 -2.31993
      vertex -5.19149 2.14124 -2.51777
    endloop
  endfacet
  facet normal -0.696924 0.696923 0.169101
    outer loop
      vertex -5.24944 2.03529 -2.31993
      vertex -5.88388 1.76256 -3.81066
      vertex -6.94454 -0.176777 -0.189339
    endloop
  endfacet
  facet normal -0.623279 0.774659 0.106896
    outer loop
      vertex -5.18371 2.15308 -2.55821
      vertex -5.88388 1.76256 -3.81066
      vertex -5.19149 2.14124 -2.51777
    endloop
  endfacet
  facet normal -0.62335 0.774594 0.106956
    outer loop
      vertex -4.70047 2.63633 -3.24162
      vertex -5.88388 1.76256 -3.81066
      vertex -5.18371 2.15308 -2.55821
    endloop
  endfacet
  facet normal -0.623348 0.774596 0.106948
    outer loop
      vertex -5.88388 1.76256 -3.81066
      vertex -4.70047 2.63633 -3.24162
      vertex -5.38388 2.26256 -4.51777
    endloop
  endfacet
  facet normal -0.577352 0.577349 0.577349
    outer loop
      vertex -6.94454 -0.176777 -0.189339
      vertex -6.07449 0.450637 0.0533018
      vertex -5.87348 0.894289 -0.189339
    endloop
  endfacet
  facet normal -0.577352 0.577348 0.57735
    outer loop
      vertex -6.07449 0.450637 0.0533018
      vertex -6.94454 -0.176777 -0.189339
      vertex -6.7019 -0.176777 0.0533018
    endloop
  endfacet
  facet normal 0.812925 0.552482 0.184162
    outer loop
      vertex 5.89429 0.0554552 -0.689341
      vertex 3.53033 3.0052 0.896445
      vertex 3.77297 2.17677 2.31066
    endloop
  endfacet
  facet normal 0.812925 0.552482 0.184162
    outer loop
      vertex 3.53033 3.0052 0.896445
      vertex 5.89429 0.0554552 -0.689341
      vertex 5.65165 0.883883 -2.10355
    endloop
  endfacet
  facet normal -0.968137 -0.227465 0.10474
    outer loop
      vertex -6.56239 -1.83507 -0.258374
      vertex -6.94454 -0.176777 -0.189339
      vertex -6.79809 -1.03033 -0.689339
    endloop
  endfacet
  facet normal -0.69692 0.169106 0.696925
    outer loop
      vertex -6.35013 -0.348349 0.446698
      vertex -6.94454 -0.176777 -0.189339
      vertex -6.28769 -1.59099 0.81066
    endloop
  endfacet
  facet normal -0.194299 0.964572 -0.178461
    outer loop
      vertex -4.69204 2.62467 -3.31382
      vertex -5.38388 2.26256 -4.51777
      vertex -4.70047 2.63633 -3.24162
    endloop
  endfacet
  facet normal -0.194216 0.96458 -0.17851
    outer loop
      vertex -5.38388 2.26256 -4.51777
      vertex -4.69204 2.62467 -3.31382
      vertex -2.67678 2.67677 -5.22487
    endloop
  endfacet
  facet normal -0.774575 -0.106987 -0.623368
    outer loop
      vertex -5.53033 0.969669 -4.57842
      vertex -5.23743 1.40901 -5.01777
      vertex -5.17677 1.32322 -5.07842
    endloop
  endfacet
  facet normal -0.774599 -0.106948 -0.623345
    outer loop
      vertex -5.53033 0.969669 -4.57842
      vertex -5.73743 0.909009 -4.31066
      vertex -5.23743 1.40901 -5.01777
    endloop
  endfacet
  facet normal -0.791007 0 -0.611807
    outer loop
      vertex -5.53033 0.969667 -4.57842
      vertex -5.73743 0.909009 -4.31066
      vertex -5.53033 0.969669 -4.57842
    endloop
  endfacet
  facet normal -0.774606 -0.106911 -0.623342
    outer loop
      vertex -5.73743 0.909009 -4.31066
      vertex -5.53033 0.969667 -4.57842
      vertex -5.62986 0.756871 -4.41824
    endloop
  endfacet
  facet normal -0.853554 0.146444 -0.5
    outer loop
      vertex -5.73743 0.909009 -4.31066
      vertex -5.88388 1.76256 -3.81066
      vertex -5.38388 2.26256 -4.51777
    endloop
  endfacet
  facet normal -0.866026 -0.408246 -0.288677
    outer loop
      vertex -6.56239 -1.83507 -0.258374
      vertex -6.79809 -1.03033 -0.689339
      vertex -6.66002 -1.22559 -0.82741
    endloop
  endfacet
  facet normal -0.289469 0.446367 -0.846737
    outer loop
      vertex -5.23743 1.40901 -5.01777
      vertex -4.97794 1.64852 -4.98022
      vertex -5.1117 1.42825 -5.05061
    endloop
  endfacet
  facet normal -0.289467 0.446344 -0.84675
    outer loop
      vertex -4.97794 1.64852 -4.98022
      vertex -5.38388 2.26256 -4.51777
      vertex -2.67678 2.67677 -5.22487
    endloop
  endfacet
  facet normal -0.289454 0.446353 -0.84675
    outer loop
      vertex -5.38388 2.26256 -4.51777
      vertex -4.97794 1.64852 -4.98022
      vertex -5.23743 1.40901 -5.01777
    endloop
  endfacet
  facet normal -0.959683 -2.94487e-06 -0.281086
    outer loop
      vertex -6.79809 -1.03033 -0.689339
      vertex -5.88388 1.76256 -3.81066
      vertex -5.73743 0.909009 -4.31066
    endloop
  endfacet
  facet normal -0.959683 -2.94486e-06 -0.281086
    outer loop
      vertex -5.88388 1.76256 -3.81066
      vertex -6.79809 -1.03033 -0.689339
      vertex -6.94454 -0.176777 -0.189339
    endloop
  endfacet
  facet normal -0.968137 -0.227465 0.104741
    outer loop
      vertex -6.70884 -0.981515 0.241625
      vertex -6.94454 -0.176777 -0.189339
      vertex -6.56239 -1.83507 -0.258374
    endloop
  endfacet
  facet normal -0.822694 -0.568485 0
    outer loop
      vertex -6.28769 -1.59099 0.810659
      vertex -6.28769 -1.59099 0.81066
      vertex -6.70884 -0.981515 0.241625
    endloop
  endfacet
  facet normal -0.696924 0.169103 0.696923
    outer loop
      vertex -6.70884 -0.981515 0.241625
      vertex -6.28769 -1.59099 0.81066
      vertex -6.94454 -0.176777 -0.189339
    endloop
  endfacet
  facet normal -0.866018 -0.408256 -0.288685
    outer loop
      vertex -5.70665 -2.76912 -1.50464
      vertex -5.85529 -3.03033 -0.689339
      vertex -5.82322 -2.53033 -1.49264
    endloop
  endfacet
  facet normal 0.169118 0 -0.985596
    outer loop
      vertex 1.53033 -1.42511 -5.10355
      vertex 1.43825 -1.22235 -5.11935
      vertex 1.53033 -1.1936 -5.10355
    endloop
  endfacet
  facet normal 0.169118 -2.16696e-07 -0.985596
    outer loop
      vertex 1.43825 -1.22235 -5.11935
      vertex 1.53033 -1.42511 -5.10355
      vertex 1.4291 -1.41954 -5.12092
    endloop
  endfacet
  facet normal 0.985605 5.95871e-05 -0.169066
    outer loop
      vertex 5.91942 -2.38388 -1.89645
      vertex 5.7981 -1.92584 -2.60355
      vertex 5.91079 -2.21231 -1.9467
    endloop
  endfacet
  facet normal 0.169145 -8.79664e-05 -0.985591
    outer loop
      vertex 1.53033 -1.1936 -5.10355
      vertex 1.43825 -1.22235 -5.11935
      vertex 1.4399 -1.18684 -5.11907
    endloop
  endfacet
  facet normal -0.866017 -0.408258 -0.288686
    outer loop
      vertex -5.85529 -3.03033 -0.689339
      vertex -5.91942 -2.85876 -0.739591
      vertex -5.82322 -2.53033 -1.49264
    endloop
  endfacet
  facet normal -0.194218 -0.178512 0.964579
    outer loop
      vertex -0.734718 -1.0172 4.27897
      vertex 3.01992 -2.64929 4.73292
      vertex 3.32594 -2.07786 4.90029
    endloop
  endfacet
  facet normal -0.194218 -0.178511 0.964579
    outer loop
      vertex 3.01992 -2.64929 4.73292
      vertex -0.734718 -1.0172 4.27897
      vertex -1.04074 -1.58863 4.1116
    endloop
  endfacet
  facet normal -0.503274 0.0164513 0.86397
    outer loop
      vertex -1.86665 -1.10255 3.62123
      vertex -0.734718 -1.0172 4.27897
      vertex -1.85379 -0.825202 3.62344
    endloop
  endfacet
  facet normal -0.503275 0.0164685 0.863969
    outer loop
      vertex -0.734718 -1.0172 4.27897
      vertex -1.86665 -1.10255 3.62123
      vertex -1.04074 -1.58863 4.1116
    endloop
  endfacet
  facet normal -0.503297 0.0164179 0.863957
    outer loop
      vertex -1.86844 -1.14111 3.62092
      vertex -1.04074 -1.58863 4.1116
      vertex -1.86665 -1.10255 3.62123
    endloop
  endfacet
  facet normal -0.503275 0.0164733 0.863969
    outer loop
      vertex -1.87759 -1.33831 3.61935
      vertex -1.04074 -1.58863 4.1116
      vertex -1.86844 -1.14111 3.62092
    endloop
  endfacet
  facet normal -0.503284 0.0164313 0.863965
    outer loop
      vertex -1.87923 -1.37382 3.61907
      vertex -1.04074 -1.58863 4.1116
      vertex -1.87759 -1.33831 3.61935
    endloop
  endfacet
  facet normal -0.503269 0.0165061 0.863972
    outer loop
      vertex -1.04074 -1.58863 4.1116
      vertex -1.87923 -1.37382 3.61907
      vertex -1.8825 -1.44421 3.61851
    endloop
  endfacet
  facet normal 0.288667 -0.408248 0.866028
    outer loop
      vertex 3.32594 -2.07786 4.90029
      vertex 3.01992 -2.64929 4.73292
      vertex 3.79809 -2.55546 4.51777
    endloop
  endfacet
  facet normal 0.862856 0.357388 0.357426
    outer loop
      vertex 3.28693 2.0752 2.99985
      vertex 2.89429 2.49048 3.53248
      vertex 3.23743 2.0052 3.18934
    endloop
  endfacet
  facet normal 0.288687 -0.408229 0.86603
    outer loop
      vertex 3.45495 -2.07017 4.86091
      vertex 3.32594 -2.07786 4.90029
      vertex 3.79809 -2.55546 4.51777
    endloop
  endfacet
  facet normal 0.774598 0.106947 0.623346
    outer loop
      vertex 3.77184 -1.75328 4.41276
      vertex 3.45495 -2.07017 4.86091
      vertex 3.79809 -2.55546 4.51777
    endloop
  endfacet
  facet normal 0.862862 0.357337 0.357461
    outer loop
      vertex 2.89429 2.49048 3.53248
      vertex 3.28898 2.0781 2.99199
      vertex 3.29631 2.08846 2.96394
    endloop
  endfacet
  facet normal 0.862824 0.357847 0.357044
    outer loop
      vertex 2.89429 2.49048 3.53248
      vertex 3.28736 2.07581 2.9982
      vertex 3.28898 2.0781 2.99199
    endloop
  endfacet
  facet normal 0.86283 0.357756 0.35712
    outer loop
      vertex 3.28736 2.07581 2.9982
      vertex 2.89429 2.49048 3.53248
      vertex 3.28693 2.0752 2.99985
    endloop
  endfacet
  facet normal 0.849807 0.289384 0.440551
    outer loop
      vertex 3.23743 2.0052 3.18934
      vertex 2.89429 2.49048 3.53248
      vertex 3.13693 1.56155 3.67462
    endloop
  endfacet
  facet normal -0.921888 0.38188 -0.0655031
    outer loop
      vertex -6.20995 0.151651 0.216823
      vertex -6.35876 -0.176777 0.396446
      vertex -6.32322 -0.0554562 0.603553
    endloop
  endfacet
  facet normal -0.985599 5.185e-05 0.1691
    outer loop
      vertex -6.32322 -0.0554562 0.603553
      vertex -6.35876 -0.176777 0.396446
      vertex -6.23744 -0.153088 1.10355
    endloop
  endfacet
  facet normal -0.985599 0 0.169102
    outer loop
      vertex -6.23744 -0.153088 1.10355
      vertex -6.35876 -0.176777 0.396446
      vertex -6.23744 -0.634823 1.10355
    endloop
  endfacet
  facet normal -0.169122 -7.27854e-05 0.985595
    outer loop
      vertex -1.86665 -1.10255 3.62123
      vertex -1.96967 -1.13555 3.60355
      vertex -1.86844 -1.14111 3.62092
    endloop
  endfacet
  facet normal 0.503274 -0.0164741 -0.86397
    outer loop
      vertex 0.601398 -0.972028 -5.6116
      vertex 1.43825 -1.22235 -5.11935
      vertex 1.4291 -1.41954 -5.12092
    endloop
  endfacet
  facet normal 0.503298 -0.0164137 -0.863957
    outer loop
      vertex 0.601398 -0.972028 -5.6116
      vertex 1.4291 -1.41954 -5.12092
      vertex 1.42731 -1.45811 -5.12123
    endloop
  endfacet
  facet normal 0.503278 -0.0164351 -0.863968
    outer loop
      vertex 1.4399 -1.18684 -5.11907
      vertex 0.601398 -0.972028 -5.6116
      vertex 1.44316 -1.11645 -5.11851
    endloop
  endfacet
  facet normal 0.503251 -0.0165714 -0.863981
    outer loop
      vertex 1.43825 -1.22235 -5.11935
      vertex 0.601398 -0.972028 -5.6116
      vertex 1.4399 -1.18684 -5.11907
    endloop
  endfacet
  facet normal 0.503274 -0.0164512 -0.86397
    outer loop
      vertex 0.295379 -1.54346 -5.77897
      vertex 1.42731 -1.45811 -5.12123
      vertex 1.41445 -1.73546 -5.12344
    endloop
  endfacet
  facet normal 0.503275 -0.0164659 -0.863969
    outer loop
      vertex 1.42731 -1.45811 -5.12123
      vertex 0.295379 -1.54346 -5.77897
      vertex 0.601398 -0.972028 -5.6116
    endloop
  endfacet
  facet normal -0.774598 -0.10695 -0.623346
    outer loop
      vertex -3.89429 -0.490485 -6.36091
      vertex -4.73743 -0.505203 -5.31066
      vertex -4.23743 -0.0052042 -6.01777
    endloop
  endfacet
  facet normal -0.774598 -0.10695 -0.623346
    outer loop
      vertex -4.73743 -0.505203 -5.31066
      vertex -3.89429 -0.490485 -6.36091
      vertex -4.39429 -0.990484 -5.6538
    endloop
  endfacet
  facet normal 0.194218 0.178513 -0.964579
    outer loop
      vertex 0.601398 -0.972028 -5.6116
      vertex -3.76528 -0.482796 -6.40029
      vertex -3.45926 0.0886307 -6.23292
    endloop
  endfacet
  facet normal -0.544697 -0.305159 0.781142
    outer loop
      vertex -5.70665 -2.76912 -1.50464
      vertex -5.82322 -2.53033 -1.49264
      vertex -5.57914 -3.03033 -1.51777
    endloop
  endfacet
  facet normal -0.866027 -0.408233 -0.288691
    outer loop
      vertex -5.45495 -2.92982 -2.03248
      vertex -5.82322 -2.53033 -1.49264
      vertex -5.79809 -2.44454 -1.68934
    endloop
  endfacet
  facet normal -0.288669 0.408251 -0.866026
    outer loop
      vertex -3.76528 -0.482796 -6.40029
      vertex -4.23743 -0.0052042 -6.01777
      vertex -3.45926 0.0886307 -6.23292
    endloop
  endfacet
  facet normal -0.866024 -0.40825 -0.288677
    outer loop
      vertex -5.57914 -3.03033 -1.51777
      vertex -5.82322 -2.53033 -1.49264
      vertex -5.45495 -2.92982 -2.03248
    endloop
  endfacet
  facet normal 0.194218 0.178512 -0.964579
    outer loop
      vertex 0.295379 -1.54346 -5.77897
      vertex -3.76528 -0.482796 -6.40029
      vertex 0.601398 -0.972028 -5.6116
    endloop
  endfacet
  facet normal -0.288684 0.408237 -0.866028
    outer loop
      vertex -3.89429 -0.490485 -6.36091
      vertex -4.23743 -0.0052042 -6.01777
      vertex -3.76528 -0.482796 -6.40029
    endloop
  endfacet
  facet normal -0.854732 -0.309979 -0.416349
    outer loop
      vertex -5.45495 -2.92982 -2.03248
      vertex -4.73743 -0.505203 -5.31066
      vertex -4.39429 -0.990484 -5.6538
    endloop
  endfacet
  facet normal -0.854732 -0.309979 -0.416349
    outer loop
      vertex -4.73743 -0.505203 -5.31066
      vertex -5.45495 -2.92982 -2.03248
      vertex -5.79809 -2.44454 -1.68934
    endloop
  endfacet
  facet normal -0.696932 0.169068 0.696923
    outer loop
      vertex -6.35876 -0.176777 0.396446
      vertex -6.7019 -0.176777 0.0533018
      vertex -6.35013 -0.348349 0.446698
    endloop
  endfacet
  facet normal -0.577349 0.577347 0.577355
    outer loop
      vertex -6.7019 -0.176777 0.0533018
      vertex -6.20995 0.151651 0.216823
      vertex -6.15826 0.26574 0.154425
    endloop
  endfacet
  facet normal -0.577351 0.577356 0.577344
    outer loop
      vertex -6.20995 0.151651 0.216823
      vertex -6.7019 -0.176777 0.0533018
      vertex -6.35876 -0.176777 0.396446
    endloop
  endfacet
  facet normal -0.577347 0.577343 0.577361
    outer loop
      vertex -6.7019 -0.176777 0.0533018
      vertex -6.15826 0.26574 0.154425
      vertex -6.07449 0.450637 0.0533018
    endloop
  endfacet
  facet normal -0.985605 -5.74999e-05 0.169066
    outer loop
      vertex -6.23744 -0.634823 1.10355
      vertex -6.35876 -0.176777 0.396446
      vertex -6.35013 -0.348349 0.446698
    endloop
  endfacet
  facet normal -0.16913 3.96363e-05 0.985594
    outer loop
      vertex -1.87759 -1.33831 3.61935
      vertex -1.96967 -1.36705 3.60355
      vertex -1.87923 -1.37382 3.61907
    endloop
  endfacet
  facet normal -0.169118 2.16686e-07 0.985596
    outer loop
      vertex -1.96967 -1.13555 3.60355
      vertex -1.87759 -1.33831 3.61935
      vertex -1.86844 -1.14111 3.62092
    endloop
  endfacet
  facet normal -0.169118 0 0.985596
    outer loop
      vertex -1.87759 -1.33831 3.61935
      vertex -1.96967 -1.13555 3.60355
      vertex -1.96967 -1.36705 3.60355
    endloop
  endfacet
  facet normal -0.978783 -0.198253 0.0517716
    outer loop
      vertex -6.47577 -2.13083 -1.63909
      vertex -6.59446 -1.37204 -0.977326
      vertex -6.62221 -1.27728 -1.13909
    endloop
  endfacet
  facet normal -0.978774 -0.198287 0.051812
    outer loop
      vertex -6.59446 -1.37204 -0.977326
      vertex -6.47577 -2.13083 -1.63909
      vertex -6.44801 -2.22559 -1.47733
    endloop
  endfacet
  facet normal -0.812922 0.55249 -0.184154
    outer loop
      vertex -5.55546 0.883882 -4.72487
      vertex -5.03033 1.46967 -5.28553
      vertex -5.05546 1.38388 -5.43198
    endloop
  endfacet
  facet normal -0.812922 0.552491 -0.184152
    outer loop
      vertex -5.03033 1.46967 -5.28553
      vertex -5.55546 0.883882 -4.72487
      vertex -5.53033 0.969668 -4.57843
    endloop
  endfacet
  facet normal -0.408241 -0.816491 -0.408266
    outer loop
      vertex -5.82322 -2.53033 -1.49264
      vertex -6.47577 -2.13083 -1.63909
      vertex -5.79809 -2.44454 -1.68934
    endloop
  endfacet
  facet normal -0.969806 0.242669 0.0242669
    outer loop
      vertex -5.55546 0.883882 -4.72487
      vertex -5.53033 0.969667 -4.57842
      vertex -5.53033 0.969668 -4.57843
    endloop
  endfacet
  facet normal -0.921887 0.381883 -0.0655024
    outer loop
      vertex -5.55546 0.883882 -4.72487
      vertex -5.62986 0.756871 -4.41824
      vertex -5.53033 0.969667 -4.57842
    endloop
  endfacet
  facet normal -0.921886 0.381885 -0.0655014
    outer loop
      vertex -6.61612 -1.05546 -1.10355
      vertex -5.62986 0.756871 -4.41824
      vertex -5.55546 0.883882 -4.72487
    endloop
  endfacet
  facet normal -0.92185 0.381983 -0.0654372
    outer loop
      vertex -5.62986 0.756871 -4.41824
      vertex -6.61612 -1.05546 -1.10355
      vertex -6.61042 -1.03602 -1.07037
    endloop
  endfacet
  facet normal -0.408248 -0.816497 -0.408248
    outer loop
      vertex -6.44801 -2.22559 -1.47733
      vertex -6.47577 -2.13083 -1.63909
      vertex -5.82322 -2.53033 -1.49264
    endloop
  endfacet
  facet normal -0.985602 1.28494e-06 0.16908
    outer loop
      vertex -6.62221 -1.27728 -1.13909
      vertex -6.59314 -1.21899 -0.969635
      vertex -6.6043 -1.10082 -1.03469
    endloop
  endfacet
  facet normal -0.985603 3.99202e-06 0.169079
    outer loop
      vertex -6.59314 -1.21899 -0.969635
      vertex -6.62221 -1.27728 -1.13909
      vertex -6.59446 -1.37204 -0.977326
    endloop
  endfacet
  facet normal -0.985573 0.000108966 0.169248
    outer loop
      vertex -6.61612 -1.05546 -1.10355
      vertex -6.6043 -1.10082 -1.03469
      vertex -6.61042 -1.03602 -1.07037
    endloop
  endfacet
  facet normal -0.98559 -4.23381e-05 0.169151
    outer loop
      vertex -6.6043 -1.10082 -1.03469
      vertex -6.61612 -1.05546 -1.10355
      vertex -6.62221 -1.27728 -1.13909
    endloop
  endfacet
  facet normal -0.408247 0.816497 -0.408249
    outer loop
      vertex -2.67678 2.67677 -5.22487
      vertex -5.05546 1.38388 -5.43198
      vertex -5.03033 1.46967 -5.28553
    endloop
  endfacet
  facet normal 0.503274 -0.0164689 -0.86397
    outer loop
      vertex 1.44316 -1.11645 -5.11851
      vertex 0.601398 -0.972028 -5.6116
      vertex 1.53033 0.762563 -5.10355
    endloop
  endfacet
  facet normal 0.194217 0.178509 -0.96458
    outer loop
      vertex 0.601398 -0.972028 -5.6116
      vertex -3.45926 0.0886307 -6.23292
      vertex 1.53033 0.762563 -5.10355
    endloop
  endfacet
  facet normal -0.288676 0.408249 -0.866025
    outer loop
      vertex -3.45926 0.0886307 -6.23292
      vertex -4.03838 0.172315 -6.00043
      vertex -2.53033 1.82322 -5.72487
    endloop
  endfacet
  facet normal -0.288669 0.408273 -0.866016
    outer loop
      vertex -4.03838 0.172315 -6.00043
      vertex -3.45926 0.0886307 -6.23292
      vertex -4.23743 -0.0052042 -6.01777
    endloop
  endfacet
  facet normal 0.194217 0.178509 -0.96458
    outer loop
      vertex 1.53033 0.762563 -5.10355
      vertex -3.45926 0.0886307 -6.23292
      vertex -2.53033 1.82322 -5.72487
    endloop
  endfacet
  facet normal -0.81295 0.552443 -0.184168
    outer loop
      vertex -5.03033 1.46967 -5.28553
      vertex -5.17677 1.32322 -5.07842
      vertex -5.12524 1.40639 -5.0564
    endloop
  endfacet
  facet normal -0.0712734 0.837481 0.541798
    outer loop
      vertex -5.53033 0.969668 -4.57843
      vertex -5.17677 1.32322 -5.07842
      vertex -5.03033 1.46967 -5.28553
    endloop
  endfacet
  facet normal -0.75053 0.657556 -0.0657556
    outer loop
      vertex -5.17677 1.32322 -5.07842
      vertex -5.53033 0.969668 -4.57843
      vertex -5.53033 0.969669 -4.57842
    endloop
  endfacet
  facet normal -0.812916 0.552497 -0.184159
    outer loop
      vertex -5.03033 1.46967 -5.28553
      vertex -5.1117 1.42825 -5.05061
      vertex -4.97794 1.64852 -4.98022
    endloop
  endfacet
  facet normal -0.812998 0.552359 -0.184211
    outer loop
      vertex -5.1117 1.42825 -5.05061
      vertex -5.03033 1.46967 -5.28553
      vertex -5.12524 1.40639 -5.0564
    endloop
  endfacet
  facet normal 0.169146 0 -0.985591
    outer loop
      vertex 1.53033 -1.1936 -5.10355
      vertex 1.44316 -1.11645 -5.11851
      vertex 1.53033 0.762563 -5.10355
    endloop
  endfacet
  facet normal 0.169152 7.03618e-06 -0.98559
    outer loop
      vertex 1.44316 -1.11645 -5.11851
      vertex 1.53033 -1.1936 -5.10355
      vertex 1.4399 -1.18684 -5.11907
    endloop
  endfacet
  facet normal -0.408271 -0.816492 -0.408235
    outer loop
      vertex -6.33363 -2.61611 -0.810658
      vertex -6.44801 -2.22559 -1.47733
      vertex -5.91942 -2.85876 -0.739591
    endloop
  endfacet
  facet normal -0.408247 0.816497 -0.408249
    outer loop
      vertex -2.67678 2.67677 -5.22487
      vertex -5.03033 1.46967 -5.28553
      vertex -4.97794 1.64852 -4.98022
    endloop
  endfacet
  facet normal -0.985606 4.9104e-06 0.169061
    outer loop
      vertex -6.59446 -1.37204 -0.977326
      vertex -6.58211 -1.33578 -0.905328
      vertex -6.59314 -1.21899 -0.969635
    endloop
  endfacet
  facet normal -0.985603 -2.74259e-05 0.169077
    outer loop
      vertex -6.58211 -1.33578 -0.905328
      vertex -6.59446 -1.37204 -0.977326
      vertex -6.55438 -1.50889 -0.743709
    endloop
  endfacet
  facet normal -0.408247 -0.816495 -0.408253
    outer loop
      vertex -5.91942 -2.85876 -0.739591
      vertex -6.44801 -2.22559 -1.47733
      vertex -5.82322 -2.53033 -1.49264
    endloop
  endfacet
  facet normal -0.978779 -0.198268 0.051779
    outer loop
      vertex -6.44801 -2.22559 -1.47733
      vertex -6.55438 -1.50889 -0.743709
      vertex -6.59446 -1.37204 -0.977326
    endloop
  endfacet
  facet normal -0.978778 -0.198272 0.0517827
    outer loop
      vertex -6.55438 -1.50889 -0.743709
      vertex -6.44801 -2.22559 -1.47733
      vertex -6.44575 -1.96266 -0.427873
    endloop
  endfacet
  facet normal -0.978778 -0.198274 0.0517833
    outer loop
      vertex -6.44575 -1.96266 -0.427873
      vertex -6.44801 -2.22559 -1.47733
      vertex -6.33363 -2.61611 -0.810658
    endloop
  endfacet
  facet normal -1 0 0
    outer loop
      vertex -5.53033 0.969668 -4.57843
      vertex -5.53033 0.969667 -4.57842
      vertex -5.53033 0.969669 -4.57842
    endloop
  endfacet
  facet normal 0.9856 0 -0.169091
    outer loop
      vertex 5.91079 -2.21231 -1.9467
      vertex 5.7981 -1.92584 -2.60355
      vertex 5.7981 0.0303307 -2.60355
    endloop
  endfacet
  facet normal 0.9856 0 -0.169096
    outer loop
      vertex 5.84835 -0.969668 -2.31066
      vertex 5.7981 0.0303307 -2.60355
      vertex 5.84835 -0.969667 -2.31066
    endloop
  endfacet
  facet normal -0.576509 -0.256217 -0.77588
    outer loop
      vertex 5.7981 0.0303307 -2.60355
      vertex 5.84835 -0.969668 -2.31066
      vertex 5.91079 -2.21231 -1.9467
    endloop
  endfacet
endsolid OpenSCAD_Model
