solid OpenSCAD_Model
  facet normal 1 0 0
    outer loop
      vertex 2 0 0.707107
      vertex 2 0 -0.707107
      vertex 2 0.707107 0
    endloop
  endfacet
  facet normal 1 0 -0
    outer loop
      vertex 2 0 -0.707107
      vertex 2 0 0.707107
      vertex 2 -0.707107 0
    endloop
  endfacet
  facet normal -1 0 0
    outer loop
      vertex -2 0 -0.707107
      vertex -2 0 0.707107
      vertex -2 0.707107 0
    endloop
  endfacet
  facet normal -1 0 -0
    outer loop
      vertex -2 0 0.707107
      vertex -2 0 -0.707107
      vertex -2 -0.707107 0
    endloop
  endfacet
  facet normal 0 -0.707107 -0.707107
    outer loop
      vertex -2 0 -0.707107
      vertex 2 -0.707107 0
      vertex -2 -0.707107 0
    endloop
  endfacet
  facet normal 0 -0.707107 -0.707107
    outer loop
      vertex 2 -0.707107 0
      vertex -2 0 -0.707107
      vertex 2 0 -0.707107
    endloop
  endfacet
  facet normal 0 0.707107 -0.707107
    outer loop
      vertex 2 0 -0.707107
      vertex -2 0.707107 0
      vertex 2 0.707107 0
    endloop
  endfacet
  facet normal 0 0.707107 -0.707107
    outer loop
      vertex -2 0.707107 0
      vertex 2 0 -0.707107
      vertex -2 0 -0.707107
    endloop
  endfacet
  facet normal 0 0.707107 0.707107
    outer loop
      vertex 2 0.707107 0
      vertex -2 0 0.707107
      vertex 2 0 0.707107
    endloop
  endfacet
  facet normal 0 0.707107 0.707107
    outer loop
      vertex -2 0 0.707107
      vertex 2 0.707107 0
      vertex -2 0.707107 0
    endloop
  endfacet
  facet normal 0 -0.707107 0.707107
    outer loop
      vertex -2 -0.707107 0
      vertex 2 0 0.707107
      vertex -2 0 0.707107
    endloop
  endfacet
  facet normal 0 -0.707107 0.707107
    outer loop
      vertex 2 0 0.707107
      vertex -2 -0.707107 0
      vertex 2 -0.707107 0
    endloop
  endfacet
endsolid OpenSCAD_Model
