solid OpenSCAD_Model
  facet normal 0.0554804 0.0554804 -0.996917
    outer loop
      vertex 0.707107 -0.707107 -1
      vertex -0.596491 0.817723 -0.987688
      vertex 0.817723 -0.596491 -0.987688
    endloop
  endfacet
  facet normal 0.0554804 0.0554804 -0.996917
    outer loop
      vertex -0.596491 0.817723 -0.987688
      vertex 0.707107 -0.707107 -1
      vertex -0.707107 0.707107 -1
    endloop
  endfacet
  facet normal 0.165067 0.165067 -0.972371
    outer loop
      vertex 0.817723 -0.596491 -0.987688
      vertex -0.488599 0.925615 -0.951057
      vertex 0.925615 -0.488599 -0.951057
    endloop
  endfacet
  facet normal 0.165067 0.165067 -0.972371
    outer loop
      vertex -0.488599 0.925615 -0.951057
      vertex 0.817723 -0.596491 -0.987688
      vertex -0.596491 0.817723 -0.987688
    endloop
  endfacet
  facet normal 0.270594 0.270594 -0.923882
    outer loop
      vertex 0.925615 -0.488599 -0.951057
      vertex -0.386087 1.02813 -0.891007
      vertex 1.02813 -0.386087 -0.891007
    endloop
  endfacet
  facet normal 0.270594 0.270594 -0.923882
    outer loop
      vertex -0.386087 1.02813 -0.891007
      vertex 0.925615 -0.488599 -0.951057
      vertex -0.488599 0.925615 -0.951057
    endloop
  endfacet
  facet normal 0.369474 0.369474 -0.85263
    outer loop
      vertex 1.02813 -0.386087 -0.891007
      vertex -0.29148 1.12273 -0.809017
      vertex 1.12273 -0.29148 -0.809017
    endloop
  endfacet
  facet normal 0.369474 0.369474 -0.85263
    outer loop
      vertex -0.29148 1.12273 -0.809017
      vertex 1.02813 -0.386087 -0.891007
      vertex -0.386087 1.02813 -0.891007
    endloop
  endfacet
  facet normal 0.459218 0.459218 -0.76042
    outer loop
      vertex 1.12273 -0.29148 -0.809017
      vertex -0.207107 1.20711 -0.707107
      vertex 1.20711 -0.207107 -0.707107
    endloop
  endfacet
  facet normal 0.459218 0.459218 -0.76042
    outer loop
      vertex -0.207107 1.20711 -0.707107
      vertex 1.12273 -0.29148 -0.809017
      vertex -0.29148 1.12273 -0.809017
    endloop
  endfacet
  facet normal 0.53769 0.53769 -0.649444
    outer loop
      vertex 1.20711 -0.207107 -0.707107
      vertex -0.135045 1.27917 -0.587785
      vertex 1.27917 -0.135045 -0.587785
    endloop
  endfacet
  facet normal 0.53769 0.53769 -0.649444
    outer loop
      vertex -0.135045 1.27917 -0.587785
      vertex 1.20711 -0.207107 -0.707107
      vertex -0.207107 1.20711 -0.707107
    endloop
  endfacet
  facet normal 0.602916 0.602916 -0.522479
    outer loop
      vertex 1.27917 -0.135045 -0.587785
      vertex -0.07707 1.33714 -0.45399
      vertex 1.33714 -0.07707 -0.45399
    endloop
  endfacet
  facet normal 0.602916 0.602916 -0.522479
    outer loop
      vertex -0.07707 1.33714 -0.45399
      vertex 1.27917 -0.135045 -0.587785
      vertex -0.135045 1.27917 -0.587785
    endloop
  endfacet
  facet normal 0.653272 0.653272 -0.382716
    outer loop
      vertex 1.37961 -0.0346083 -0.309017
      vertex -0.07707 1.33714 -0.45399
      vertex -0.0346083 1.37961 -0.309017
    endloop
  endfacet
  facet normal 0.653272 0.653272 -0.382716
    outer loop
      vertex -0.07707 1.33714 -0.45399
      vertex 1.37961 -0.0346083 -0.309017
      vertex 1.33714 -0.07707 -0.45399
    endloop
  endfacet
  facet normal 0.687571 0.687571 -0.233434
    outer loop
      vertex 1.40551 -0.00870566 -0.156434
      vertex -0.0346083 1.37961 -0.309017
      vertex -0.00870566 1.40551 -0.156434
    endloop
  endfacet
  facet normal 0.687571 0.687571 -0.233434
    outer loop
      vertex -0.0346083 1.37961 -0.309017
      vertex 1.40551 -0.00870566 -0.156434
      vertex 1.37961 -0.0346083 -0.309017
    endloop
  endfacet
  facet normal 0.704928 0.704928 -0.078434
    outer loop
      vertex 1.41421 0 0
      vertex -0.00870566 1.40551 -0.156434
      vertex 0 1.41421 0
    endloop
  endfacet
  facet normal 0.704928 0.704928 -0.078434
    outer loop
      vertex -0.00870566 1.40551 -0.156434
      vertex 1.41421 0 0
      vertex 1.40551 -0.00870566 -0.156434
    endloop
  endfacet
  facet normal 0.704928 0.704928 0.078434
    outer loop
      vertex -0.00870566 1.40551 0.156434
      vertex 1.41421 0 0
      vertex 0 1.41421 0
    endloop
  endfacet
  facet normal 0.704928 0.704928 0.078434
    outer loop
      vertex 1.41421 0 0
      vertex -0.00870566 1.40551 0.156434
      vertex 1.40551 -0.00870566 0.156434
    endloop
  endfacet
  facet normal 0.687571 0.687571 0.233434
    outer loop
      vertex -0.0346083 1.37961 0.309017
      vertex 1.40551 -0.00870566 0.156434
      vertex -0.00870566 1.40551 0.156434
    endloop
  endfacet
  facet normal 0.687571 0.687571 0.233434
    outer loop
      vertex 1.40551 -0.00870566 0.156434
      vertex -0.0346083 1.37961 0.309017
      vertex 1.37961 -0.0346083 0.309017
    endloop
  endfacet
  facet normal 0.653272 0.653272 0.382716
    outer loop
      vertex -0.07707 1.33714 0.45399
      vertex 1.37961 -0.0346083 0.309017
      vertex -0.0346083 1.37961 0.309017
    endloop
  endfacet
  facet normal 0.653272 0.653272 0.382716
    outer loop
      vertex 1.37961 -0.0346083 0.309017
      vertex -0.07707 1.33714 0.45399
      vertex 1.33714 -0.07707 0.45399
    endloop
  endfacet
  facet normal 0.602916 0.602916 0.522479
    outer loop
      vertex -0.07707 1.33714 0.45399
      vertex 1.27917 -0.135045 0.587785
      vertex 1.33714 -0.07707 0.45399
    endloop
  endfacet
  facet normal 0.602916 0.602916 0.522479
    outer loop
      vertex 1.27917 -0.135045 0.587785
      vertex -0.07707 1.33714 0.45399
      vertex -0.135045 1.27917 0.587785
    endloop
  endfacet
  facet normal 0.53769 0.53769 0.649444
    outer loop
      vertex -0.135045 1.27917 0.587785
      vertex 1.20711 -0.207107 0.707107
      vertex 1.27917 -0.135045 0.587785
    endloop
  endfacet
  facet normal 0.53769 0.53769 0.649444
    outer loop
      vertex 1.20711 -0.207107 0.707107
      vertex -0.135045 1.27917 0.587785
      vertex -0.207107 1.20711 0.707107
    endloop
  endfacet
  facet normal 0.459218 0.459218 0.76042
    outer loop
      vertex -0.207107 1.20711 0.707107
      vertex 1.12273 -0.29148 0.809017
      vertex 1.20711 -0.207107 0.707107
    endloop
  endfacet
  facet normal 0.459218 0.459218 0.76042
    outer loop
      vertex 1.12273 -0.29148 0.809017
      vertex -0.207107 1.20711 0.707107
      vertex -0.29148 1.12273 0.809017
    endloop
  endfacet
  facet normal 0.369474 0.369474 0.85263
    outer loop
      vertex -0.29148 1.12273 0.809017
      vertex 1.02813 -0.386087 0.891007
      vertex 1.12273 -0.29148 0.809017
    endloop
  endfacet
  facet normal 0.369474 0.369474 0.85263
    outer loop
      vertex 1.02813 -0.386087 0.891007
      vertex -0.29148 1.12273 0.809017
      vertex -0.386087 1.02813 0.891007
    endloop
  endfacet
  facet normal 0.270594 0.270594 0.923882
    outer loop
      vertex -0.386087 1.02813 0.891007
      vertex 0.925615 -0.488599 0.951057
      vertex 1.02813 -0.386087 0.891007
    endloop
  endfacet
  facet normal 0.270594 0.270594 0.923882
    outer loop
      vertex 0.925615 -0.488599 0.951057
      vertex -0.386087 1.02813 0.891007
      vertex -0.488599 0.925615 0.951057
    endloop
  endfacet
  facet normal 0.165067 0.165067 0.972371
    outer loop
      vertex -0.488599 0.925615 0.951057
      vertex 0.817723 -0.596491 0.987688
      vertex 0.925615 -0.488599 0.951057
    endloop
  endfacet
  facet normal 0.165067 0.165067 0.972371
    outer loop
      vertex 0.817723 -0.596491 0.987688
      vertex -0.488599 0.925615 0.951057
      vertex -0.596491 0.817723 0.987688
    endloop
  endfacet
  facet normal 0.0554804 0.0554804 0.996917
    outer loop
      vertex -0.596491 0.817723 0.987688
      vertex 0.707107 -0.707107 1
      vertex 0.817723 -0.596491 0.987688
    endloop
  endfacet
  facet normal 0.0554804 0.0554804 0.996917
    outer loop
      vertex 0.707107 -0.707107 1
      vertex -0.596491 0.817723 0.987688
      vertex -0.707107 0.707107 1
    endloop
  endfacet
  facet normal -0.0554804 -0.0554804 0.996917
    outer loop
      vertex -0.707107 0.707107 1
      vertex 0.596491 -0.817723 0.987688
      vertex 0.707107 -0.707107 1
    endloop
  endfacet
  facet normal -0.0554804 -0.0554804 0.996917
    outer loop
      vertex 0.596491 -0.817723 0.987688
      vertex -0.707107 0.707107 1
      vertex -0.817723 0.596491 0.987688
    endloop
  endfacet
  facet normal -0.165067 -0.165067 0.972371
    outer loop
      vertex -0.817723 0.596491 0.987688
      vertex 0.488599 -0.925615 0.951057
      vertex 0.596491 -0.817723 0.987688
    endloop
  endfacet
  facet normal -0.165067 -0.165067 0.972371
    outer loop
      vertex 0.488599 -0.925615 0.951057
      vertex -0.817723 0.596491 0.987688
      vertex -0.925615 0.488599 0.951057
    endloop
  endfacet
  facet normal -0.270594 -0.270594 0.923882
    outer loop
      vertex -0.925615 0.488599 0.951057
      vertex 0.386087 -1.02813 0.891007
      vertex 0.488599 -0.925615 0.951057
    endloop
  endfacet
  facet normal -0.270594 -0.270594 0.923882
    outer loop
      vertex 0.386087 -1.02813 0.891007
      vertex -0.925615 0.488599 0.951057
      vertex -1.02813 0.386087 0.891007
    endloop
  endfacet
  facet normal -0.369474 -0.369474 0.85263
    outer loop
      vertex -1.02813 0.386087 0.891007
      vertex 0.29148 -1.12273 0.809017
      vertex 0.386087 -1.02813 0.891007
    endloop
  endfacet
  facet normal -0.369474 -0.369474 0.85263
    outer loop
      vertex 0.29148 -1.12273 0.809017
      vertex -1.02813 0.386087 0.891007
      vertex -1.12273 0.29148 0.809017
    endloop
  endfacet
  facet normal -0.459218 -0.459218 0.76042
    outer loop
      vertex -1.12273 0.29148 0.809017
      vertex 0.207107 -1.20711 0.707107
      vertex 0.29148 -1.12273 0.809017
    endloop
  endfacet
  facet normal -0.459218 -0.459218 0.76042
    outer loop
      vertex 0.207107 -1.20711 0.707107
      vertex -1.12273 0.29148 0.809017
      vertex -1.20711 0.207107 0.707107
    endloop
  endfacet
  facet normal -0.53769 -0.53769 0.649444
    outer loop
      vertex -1.20711 0.207107 0.707107
      vertex 0.135045 -1.27917 0.587785
      vertex 0.207107 -1.20711 0.707107
    endloop
  endfacet
  facet normal -0.53769 -0.53769 0.649444
    outer loop
      vertex 0.135045 -1.27917 0.587785
      vertex -1.20711 0.207107 0.707107
      vertex -1.27917 0.135045 0.587785
    endloop
  endfacet
  facet normal -0.602916 -0.602916 0.522479
    outer loop
      vertex 0.07707 -1.33714 0.45399
      vertex -1.27917 0.135045 0.587785
      vertex -1.33714 0.07707 0.45399
    endloop
  endfacet
  facet normal -0.602916 -0.602916 0.522479
    outer loop
      vertex -1.27917 0.135045 0.587785
      vertex 0.07707 -1.33714 0.45399
      vertex 0.135045 -1.27917 0.587785
    endloop
  endfacet
  facet normal -0.653272 -0.653272 0.382716
    outer loop
      vertex -1.37961 0.0346083 0.309017
      vertex 0.07707 -1.33714 0.45399
      vertex -1.33714 0.07707 0.45399
    endloop
  endfacet
  facet normal -0.653272 -0.653272 0.382716
    outer loop
      vertex 0.07707 -1.33714 0.45399
      vertex -1.37961 0.0346083 0.309017
      vertex 0.0346083 -1.37961 0.309017
    endloop
  endfacet
  facet normal -0.687571 -0.687571 0.233434
    outer loop
      vertex -1.40551 0.00870566 0.156434
      vertex 0.0346083 -1.37961 0.309017
      vertex -1.37961 0.0346083 0.309017
    endloop
  endfacet
  facet normal -0.687571 -0.687571 0.233434
    outer loop
      vertex 0.0346083 -1.37961 0.309017
      vertex -1.40551 0.00870566 0.156434
      vertex 0.00870566 -1.40551 0.156434
    endloop
  endfacet
  facet normal -0.704928 -0.704928 0.078434
    outer loop
      vertex -1.41421 0 0
      vertex 0.00870566 -1.40551 0.156434
      vertex -1.40551 0.00870566 0.156434
    endloop
  endfacet
  facet normal -0.704928 -0.704928 0.078434
    outer loop
      vertex 0.00870566 -1.40551 0.156434
      vertex -1.41421 0 0
      vertex 0 -1.41421 0
    endloop
  endfacet
  facet normal -0.704928 -0.704928 -0.078434
    outer loop
      vertex 0.00870566 -1.40551 -0.156434
      vertex -1.41421 0 0
      vertex -1.40551 0.00870566 -0.156434
    endloop
  endfacet
  facet normal -0.704928 -0.704928 -0.078434
    outer loop
      vertex -1.41421 0 0
      vertex 0.00870566 -1.40551 -0.156434
      vertex 0 -1.41421 0
    endloop
  endfacet
  facet normal -0.687571 -0.687571 -0.233434
    outer loop
      vertex 0.0346083 -1.37961 -0.309017
      vertex -1.40551 0.00870566 -0.156434
      vertex -1.37961 0.0346083 -0.309017
    endloop
  endfacet
  facet normal -0.687571 -0.687571 -0.233434
    outer loop
      vertex -1.40551 0.00870566 -0.156434
      vertex 0.0346083 -1.37961 -0.309017
      vertex 0.00870566 -1.40551 -0.156434
    endloop
  endfacet
  facet normal -0.653272 -0.653272 -0.382716
    outer loop
      vertex 0.07707 -1.33714 -0.45399
      vertex -1.37961 0.0346083 -0.309017
      vertex -1.33714 0.07707 -0.45399
    endloop
  endfacet
  facet normal -0.653272 -0.653272 -0.382716
    outer loop
      vertex -1.37961 0.0346083 -0.309017
      vertex 0.07707 -1.33714 -0.45399
      vertex 0.0346083 -1.37961 -0.309017
    endloop
  endfacet
  facet normal -0.602916 -0.602916 -0.522479
    outer loop
      vertex -1.27917 0.135045 -0.587785
      vertex 0.07707 -1.33714 -0.45399
      vertex -1.33714 0.07707 -0.45399
    endloop
  endfacet
  facet normal -0.602916 -0.602916 -0.522479
    outer loop
      vertex 0.07707 -1.33714 -0.45399
      vertex -1.27917 0.135045 -0.587785
      vertex 0.135045 -1.27917 -0.587785
    endloop
  endfacet
  facet normal -0.53769 -0.53769 -0.649444
    outer loop
      vertex 0.135045 -1.27917 -0.587785
      vertex -1.20711 0.207107 -0.707107
      vertex 0.207107 -1.20711 -0.707107
    endloop
  endfacet
  facet normal -0.53769 -0.53769 -0.649444
    outer loop
      vertex -1.20711 0.207107 -0.707107
      vertex 0.135045 -1.27917 -0.587785
      vertex -1.27917 0.135045 -0.587785
    endloop
  endfacet
  facet normal -0.459218 -0.459218 -0.76042
    outer loop
      vertex 0.207107 -1.20711 -0.707107
      vertex -1.12273 0.29148 -0.809017
      vertex 0.29148 -1.12273 -0.809017
    endloop
  endfacet
  facet normal -0.459218 -0.459218 -0.76042
    outer loop
      vertex -1.12273 0.29148 -0.809017
      vertex 0.207107 -1.20711 -0.707107
      vertex -1.20711 0.207107 -0.707107
    endloop
  endfacet
  facet normal -0.369474 -0.369474 -0.85263
    outer loop
      vertex 0.29148 -1.12273 -0.809017
      vertex -1.02813 0.386087 -0.891007
      vertex 0.386087 -1.02813 -0.891007
    endloop
  endfacet
  facet normal -0.369474 -0.369474 -0.85263
    outer loop
      vertex -1.02813 0.386087 -0.891007
      vertex 0.29148 -1.12273 -0.809017
      vertex -1.12273 0.29148 -0.809017
    endloop
  endfacet
  facet normal -0.270594 -0.270594 -0.923882
    outer loop
      vertex 0.386087 -1.02813 -0.891007
      vertex -0.925615 0.488599 -0.951057
      vertex 0.488599 -0.925615 -0.951057
    endloop
  endfacet
  facet normal -0.270594 -0.270594 -0.923882
    outer loop
      vertex -0.925615 0.488599 -0.951057
      vertex 0.386087 -1.02813 -0.891007
      vertex -1.02813 0.386087 -0.891007
    endloop
  endfacet
  facet normal -0.165067 -0.165067 -0.972371
    outer loop
      vertex 0.488599 -0.925615 -0.951057
      vertex -0.817723 0.596491 -0.987688
      vertex 0.596491 -0.817723 -0.987688
    endloop
  endfacet
  facet normal -0.165067 -0.165067 -0.972371
    outer loop
      vertex -0.817723 0.596491 -0.987688
      vertex 0.488599 -0.925615 -0.951057
      vertex -0.925615 0.488599 -0.951057
    endloop
  endfacet
  facet normal -0.0554804 -0.0554804 -0.996917
    outer loop
      vertex 0.596491 -0.817723 -0.987688
      vertex -0.707107 0.707107 -1
      vertex 0.707107 -0.707107 -1
    endloop
  endfacet
  facet normal -0.0554804 -0.0554804 -0.996917
    outer loop
      vertex -0.707107 0.707107 -1
      vertex 0.596491 -0.817723 -0.987688
      vertex -0.817723 0.596491 -0.987688
    endloop
  endfacet
  facet normal -0.707107 0.707107 2.55841e-05
    outer loop
      vertex -1.41421 0 0
      vertex 0 1.41421 0
      vertex -0.00870566 1.40551 -0.156434
    endloop
  endfacet
  facet normal -0.707107 0.707107 1.22344e-05
    outer loop
      vertex -1.40551 0.00870566 -0.156434
      vertex -0.00870566 1.40551 -0.156434
      vertex -0.0346083 1.37961 -0.309017
    endloop
  endfacet
  facet normal -0.707107 0.707107 -2.55841e-05
    outer loop
      vertex 0 1.41421 0
      vertex -1.41421 0 0
      vertex -0.00870566 1.40551 0.156434
    endloop
  endfacet
  facet normal -0.707107 0.707107 -4.04833e-05
    outer loop
      vertex -1.37961 0.0346083 -0.309017
      vertex -0.0346083 1.37961 -0.309017
      vertex -0.07707 1.33714 -0.45399
    endloop
  endfacet
  facet normal -0.707107 0.707107 -2.55841e-05
    outer loop
      vertex -1.40551 0.00870566 0.156434
      vertex -0.00870566 1.40551 0.156434
      vertex -1.41421 0 0
    endloop
  endfacet
  facet normal -0.707107 0.707107 2.6425e-05
    outer loop
      vertex -1.33714 0.07707 -0.45399
      vertex -0.07707 1.33714 -0.45399
      vertex -0.135045 1.27917 -0.587785
    endloop
  endfacet
  facet normal -0.707107 0.707107 -1.22344e-05
    outer loop
      vertex -0.00870566 1.40551 0.156434
      vertex -1.40551 0.00870566 0.156434
      vertex -0.0346083 1.37961 0.309017
    endloop
  endfacet
  facet normal -0.707107 0.707107 1.18521e-05
    outer loop
      vertex -1.27917 0.135045 -0.587785
      vertex -0.135045 1.27917 -0.587785
      vertex -0.207107 1.20711 -0.707107
    endloop
  endfacet
  facet normal -0.707107 0.707107 -1.22344e-05
    outer loop
      vertex -1.37961 0.0346083 0.309017
      vertex -0.0346083 1.37961 0.309017
      vertex -1.40551 0.00870566 0.156434
    endloop
  endfacet
  facet normal -0.707107 0.707107 -4.85698e-05
    outer loop
      vertex -1.20711 0.207107 -0.707107
      vertex -0.207107 1.20711 -0.707107
      vertex -0.29148 1.12273 -0.809017
    endloop
  endfacet
  facet normal -0.707107 0.707107 4.04833e-05
    outer loop
      vertex -0.0346083 1.37961 0.309017
      vertex -1.37961 0.0346083 0.309017
      vertex -0.07707 1.33714 0.45399
    endloop
  endfacet
  facet normal -0.707107 0.707107 6.03701e-05
    outer loop
      vertex -1.12273 0.29148 -0.809017
      vertex -0.29148 1.12273 -0.809017
      vertex -0.386087 1.02813 -0.891007
    endloop
  endfacet
  facet normal -0.707107 0.707107 4.04833e-05
    outer loop
      vertex -1.33714 0.07707 0.45399
      vertex -0.07707 1.33714 0.45399
      vertex -1.37961 0.0346083 0.309017
    endloop
  endfacet
  facet normal -0.707107 0.707107 -3.53259e-05
    outer loop
      vertex -1.02813 0.386087 -0.891007
      vertex -0.386087 1.02813 -0.891007
      vertex -0.488599 0.925615 -0.951057
    endloop
  endfacet
  facet normal -0.707107 0.707107 -2.6425e-05
    outer loop
      vertex -0.07707 1.33714 0.45399
      vertex -1.33714 0.07707 0.45399
      vertex -0.135045 1.27917 0.587785
    endloop
  endfacet
  facet normal -0.707107 0.707107 0
    outer loop
      vertex -0.925615 0.488599 -0.951057
      vertex -0.488599 0.925615 -0.951057
      vertex -0.596491 0.817723 -0.987688
    endloop
  endfacet
  facet normal -0.707107 0.707107 -2.6425e-05
    outer loop
      vertex -1.27917 0.135045 0.587785
      vertex -0.135045 1.27917 0.587785
      vertex -1.33714 0.07707 0.45399
    endloop
  endfacet
  facet normal -0.707107 0.707107 3.63261e-15
    outer loop
      vertex -0.925615 0.488599 -0.951057
      vertex -0.596491 0.817723 -0.987688
      vertex -0.707107 0.707107 -1
    endloop
  endfacet
  facet normal -0.707107 0.707107 -1.18521e-05
    outer loop
      vertex -0.135045 1.27917 0.587785
      vertex -1.27917 0.135045 0.587785
      vertex -0.207107 1.20711 0.707107
    endloop
  endfacet
  facet normal -0.707107 0.707107 -2.70223e-15
    outer loop
      vertex -0.925615 0.488599 -0.951057
      vertex -0.707107 0.707107 -1
      vertex -0.817723 0.596491 -0.987688
    endloop
  endfacet
  facet normal -0.707107 0.707107 -1.18521e-05
    outer loop
      vertex -1.20711 0.207107 0.707107
      vertex -0.207107 1.20711 0.707107
      vertex -1.27917 0.135045 0.587785
    endloop
  endfacet
  facet normal -0.707107 0.707107 -3.53259e-05
    outer loop
      vertex -0.488599 0.925615 -0.951057
      vertex -0.925615 0.488599 -0.951057
      vertex -1.02813 0.386087 -0.891007
    endloop
  endfacet
  facet normal -0.707107 0.707107 4.85698e-05
    outer loop
      vertex -0.207107 1.20711 0.707107
      vertex -1.20711 0.207107 0.707107
      vertex -0.29148 1.12273 0.809017
    endloop
  endfacet
  facet normal -0.707107 0.707107 6.03701e-05
    outer loop
      vertex -0.386087 1.02813 -0.891007
      vertex -1.02813 0.386087 -0.891007
      vertex -1.12273 0.29148 -0.809017
    endloop
  endfacet
  facet normal -0.707107 0.707107 4.85698e-05
    outer loop
      vertex -1.12273 0.29148 0.809017
      vertex -0.29148 1.12273 0.809017
      vertex -1.20711 0.207107 0.707107
    endloop
  endfacet
  facet normal -0.707107 0.707107 -4.85698e-05
    outer loop
      vertex -0.29148 1.12273 -0.809017
      vertex -1.12273 0.29148 -0.809017
      vertex -1.20711 0.207107 -0.707107
    endloop
  endfacet
  facet normal -0.707107 0.707107 2.55841e-05
    outer loop
      vertex -0.00870566 1.40551 -0.156434
      vertex -1.40551 0.00870566 -0.156434
      vertex -1.41421 0 0
    endloop
  endfacet
  facet normal -0.707107 0.707107 1.18521e-05
    outer loop
      vertex -0.207107 1.20711 -0.707107
      vertex -1.20711 0.207107 -0.707107
      vertex -1.27917 0.135045 -0.587785
    endloop
  endfacet
  facet normal -0.707107 0.707107 -6.03701e-05
    outer loop
      vertex -0.29148 1.12273 0.809017
      vertex -1.12273 0.29148 0.809017
      vertex -0.386087 1.02813 0.891007
    endloop
  endfacet
  facet normal -0.707107 0.707107 2.6425e-05
    outer loop
      vertex -0.135045 1.27917 -0.587785
      vertex -1.27917 0.135045 -0.587785
      vertex -1.33714 0.07707 -0.45399
    endloop
  endfacet
  facet normal -0.707107 0.707107 1.22344e-05
    outer loop
      vertex -0.0346083 1.37961 -0.309017
      vertex -1.37961 0.0346083 -0.309017
      vertex -1.40551 0.00870566 -0.156434
    endloop
  endfacet
  facet normal -0.707107 0.707107 -4.04833e-05
    outer loop
      vertex -0.07707 1.33714 -0.45399
      vertex -1.33714 0.07707 -0.45399
      vertex -1.37961 0.0346083 -0.309017
    endloop
  endfacet
  facet normal -0.707107 0.707107 -6.03701e-05
    outer loop
      vertex -1.02813 0.386087 0.891007
      vertex -0.386087 1.02813 0.891007
      vertex -1.12273 0.29148 0.809017
    endloop
  endfacet
  facet normal -0.707107 0.707107 3.53259e-05
    outer loop
      vertex -0.925615 0.488599 0.951057
      vertex -0.488599 0.925615 0.951057
      vertex -1.02813 0.386087 0.891007
    endloop
  endfacet
  facet normal -0.707107 0.707107 2.70223e-15
    outer loop
      vertex -0.707107 0.707107 1
      vertex -0.925615 0.488599 0.951057
      vertex -0.817723 0.596491 0.987688
    endloop
  endfacet
  facet normal -0.707107 0.707107 -3.63261e-15
    outer loop
      vertex -0.596491 0.817723 0.987688
      vertex -0.925615 0.488599 0.951057
      vertex -0.707107 0.707107 1
    endloop
  endfacet
  facet normal -0.707107 0.707107 0
    outer loop
      vertex -0.488599 0.925615 0.951057
      vertex -0.925615 0.488599 0.951057
      vertex -0.596491 0.817723 0.987688
    endloop
  endfacet
  facet normal -0.707107 0.707107 3.53259e-05
    outer loop
      vertex -0.386087 1.02813 0.891007
      vertex -1.02813 0.386087 0.891007
      vertex -0.488599 0.925615 0.951057
    endloop
  endfacet
  facet normal 0.707107 -0.707107 -2.55841e-05
    outer loop
      vertex 0 -1.41421 0
      vertex 1.41421 0 0
      vertex 1.40551 -0.00870566 0.156434
    endloop
  endfacet
  facet normal 0.707107 -0.707107 -1.22344e-05
    outer loop
      vertex 0.00870566 -1.40551 0.156434
      vertex 1.40551 -0.00870566 0.156434
      vertex 1.37961 -0.0346083 0.309017
    endloop
  endfacet
  facet normal 0.707107 -0.707107 2.55841e-05
    outer loop
      vertex 1.41421 0 0
      vertex 0 -1.41421 0
      vertex 1.40551 -0.00870566 -0.156434
    endloop
  endfacet
  facet normal 0.707107 -0.707107 4.04833e-05
    outer loop
      vertex 0.0346083 -1.37961 0.309017
      vertex 1.37961 -0.0346083 0.309017
      vertex 1.33714 -0.07707 0.45399
    endloop
  endfacet
  facet normal 0.707107 -0.707107 2.55841e-05
    outer loop
      vertex 0.00870566 -1.40551 -0.156434
      vertex 1.40551 -0.00870566 -0.156434
      vertex 0 -1.41421 0
    endloop
  endfacet
  facet normal 0.707107 -0.707107 -2.6425e-05
    outer loop
      vertex 0.07707 -1.33714 0.45399
      vertex 1.33714 -0.07707 0.45399
      vertex 1.27917 -0.135045 0.587785
    endloop
  endfacet
  facet normal 0.707107 -0.707107 1.22344e-05
    outer loop
      vertex 1.40551 -0.00870566 -0.156434
      vertex 0.00870566 -1.40551 -0.156434
      vertex 1.37961 -0.0346083 -0.309017
    endloop
  endfacet
  facet normal 0.707107 -0.707107 -1.18521e-05
    outer loop
      vertex 0.135045 -1.27917 0.587785
      vertex 1.27917 -0.135045 0.587785
      vertex 1.20711 -0.207107 0.707107
    endloop
  endfacet
  facet normal 0.707107 -0.707107 1.22344e-05
    outer loop
      vertex 0.0346083 -1.37961 -0.309017
      vertex 1.37961 -0.0346083 -0.309017
      vertex 0.00870566 -1.40551 -0.156434
    endloop
  endfacet
  facet normal 0.707107 -0.707107 4.85698e-05
    outer loop
      vertex 0.207107 -1.20711 0.707107
      vertex 1.20711 -0.207107 0.707107
      vertex 1.12273 -0.29148 0.809017
    endloop
  endfacet
  facet normal 0.707107 -0.707107 -4.04833e-05
    outer loop
      vertex 1.37961 -0.0346083 -0.309017
      vertex 0.0346083 -1.37961 -0.309017
      vertex 1.33714 -0.07707 -0.45399
    endloop
  endfacet
  facet normal 0.707107 -0.707107 -6.03701e-05
    outer loop
      vertex 0.29148 -1.12273 0.809017
      vertex 1.12273 -0.29148 0.809017
      vertex 1.02813 -0.386087 0.891007
    endloop
  endfacet
  facet normal 0.707107 -0.707107 -4.04833e-05
    outer loop
      vertex 0.07707 -1.33714 -0.45399
      vertex 1.33714 -0.07707 -0.45399
      vertex 0.0346083 -1.37961 -0.309017
    endloop
  endfacet
  facet normal 0.707107 -0.707107 3.53259e-05
    outer loop
      vertex 0.386087 -1.02813 0.891007
      vertex 1.02813 -0.386087 0.891007
      vertex 0.925615 -0.488599 0.951057
    endloop
  endfacet
  facet normal 0.707107 -0.707107 2.6425e-05
    outer loop
      vertex 1.33714 -0.07707 -0.45399
      vertex 0.07707 -1.33714 -0.45399
      vertex 1.27917 -0.135045 -0.587785
    endloop
  endfacet
  facet normal 0.707107 -0.707107 0
    outer loop
      vertex 0.488599 -0.925615 0.951057
      vertex 0.925615 -0.488599 0.951057
      vertex 0.817723 -0.596491 0.987688
    endloop
  endfacet
  facet normal 0.707107 -0.707107 2.6425e-05
    outer loop
      vertex 0.135045 -1.27917 -0.587785
      vertex 1.27917 -0.135045 -0.587785
      vertex 0.07707 -1.33714 -0.45399
    endloop
  endfacet
  facet normal 0.707107 -0.707107 -3.63261e-15
    outer loop
      vertex 0.488599 -0.925615 0.951057
      vertex 0.817723 -0.596491 0.987688
      vertex 0.707107 -0.707107 1
    endloop
  endfacet
  facet normal 0.707107 -0.707107 1.18521e-05
    outer loop
      vertex 1.27917 -0.135045 -0.587785
      vertex 0.135045 -1.27917 -0.587785
      vertex 1.20711 -0.207107 -0.707107
    endloop
  endfacet
  facet normal 0.707107 -0.707107 2.70223e-15
    outer loop
      vertex 0.488599 -0.925615 0.951057
      vertex 0.707107 -0.707107 1
      vertex 0.596491 -0.817723 0.987688
    endloop
  endfacet
  facet normal 0.707107 -0.707107 1.18521e-05
    outer loop
      vertex 0.207107 -1.20711 -0.707107
      vertex 1.20711 -0.207107 -0.707107
      vertex 0.135045 -1.27917 -0.587785
    endloop
  endfacet
  facet normal 0.707107 -0.707107 3.53259e-05
    outer loop
      vertex 0.925615 -0.488599 0.951057
      vertex 0.488599 -0.925615 0.951057
      vertex 0.386087 -1.02813 0.891007
    endloop
  endfacet
  facet normal 0.707107 -0.707107 -4.85698e-05
    outer loop
      vertex 1.20711 -0.207107 -0.707107
      vertex 0.207107 -1.20711 -0.707107
      vertex 1.12273 -0.29148 -0.809017
    endloop
  endfacet
  facet normal 0.707107 -0.707107 -6.03701e-05
    outer loop
      vertex 1.02813 -0.386087 0.891007
      vertex 0.386087 -1.02813 0.891007
      vertex 0.29148 -1.12273 0.809017
    endloop
  endfacet
  facet normal 0.707107 -0.707107 -4.85698e-05
    outer loop
      vertex 0.29148 -1.12273 -0.809017
      vertex 1.12273 -0.29148 -0.809017
      vertex 0.207107 -1.20711 -0.707107
    endloop
  endfacet
  facet normal 0.707107 -0.707107 4.85698e-05
    outer loop
      vertex 1.12273 -0.29148 0.809017
      vertex 0.29148 -1.12273 0.809017
      vertex 0.207107 -1.20711 0.707107
    endloop
  endfacet
  facet normal 0.707107 -0.707107 -2.55841e-05
    outer loop
      vertex 1.40551 -0.00870566 0.156434
      vertex 0.00870566 -1.40551 0.156434
      vertex 0 -1.41421 0
    endloop
  endfacet
  facet normal 0.707107 -0.707107 -1.18521e-05
    outer loop
      vertex 1.20711 -0.207107 0.707107
      vertex 0.207107 -1.20711 0.707107
      vertex 0.135045 -1.27917 0.587785
    endloop
  endfacet
  facet normal 0.707107 -0.707107 6.03701e-05
    outer loop
      vertex 1.12273 -0.29148 -0.809017
      vertex 0.29148 -1.12273 -0.809017
      vertex 1.02813 -0.386087 -0.891007
    endloop
  endfacet
  facet normal 0.707107 -0.707107 -2.6425e-05
    outer loop
      vertex 1.27917 -0.135045 0.587785
      vertex 0.135045 -1.27917 0.587785
      vertex 0.07707 -1.33714 0.45399
    endloop
  endfacet
  facet normal 0.707107 -0.707107 -1.22344e-05
    outer loop
      vertex 1.37961 -0.0346083 0.309017
      vertex 0.0346083 -1.37961 0.309017
      vertex 0.00870566 -1.40551 0.156434
    endloop
  endfacet
  facet normal 0.707107 -0.707107 4.04833e-05
    outer loop
      vertex 1.33714 -0.07707 0.45399
      vertex 0.07707 -1.33714 0.45399
      vertex 0.0346083 -1.37961 0.309017
    endloop
  endfacet
  facet normal 0.707107 -0.707107 6.03701e-05
    outer loop
      vertex 0.386087 -1.02813 -0.891007
      vertex 1.02813 -0.386087 -0.891007
      vertex 0.29148 -1.12273 -0.809017
    endloop
  endfacet
  facet normal 0.707107 -0.707107 -3.53259e-05
    outer loop
      vertex 0.488599 -0.925615 -0.951057
      vertex 0.925615 -0.488599 -0.951057
      vertex 0.386087 -1.02813 -0.891007
    endloop
  endfacet
  facet normal 0.707107 -0.707107 -2.70223e-15
    outer loop
      vertex 0.707107 -0.707107 -1
      vertex 0.488599 -0.925615 -0.951057
      vertex 0.596491 -0.817723 -0.987688
    endloop
  endfacet
  facet normal 0.707107 -0.707107 3.63261e-15
    outer loop
      vertex 0.817723 -0.596491 -0.987688
      vertex 0.488599 -0.925615 -0.951057
      vertex 0.707107 -0.707107 -1
    endloop
  endfacet
  facet normal 0.707107 -0.707107 0
    outer loop
      vertex 0.925615 -0.488599 -0.951057
      vertex 0.488599 -0.925615 -0.951057
      vertex 0.817723 -0.596491 -0.987688
    endloop
  endfacet
  facet normal 0.707107 -0.707107 -3.53259e-05
    outer loop
      vertex 1.02813 -0.386087 -0.891007
      vertex 0.386087 -1.02813 -0.891007
      vertex 0.925615 -0.488599 -0.951057
    endloop
  endfacet
endsolid OpenSCAD_Model
