solid OpenSCAD_Model
  facet normal 0.489199 -0.376826 -0.786566
    outer loop
      vertex -1.43306 -0.183058 -2.39277
      vertex 2.65606 -0.759008 0.426352
      vertex -1.06694 -2.31694 -1.14277
    endloop
  endfacet
  facet normal 0.489199 -0.376825 -0.786567
    outer loop
      vertex 2.65606 -0.759008 0.426352
      vertex -1.43306 -0.183058 -2.39277
      vertex 2.28994 1.37488 -0.823648
    endloop
  endfacet
  facet normal 0.5 0.5 0.707107
    outer loop
      vertex 2.28994 1.37488 -0.823648
      vertex -1.03994 -0.124876 2.59142
      vertex 2.65606 -0.759008 0.426352
    endloop
  endfacet
  facet normal 0.5 0.5 0.707107
    outer loop
      vertex -1.03994 -0.124876 2.59142
      vertex 2.28994 1.37488 -0.823648
      vertex -1.40606 2.00901 1.34142
    endloop
  endfacet
  facet normal -0.989199 -0.123175 0.0794593
    outer loop
      vertex -1.43306 -0.183058 -2.39277
      vertex -1.03994 -0.124876 2.59142
      vertex -1.40606 2.00901 1.34142
    endloop
  endfacet
  facet normal -0.989199 -0.123175 0.0794593
    outer loop
      vertex -1.03994 -0.124876 2.59142
      vertex -1.43306 -0.183058 -2.39277
      vertex -1.06694 -2.31694 -1.14277
    endloop
  endfacet
  facet normal -0.146447 0.853554 -0.5
    outer loop
      vertex -1.40606 2.00901 1.34142
      vertex 2.28994 1.37488 -0.823648
      vertex -1.43306 -0.183058 -2.39277
    endloop
  endfacet
  facet normal 0.146446 -0.853554 0.499999
    outer loop
      vertex -1.06694 -2.31694 -1.14277
      vertex 2.65606 -0.759008 0.426352
      vertex -1.03994 -0.124876 2.59142
    endloop
  endfacet
endsolid OpenSCAD_Model
