solid OpenSCAD_Model
  facet normal 1 0 0
    outer loop
      vertex 1 0 0.707107
      vertex 1 0 -0.707107
      vertex 1 0.707107 0
    endloop
  endfacet
  facet normal 1 0 -0
    outer loop
      vertex 1 0 -0.707107
      vertex 1 0 0.707107
      vertex 1 -0.707107 0
    endloop
  endfacet
  facet normal 0 -0.707107 0.707107
    outer loop
      vertex -1 -0.707107 0
      vertex -0.5 0 0.707107
      vertex -1 0 0.707107
    endloop
  endfacet
  facet normal 0 -0.707107 0.707107
    outer loop
      vertex -0.5 0 0.707107
      vertex -1 -0.707107 0
      vertex -0.5 -0.707107 0
    endloop
  endfacet
  facet normal 0 -0.707107 0.707107
    outer loop
      vertex 0.5 -0.707107 0
      vertex 1 0 0.707107
      vertex 0.5 0 0.707107
    endloop
  endfacet
  facet normal 0 -0.707107 0.707107
    outer loop
      vertex 1 0 0.707107
      vertex 0.5 -0.707107 0
      vertex 1 -0.707107 0
    endloop
  endfacet
  facet normal 0 0.707107 -0.707107
    outer loop
      vertex 1 0 -0.707107
      vertex 0.5 0.707107 0
      vertex 1 0.707107 0
    endloop
  endfacet
  facet normal 0 0.707107 -0.707107
    outer loop
      vertex 0.5 0.707107 0
      vertex 1 0 -0.707107
      vertex 0.5 0 -0.707107
    endloop
  endfacet
  facet normal 0 0.707107 -0.707107
    outer loop
      vertex -0.5 0 -0.707107
      vertex -1 0.707107 0
      vertex -0.5 0.707107 0
    endloop
  endfacet
  facet normal 0 0.707107 -0.707107
    outer loop
      vertex -1 0.707107 0
      vertex -0.5 0 -0.707107
      vertex -1 0 -0.707107
    endloop
  endfacet
  facet normal -1 0 0
    outer loop
      vertex -1 0 -0.707107
      vertex -1 0 0.707107
      vertex -1 0.707107 0
    endloop
  endfacet
  facet normal -1 0 -0
    outer loop
      vertex -1 0 0.707107
      vertex -1 0 -0.707107
      vertex -1 -0.707107 0
    endloop
  endfacet
  facet normal -0 0.707107 0.707107
    outer loop
      vertex -1 0.707107 0
      vertex -0.5 0 0.707107
      vertex -0.5 0.707107 0
    endloop
  endfacet
  facet normal 0 0.707107 0.707107
    outer loop
      vertex -0.5 0 0.707107
      vertex -1 0.707107 0
      vertex -1 0 0.707107
    endloop
  endfacet
  facet normal -0 0.707107 0.707107
    outer loop
      vertex -0.5 0.707107 0
      vertex 0.5 0.707107 0
      vertex 0.5 1.06066 -0.353553
    endloop
  endfacet
  facet normal 0 0.707107 0.707107
    outer loop
      vertex 0.5 0.707107 0
      vertex -0.5 0.707107 0
      vertex 0.5 0 0.707107
    endloop
  endfacet
  facet normal 0 0.707107 0.707107
    outer loop
      vertex -0.5 0.707107 0
      vertex 0.5 1.06066 -0.353553
      vertex -0.5 1.06066 -0.353553
    endloop
  endfacet
  facet normal -0 0.707107 0.707107
    outer loop
      vertex -0.5 0 0.707107
      vertex 0.5 0 0.707107
      vertex -0.5 0.707107 0
    endloop
  endfacet
  facet normal 0 0.707107 0.707107
    outer loop
      vertex 0.5 0 0.707107
      vertex -0.5 0 0.707107
      vertex 0.5 -0.353553 1.06066
    endloop
  endfacet
  facet normal 0 0.707107 0.707107
    outer loop
      vertex 0.5 -0.353553 1.06066
      vertex -0.5 0 0.707107
      vertex -0.5 -0.353553 1.06066
    endloop
  endfacet
  facet normal -0 0.707107 0.707107
    outer loop
      vertex 0.5 0.707107 0
      vertex 1 0 0.707107
      vertex 1 0.707107 0
    endloop
  endfacet
  facet normal 0 0.707107 0.707107
    outer loop
      vertex 1 0 0.707107
      vertex 0.5 0.707107 0
      vertex 0.5 0 0.707107
    endloop
  endfacet
  facet normal 0 -0.707107 -0.707107
    outer loop
      vertex -0.5 0.353553 -1.06066
      vertex 0.5 0 -0.707107
      vertex -0.5 0 -0.707107
    endloop
  endfacet
  facet normal 0 -0.707107 -0.707107
    outer loop
      vertex 0.5 0 -0.707107
      vertex -0.5 0.353553 -1.06066
      vertex 0.5 0.353553 -1.06066
    endloop
  endfacet
  facet normal 0 -0.707107 -0.707107
    outer loop
      vertex -0.5 0 -0.707107
      vertex -0.5 -0.707107 0
      vertex -1 -0.707107 0
    endloop
  endfacet
  facet normal 0 -0.707107 -0.707107
    outer loop
      vertex -0.5 -0.707107 0
      vertex -0.5 0 -0.707107
      vertex 0.5 -0.707107 0
    endloop
  endfacet
  facet normal -0 -0.707107 -0.707107
    outer loop
      vertex -0.5 0 -0.707107
      vertex -1 -0.707107 0
      vertex -1 0 -0.707107
    endloop
  endfacet
  facet normal -0 -0.707107 -0.707107
    outer loop
      vertex 0.5 0 -0.707107
      vertex 0.5 -0.707107 0
      vertex -0.5 0 -0.707107
    endloop
  endfacet
  facet normal 0 -0.707107 -0.707107
    outer loop
      vertex 0.5 -0.707107 0
      vertex 0.5 0 -0.707107
      vertex 1 -0.707107 0
    endloop
  endfacet
  facet normal 0 -0.707107 -0.707107
    outer loop
      vertex 1 -0.707107 0
      vertex 0.5 0 -0.707107
      vertex 1 0 -0.707107
    endloop
  endfacet
  facet normal 0 -0.707107 -0.707107
    outer loop
      vertex -0.5 -0.707107 0
      vertex 0.5 -1.06066 0.353553
      vertex -0.5 -1.06066 0.353553
    endloop
  endfacet
  facet normal 0 -0.707107 -0.707107
    outer loop
      vertex 0.5 -1.06066 0.353553
      vertex -0.5 -0.707107 0
      vertex 0.5 -0.707107 0
    endloop
  endfacet
  facet normal 0 0.707107 -0.707107
    outer loop
      vertex 0.5 0.353553 -1.06066
      vertex -0.5 1.06066 -0.353553
      vertex 0.5 1.06066 -0.353553
    endloop
  endfacet
  facet normal 0 0.707107 -0.707107
    outer loop
      vertex -0.5 1.06066 -0.353553
      vertex 0.5 0.353553 -1.06066
      vertex -0.5 0.353553 -1.06066
    endloop
  endfacet
  facet normal 1 0 0
    outer loop
      vertex 0.5 -0.353553 1.06066
      vertex 0.5 -0.707107 0
      vertex 0.5 0 0.707107
    endloop
  endfacet
  facet normal 1 0 -0
    outer loop
      vertex 0.5 -0.707107 0
      vertex 0.5 -0.353553 1.06066
      vertex 0.5 -1.06066 0.353553
    endloop
  endfacet
  facet normal 1 0 0
    outer loop
      vertex 0.5 0.707107 0
      vertex 0.5 0.353553 -1.06066
      vertex 0.5 1.06066 -0.353553
    endloop
  endfacet
  facet normal 1 0 -0
    outer loop
      vertex 0.5 0.353553 -1.06066
      vertex 0.5 0.707107 0
      vertex 0.5 0 -0.707107
    endloop
  endfacet
  facet normal -1 0 0
    outer loop
      vertex -0.5 0.353553 -1.06066
      vertex -0.5 0.707107 0
      vertex -0.5 1.06066 -0.353553
    endloop
  endfacet
  facet normal -1 0 0
    outer loop
      vertex -0.5 0.707107 0
      vertex -0.5 0.353553 -1.06066
      vertex -0.5 0 -0.707107
    endloop
  endfacet
  facet normal -1 0 0
    outer loop
      vertex -0.5 -0.707107 0
      vertex -0.5 -0.353553 1.06066
      vertex -0.5 0 0.707107
    endloop
  endfacet
  facet normal -1 0 0
    outer loop
      vertex -0.5 -0.353553 1.06066
      vertex -0.5 -0.707107 0
      vertex -0.5 -1.06066 0.353553
    endloop
  endfacet
  facet normal 0 -0.707107 0.707107
    outer loop
      vertex -0.5 -1.06066 0.353553
      vertex 0.5 -0.353553 1.06066
      vertex -0.5 -0.353553 1.06066
    endloop
  endfacet
  facet normal 0 -0.707107 0.707107
    outer loop
      vertex 0.5 -0.353553 1.06066
      vertex -0.5 -1.06066 0.353553
      vertex 0.5 -1.06066 0.353553
    endloop
  endfacet
endsolid OpenSCAD_Model
