solid OpenSCAD_Model
  facet normal 0.500001 0.866025 -0
    outer loop
      vertex 1.5 0 -0.75
      vertex -0.75 1.29904 0.75
      vertex 1.5 0 0.75
    endloop
  endfacet
  facet normal 0.500001 0.866025 0
    outer loop
      vertex -0.75 1.29904 0.75
      vertex 1.5 0 -0.75
      vertex -0.75 1.29904 -0.75
    endloop
  endfacet
  facet normal -1 0 0
    outer loop
      vertex -0.75 -1.29904 -0.75
      vertex -0.75 1.29904 0.75
      vertex -0.75 1.29904 -0.75
    endloop
  endfacet
  facet normal -1 -0 0
    outer loop
      vertex -0.75 1.29904 0.75
      vertex -0.75 -1.29904 -0.75
      vertex -0.75 -1.29904 0.75
    endloop
  endfacet
  facet normal 0.500001 -0.866025 0
    outer loop
      vertex -0.75 -1.29904 -0.75
      vertex 1.5 0 0.75
      vertex -0.75 -1.29904 0.75
    endloop
  endfacet
  facet normal 0.500001 -0.866025 0
    outer loop
      vertex 1.5 0 0.75
      vertex -0.75 -1.29904 -0.75
      vertex 1.5 0 -0.75
    endloop
  endfacet
  facet normal 0 0 -1
    outer loop
      vertex -0.75 -1.29904 -0.75
      vertex -0.75 1.29904 -0.75
      vertex 1.5 0 -0.75
    endloop
  endfacet
  facet normal 0 0 1
    outer loop
      vertex 1.5 0 0.75
      vertex -0.75 1.29904 0.75
      vertex -0.75 -1.29904 0.75
    endloop
  endfacet
endsolid OpenSCAD_Model
