solid OpenSCAD_Model
  facet normal 0.996917 0.0784615 0
    outer loop
      vertex 1 0 1
      vertex 0.987688 0.156434 -1
      vertex 0.987688 0.156434 1
    endloop
  endfacet
  facet normal 0.996917 0.0784615 0
    outer loop
      vertex 0.987688 0.156434 -1
      vertex 1 0 1
      vertex 1 0 -1
    endloop
  endfacet
  facet normal 0.972371 0.23344 0
    outer loop
      vertex 0.987688 0.156434 1
      vertex 0.951057 0.309017 -1
      vertex 0.951057 0.309017 1
    endloop
  endfacet
  facet normal 0.972371 0.23344 0
    outer loop
      vertex 0.951057 0.309017 -1
      vertex 0.987688 0.156434 1
      vertex 0.987688 0.156434 -1
    endloop
  endfacet
  facet normal 0.923879 0.382685 0
    outer loop
      vertex 0.951057 0.309017 1
      vertex 0.891007 0.45399 -1
      vertex 0.891007 0.45399 1
    endloop
  endfacet
  facet normal 0.923879 0.382685 0
    outer loop
      vertex 0.891007 0.45399 -1
      vertex 0.951057 0.309017 1
      vertex 0.951057 0.309017 -1
    endloop
  endfacet
  facet normal 0.852639 0.5225 0
    outer loop
      vertex 0.891007 0.45399 1
      vertex 0.809017 0.587785 -1
      vertex 0.809017 0.587785 1
    endloop
  endfacet
  facet normal 0.852639 0.5225 0
    outer loop
      vertex 0.809017 0.587785 -1
      vertex 0.891007 0.45399 1
      vertex 0.891007 0.45399 -1
    endloop
  endfacet
  facet normal 0.760408 0.649446 0
    outer loop
      vertex 0.809017 0.587785 1
      vertex 0.707107 0.707107 -1
      vertex 0.707107 0.707107 1
    endloop
  endfacet
  facet normal 0.760408 0.649446 0
    outer loop
      vertex 0.707107 0.707107 -1
      vertex 0.809017 0.587785 1
      vertex 0.809017 0.587785 -1
    endloop
  endfacet
  facet normal 0.649446 0.760408 -0
    outer loop
      vertex 0.707107 0.707107 -1
      vertex 0.587785 0.809017 1
      vertex 0.707107 0.707107 1
    endloop
  endfacet
  facet normal 0.649446 0.760408 0
    outer loop
      vertex 0.587785 0.809017 1
      vertex 0.707107 0.707107 -1
      vertex 0.587785 0.809017 -1
    endloop
  endfacet
  facet normal 0.5225 0.852639 -0
    outer loop
      vertex 0.587785 0.809017 -1
      vertex 0.45399 0.891007 1
      vertex 0.587785 0.809017 1
    endloop
  endfacet
  facet normal 0.5225 0.852639 0
    outer loop
      vertex 0.45399 0.891007 1
      vertex 0.587785 0.809017 -1
      vertex 0.45399 0.891007 -1
    endloop
  endfacet
  facet normal 0.382685 0.923879 -0
    outer loop
      vertex 0.45399 0.891007 -1
      vertex 0.309017 0.951057 1
      vertex 0.45399 0.891007 1
    endloop
  endfacet
  facet normal 0.382685 0.923879 0
    outer loop
      vertex 0.309017 0.951057 1
      vertex 0.45399 0.891007 -1
      vertex 0.309017 0.951057 -1
    endloop
  endfacet
  facet normal 0.23344 0.972371 -0
    outer loop
      vertex 0.309017 0.951057 -1
      vertex 0.156434 0.987688 1
      vertex 0.309017 0.951057 1
    endloop
  endfacet
  facet normal 0.23344 0.972371 0
    outer loop
      vertex 0.156434 0.987688 1
      vertex 0.309017 0.951057 -1
      vertex 0.156434 0.987688 -1
    endloop
  endfacet
  facet normal 0.0784615 0.996917 -0
    outer loop
      vertex 0.156434 0.987688 -1
      vertex 0 1 1
      vertex 0.156434 0.987688 1
    endloop
  endfacet
  facet normal 0.0784615 0.996917 0
    outer loop
      vertex 0 1 1
      vertex 0.156434 0.987688 -1
      vertex 0 1 -1
    endloop
  endfacet
  facet normal -0.0784615 0.996917 0
    outer loop
      vertex 0 1 -1
      vertex -0.156434 0.987688 1
      vertex 0 1 1
    endloop
  endfacet
  facet normal -0.0784615 0.996917 0
    outer loop
      vertex -0.156434 0.987688 1
      vertex 0 1 -1
      vertex -0.156434 0.987688 -1
    endloop
  endfacet
  facet normal -0.23344 0.972371 0
    outer loop
      vertex -0.156434 0.987688 -1
      vertex -0.309017 0.951057 1
      vertex -0.156434 0.987688 1
    endloop
  endfacet
  facet normal -0.23344 0.972371 0
    outer loop
      vertex -0.309017 0.951057 1
      vertex -0.156434 0.987688 -1
      vertex -0.309017 0.951057 -1
    endloop
  endfacet
  facet normal -0.382685 0.923879 0
    outer loop
      vertex -0.309017 0.951057 -1
      vertex -0.45399 0.891007 1
      vertex -0.309017 0.951057 1
    endloop
  endfacet
  facet normal -0.382685 0.923879 0
    outer loop
      vertex -0.45399 0.891007 1
      vertex -0.309017 0.951057 -1
      vertex -0.45399 0.891007 -1
    endloop
  endfacet
  facet normal -0.5225 0.852639 0
    outer loop
      vertex -0.45399 0.891007 -1
      vertex -0.587785 0.809017 1
      vertex -0.45399 0.891007 1
    endloop
  endfacet
  facet normal -0.5225 0.852639 0
    outer loop
      vertex -0.587785 0.809017 1
      vertex -0.45399 0.891007 -1
      vertex -0.587785 0.809017 -1
    endloop
  endfacet
  facet normal -0.649446 0.760408 0
    outer loop
      vertex -0.587785 0.809017 -1
      vertex -0.707107 0.707107 1
      vertex -0.587785 0.809017 1
    endloop
  endfacet
  facet normal -0.649446 0.760408 0
    outer loop
      vertex -0.707107 0.707107 1
      vertex -0.587785 0.809017 -1
      vertex -0.707107 0.707107 -1
    endloop
  endfacet
  facet normal -0.760408 0.649446 0
    outer loop
      vertex -0.809017 0.587785 -1
      vertex -0.707107 0.707107 1
      vertex -0.707107 0.707107 -1
    endloop
  endfacet
  facet normal -0.760408 0.649446 0
    outer loop
      vertex -0.707107 0.707107 1
      vertex -0.809017 0.587785 -1
      vertex -0.809017 0.587785 1
    endloop
  endfacet
  facet normal -0.852639 0.5225 0
    outer loop
      vertex -0.891007 0.45399 -1
      vertex -0.809017 0.587785 1
      vertex -0.809017 0.587785 -1
    endloop
  endfacet
  facet normal -0.852639 0.5225 0
    outer loop
      vertex -0.809017 0.587785 1
      vertex -0.891007 0.45399 -1
      vertex -0.891007 0.45399 1
    endloop
  endfacet
  facet normal -0.923879 0.382685 0
    outer loop
      vertex -0.951057 0.309017 -1
      vertex -0.891007 0.45399 1
      vertex -0.891007 0.45399 -1
    endloop
  endfacet
  facet normal -0.923879 0.382685 0
    outer loop
      vertex -0.891007 0.45399 1
      vertex -0.951057 0.309017 -1
      vertex -0.951057 0.309017 1
    endloop
  endfacet
  facet normal -0.972371 0.23344 0
    outer loop
      vertex -0.987688 0.156434 -1
      vertex -0.951057 0.309017 1
      vertex -0.951057 0.309017 -1
    endloop
  endfacet
  facet normal -0.972371 0.23344 0
    outer loop
      vertex -0.951057 0.309017 1
      vertex -0.987688 0.156434 -1
      vertex -0.987688 0.156434 1
    endloop
  endfacet
  facet normal -0.996917 0.0784615 0
    outer loop
      vertex -1 -0 -1
      vertex -0.987688 0.156434 1
      vertex -0.987688 0.156434 -1
    endloop
  endfacet
  facet normal -0.996917 0.0784615 0
    outer loop
      vertex -0.987688 0.156434 1
      vertex -1 -0 -1
      vertex -1 -0 1
    endloop
  endfacet
  facet normal -0.996917 -0.0784615 0
    outer loop
      vertex -0.987688 -0.156434 -1
      vertex -1 -0 1
      vertex -1 -0 -1
    endloop
  endfacet
  facet normal -0.996917 -0.0784615 0
    outer loop
      vertex -1 -0 1
      vertex -0.987688 -0.156434 -1
      vertex -0.987688 -0.156434 1
    endloop
  endfacet
  facet normal -0.972371 -0.23344 0
    outer loop
      vertex -0.951057 -0.309017 -1
      vertex -0.987688 -0.156434 1
      vertex -0.987688 -0.156434 -1
    endloop
  endfacet
  facet normal -0.972371 -0.23344 0
    outer loop
      vertex -0.987688 -0.156434 1
      vertex -0.951057 -0.309017 -1
      vertex -0.951057 -0.309017 1
    endloop
  endfacet
  facet normal -0.923879 -0.382685 0
    outer loop
      vertex -0.891007 -0.45399 -1
      vertex -0.951057 -0.309017 1
      vertex -0.951057 -0.309017 -1
    endloop
  endfacet
  facet normal -0.923879 -0.382685 0
    outer loop
      vertex -0.951057 -0.309017 1
      vertex -0.891007 -0.45399 -1
      vertex -0.891007 -0.45399 1
    endloop
  endfacet
  facet normal -0.852639 -0.5225 0
    outer loop
      vertex -0.809017 -0.587785 -1
      vertex -0.891007 -0.45399 1
      vertex -0.891007 -0.45399 -1
    endloop
  endfacet
  facet normal -0.852639 -0.5225 0
    outer loop
      vertex -0.891007 -0.45399 1
      vertex -0.809017 -0.587785 -1
      vertex -0.809017 -0.587785 1
    endloop
  endfacet
  facet normal -0.760408 -0.649446 0
    outer loop
      vertex -0.707107 -0.707107 -1
      vertex -0.809017 -0.587785 1
      vertex -0.809017 -0.587785 -1
    endloop
  endfacet
  facet normal -0.760408 -0.649446 0
    outer loop
      vertex -0.809017 -0.587785 1
      vertex -0.707107 -0.707107 -1
      vertex -0.707107 -0.707107 1
    endloop
  endfacet
  facet normal -0.649446 -0.760408 0
    outer loop
      vertex -0.707107 -0.707107 -1
      vertex -0.587785 -0.809017 1
      vertex -0.707107 -0.707107 1
    endloop
  endfacet
  facet normal -0.649446 -0.760408 -0
    outer loop
      vertex -0.587785 -0.809017 1
      vertex -0.707107 -0.707107 -1
      vertex -0.587785 -0.809017 -1
    endloop
  endfacet
  facet normal -0.5225 -0.852639 0
    outer loop
      vertex -0.587785 -0.809017 -1
      vertex -0.45399 -0.891007 1
      vertex -0.587785 -0.809017 1
    endloop
  endfacet
  facet normal -0.5225 -0.852639 -0
    outer loop
      vertex -0.45399 -0.891007 1
      vertex -0.587785 -0.809017 -1
      vertex -0.45399 -0.891007 -1
    endloop
  endfacet
  facet normal -0.382685 -0.923879 0
    outer loop
      vertex -0.45399 -0.891007 -1
      vertex -0.309017 -0.951057 1
      vertex -0.45399 -0.891007 1
    endloop
  endfacet
  facet normal -0.382685 -0.923879 -0
    outer loop
      vertex -0.309017 -0.951057 1
      vertex -0.45399 -0.891007 -1
      vertex -0.309017 -0.951057 -1
    endloop
  endfacet
  facet normal -0.23344 -0.972371 0
    outer loop
      vertex -0.309017 -0.951057 -1
      vertex -0.156434 -0.987688 1
      vertex -0.309017 -0.951057 1
    endloop
  endfacet
  facet normal -0.23344 -0.972371 -0
    outer loop
      vertex -0.156434 -0.987688 1
      vertex -0.309017 -0.951057 -1
      vertex -0.156434 -0.987688 -1
    endloop
  endfacet
  facet normal -0.0784615 -0.996917 0
    outer loop
      vertex -0.156434 -0.987688 -1
      vertex -0 -1 1
      vertex -0.156434 -0.987688 1
    endloop
  endfacet
  facet normal -0.0784615 -0.996917 -0
    outer loop
      vertex -0 -1 1
      vertex -0.156434 -0.987688 -1
      vertex -0 -1 -1
    endloop
  endfacet
  facet normal 0.0784615 -0.996917 0
    outer loop
      vertex -0 -1 -1
      vertex 0.156434 -0.987688 1
      vertex -0 -1 1
    endloop
  endfacet
  facet normal 0.0784615 -0.996917 0
    outer loop
      vertex 0.156434 -0.987688 1
      vertex -0 -1 -1
      vertex 0.156434 -0.987688 -1
    endloop
  endfacet
  facet normal 0.23344 -0.972371 0
    outer loop
      vertex 0.156434 -0.987688 -1
      vertex 0.309017 -0.951057 1
      vertex 0.156434 -0.987688 1
    endloop
  endfacet
  facet normal 0.23344 -0.972371 0
    outer loop
      vertex 0.309017 -0.951057 1
      vertex 0.156434 -0.987688 -1
      vertex 0.309017 -0.951057 -1
    endloop
  endfacet
  facet normal 0.382685 -0.923879 0
    outer loop
      vertex 0.309017 -0.951057 -1
      vertex 0.45399 -0.891007 1
      vertex 0.309017 -0.951057 1
    endloop
  endfacet
  facet normal 0.382685 -0.923879 0
    outer loop
      vertex 0.45399 -0.891007 1
      vertex 0.309017 -0.951057 -1
      vertex 0.45399 -0.891007 -1
    endloop
  endfacet
  facet normal 0.5225 -0.852639 0
    outer loop
      vertex 0.45399 -0.891007 -1
      vertex 0.587785 -0.809017 1
      vertex 0.45399 -0.891007 1
    endloop
  endfacet
  facet normal 0.5225 -0.852639 0
    outer loop
      vertex 0.587785 -0.809017 1
      vertex 0.45399 -0.891007 -1
      vertex 0.587785 -0.809017 -1
    endloop
  endfacet
  facet normal 0.649446 -0.760408 0
    outer loop
      vertex 0.587785 -0.809017 -1
      vertex 0.707107 -0.707107 1
      vertex 0.587785 -0.809017 1
    endloop
  endfacet
  facet normal 0.649446 -0.760408 0
    outer loop
      vertex 0.707107 -0.707107 1
      vertex 0.587785 -0.809017 -1
      vertex 0.707107 -0.707107 -1
    endloop
  endfacet
  facet normal 0.760408 -0.649446 0
    outer loop
      vertex 0.707107 -0.707107 1
      vertex 0.809017 -0.587785 -1
      vertex 0.809017 -0.587785 1
    endloop
  endfacet
  facet normal 0.760408 -0.649446 0
    outer loop
      vertex 0.809017 -0.587785 -1
      vertex 0.707107 -0.707107 1
      vertex 0.707107 -0.707107 -1
    endloop
  endfacet
  facet normal 0.852639 -0.5225 0
    outer loop
      vertex 0.809017 -0.587785 1
      vertex 0.891007 -0.45399 -1
      vertex 0.891007 -0.45399 1
    endloop
  endfacet
  facet normal 0.852639 -0.5225 0
    outer loop
      vertex 0.891007 -0.45399 -1
      vertex 0.809017 -0.587785 1
      vertex 0.809017 -0.587785 -1
    endloop
  endfacet
  facet normal 0.923879 -0.382685 0
    outer loop
      vertex 0.891007 -0.45399 1
      vertex 0.951057 -0.309017 -1
      vertex 0.951057 -0.309017 1
    endloop
  endfacet
  facet normal 0.923879 -0.382685 0
    outer loop
      vertex 0.951057 -0.309017 -1
      vertex 0.891007 -0.45399 1
      vertex 0.891007 -0.45399 -1
    endloop
  endfacet
  facet normal 0.972371 -0.23344 0
    outer loop
      vertex 0.951057 -0.309017 1
      vertex 0.987688 -0.156434 -1
      vertex 0.987688 -0.156434 1
    endloop
  endfacet
  facet normal 0.972371 -0.23344 0
    outer loop
      vertex 0.987688 -0.156434 -1
      vertex 0.951057 -0.309017 1
      vertex 0.951057 -0.309017 -1
    endloop
  endfacet
  facet normal 0.996917 -0.0784615 0
    outer loop
      vertex 0.987688 -0.156434 1
      vertex 1 0 -1
      vertex 1 0 1
    endloop
  endfacet
  facet normal 0.996917 -0.0784615 0
    outer loop
      vertex 1 0 -1
      vertex 0.987688 -0.156434 1
      vertex 0.987688 -0.156434 -1
    endloop
  endfacet
  facet normal 0 0 -1
    outer loop
      vertex 0.987688 -0.156434 -1
      vertex 0.987688 0.156434 -1
      vertex 1 0 -1
    endloop
  endfacet
  facet normal 0 0 -1
    outer loop
      vertex 0.951057 -0.309017 -1
      vertex 0.987688 0.156434 -1
      vertex 0.987688 -0.156434 -1
    endloop
  endfacet
  facet normal 0 0 -1
    outer loop
      vertex 0.951057 -0.309017 -1
      vertex 0.951057 0.309017 -1
      vertex 0.987688 0.156434 -1
    endloop
  endfacet
  facet normal 0 0 -1
    outer loop
      vertex 0.891007 -0.45399 -1
      vertex 0.951057 0.309017 -1
      vertex 0.951057 -0.309017 -1
    endloop
  endfacet
  facet normal 0 0 -1
    outer loop
      vertex 0.891007 -0.45399 -1
      vertex 0.891007 0.45399 -1
      vertex 0.951057 0.309017 -1
    endloop
  endfacet
  facet normal 0 0 -1
    outer loop
      vertex 0.809017 -0.587785 -1
      vertex 0.891007 0.45399 -1
      vertex 0.891007 -0.45399 -1
    endloop
  endfacet
  facet normal 0 0 -1
    outer loop
      vertex 0.809017 -0.587785 -1
      vertex 0.809017 0.587785 -1
      vertex 0.891007 0.45399 -1
    endloop
  endfacet
  facet normal 0 0 -1
    outer loop
      vertex 0.707107 -0.707107 -1
      vertex 0.809017 0.587785 -1
      vertex 0.809017 -0.587785 -1
    endloop
  endfacet
  facet normal 0 0 -1
    outer loop
      vertex 0.707107 -0.707107 -1
      vertex 0.707107 0.707107 -1
      vertex 0.809017 0.587785 -1
    endloop
  endfacet
  facet normal 0 0 -1
    outer loop
      vertex 0.587785 -0.809017 -1
      vertex 0.707107 0.707107 -1
      vertex 0.707107 -0.707107 -1
    endloop
  endfacet
  facet normal 0 0 -1
    outer loop
      vertex 0.587785 -0.809017 -1
      vertex 0.587785 0.809017 -1
      vertex 0.707107 0.707107 -1
    endloop
  endfacet
  facet normal 0 0 -1
    outer loop
      vertex 0.45399 -0.891007 -1
      vertex 0.587785 0.809017 -1
      vertex 0.587785 -0.809017 -1
    endloop
  endfacet
  facet normal 0 0 -1
    outer loop
      vertex 0.45399 -0.891007 -1
      vertex 0.45399 0.891007 -1
      vertex 0.587785 0.809017 -1
    endloop
  endfacet
  facet normal 0 0 -1
    outer loop
      vertex 0.309017 -0.951057 -1
      vertex 0.45399 0.891007 -1
      vertex 0.45399 -0.891007 -1
    endloop
  endfacet
  facet normal 0 0 -1
    outer loop
      vertex 0.309017 -0.951057 -1
      vertex 0.309017 0.951057 -1
      vertex 0.45399 0.891007 -1
    endloop
  endfacet
  facet normal 0 0 -1
    outer loop
      vertex 0.156434 -0.987688 -1
      vertex 0.309017 0.951057 -1
      vertex 0.309017 -0.951057 -1
    endloop
  endfacet
  facet normal 0 0 -1
    outer loop
      vertex 0.156434 -0.987688 -1
      vertex 0.156434 0.987688 -1
      vertex 0.309017 0.951057 -1
    endloop
  endfacet
  facet normal 0 0 -1
    outer loop
      vertex -0 -1 -1
      vertex 0.156434 0.987688 -1
      vertex 0.156434 -0.987688 -1
    endloop
  endfacet
  facet normal 0 0 -1
    outer loop
      vertex -0 -1 -1
      vertex 0 1 -1
      vertex 0.156434 0.987688 -1
    endloop
  endfacet
  facet normal 0 0 -1
    outer loop
      vertex -0.156434 -0.987688 -1
      vertex 0 1 -1
      vertex -0 -1 -1
    endloop
  endfacet
  facet normal 0 0 -1
    outer loop
      vertex -0.156434 -0.987688 -1
      vertex -0.156434 0.987688 -1
      vertex 0 1 -1
    endloop
  endfacet
  facet normal 0 0 -1
    outer loop
      vertex -0.309017 -0.951057 -1
      vertex -0.156434 0.987688 -1
      vertex -0.156434 -0.987688 -1
    endloop
  endfacet
  facet normal 0 0 -1
    outer loop
      vertex -0.309017 -0.951057 -1
      vertex -0.309017 0.951057 -1
      vertex -0.156434 0.987688 -1
    endloop
  endfacet
  facet normal 0 0 -1
    outer loop
      vertex -0.45399 -0.891007 -1
      vertex -0.309017 0.951057 -1
      vertex -0.309017 -0.951057 -1
    endloop
  endfacet
  facet normal 0 0 -1
    outer loop
      vertex -0.45399 -0.891007 -1
      vertex -0.45399 0.891007 -1
      vertex -0.309017 0.951057 -1
    endloop
  endfacet
  facet normal 0 0 -1
    outer loop
      vertex -0.587785 -0.809017 -1
      vertex -0.45399 0.891007 -1
      vertex -0.45399 -0.891007 -1
    endloop
  endfacet
  facet normal 0 0 -1
    outer loop
      vertex -0.587785 -0.809017 -1
      vertex -0.587785 0.809017 -1
      vertex -0.45399 0.891007 -1
    endloop
  endfacet
  facet normal 0 0 -1
    outer loop
      vertex -0.707107 -0.707107 -1
      vertex -0.587785 0.809017 -1
      vertex -0.587785 -0.809017 -1
    endloop
  endfacet
  facet normal 0 0 -1
    outer loop
      vertex -0.707107 -0.707107 -1
      vertex -0.707107 0.707107 -1
      vertex -0.587785 0.809017 -1
    endloop
  endfacet
  facet normal 0 0 -1
    outer loop
      vertex -0.809017 -0.587785 -1
      vertex -0.707107 0.707107 -1
      vertex -0.707107 -0.707107 -1
    endloop
  endfacet
  facet normal 0 0 -1
    outer loop
      vertex -0.809017 -0.587785 -1
      vertex -0.809017 0.587785 -1
      vertex -0.707107 0.707107 -1
    endloop
  endfacet
  facet normal 0 0 -1
    outer loop
      vertex -0.891007 -0.45399 -1
      vertex -0.809017 0.587785 -1
      vertex -0.809017 -0.587785 -1
    endloop
  endfacet
  facet normal 0 0 -1
    outer loop
      vertex -0.891007 -0.45399 -1
      vertex -0.891007 0.45399 -1
      vertex -0.809017 0.587785 -1
    endloop
  endfacet
  facet normal 0 0 -1
    outer loop
      vertex -0.951057 -0.309017 -1
      vertex -0.891007 0.45399 -1
      vertex -0.891007 -0.45399 -1
    endloop
  endfacet
  facet normal 0 0 -1
    outer loop
      vertex -0.951057 -0.309017 -1
      vertex -0.951057 0.309017 -1
      vertex -0.891007 0.45399 -1
    endloop
  endfacet
  facet normal 0 0 -1
    outer loop
      vertex -0.987688 -0.156434 -1
      vertex -0.951057 0.309017 -1
      vertex -0.951057 -0.309017 -1
    endloop
  endfacet
  facet normal 0 0 -1
    outer loop
      vertex -0.987688 -0.156434 -1
      vertex -0.987688 0.156434 -1
      vertex -0.951057 0.309017 -1
    endloop
  endfacet
  facet normal 0 -0 -1
    outer loop
      vertex -0.987688 0.156434 -1
      vertex -0.987688 -0.156434 -1
      vertex -1 -0 -1
    endloop
  endfacet
  facet normal 0 0 1
    outer loop
      vertex 0.987688 0.156434 1
      vertex 0.987688 -0.156434 1
      vertex 1 0 1
    endloop
  endfacet
  facet normal 0 0 1
    outer loop
      vertex 0.951057 0.309017 1
      vertex 0.987688 -0.156434 1
      vertex 0.987688 0.156434 1
    endloop
  endfacet
  facet normal 0 0 1
    outer loop
      vertex 0.951057 0.309017 1
      vertex 0.951057 -0.309017 1
      vertex 0.987688 -0.156434 1
    endloop
  endfacet
  facet normal 0 0 1
    outer loop
      vertex 0.891007 0.45399 1
      vertex 0.951057 -0.309017 1
      vertex 0.951057 0.309017 1
    endloop
  endfacet
  facet normal 0 0 1
    outer loop
      vertex 0.891007 0.45399 1
      vertex 0.891007 -0.45399 1
      vertex 0.951057 -0.309017 1
    endloop
  endfacet
  facet normal 0 0 1
    outer loop
      vertex 0.809017 0.587785 1
      vertex 0.891007 -0.45399 1
      vertex 0.891007 0.45399 1
    endloop
  endfacet
  facet normal 0 0 1
    outer loop
      vertex 0.809017 0.587785 1
      vertex 0.809017 -0.587785 1
      vertex 0.891007 -0.45399 1
    endloop
  endfacet
  facet normal 0 0 1
    outer loop
      vertex 0.707107 0.707107 1
      vertex 0.809017 -0.587785 1
      vertex 0.809017 0.587785 1
    endloop
  endfacet
  facet normal 0 0 1
    outer loop
      vertex 0.707107 0.707107 1
      vertex 0.707107 -0.707107 1
      vertex 0.809017 -0.587785 1
    endloop
  endfacet
  facet normal 0 0 1
    outer loop
      vertex 0.587785 0.809017 1
      vertex 0.707107 -0.707107 1
      vertex 0.707107 0.707107 1
    endloop
  endfacet
  facet normal 0 0 1
    outer loop
      vertex 0.587785 0.809017 1
      vertex 0.587785 -0.809017 1
      vertex 0.707107 -0.707107 1
    endloop
  endfacet
  facet normal 0 0 1
    outer loop
      vertex 0.45399 0.891007 1
      vertex 0.587785 -0.809017 1
      vertex 0.587785 0.809017 1
    endloop
  endfacet
  facet normal 0 0 1
    outer loop
      vertex 0.45399 0.891007 1
      vertex 0.45399 -0.891007 1
      vertex 0.587785 -0.809017 1
    endloop
  endfacet
  facet normal 0 0 1
    outer loop
      vertex 0.309017 0.951057 1
      vertex 0.45399 -0.891007 1
      vertex 0.45399 0.891007 1
    endloop
  endfacet
  facet normal 0 0 1
    outer loop
      vertex 0.309017 0.951057 1
      vertex 0.309017 -0.951057 1
      vertex 0.45399 -0.891007 1
    endloop
  endfacet
  facet normal 0 0 1
    outer loop
      vertex 0.156434 0.987688 1
      vertex 0.309017 -0.951057 1
      vertex 0.309017 0.951057 1
    endloop
  endfacet
  facet normal 0 0 1
    outer loop
      vertex 0.156434 0.987688 1
      vertex 0.156434 -0.987688 1
      vertex 0.309017 -0.951057 1
    endloop
  endfacet
  facet normal 0 0 1
    outer loop
      vertex 0 1 1
      vertex 0.156434 -0.987688 1
      vertex 0.156434 0.987688 1
    endloop
  endfacet
  facet normal 0 0 1
    outer loop
      vertex 0 1 1
      vertex -0 -1 1
      vertex 0.156434 -0.987688 1
    endloop
  endfacet
  facet normal -0 0 1
    outer loop
      vertex -0.156434 0.987688 1
      vertex -0 -1 1
      vertex 0 1 1
    endloop
  endfacet
  facet normal 0 0 1
    outer loop
      vertex -0.156434 0.987688 1
      vertex -0.156434 -0.987688 1
      vertex -0 -1 1
    endloop
  endfacet
  facet normal -0 0 1
    outer loop
      vertex -0.309017 0.951057 1
      vertex -0.156434 -0.987688 1
      vertex -0.156434 0.987688 1
    endloop
  endfacet
  facet normal 0 0 1
    outer loop
      vertex -0.309017 0.951057 1
      vertex -0.309017 -0.951057 1
      vertex -0.156434 -0.987688 1
    endloop
  endfacet
  facet normal -0 0 1
    outer loop
      vertex -0.45399 0.891007 1
      vertex -0.309017 -0.951057 1
      vertex -0.309017 0.951057 1
    endloop
  endfacet
  facet normal 0 0 1
    outer loop
      vertex -0.45399 0.891007 1
      vertex -0.45399 -0.891007 1
      vertex -0.309017 -0.951057 1
    endloop
  endfacet
  facet normal -0 0 1
    outer loop
      vertex -0.587785 0.809017 1
      vertex -0.45399 -0.891007 1
      vertex -0.45399 0.891007 1
    endloop
  endfacet
  facet normal 0 0 1
    outer loop
      vertex -0.587785 0.809017 1
      vertex -0.587785 -0.809017 1
      vertex -0.45399 -0.891007 1
    endloop
  endfacet
  facet normal -0 0 1
    outer loop
      vertex -0.707107 0.707107 1
      vertex -0.587785 -0.809017 1
      vertex -0.587785 0.809017 1
    endloop
  endfacet
  facet normal 0 0 1
    outer loop
      vertex -0.707107 0.707107 1
      vertex -0.707107 -0.707107 1
      vertex -0.587785 -0.809017 1
    endloop
  endfacet
  facet normal -0 0 1
    outer loop
      vertex -0.809017 0.587785 1
      vertex -0.707107 -0.707107 1
      vertex -0.707107 0.707107 1
    endloop
  endfacet
  facet normal 0 0 1
    outer loop
      vertex -0.809017 0.587785 1
      vertex -0.809017 -0.587785 1
      vertex -0.707107 -0.707107 1
    endloop
  endfacet
  facet normal -0 0 1
    outer loop
      vertex -0.891007 0.45399 1
      vertex -0.809017 -0.587785 1
      vertex -0.809017 0.587785 1
    endloop
  endfacet
  facet normal 0 0 1
    outer loop
      vertex -0.891007 0.45399 1
      vertex -0.891007 -0.45399 1
      vertex -0.809017 -0.587785 1
    endloop
  endfacet
  facet normal -0 0 1
    outer loop
      vertex -0.951057 0.309017 1
      vertex -0.891007 -0.45399 1
      vertex -0.891007 0.45399 1
    endloop
  endfacet
  facet normal 0 0 1
    outer loop
      vertex -0.951057 0.309017 1
      vertex -0.951057 -0.309017 1
      vertex -0.891007 -0.45399 1
    endloop
  endfacet
  facet normal -0 0 1
    outer loop
      vertex -0.987688 0.156434 1
      vertex -0.951057 -0.309017 1
      vertex -0.951057 0.309017 1
    endloop
  endfacet
  facet normal 0 0 1
    outer loop
      vertex -0.987688 0.156434 1
      vertex -0.987688 -0.156434 1
      vertex -0.951057 -0.309017 1
    endloop
  endfacet
  facet normal 0 -0 1
    outer loop
      vertex -0.987688 -0.156434 1
      vertex -0.987688 0.156434 1
      vertex -1 -0 1
    endloop
  endfacet
endsolid OpenSCAD_Model
