solid OpenSCAD_Model
  facet normal 0.57735 0.57735 0.57735
    outer loop
      vertex 0 2 -1
      vertex 0 0 1
      vertex 2 0 -1
    endloop
  endfacet
  facet normal -0.57735 0.57735 0.57735
    outer loop
      vertex -2 -0 -1
      vertex 0 0 1
      vertex 0 2 -1
    endloop
  endfacet
  facet normal -0.57735 -0.57735 0.57735
    outer loop
      vertex -0 -2 -1
      vertex 0 0 1
      vertex -2 -0 -1
    endloop
  endfacet
  facet normal 0.57735 -0.57735 0.57735
    outer loop
      vertex 2 0 -1
      vertex 0 0 1
      vertex -0 -2 -1
    endloop
  endfacet
  facet normal 0 0 -1
    outer loop
      vertex -0 -2 -1
      vertex 0 2 -1
      vertex 2 0 -1
    endloop
  endfacet
  facet normal 0 0 -1
    outer loop
      vertex 0 2 -1
      vertex -0 -2 -1
      vertex -2 -0 -1
    endloop
  endfacet
endsolid OpenSCAD_Model
