{"accessors" : [{"bufferView" : 0, "byteOffset" : 0, "componentType" : 5123, "count" : 1680, "type" : "SCALAR", "max" : [1679], "min" : [0]}, {"bufferView" : 1, "byteOffset" : 0, "componentType" : 5126, "count" : 1680, "type" : "VEC3", "max" : [6.820209980010986, 3.8202099800109863, 2.810659885406494], "min" : [-5.320209980010986, -5.320209980010986, -5.681980133056641], "name" : "POSITION"}, {"bufferView" : 1, "byteOffset" : 12, "componentType" : 5126, "count" : 1680, "type" : "VEC3", "max" : [1.0000044107437134, 0.9969225525856018, 1.0000044107437134], "min" : [-1.0000044107437134, -0.9969225525856018, -1.0000044107437134], "name" : "NORMAL"}], "asset" : {"generator" : "Aspose.3D 24.4.1", "version" : "2.0"}, "buffers" : [{"uri" : "data:application/octet-stream;base64,", "byteLength" : 43688}], "bufferViews" : [{"buffer" : 0, "byteOffset" : 0, "byteLength" : 3360, "target" : 34963}, {"buffer" : 0, "byteOffset" : 3364, "byteLength" : 40320, "byteStride" : 24, "target" : 34962}], "meshes" : [{"primitives" : [{"attributes" : {"POSITION" : 1, "NORMAL" : 2}, "indices" : 0, "mode" : 4}], "name" : "OpenSCAD_Model"}], "nodes" : [{"mesh" : 0, "name" : "OpenSCAD_Model"}], "scene" : 0, "scenes" : [{"nodes" : [0]}]}