{"accessors" : [{"bufferView" : 0, "byteOffset" : 0, "componentType" : 5123, "count" : 17616, "type" : "SCALAR", "max" : [17615], "min" : [0]}, {"bufferView" : 1, "byteOffset" : 0, "componentType" : 5126, "count" : 17616, "type" : "VEC3", "max" : [5.746920108795166, 5.746920108795166, 2.246920108795166], "min" : [-5.746920108795166, -5.746920108795166, -2.246920108795166], "name" : "POSITION"}, {"bufferView" : 1, "byteOffset" : 12, "componentType" : 5126, "count" : 17616, "type" : "VEC3", "max" : [1.0000044107437134, 1.0000044107437134, 1.0000044107437134], "min" : [-1.0000044107437134, -1.0000044107437134, -1.0000044107437134], "name" : "NORMAL"}], "asset" : {"generator" : "Aspose.3D 24.4.1", "version" : "2.0"}, "buffers" : [{"uri" : "data:application/octet-stream;base64,", "byteLength" : 458024}], "bufferViews" : [{"buffer" : 0, "byteOffset" : 0, "byteLength" : 35232, "target" : 34963}, {"buffer" : 0, "byteOffset" : 35236, "byteLength" : 422784, "byteStride" : 24, "target" : 34962}], "meshes" : [{"primitives" : [{"attributes" : {"POSITION" : 1, "NORMAL" : 2}, "indices" : 0, "mode" : 4}], "name" : "OpenSCAD_Model"}], "nodes" : [{"mesh" : 0, "name" : "OpenSCAD_Model"}], "scene" : 0, "scenes" : [{"nodes" : [0]}]}