{"accessors" : [{"bufferView" : 0, "byteOffset" : 0, "componentType" : 5123, "count" : 834, "type" : "SCALAR", "max" : [833], "min" : [0]}, {"bufferView" : 1, "byteOffset" : 0, "componentType" : 5126, "count" : 834, "type" : "VEC3", "max" : [8.5, 8.165060043334961, 6.25], "min" : [-7.25, -8.165060043334961, -6.25], "name" : "POSITION"}, {"bufferView" : 1, "byteOffset" : 12, "componentType" : 5126, "count" : 834, "type" : "VEC3", "max" : [0.9969225525856018, 0.9969224333763123, 1.0000044107437134], "min" : [-1.0000044107437134, -0.9969224333763123, -1.0000044107437134], "name" : "NORMAL"}], "asset" : {"generator" : "Aspose.3D 24.4.1", "version" : "2.0"}, "buffers" : [{"uri" : "data:application/octet-stream;base64,", "byteLength" : 21692}], "bufferViews" : [{"buffer" : 0, "byteOffset" : 0, "byteLength" : 1668, "target" : 34963}, {"buffer" : 0, "byteOffset" : 1672, "byteLength" : 20016, "byteStride" : 24, "target" : 34962}], "meshes" : [{"primitives" : [{"attributes" : {"POSITION" : 1, "NORMAL" : 2}, "indices" : 0, "mode" : 4}], "name" : "OpenSCAD_Model"}], "nodes" : [{"mesh" : 0, "name" : "OpenSCAD_Model"}], "scene" : 0, "scenes" : [{"nodes" : [0]}]}